<svg version="1" xmlns="http://www.w3.org/2000/svg" width="801.333" height="801.333" viewBox="0 0 601.000000 601.000000"><path d="M274.5 1c-73 7.4-136.1 36.8-186 86.7-66.8 66.8-98.6 162-85 255 12.5 85 59.6 159.8 130.5 207 78.5 52.3 176.4 64.5 266.4 33.3 85.9-29.8 154.4-99 184.4-186.2 30.5-88.6 17.3-186.9-35.7-265.7-10-14.8-21.7-28.9-36-43.2C466.2 41 406.5 11.5 340.5 2.5 326.4.6 287.6-.3 274.5 1zm53.6 42.6c11.1 3.5 17.1 17.2 12 27.3-4.1 8-11.4 12.1-21.8 12.1h-5.1l-.7 8.7c-.9 12.6-1.3 13.1-11.1 11.8l-5.4-.6v-6.7c0-13.9 2.3-52.7 3.2-53.9 1.3-1.6 22.6-.7 28.9 1.3zM268 73c11.7 15 19.5 25.9 19.5 27.2 0 1.8-.9 2.4-5 3.5-7.5 1.9-9.1 1.7-12.2-2.1l-2.8-3.4-9.5 2.1c-5.2 1.2-10 2.5-10.6 2.9-.7.4-1.5 2.3-1.8 4.2-.8 4.3-1.8 5.1-8.9 6.7-4.3.9-6.1.9-6.9.1-.8-.8.7-9.3 5.7-32.4 3.8-17.2 7.3-31.9 7.8-32.6C246 45.7 248.4 48 268 73zm105.8-21.9c2.3.7 4.7 1.7 5.2 2.4 1 1.2-13.1 56-14.9 57.8-1.3 1.3-12.7-1.1-14.2-2.9-.9-1.1.6-7.9 6.2-29.1 4.1-15.2 8-28.2 8.8-29 .7-.8 2.1-1.2 3-.9.9.3 3.5 1 5.9 1.7zM421 69c11.6 5.8 18 9.6 18 10.5 0 2.8-5 11.5-6.6 11.5-.8 0-3.6-1.1-6.3-2.5l-4.8-2.4-10.1 20.4c-5.6 11.3-10.6 20.5-11.2 20.5-2.4 0-13-6.1-13-7.5 0-.8 4.3-10.1 9.5-20.5s9.5-19.3 9.5-19.8c0-.4-2.5-2-5.5-3.5s-5.5-3.2-5.5-3.9c0-2.8 5-11.8 6.5-11.8.8 0 9.6 4.1 19.5 9zm-219.1.9c1 .6 1.2 2.1.7 5.2-1 6.8-2.7 9.4-6.1 9.5-8.1.2-8.8.5-13.1 4.8-4.4 4.4-5 6.1-4.5 13.1.5 6.5 8.3 13.5 15 13.5 4.5 0 9.4-2.3 12-5.6 1.2-1.6 3-3.9 3.9-5.1 1.7-2.2 1.8-2.2 7.5-.6 7.5 2.1 8.2 3.6 5.3 10-3 6.4-8.6 11.9-15.6 15.2-4.6 2.2-6.9 2.6-14 2.6-7.2 0-9.2-.4-13.5-2.7-9.2-4.8-14.4-11.4-17-21.5-4.1-15.9 6.2-33.4 22.5-38.4 3.5-1 15.2-1.1 16.9 0zM472.4 104c6.9 2.6 13.4 8.3 17.1 15.1 2.2 4.2 3 7 3.3 13 .6 10-1.4 16.2-7.5 22.9-12.3 13.7-31.5 14.7-45.2 2.4-7.3-6.5-10.5-13.8-10.6-23.4 0-6.5.4-8.4 3.3-14.2 3.8-7.8 9.2-12.9 16.6-15.7 6.8-2.7 16-2.7 23-.1zm-337.8 26.7c6.9 2.3 15.5 11 17.9 18.2 2.5 7.7 2.2 16.9-.8 23.3-2.8 6.2-17.2 24.2-19.6 24.6-1.7.2-47.1-36.2-47.1-37.8 0-.5 3.7-5.6 8.3-11.2 8.2-10.2 15-15.9 21.1-17.7 5.1-1.5 14.9-1.2 20.2.6zm190.5-.1c54.9 7.6 103.3 42.4 128.3 92.2 13.9 27.9 20.4 60.7 17.8 90.4-8.3 92.7-86.1 161.4-178.2 157.5-25-1.1-46-6.6-69.5-18.2-79-39.2-115-134-82.1-215.8 23-57.1 73-96.6 134.1-106.1 12.3-1.9 36-1.9 49.6 0zm200.6 32.6c1.8 3.1 3.1 6.2 2.8 7-.3.7-9.1 6.2-19.5 12.3-10.5 6-19 11.2-19 11.5 0 .3 2.2 4.3 4.9 8.9 2.7 4.7 4.7 9 4.4 9.7-.6 1.6-9 6.4-11.2 6.4-2.4 0-19.7-29.9-18.4-31.9 1.3-2 49.5-30.1 51.2-29.8.8.1 3 2.8 4.8 5.9zm-404 39c2.9 1.2 5.4 2.6 5.6 3.3.3.6-2.6 8.3-6.2 17-5.2 12.3-7.2 16.1-8.7 16.3-2.3.3-53.4-21.1-54.4-22.9-.9-1.4 3.3-12 5.2-13.2.8-.6 8.5 2.2 21.7 7.8 11.2 4.7 20.7 8.3 21.1 7.8.4-.4 2.2-4.4 4-8.8 1.8-4.4 3.4-8.3 3.7-8.8.7-1.1 2.4-.8 8 1.5zm-33 46.4c18.7 9 23.7 34.8 9.7 50.3-2.6 2.9-6.9 6.2-10.2 7.8-7.7 3.8-19.1 3.9-26.7.3-20.2-9.8-24.8-36.6-9-52.5 9.4-9.3 24.1-11.8 36.2-5.9zm442 4.1c5 2.3 8 9.1 6.4 14.4-2.3 7.6-10.7 11.6-17.6 8.3-9.3-4.4-10-17.1-1.2-22.4 3.9-2.4 7.8-2.5 12.4-.3zm-6.1 87.3c4.8 5.5 9.4 10.2 10.3 10.4 11.6 3.2 19.1 5.9 19.1 6.7 0 2.9-2.4 9.8-3.5 10.3-.8.3-5.7-.8-11.1-2.3l-9.8-2.8-11.9 3.9c-6.6 2.1-12.5 3.8-13.2 3.8-2.1 0-2.3-2.2-.8-7.6l1.5-5.1 6.9-2.2 7-2.2-1.8-2.3c-1-1.3-3.1-4-4.7-6l-2.9-3.7 1.7-5.5c1-3.2 2.3-5.4 3.1-5.4.8 0 5.4 4.5 10.1 10zM90.8 356c11 5 9.8 21.6-1.8 25.1-14.2 4.3-24.4-14.7-12.7-23.5 5.3-4 8.5-4.3 14.5-1.6zm432 25.3c10.6 5.4 19.6 10.5 19.9 11.4 1 2.6-1.9 4.1-17.4 9l-15.2 4.8 9.3 4.7c5.1 2.6 9.6 5.3 9.9 6.1.8 2.1-3.6 9.2-5.8 9.5-1.1.1-10.5-4.2-21-9.7-16.5-8.6-19-10.2-19-12.2 0-2.2 1.2-2.8 11-6.1 6.1-2.1 13-4.5 15.3-5.4l4.4-1.6-8.4-4.5c-4.5-2.4-8.7-4.8-9.1-5.2-1.2-1.2 4.1-11.3 5.6-10.9.7.2 9.9 4.7 20.5 10.1zM140 428.7c4.9 6 9 11.5 9 12.5 0 1.7-5.4 6.8-7.3 6.8-.7 0-3.8-2.8-6.9-6.2-4.8-5.3-6-6.1-7.4-5.2-2.9 1.7-2.7 2.8 1.6 7.6 2.2 2.5 4 5.4 3.9 6.5 0 1.7-4.1 5.7-7.1 6.8-1.3.5-6.7-4.9-10-9.9-.4-.5-2.9 1-6.1 3.7-3.1 2.6-6.2 4.7-7 4.7-1.6 0-7.7-6.4-7.7-8 0-1.2 2.5-3.4 20.3-18.4 7.6-6.4 14.3-11.6 14.7-11.6.5 0 5 4.8 10 10.7zm351.7.8c22.9 5.9 26.3 6.9 26.3 8.3 0 .5-1.6 2.7-3.6 5-3.3 3.8-3.9 4.2-7.2 3.6-3.5-.5-3.9-.2-8.3 5.3-4.7 5.7-4.7 5.7-3.1 9 1.5 3.2 1.5 3.4-1.5 7-1.6 2.1-3.8 3.9-4.7 4.1-2.5.5-24.3-44.2-22.6-46.3.7-.8 1.6-1.5 2.1-1.5.4 0 10.6 2.5 22.6 5.5zM461.9 448c9.7 4.9 11 18.1 2.7 25.9-1.4 1.4-2.6 2.7-2.6 3.1 0 .3 2 3 4.5 5.9 3.6 4.3 4.3 5.6 3.5 7.1-1.3 2.5-6.7 6.2-8.3 5.8-1.6-.3-29.7-32.4-29.7-33.8 0-.9 5.6-6.4 11.6-11.4 6.1-5 12-5.9 18.3-2.6zm-297 6c8.5 4.3 13.1 11.8 13.1 21.5 0 14.1-10 24.1-24 24-17.8-.2-29.1-17.9-21.6-34.1 5.7-12.2 20.7-17.5 32.5-11.4zm271.3 33c7.6 9.6 13.7 18.2 13.6 19-.4 1.9-8.1 6.2-9.9 5.5-.8-.3-3.2-3.1-5.4-6.1-2.2-3.1-4.2-5.7-4.5-5.9-.3-.2-.4 4.1-.2 9.5.3 9 .1 10-1.6 10.9-1.7.9-3.3.2-9.3-3.7-4.1-2.7-7.9-5.1-8.6-5.5-.6-.4.2 2.7 1.8 6.9s2.7 8 2.3 8.5c-.7 1.2-8 4.9-9.6 4.9-1.6 0-16.2-40.8-15.6-43.7.6-3.5 4.3-2.3 15.8 5.2l11.5 7.5.3-14.2c.3-14.2 1-17.2 4-16.6.9.2 7.8 8.2 15.4 17.8zm-225.6-4.2c8.5 4.4 12.8 11.6 12.9 21.7 0 5.9-.4 7.8-2.8 11.8-5.5 9.3-15.9 14-25.7 11.7-16.4-3.9-24.2-20.6-16.5-34.9 4.9-9 12.7-13.4 22.6-12.7 3 .2 7.3 1.3 9.5 2.4zm40.6 15.3c12.9 3.5 19.8 11.5 19.8 23.2 0 6.6-1.5 10.8-5.6 15.6-3.5 4.2-11.6 8.1-16.7 8.1-5.4 0-22.5-4.1-23.1-5.5-.5-1.3 8.7-41.5 9.9-43.5.8-1.4 4.2-.9 15.7 2.1zm121.3-.9c11.2 4.1 17.8 17.4 14.5 29.2-2.6 9.4-13.4 17.6-23 17.5-13.8-.1-24-10.4-24-24.2 0-17.3 16-28.4 32.5-22.5zm-43.7 8.4c6.3 3.1 6.7 5.5 1.8 10.3-3.3 3.2-3.5 3.3-5.7 1.7-3.3-2.3-10-2.1-13.2.4-3.4 2.7-4.8 7.9-3.6 12.5 1.3 4.7 5.2 7.5 10.3 7.5 2.3 0 5.1-.7 6.2-1.5 1-.8 2.5-1.5 3.2-1.5 2.1 0 8.2 5.3 8.2 7.2 0 2.6-7.4 7.5-13.1 8.7-19.7 4.2-35.4-16.4-26.4-34.6 5.9-11.8 20.4-16.6 32.3-10.7z"/><path d="M314 62.4c0 4 .2 4.4 3 5 6.4 1.2 11.1-3.5 7.4-7.5-1.2-1.3-3-1.9-6.1-1.9H314v4.4zM251.3 82.1c-.5 2.4-.9 4.5-.7 4.7.1.2 1.8 0 3.8-.3 3.8-.8 3.8-1.2-.3-6.4l-1.9-2.5-.9 4.5zM456.5 119.1c-1.7.4-4.6 2.4-6.5 4.4-2.9 3-3.4 4.3-3.7 9.2-.5 6.8 1.6 11.1 6.9 14.3 3.5 2.1 10 2.6 14 1.1 3.6-1.4 7.7-6 8.8-10 2-7.7-3.3-17-11-19.1-4-1.1-4.4-1.1-8.5.1zM116.5 146.3c-3 1.4-9.5 8-9.5 9.6 0 .5 5.3 5.2 11.9 10.4l11.8 9.5 2.4-3.1c1.3-1.7 2.9-4 3.6-5.2 1.7-2.8 1.6-10-.2-13.5-3.5-6.8-13.5-10.6-20-7.7zM299.1 140.8c.2.6 4 5.5 8.4 10.9 24.2 29.6 29.8 36.6 28.9 36.1-.5-.3-9.7-11-20.4-23.8l-19.5-23.2-10.4.6c-5.7.3-10.8.9-11.2 1.3-1 1 31 41.9 33.4 42.6.9.3 1.7 1.3 1.7 2.2 0 1.3 13.4 19.2 20.8 27.7.8 1 1.3 1.8 1 1.8-.3 0-5.4-5.7-11.3-12.8-5.9-7-11.2-12.9-11.7-13.1-1.1-.4-5.8 3.8-5.8 5.1 0 .7 38.7 49 51.7 64.5l4.3 5.1 5-1.3c4-1.1 5.3-1.1 6.3-.1.6.7 2.5 6.4 4 12.7 2.8 11.5 2.8 11.5 11.3 22.4 4.7 6.1 6.3 8.5 3.7 5.5-2.6-3-6.2-7-8-9l-3.2-3.5 4.8 18.7c2.6 10.4 5.1 19.1 5.4 19.5.4.4 8.7-1.4 18.5-3.8l17.9-4.5-26.4-33.5c-14.5-18.4-28.4-36-30.9-39.2-2.5-3.1-4.3-5.7-4.1-5.7.5 0 36 43.4 69.7 85.3l18.4 22.9 1.4-3.9c.7-2.1 2.2-7.6 3.3-12.2l1.9-8.4-6.2-8.1c-3.4-4.4-10.5-13.5-15.7-20.1-13.4-17-9.2-12.8 7.4 7.4 7.7 9.3 14.3 17 14.6 17 .3.1.9-2.7 1.3-6 .6-6.1.6-6.2-3.6-11.3-6.4-7.9-6.8-8.8-1.1-2.7l5.3 5.6v-8.2c0-7.1-.3-8.5-2.3-11-7.2-8.7-17.9-22.6-16.6-21.6.8.7 5.3 5.7 10 11.2 4.6 5.5 8.6 9.8 8.7 9.6.7-.7-2-18-3-19.2-.5-.7-.7-1.7-.3-2.2 1.2-2-5.5-24.3-8.2-27.4-.9-.9-1.3-2-1-2.3.8-.8-7.4-17.2-13.1-25.9-9.6-14.9-25.2-31.4-38.9-41.1-7.1-5.1-22.4-14.4-23.6-14.4-.5 0 1.9 3.4 5.3 7.5s5.9 7.5 5.6 7.5c-.2 0-3.8-4-8-8.8-6.9-8-8.3-9-14.7-11.5-3.9-1.6-7.5-2.7-7.9-2.5-.5.2 3.4 5.6 8.6 12 5.2 6.5 9.3 11.8 9 11.8-.2 0-5.5-5.8-11.6-13-11.7-13.5-11.9-13.6-22-15.6-4-.9-4.1-1 5.2 10.8 3.8 4.9 6.7 8.8 6.4 8.8-.2 0-4.3-4.6-9.1-10.3-4.8-5.6-9.5-10.5-10.4-10.8-.9-.4-4.3-1-7.6-1.4-5.8-.7-5.9-.6-4.4 1.1.9 1.1 5.3 6.6 9.8 12.4l8.2 10.5-6.8-7.5c-15.9-17.5-15.1-16.9-22.2-17.6-4.4-.5-6.2-.4-6 .4zm51 25.9c1.3 1.6 1.2 1.7-.3.4-1.7-1.3-2.2-2.1-1.4-2.1.2 0 1 .8 1.7 1.7zm-14 1c1.3 1.6 1.2 1.7-.3.4-1.7-1.3-2.2-2.1-1.4-2.1.2 0 1 .8 1.7 1.7zm36.4 8.3c1 1.1 1.6 2 1.3 2-.3 0-1.3-.9-2.3-2-1-1.1-1.6-2-1.3-2 .3 0 1.3.9 2.3 2zM340 191.5c1.3 1.4 2.1 2.5 1.8 2.5-.2 0-1.5-1.1-2.8-2.5-1.3-1.4-2.1-2.5-1.8-2.5.2 0 1.5 1.1 2.8 2.5zm-5.5 28.5c1 1.1 1.6 2 1.3 2-.3 0-1.3-.9-2.3-2-1-1.1-1.6-2-1.3-2 .3 0 1.3.9 2.3 2zm111 16c1 1.1 1.6 2 1.3 2-.3 0-1.3-.9-2.3-2-1-1.1-1.6-2-1.3-2 .3 0 1.3.9 2.3 2zm-84.4 4.7c1.3 1.6 1.2 1.7-.3.4-1.7-1.3-2.2-2.1-1.4-2.1.2 0 1 .8 1.7 1.7zm94 25.5c1.7 3.1.3 2-3.7-3-3.6-4.5-3.6-4.6-.5-1.7 1.8 1.6 3.7 3.8 4.2 4.7zm-16.6-1.2c1 1.1 1.6 2 1.3 2-.3 0-1.3-.9-2.3-2-1-1.1-1.6-2-1.3-2 .3 0 1.3.9 2.3 2zm9.6 30.7c1.3 1.6 1.2 1.7-.3.4-1-.7-1.8-1.5-1.8-1.7 0-.8.8-.3 2.1 1.3zM396.5 313c1 1.1 1.6 2 1.3 2-.3 0-1.3-.9-2.3-2-1-1.1-1.6-2-1.3-2 .3 0 1.3.9 2.3 2z"/><path d="M262.8 144.8c-1.5.6.8 3.9 13 18.8l14.7 18.1 5.9 1.1c3.3.6 6.1 1 6.2.9.2-.2-7.1-9.1-16.2-20-17.3-20.6-18-21.1-23.6-18.9zM250.6 148.3l-2.8 1.2 11.3 14.1 11.4 14.2 7.3 1.4c4 .9 7.1 1.2 7 .7-.2-.4-6.4-8-13.8-16.8-14.1-16.8-14.7-17.2-20.4-14.8zM241.2 151.7c-4 1.7-4.5.8 9.9 18.8 8.1 10.3 11 13.3 10.9 11.5-.4-4.4-.1-5 2.6-5 2.3 0 1.6-1.1-7.6-12.5-5.6-6.8-10.7-12.8-11.3-13.3-.8-.6-2.5-.4-4.5.5zM230.3 156.5c-1.8.8-3.3 1.6-3.3 1.9 0 .9 41.2 51.7 41.6 51.4.1-.2-.6-4-1.8-8.5-2-8-2.2-8.4-16.5-25.9-7.9-9.9-15-18.4-15.6-19.1-.9-.9-1.9-.8-4.4.2zM212.5 166.9c-5 3.3-10.1 6.9-11.4 7.9l-2.3 1.9 22.8 28.9c30.7 39 30 38.1 28.2 36.4-1.9-1.9-49.8-57.6-51.7-60.1-1.9-2.7-3.2-2.4-7 1.4l-3.2 3.4 4.2 5.4c2.3 3 6.4 8.2 9.2 11.6 7.9 10.1 4.8 7.2-5.3-4.9l-9.3-11.2-5.3 6c-2.9 3.2-5.8 6.9-6.5 8.1-1.3 2.3-2.5.7 34.1 47 21.1 26.8 15.2 20.2-32.1-36.4-2.4-2.8-4.8-5.2-5.4-5.2-.5-.1-2 1.5-3.2 3.3l-2.2 3.5 8.1 10.3c10.6 13.5 11.3 14.5 5.3 7.9-2.7-3.1-7.2-8-10-10.9l-5-5.3-2.4 4.4-2.4 4.5 9.3 11.8c5.2 6.6 12.7 16.1 16.7 21.1 12.6 15.8 7.3 10.3-10.3-10.8l-16.8-20.1-2.3 4.7-2.4 4.7 2.7 3.6c1.5 2 5.8 7.6 9.6 12.4 3.8 4.9 6.6 8.8 6.4 8.8-.2 0-4.3-4.7-9-10.5-4.8-5.7-9.1-10.7-9.6-11-.6-.4-1.7 1-2.6 3l-1.5 3.7 5.3 6.8c25.2 32.5 71.4 90.5 71.6 90 .1-.4-2-9.4-4.7-19.9-2.7-10.6-4.8-19.8-4.5-20.4.2-.7 4.8-2.4 10.2-3.7l9.7-2.5.7-11c.4-7.6.3-11.4-.5-12.5-.9-1.2-.9-1.3.3-.3 1.1 1 2.1-.4 5.6-7.5 4.9-9.9 10.9-17.3 18.3-22.3 2.8-1.9 5-3.6 5.1-3.9 0-.3-7.1-9.4-15.6-20.4-8.6-10.9-15.1-19.6-14.6-19.2.6.3 8.1 9.2 16.7 19.6 8.6 10.5 16 19 16.5 19 .4 0 1.7-.8 2.9-1.8 2.2-1.7 2.2-1.7.5-9-1.8-7.2-2-7.4-25.5-36.5-13.1-16-24.4-29.3-25.1-29.5-.8-.1-5.4 2.4-10.3 5.7zm11 100.1c1 1.1 1.6 2 1.3 2-.3 0-1.3-.9-2.3-2-1-1.1-1.6-2-1.3-2 .3 0 1.3.9 2.3 2zm12 2c1 1.1 1.6 2 1.3 2-.3 0-1.3-.9-2.3-2-1-1.1-1.6-2-1.3-2 .3 0 1.3.9 2.3 2zm-40 1c1 1.1 1.6 2 1.3 2-.3 0-1.3-.9-2.3-2-1-1.1-1.6-2-1.3-2 .3 0 1.3.9 2.3 2zM296.3 201c-1.8 1.6-3.3 3.3-3.3 3.6 0 .4 5.7 7.7 12.6 16.3 10.6 13.1 13.5 16 18 18.3 7.4 3.9 17.2 13.4 21.8 21.2 2.2 3.7 4.2 6.8 4.5 7 1.5.9 6.2-.7 5.7-2-.6-1.5-54.9-67.3-55.6-67.3-.3 0-2 1.3-3.7 2.9zM287.1 209l-3.4 2.9 7.7 9.8 7.7 9.8 7.4 1.6c4.7 1 7.2 1.1 6.7.5-.8-1.4-22.3-27.6-22.5-27.6-.1.1-1.7 1.4-3.6 3zM284 218.1c0 2.4 2.9 12.2 3.8 13.1.5.5 2.5.8 4.5.6l3.5-.3-5.9-7.4c-3.2-4-5.9-6.7-5.9-6zM147.1 255.1c-1 3.4-1 4.4.2 5.7 1.6 2 28.9 35.2 61.9 75.5 12.6 15.3 22.8 27.2 22.8 26.5 0-.7-.9-4.5-1.9-8.5-1.6-6.3-2.8-8.3-9.3-16-4.1-4.8-21.7-26.2-39.1-47.5-17.4-21.3-32.1-38.9-32.5-39.2-.5-.3-1.5 1.3-2.1 3.5z"/><path d="M144.1 268.1c-1.1 5-1.1 5.1 2.6 9.7l3.7 4.7-3.6-3.3c-2-1.9-3.8-3-4.1-2.5-.3.4-.6 3.1-.8 6l-.4 5.1 30.9 37.9c17 20.8 30.3 37.3 29.5 36.6-.8-.6-14.7-16.7-30.9-35.6l-29.5-34.5-.3 5.9-.3 5.9 12.8 15.7c30.1 37 34.4 42.3 34 42.3-.2 0-10.7-11.9-23.2-26.5s-23-26.5-23.2-26.5c-.7 0 .9 12.5 1.9 14.4.6 1 6.2 8.5 12.6 16.5 20 25.2 22.6 28.6 20.6 26.9-1-.9-8.6-9.3-16.9-18.6-8.2-9.4-15.1-16.9-15.3-16.7-.2.2.9 4.9 2.4 10.5 2.2 8 3.6 11.4 6.7 15.4 2.7 3.3 3.1 4.3 1.4 2.7-1.5-1.4-2.7-2-2.7-1.4 0 2.2 11.8 24.1 17 31.7 14.6 21.2 35.7 39.9 56.8 50.5 6.9 3.5 6.9 3.2.9-4.4-2.7-3.4-1.6-2.5 3.4 2.7 6.8 7.1 8.1 8 15.7 10.8 8.3 3 8.8 2.8 4.9-2-1.2-1.4-.2-.6 2.1 1.6 3.5 3.6 5.3 4.4 11.4 5.8 12.1 2.6 21.1 3.7 28 3.4l6.6-.3-10.9-13.8c-6-7.5-10.7-13.7-10.5-13.7.2 0 5.7 6.3 12.2 14l11.9 14h6.5c11 0 17.2-1.1 16.5-2.8-.4-1.2-.3-1.3.9-.2.9.6 2.1 1 2.8.7.8-.3-.7-2.4-4-5.5-6.3-6.1-13-8.8-24.2-10.1-8.7-1-13-3.2-14.8-7.8-.6-1.6-4.1-14.7-7.7-29.3-3.7-14.5-6.7-26.6-6.8-26.7-.4-.3-53.9 13.6-54.5 14.2-.3.3.9 6.7 2.7 14.1 1.8 7.4 3.1 13.7 2.9 14-.3.2-3.4-1.8-6.9-4.5-12.6-9.7-11.7-8.5-15-21.5-3.4-13.6-3.4-13.6 4.6-15.5 2.8-.7 10.3-2.6 16.8-4.3 10.3-2.7 11.7-3.3 11.7-5.2 0-1.3-12.3-16.5-32.8-40.7-18-21.2-37.7-44.5-43.9-51.7L145.2 263l-1.1 5.1zm8 16.6c1.3 1.6 1.2 1.7-.3.4-1.7-1.3-2.2-2.1-1.4-2.1.2 0 1 .8 1.7 1.7zm28 86c1.3 1.6 1.2 1.7-.3.4-1-.7-1.8-1.5-1.8-1.7 0-.8.8-.3 2.1 1.3zM356 282.8c0 .4 1.3 2.3 3 4.2l2.9 3.5-.9-3.2c-.4-1.8-1.1-3.7-1.5-4.3-.7-1.2-3.5-1.4-3.5-.2zM348.3 284.3c-2.3.7-4.5 1.5-4.8 1.9-.4.4 5 7.9 12 16.8 7 8.8 12.9 15.9 13.1 15.8.1-.2-1.1-6-2.8-12.8-2.7-10.8-3.7-13.2-7.2-17.7-4.5-5.7-4.3-5.6-10.3-4zM334.8 287.7c-1 .2-1.8.8-1.8 1.1 0 1.1 37.1 47.2 38 47.2 1.6 0 1.8-3 .5-7.8-1.5-6-.7-4.8-17.4-25-13.6-16.3-14.2-16.9-19.3-15.5zM321.7 291c-3.8 1-7 2-7.2 2.2-.2.2 3.5 5.3 8.3 11.3l8.7 10.9.6-4.3c.6-4.5 2.8-7.1 6.1-7.1 1 0 1.8-.3 1.8-.6 0-.5-7.5-9.8-10.9-13.5-.3-.3-3.7.2-7.4 1.1zM288.2 299.5c-11.1 2.9-20.7 5.5-21.3 5.7-.9.3 15.4 21.8 16.6 21.8.2 0 .2-.7-.1-1.5-1-2.5 1.6-7.2 4.5-8.5 3.5-1.4 7.8-.4 9.6 2.4.7 1.1 2.3 5.8 3.5 10.4 1.9 7.4 2.7 9.1 8.3 15.7 3.4 4 6.3 7.2 6.4 7.1.1-.1-1.4-6.4-3.3-14.1-2.7-10.7-4.2-14.7-6.2-17-2.4-2.6-2.4-2.7-.3-1l2.4 2-.6-2.3c-.7-3.1 1-8 3.3-9.2 3.1-1.6 6.7-1.1 9.4 1.2 2.1 1.9 3.4 5.6 7.1 20.8 2.6 10.1 5.1 19 5.7 19.7.5.7.7 1.6.4 2.1-.2.4 1 6.7 2.8 13.9 2.9 11.3 3.9 13.7 7.2 17.7 2.1 2.5 4 4.6 4.1 4.6.2 0 .8-1.2 1.3-2.6.7-1.8.5-4.4-.6-9.2-1.9-7.6-2.9-9.4-9.6-17.5-6.5-7.9-6-8.6.8-1.2 3.2 3.5 5.3 5.2 5 4-.3-1.1-2.4-9.4-4.6-18.5-2.3-9.1-4.5-18.1-5.1-20.1-1.1-4.4-22.3-31.3-24.7-31.6-1-.1-10.8 2.3-22 5.2z"/><path d="M249.3 309.4c-6.7 1.8-12.6 3.5-13 3.9-.8.9 11.6 52 12.9 52.8.6.4 4.5-.3 8.9-1.4 6.4-1.6 7.9-2.3 7.9-3.8 0-1.1-1.6-8.5-3.6-16.5-4-15.8-3.9-17.7 1-20.9 2.1-1.4 3.1-1.5 6.1-.5 2 .7 4 2.2 4.6 3.3.7 1.8 9.2 35 11.3 44.7 3.5 15.5 7.8 28.6 10.1 30.9 2.6 2.5 2.6 2.6 4.1.7.7-1.1 1.4-3.1 1.4-4.5s-3.6-16.6-7.9-33.7l-7.8-31.1-10.8-13.6c-5.9-7.6-11.3-13.7-11.9-13.6-.6 0-6.6 1.5-13.3 3.3zM351.4 325.9c1.8 6.9 3.9 12.7 4.6 12.9.7.3 3.7-.1 6.6-.7l5.4-1.2-6.2-7.6c-3.5-4.2-7.9-9.4-10-11.7l-3.6-4.1 3.2 12.4zM427 326.5c0 .6 1.6 7.1 3.5 14.5l3.4 13.4-3.8 8.1c-6.7 13.9-6.2 14-10.6-3.6-2.1-8.5-4.3-15.9-4.9-16.6-.8-.9-4.7-.3-17.1 2.8-8.8 2.2-16.1 4.2-16.3 4.4-.3.2 9.5 13 13.6 17.7.8 1 1.2 1.8.9 1.8-.4 0-14.3-16.1-16.3-18.9-.4-.5-14.7 3-15.6 3.8-.7.6 30.9 40.8 43.4 55.2l4.6 5.4 3.1-3c1.7-1.6 2.9-3.5 2.6-4.3-.2-.7-.1-1.1.4-.7 1.3.8 8.3-7.5 15.7-18.6 6.1-9.1 16.4-29.4 16.4-32.1 0-.7-4.8-7.4-10.6-14.8-11.9-15.2-12.4-15.8-12.4-14.5zM398.5 372c1 1.1 1.6 2 1.3 2-.3 0-1.3-.9-2.3-2-1-1.1-1.6-2-1.3-2 .3 0 1.3.9 2.3 2zM304 341.6c0 .3.9 4.2 2.1 8.6 1.7 7 2.8 9.1 8.1 15.5 3.3 4.1 6.2 7.2 6.4 7 .2-.2-.7-4.1-1.9-8.8-1.9-7.2-3.1-9.5-8.1-15.7-5.6-6.9-6.6-7.9-6.6-6.6zM359 355.5c0 1.4 9.1 37.2 10 39.3.6 1.3 6.7 9.1 13.7 17.5 6.9 8.4 12.8 15.4 12.9 15.6.4.5 6.3-4.2 6.3-5.1.1-.3-1.1-2.1-2.5-4l-2.6-3.3 3.1 3.3 3.1 3.3 3.5-2.7c1.9-1.4 3.5-2.9 3.5-3.3 0-1-48.8-60.5-50-60.9-.5-.2-1-.1-1 .3zm36.5 57.5c1 1.1 1.6 2 1.3 2-.3 0-1.3-.9-2.3-2-1-1.1-1.6-2-1.3-2 .3 0 1.3.9 2.3 2zM309.7 365.6c-.3.4-.2 1.4.4 2.3.5.9 2.3 7 4 13.6 3.2 12.3 3.9 13.9 7.1 15.6 1.6.8 2.1.5 3.2-2.2.8-1.8 1.2-3.8 1-4.3-.1-.6-.8-2.9-1.3-5.2-1.1-4.1-13.3-20.9-14.4-19.8zM341 386.7c0 .6.8 1.7 1.8 2.4 1.6 1.3 1.6 1.3.2-.6-.8-1.1-1.6-2.2-1.7-2.4-.2-.2-.3 0-.3.6zM371.6 405.5c1 5.1 1 8.4.1 11.1-.6 1.7.6 3.8 6 10.3 3.7 4.4 7.2 8.1 7.8 8.1.6 0 2.6-1.2 4.4-2.8l3.3-2.7-10.2-13c-12.9-16.3-12.4-15.9-11.4-11zM366.3 423.5l-3.2 2.3 6.1 7.5 6.1 7.5 3.3-1.6c1.9-.8 3.4-1.8 3.4-2.2 0-.4-11.7-15.2-12.3-15.6-.1 0-1.6.9-3.4 2.1zM355.1 431.3l-3.2 3.4 5.2 6.1c2.9 3.4 5.4 6.2 5.6 6.2.9 0 8.3-4.1 8.3-4.6 0-.9-11.2-14.4-11.9-14.4-.4 0-2.2 1.5-4 3.3zM348.2 441.7l-2.1 4.8 2.1 2.2c2.5 2.7 3.4 2.8 8.2.8l3.7-1.6-4.3-5.4c-2.4-3-4.6-5.5-4.9-5.5-.4 0-1.6 2.1-2.7 4.7zM345.6 450.7c-1.1 1.1-.6 2.3.9 2.3.8 0 1.5-.4 1.5-.9 0-1.3-1.6-2.2-2.4-1.4zM68.2 263.6c-4.1 2.1-6.9 5.6-8.4 10.5-2.5 8.5 4 17.8 13 18.7 9.5.9 16.2-4.8 17-14.2.4-5.6-1.8-10.1-6.9-13.9-3.7-2.7-10.6-3.2-14.7-1.1zM487.2 443.5c1.1 2.3 1.3 2.4 2.7 1 1.4-1.4 1.4-1.7.1-2.5-2.9-1.9-4.1-1.2-2.8 1.5zM450.7 460.8c-1.4 1.6-1.4 1.9.2 4.1 1.6 2.1 2 2.2 3.9 1 2.5-1.6 3.4-3.3 2.6-5.4-.8-2-4.7-1.9-6.7.3zM151.3 464.7c-1.2.2-3.6 2-5.3 3.9-3.5 4-3.9 8.1-1.3 12.5 5.8 9.8 20.3 5.7 20.3-5.8 0-3.6-.6-5-2.9-7.4-1.6-1.6-3.6-2.9-4.4-2.9-.9 0-2.1-.2-2.9-.4-.7-.2-2.3-.1-3.5.1zM194.3 495c-4 2.4-5.3 4.8-5.3 10 0 9 10.7 13.5 17.9 7.4 5.9-4.9 4.6-14.5-2.4-17.8-4.3-2.1-6.3-2-10.2.4zM242.6 519.9c-1.3 5.8-2.1 11-1.6 11.4.4.5 2.9.9 5.5.9 3.9.1 5.1-.4 7.8-3.1s3.2-3.9 3.2-8c0-6-2.7-9.4-8.5-10.9l-3.9-1-2.5 10.7zM357.4 510.8c-10.4 8.3-.7 24.5 11.2 18.8 7.1-3.3 8.3-13 2.3-18-3.7-3.1-10.2-3.5-13.5-.8z"/></svg>