<?xml version="1.0" encoding="utf-8"?>
<!-- Generator: Adobe Illustrator 21.1.0, SVG Export Plug-In . SVG Version: 6.00 Build 0)  -->
<svg version="1.1" id="Layer_1" xmlns="http://www.w3.org/2000/svg" xmlns:xlink="http://www.w3.org/1999/xlink" x="0px" y="0px"
	 viewBox="0 0 146.5 146.5" style="enable-background:new 0 0 146.5 146.5;" xml:space="preserve">
<style type="text/css">
	.st0{clip-path:url(#SVGID_2_);}
	.st1{fill:#F2E1A6;}
	.st2{fill:#FFFFFF;}
	.st3{fill:#3E8C84;}
	.st4{fill:#403833;}
	.st5{fill:#0E0E0E;}
	.st6{fill:#3A180C;}
	.st7{fill:#0C7369;}
</style>
<g>
	<defs>
		<path id="SVGID_1_" d="M73.3,0.9C33.4,0.9,0.9,33.4,0.9,73.3s32.4,72.3,72.3,72.3s72.3-32.4,72.3-72.3S113.1,0.9,73.3,0.9z"/>
	</defs>
	<clipPath id="SVGID_2_">
		<use xlink:href="#SVGID_1_"  style="overflow:visible;"/>
	</clipPath>
	<g class="st0">
		<g>
			<polygon class="st1" points="46.8,47.6 46.8,86.5 75.9,101.7 103.3,85 105,53.9 97.2,40.5 53.6,37 			"/>
			<path d="M75.9,102.3l-0.3-0.1L46.3,86.8V47.4l7-10.9L97.5,40l8,13.8l0,0.1l-1.7,31.4l-0.2,0.1L75.9,102.3z M47.3,86.2l28.6,15
				l26.9-16.4l1.7-30.7l-7.6-13l-43-3.4l-6.5,10.2V86.2z"/>
		</g>
		<g>
			<path class="st2" d="M46.9,65.9c0,0,6.1-4.3,13.3,0.5c0,0,0.4,4.6-7.4,5.3c-4.9,0.3-6-1.4-6-1.4L46.9,65.9z"/>
			<path d="M51.6,72.3c-4,0-5.1-1.5-5.2-1.6l-0.1-0.1l0.1-4.9l0.2-0.1c0.1,0,6.5-4.4,13.9,0.5l0.2,0.1l0,0.2c0,0.1,0.3,5.1-7.8,5.8
				C52.5,72.3,52,72.3,51.6,72.3z M47.3,70.2c0.3,0.3,1.8,1.3,5.5,1.1c6.2-0.6,6.9-3.7,6.9-4.5c-6.1-3.9-11.2-1.2-12.3-0.5
				L47.3,70.2z"/>
		</g>
		<g>
			<path class="st2" d="M74.2,65.8c0,0,1.6,6.9,10.1,6.7s9.5-6.7,9.5-6.7s-3.7-2.6-10.1-2.8C77.3,62.9,74.2,65.8,74.2,65.8z"/>
			<path d="M84.1,73.1c-8.5,0-10.3-7.1-10.3-7.1l-0.1-0.3l0.2-0.2c0.1-0.1,3.3-3.1,9.8-2.9c6.5,0.2,10.2,2.8,10.4,2.9l0.3,0.2
				l-0.1,0.3c0,0.1-1.2,7-10,7.2C84.2,73.1,84.1,73.1,84.1,73.1z M74.8,66c0.4,1.3,2.4,6.1,9.5,6.1c6.9-0.1,8.6-4.7,9-6
				c-1-0.6-4.4-2.4-9.5-2.5C78.5,63.4,75.6,65.4,74.8,66z"/>
		</g>
		<g>
			<circle class="st3" cx="84.3" cy="67.7" r="3.2"/>
			<path d="M84.3,71.4c-2,0-3.7-1.6-3.7-3.7s1.6-3.7,3.7-3.7s3.7,1.6,3.7,3.7S86.3,71.4,84.3,71.4z M84.3,65.1
				c-1.5,0-2.7,1.2-2.7,2.7s1.2,2.7,2.7,2.7c1.5,0,2.7-1.2,2.7-2.7S85.8,65.1,84.3,65.1z"/>
		</g>
		<g>
			<circle class="st3" cx="53.3" cy="68" r="2.8"/>
			<path d="M53.3,71.2c-1.8,0-3.3-1.5-3.3-3.3s1.5-3.3,3.3-3.3c1.8,0,3.3,1.5,3.3,3.3S55.1,71.2,53.3,71.2z M53.3,65.7
				c-1.2,0-2.3,1-2.3,2.3s1,2.3,2.3,2.3c1.2,0,2.3-1,2.3-2.3S54.6,65.7,53.3,65.7z"/>
		</g>
		<g>
			<path d="M90.7,54.8c0,0,0.3-0.2,0.4-0.3C91,54.6,90.7,54.9,90.7,54.8z"/>
			<polygon points="89.7,55 89.8,54.9 89.5,55.2 			"/>
			<path d="M89.4,54.7c-0.5,0.5,0.2,0,0.1,0.3l-0.1,0.1l0.4-0.4C89.6,54.7,89.3,54.9,89.4,54.7z"/>
			<path d="M90.3,53.4c-0.2,0.2-0.2,0.1,0,0.1C90.3,53.5,90.3,53.5,90.3,53.4C90.3,53.5,90.3,53.5,90.3,53.4z"/>
			<path d="M90.3,53.5C90.4,53.5,90.4,53.3,90.3,53.5L90.3,53.5z"/>
			<path d="M90,53.4l0.2-0.1c0.1-0.1,0.1-0.2,0.2-0.3C90.3,53.1,90.2,53.2,90,53.4z"/>
			<path d="M89.6,53.7L89.6,53.7C89.7,53.6,89.8,53.6,89.6,53.7z"/>
			<path d="M89.9,53.6l-0.2,0.1c-0.1,0.1-0.2,0.3,0.1,0C89.6,53.8,89.8,53.7,89.9,53.6z"/>
			<path d="M89.9,53.7c-0.1,0.1-0.1,0.2-0.3,0.4C89.7,54.1,90,53.7,89.9,53.7z"/>
			<path d="M88.8,55.2l-0.1,0.2L88.8,55.2C88.8,55.3,89,55,88.8,55.2z"/>
			<path d="M89.9,52.8c-0.1,0.1-0.2,0.3-0.4,0.5l0.2-0.1C89.7,53.1,89.8,53,89.9,52.8z"/>
			<path d="M89.5,53.3l-0.2,0.1C89.3,53.5,89.4,53.4,89.5,53.3z"/>
			<polygon points="89.1,54.3 89.5,54 89,54.3 			"/>
			<polygon points="89.7,52.6 89.9,52.4 89.5,52.7 			"/>
			<path d="M89.5,52.5c0.2-0.2,0.3-0.4,0.4-0.5c-0.1,0-0.3,0.2-0.4,0.3C89.5,52.2,89.6,52.3,89.5,52.5z"/>
			<path d="M89.2,52.5c0.1,0,0.2-0.1,0.3-0.2C89.4,52.3,89.3,52.4,89.2,52.5z"/>
			<path d="M89.3,53.3c0.1-0.1,0.2-0.3,0.2-0.4L89.3,53.3L89.3,53.3z"/>
			<path d="M89.2,53.3L89.2,53.3C89.2,53.2,89.2,53.2,89.2,53.3C89.2,53.2,89.2,53.2,89.2,53.3z"/>
			<path d="M89.3,53.3L89.3,53.3C89.2,53.3,89.2,53.3,89.3,53.3z"/>
			<path d="M89.2,53.9c-0.2,0.1-0.4,0.3-0.6,0.6C88.8,54.3,88.9,54.1,89.2,53.9z"/>
			<path d="M89,53.7l0,0.1c0.1-0.1,0.2-0.2,0.3-0.3L89,53.7z"/>
			<polygon points="88.8,53.8 89,53.7 88.9,53.7 			"/>
			<path d="M89,52.9C88.9,53,88.9,53,88.8,53c0,0.1,0,0.2,0,0.2C88.9,53.1,89.1,52.9,89,52.9z"/>
			<path d="M89.1,53.1L89.1,53.1C89.1,53.2,89.1,53.2,89.1,53.1z"/>
			<path d="M88.4,52.8C88.4,52.8,88.4,52.8,88.4,52.8L88.4,52.8L88.4,52.8z"/>
			<path d="M88.8,53.3c0,0.1,0.1,0,0.2-0.1C88.9,53.2,88.9,53.2,88.8,53.3C88.8,53.3,88.8,53.3,88.8,53.3z"/>
			<path d="M88.9,52.6c0,0.1-0.1,0.2-0.1,0.2C88.9,52.7,89,52.5,88.9,52.6z"/>
			<path d="M89.2,53C89.2,53,89.2,53,89.2,53C89.2,52.9,89.2,53,89.2,53z"/>
			<path d="M89.2,53c-0.1,0-0.1,0.1-0.2,0.2c0,0,0.1,0,0.1-0.1C89.1,53.1,89.1,53.1,89.2,53z"/>
			<path d="M86.8,55c0.2-0.3,0.5-0.6,0.3-0.2c0.2-0.2,0.9-1.3,1.3-1.9c-0.1,0.1-0.2,0.3-0.4,0.4c-0.1,0.2-0.1,0.5-0.4,0.8
				c-0.2,0.1,0-0.2,0.1-0.4c-0.2,0.4-0.5,0.5-0.9,1.2l0.2-0.2C87,54.8,86.9,54.9,86.8,55z"/>
			<path d="M88.5,53L88.5,53c0.1-0.1,0.1-0.2,0.3-0.5c-0.2,0.1-0.3,0.2-0.3,0.3C88.5,52.8,88.5,52.9,88.5,53L88.5,53z"/>
			<path d="M88.7,53c-0.3,0.3-0.4,0.4-0.7,0.8c0.1,0,0.3-0.3,0.4-0.4C88.2,53.5,88.6,53.3,88.7,53c0,0,0.1,0,0.1,0
				c0-0.1,0-0.1,0-0.2l0,0l0,0l0,0c0,0,0,0.1,0,0c0,0,0,0,0,0C88.8,52.9,88.7,53,88.7,53c0-0.1,0.1-0.1,0.1-0.1l0-0.1l0,0l-0.3,0.1
				C88.6,53,88.6,53,88.7,53z"/>
			<path d="M87.9,55.2C87.9,55.1,88,55.1,87.9,55.2C87.9,55.1,87.9,55.1,87.9,55.2z"/>
			<path d="M88,54.9c0,0,0.2-0.2,0.2-0.1c-0.1,0.1-0.1,0.2-0.2,0.3c0.1-0.1,0.3-0.2,0.3-0.4l0,0c0.1-0.1,0.4-0.6,0.4-0.6
				C88.4,54.4,88.3,54.6,88,54.9z"/>
			<path d="M88.3,54.1l-0.2,0.1l-0.2,0.3l0.1-0.2C88.1,54.4,88.2,54.2,88.3,54.1z"/>
			<polygon points="88.5,52.6 88.8,52.2 88.4,52.7 			"/>
			<polygon points="88.4,52.5 88.6,52.2 88.4,52.4 			"/>
			<path d="M80.6,56.5l0,0.1C80.6,56.6,80.6,56.5,80.6,56.5z"/>
			<path d="M80.7,56.5l-0.1-0.2C80.7,56.4,80.7,56.5,80.7,56.5z"/>
			<path d="M84.1,51.1c0-0.4-0.1-0.9-0.1-0.5L84.1,51.1C84.1,51,84.1,51,84.1,51.1z"/>
			<path d="M81.7,53.8c0,0,0,0.1,0,0.1c0-0.1,0-0.3,0-0.4C81.7,53.6,81.7,53.7,81.7,53.8z"/>
			<path d="M82,55.6l-0.1-0.3C81.9,55.4,82,55.5,82,55.6z"/>
			<path d="M79.8,57.3l0.2,0.4C80,57.7,79.9,57.5,79.8,57.3z"/>
			<path d="M86.6,51.8c0-0.2,0-0.3,0-0.3C86.6,51.8,86.5,52.2,86.6,51.8z"/>
			<path d="M79.1,52.1c0,0.1,0,0.2,0.1,0.3C79.1,52.3,79.1,52.2,79.1,52.1z"/>
			<path d="M86.4,51.5c0,0,0,0.1,0,0.1c0.1-0.1,0.1-0.1,0.2-0.1C86.6,51.3,86.6,51.2,86.4,51.5z"/>
			<path d="M76.4,58.9C76.4,58.9,76.4,58.9,76.4,58.9C76.4,59,76.4,59,76.4,58.9z"/>
			<path d="M72.7,56.3C72.7,56.3,72.7,56.2,72.7,56.3C72.7,56.2,72.7,56.2,72.7,56.3z"/>
			<path d="M87.8,52C87.9,52,87.8,51.9,87.8,52L87.8,52z"/>
			<path d="M87.1,53.6c0,0-0.1,0.1-0.1,0.2C87.1,53.7,87.1,53.6,87.1,53.6z"/>
			<path d="M85.3,53.9L85.3,53.9C85.3,54,85.3,54,85.3,53.9z"/>
			<path d="M87.8,52.2c0-0.1,0-0.1,0-0.1C87.8,52.1,87.8,52.1,87.8,52.2z"/>
			<path d="M87.9,52C87.9,52,87.9,52,87.9,52C87.9,52,87.9,51.9,87.9,52z"/>
			<path d="M87.8,52C87.8,52,87.8,52,87.8,52C87.8,52,87.8,52,87.8,52C87.8,52,87.8,52,87.8,52z"/>
			<path d="M77.6,56.8C77.5,56.8,77.5,56.8,77.6,56.8C77.6,56.9,77.6,56.9,77.6,56.8z"/>
			<path d="M83.2,55.6C83.2,55.6,83.2,55.6,83.2,55.6L83.2,55.6L83.2,55.6z"/>
			<path d="M83.1,55.9c0-0.5,0-0.5,0.1-0.4l0-1.3L83.1,55.9z"/>
			<path d="M80.2,56.8l0.2,0.3c0.2,0.6,0.1,0.4,0.3,0.9c-0.5-1.3,0.1-0.2-0.3-1.5l0.1,0.3c0,0,0,0.1,0,0.1c0.3,0.6-0.3-0.9-0.1-0.8
				c0.1,0.1,0.2,0.3,0.2,0.4l0-0.3c0,0,0.1,0.2,0.1,0.2l0.1-0.1l0,0c-0.1-0.2-0.1-0.5-0.2-0.7c0.1,0.2,0,0.1,0.1,0.3l0-0.3
				c0.1,0.3,0.2,0.7,0.1,0.6c0.5,1.3-0.1-0.3,0.3,0.4l0,0.2c0.3,0.7,0.2,0.4,0.4,0.9c-0.1-0.2-0.5-1.1-0.5-1.5
				c0.1,0.1,0.1,0.1,0-0.1c0.1,0.5,0.1,0.3,0.2,0.3l0.2,0.6c0-0.2-0.1-0.5-0.2-0.8c0.1,0,0.2,0.5,0.3,0.9c0.1,0.1-0.3-0.7-0.2-0.9
				c0.1,0.2,0.1,0,0.1-0.4c0.1,0.2,0.1,0.4,0.2,0.6l-0.1-0.5c0,0,0,0.2,0.1,0.2c0-0.2-0.2-0.6-0.1-0.8c-0.1-0.7,0.4,1,0.3,0.2
				c0.1,0.2,0.1,0.4,0.1,0.6c0-0.5,0-0.4-0.1-1.1l0.2,0.4c-0.1-0.5-0.2-1-0.2-1.5c-0.1-0.2-0.1-0.4-0.2-0.5l0.1-0.4
				c0,0.1,0.1,0.3,0.1,0.6c0-0.1,0-0.1,0-0.2c0.1,0.2,0.1,0.6,0.2,0.9c0-0.1-0.1-0.3-0.1-0.4c0,0.4,0.1,0.8,0.2,1.2
				c0-0.1,0-0.1,0-0.2c0,0.1,0,0.2,0,0.3c0,0.1,0-0.1,0-0.2l0.1,0.7l0-0.3l0.2,0.4c0-0.7-0.1-1.8,0-2.1c0,0.5,0.1,0.8,0.2,1.5
				c-0.1-0.6-0.1,0.3-0.2,0.2c0,0.1,0.1,0.4,0.1,0.5l0-0.6c0.1,0.5,0.1,0.4,0.1,0.6c-0.1-1,0-0.7,0-1c0,0.3,0.1,0.7,0,0.6
				c0.1,0.7,0-1.2,0.1-0.5c0,0,0,0,0,0.1c0-0.3,0.1-0.1,0.1,0.2l0,0c0.1,0.1,0.3,0,0.3-0.9c0,0.1,0,1,0,1.2c0-1,0.1-1.9,0.2-2.9
				c0,0.7,0.1,2.5,0,2.9c0,0.1,0,0.2,0.1,0c0-0.1,0-1.1,0-1.1c0.1,0.8,0,0.4,0.1,1.1c0-0.2,0-1.3,0.1-1.3c0,0.2,0,1.1,0,1.2l0.1-1.1
				c0,0.2,0,1,0,1.3c0-0.2,0.1,0,0.1-0.1l0-0.3c0.1,0.2,0.2-1.6,0.3-1.5c0,0.2-0.2,1.4-0.1,1.6c0.1-0.6,0.4-2.7,0.6-3.2l0,0.3
				l0.2-0.4c-0.2,0.8-0.6,2.6-0.7,3.3c0,0.3,0,0.4,0,0.4c0,0.3-0.1,0.5-0.1,0.5l0.1,0.2c0.1-0.7,0.2-0.7,0.3-1.2
				c-0.1,0.2-0.2,0.4-0.2,0.7c0.1-0.7,0.3-1.9,0.4-1.7c0,0.3-0.2,1.2-0.2,1.4c0-0.2,0.2-0.4,0.1-0.3l-0.1,0.3c0,0.3,0.2-0.9,0.2-0.2
				c0,0-0.1,0.9,0,0.5c0.1-0.8,0.6-3.1,0.7-3.6c0,0.1,0,0.8,0,1.1c-0.1,0.6-0.4,1.4-0.5,1.9c0-0.2,0.1-0.4,0.1-0.5
				c0,0.2-0.1,0.6-0.1,0.5c0.2-0.7,0.1,0.1,0.2-0.6c0.1-0.2,0,0.1,0.1,0.1c0.1-0.4,0.5-1.4,0.6-1.6c-0.1,0.2-0.1,0.4-0.1,0.5
				c0.1,0.1,0.1,0.4,0.2,0.5c0,0.2-0.1,0.4-0.2,0.6c0.1-0.1,0.1-0.3,0.2-0.3c-0.1,0.6-0.1,0.1-0.3,0.7c0.1-0.4,0.3-0.5,0.4-0.7
				c0.2-0.6-0.1-0.1-0.2,0.1c0.3-0.8,0.7-1.6,1-1.9c0.2-0.2-0.2,0.5-0.1,0.4c0.1,0.2,0.8-1.3,0.7-0.6c-0.2,0.5-0.5,1-0.6,1.3
				c-0.2,0.1,0-0.4,0-0.4l0,0.3c-0.1,0.2-0.2,0.3-0.2,0.1c-0.1,0.5,0.3,0.2,0.2,0.7c0.1-0.1,0.2-0.3,0.3-0.5l-0.1,0
				c0.2-0.4,0.4-0.5,0.4-0.7c0.2-0.2,0.5-0.6,0.5-0.3l-0.3,0.5c0.1-0.2,0.1-0.4,0-0.2c0.2-0.2-0.3,0.8,0.2,0.1l0.2-0.4
				c0.2-0.2,0.6-0.7,0.6-0.5c0.3-0.5-0.1,0,0.3-0.6c-0.4,0.8-0.2-0.2-0.6,0.7c0.4-0.7,0.1-0.4,0.3-1C88,52,87.9,52.2,87.9,52
				c0,0-0.1,0.1-0.1,0.1l0,0l0,0c0,0,0,0,0,0c0,0.1-0.1,0.2-0.1,0.3c-0.3,0.4-0.4,0.3-0.5,0.5c0-0.1,0.1-0.2,0.2-0.4l-0.2,0.3
				c0.2-0.4,0.2-0.7,0.4-0.9l-0.1-0.1c0-0.3,0-0.4-0.1-0.2c0-0.1-0.3,0.4-0.1,0.1L86.9,52l0-0.1c-0.2-0.1-0.6,0.6-0.5-0.3
				c-0.1,0.1-0.2,0.2-0.2,0l0.1-0.4c-0.1,0.1-0.1-0.4-0.3-0.1c0.2-1-0.3-0.3-0.4-0.5l-0.1,0.5c-0.1,0-0.2,0.1-0.4,0.2l-0.1,0.4
				c-0.2,0.3-0.2-0.4-0.3-0.3c0-0.2,0.1-0.1,0.1,0c0-1-0.5,0.7-0.5-0.1c-0.1,0.2-0.1,0.1-0.1,0c0,0,0,0,0,0c0,0,0,0,0,0
				c0-0.1,0-0.2,0-0.2c0,0.1,0,0.2,0,0.2c0,0-0.1,0.1-0.1,0.2l0-0.5c0,0,0,0,0,0c0-0.2-0.1,0.2-0.1,0.6c0,0.1-0.1,0.2-0.1,0.3
				c0-0.8-0.1,0.3-0.1-0.6c0,0.4-0.2,0.3-0.3,1.1c0-0.1,0-0.2,0-0.2c0-0.1-0.1-0.2-0.1,0l0-0.6l-0.1,0.8c-0.1-0.4-0.1-0.6,0-1.1
				c-0.1,0.7-0.1,0.3-0.2,1l0-0.4c0,0-0.1,0.5-0.1,0.2c-0.1-0.8-0.5-0.1-0.8-0.7c0.2,1.2-0.2-0.5-0.1,0.4c-0.1-0.3-0.1-0.4-0.1-0.7
				c-0.1,0.3-0.3-0.4-0.2,0.4c-0.1-0.3,0-0.4-0.1-0.6c0,0.1,0,0.2,0,0.1c0-0.2,0-0.2,0-0.4c-0.1,0.1,0,0.9,0.1,1.7
				c-0.1-0.4-0.2-0.3-0.1,0.2c-0.1-0.3-0.2-0.5-0.1-0.6c-0.1,0-0.4-0.3-0.2,0.3c0-0.2-0.1,0-0.1,0c-0.1,0-0.1-0.1-0.2,0l0.1,0.1
				c0.1,0.8,0,0.2-0.1,0.3l0-0.1c-0.3-0.5,0,0.3-0.3-0.3l0.1,0.5c0.3,1-0.3-0.5-0.3-0.1l0.1,0.3c0,0.4-0.5-1.3-0.6-1.4
				c0-0.1,0-0.1,0-0.2c-0.3-0.5,0.2,0.6,0.1,0.8c-0.1-0.3-0.2-0.8-0.3-0.9c-0.1-0.2,0.1,1.1-0.2,0.5c0.1,0.2,0.2,0.5,0.2,0.7
				c0,0.1-0.5-0.9-0.3-0.1c0-0.1-0.1-0.1-0.1-0.2c0,0.2-0.1,0.4,0.1,0.8c-0.6-1.5,0,0.9-0.6-0.5l-0.1,0.1l-0.1-0.1
				c-0.1,0,0,0.3,0.1,0.7c-0.1-0.1-0.1-0.2-0.1-0.3c-0.3-0.2-0.3-0.1-0.1,0.6L78,53.2c0.1,0.3-0.6-0.6-0.5,0c0-0.1-0.1-0.1-0.1-0.2
				c0.1,0.6-1-1-0.3,0.6l0.1,0.5c0.2,0.1,0.3,0.7,0.5,0.9c0,0.1-0.4-0.4-0.4-0.5l0.1,0.1c-0.4-0.8-0.3-0.2-0.6-0.8
				c-0.3,0.2-0.8-0.1-1.1,0l0.4,0.6l-0.1,0c-0.1-0.1-0.3-0.5-0.2-0.5c-0.2-0.3,0.1,0.4,0.2,0.5c-0.3-0.2-0.4-0.8-0.4-0.8l0,0.1
				l0.1,0.1c0.1,0.3,0.3,0.6,0.2,0.6c-0.1-0.1-0.3-0.4-0.3-0.4c0,0,0-0.1,0,0l-0.1,0l0.3,0.5c0.1,0.3-0.1,0,0.3,0.6
				c-0.6-0.8-0.6-0.1-0.8-0.3c0.2,0.4,0.1,0.4,0,0.4c0.1,0.1,0.5,0.6,0.3,0.6c-0.7-1.1-0.4-0.4-1.1-1.2c0.4,0.5-0.1,0.3,0.5,1
				c-0.1,0-0.3-0.4-0.5-0.6c0.2,0.5-0.5-0.1-0.6,0.2c0.1,0.1,0.3,0.3,0.4,0.6l-0.6-0.6c0,0.1,0.6,0.8,0.2,0.4
				c0.1,0.1,0.2,0.3,0.3,0.3c-0.8-0.4-0.2,1-1.5,0.1c0.3,0.2,0.3,0.3,0.2,0.3c0.1,0,0.3,0.3,0.4,0.5l-0.6-0.4
				c0.4,0.5-0.1,0.2,0.3,0.6l0-0.1c0.4,0.6,1.2,1.2,1.8,1.9c-0.5-0.7,0.9,0.8,0.3-0.2c0.1,0.1,0.2,0.3,0.3,0.4
				c-0.2-0.3-0.3-0.4-0.1-0.3l0.1,0.1c0.1-0.2,0.4,0.1,0.7,0.2l-0.3-0.4c0.1,0,0.2,0.1,0.3,0.2c-0.4-0.6-0.1,0-0.6-0.6
				c0.6,0.7,0.3-0.2,1,0.7c0.1,0-0.3-0.4-0.3-0.5l0.2,0.2L76,58.3c0.1,0,0.3,0.3,0.5,0.5c0,0,0,0.1,0,0.1c0.3,0.2,0.1-0.2,0.1-0.1
				l-0.2-0.1c0-0.3,0.4-0.1,0.2-0.7l-0.1-0.2c-0.1-0.4,0.2,0.1,0.2-0.1l0,0c-0.1-0.2-0.1-0.3-0.1-0.3c0.1,0.2,0.3,0.4,0.5,0.7
				C77,57.6,77,57.8,76.6,57l0.2,0.3c-0.2-0.3-0.3-0.4-0.2-0.6c0.1,0.3,0.3,0.4,0.5,0.8c0.6,0.6-0.2-0.8,0.4,0.1
				c-0.5-0.9-0.4-0.4-0.5-0.6c-0.2-0.3-0.4-0.7-0.3-0.6c0.1,0,0.8,1.1,0.9,1c0,0,0,0.1,0,0.1c0.2,0.2-0.1-0.3,0.2,0
				c-0.3-0.5,0.1,0-0.3-0.7l0,0.2c-0.1-0.2-0.5-1-0.1-0.7c0.1,0.1,0.2,0.3,0.2,0.5c0.1,0.2,0-0.2,0.1,0c0.4,0.7,0,0.2,0.2,0.8
				c0.2,0.3-0.2-0.6,0.2,0.2c-0.5-1,0.2,0.1-0.2-0.7l0.2,0.4c0-0.1-0.1-0.3-0.1-0.3l0.3,0.6c-0.2-0.5,0.3,0.3,0.2,0.1
				c-0.1,0.1-0.3-0.5-0.5-0.8c-0.2-0.6,0.7,1,0.7,0.7c0,0.1-0.2-0.2-0.3-0.4c0.1,0.1,0.2,0.2,0.3,0.4c0.1-0.1-0.3-0.4-0.3-0.7
				c0.3,0.5-0.1-0.2-0.1-0.4l0.2,0.4c0.3,0.2-0.4-0.9-0.2-0.6l0.3,0.6l0-0.2l0.2,0.5c-0.1-0.4-0.1-0.3,0.1-0.2
				c-0.2-0.3-0.4-0.8-0.3-0.8c0.2,0.2,0.2,0.4,0.2,0.3c0.1,0.3,0.3,0.6,0,0.2c0.1,0.1,0.1,0.3,0.2,0.4c0.2,0.3,0.1,0,0.2,0
				c0,0,0,0-0.1-0.1l-0.2-0.7c0.1,0.2,0.1,0.3,0.2,0.4c0-0.1-0.1-0.3-0.1-0.3c0.2,0.4,0.3,0.7,0.4,0.9l-0.1-0.4
				c0.1,0.1,0.3,0.4,0.3,0.5c0.2,0.2-0.2-0.8,0-0.5c0-0.1-0.1-0.1-0.1-0.2c0.1,0,0.4,0.5,0.2-0.1l0.3,0.6c0-0.2-0.4-0.8-0.4-1.1
				c0-0.2,0.3,0.5,0.4,0.7c-0.1-0.3-0.3-1,0-0.5C80.3,56.8,80.2,56.7,80.2,56.8z M80.9,56.2c0,0.1,0.1,0.4,0,0.1
				C80.8,55.8,80.9,56,80.9,56.2z M82,54.7C82,54.9,82,54.8,82,54.7C81.9,54.6,82,54.6,82,54.7z M87.3,52.1
				C87.3,52.1,87.2,52.2,87.3,52.1C87.3,52,87.3,52,87.3,52.1z M87.3,52.4c0-0.1,0.1-0.1,0.1-0.2c-0.1,0.1-0.1,0.1-0.1,0.1
				C87.2,52.4,87.2,52.5,87.3,52.4z M75.6,54.2L75.6,54.2C75.7,54.4,75.7,54.3,75.6,54.2z"/>
			<path d="M82,55.4c0-0.1,0-0.2-0.1-0.3C81.9,55.2,81.9,55.3,82,55.4z"/>
			<polygon points="79.8,57.2 79.8,57.2 79.8,57.3 			"/>
			<path d="M84.5,55.7c0-0.1,0-0.2,0-0.2C84.5,55.6,84.5,55.7,84.5,55.7z"/>
			<path d="M88.3,52l-0.1,0.1c0,0,0,0.1,0,0.2C88.2,52.1,88.3,52,88.3,52z"/>
			<path d="M87.2,54.8C87.2,54.8,87.2,54.9,87.2,54.8l0.2-0.2C87.4,54.6,87.2,54.7,87.2,54.8z"/>
			<path d="M87.5,53.4c-0.2,0.4-0.1,0.3,0,0.2c0,0,0,0,0,0C87.8,53.2,87.7,53.3,87.5,53.4z"/>
			<path d="M87.5,53.6C87.5,53.6,87.6,53.6,87.5,53.6C87.7,53.5,87.6,53.6,87.5,53.6z"/>
			<path d="M87.5,52.2c0,0.1,0.3-0.5,0.2-0.3C88,51.5,87.3,52.4,87.5,52.2z"/>
			<polygon points="86.9,54.6 87.1,54.1 86.9,54.5 			"/>
			<path d="M86.7,54.1l0,0.2C86.8,54.2,86.8,54.1,86.7,54.1C86.8,54.1,86.8,53.9,86.7,54.1z"/>
			<path d="M86.8,54.1C86.9,54.1,86.9,54.1,86.8,54.1C86.9,54.1,86.9,54.1,86.8,54.1z"/>
			<polygon points="86.7,54.7 86.7,54.6 86.7,54.5 			"/>
			<path d="M86.1,53.7l-0.1,0.1c-0.1,0.2-0.1,0.3,0,0.2C86,53.9,86,53.8,86.1,53.7z"/>
			<path d="M85.7,55c0-0.1,0.1-0.2,0.1-0.4l-0.3,0.6L85.7,55z"/>
			<path d="M85.5,55.1c-0.1,0.2-0.3,0.4-0.2,0.4C85.4,55.3,85.5,55.2,85.5,55.1z"/>
			<polygon points="84.8,54 84.8,54 85,53 			"/>
			<path d="M83.6,56.3c0,0.2,0.1-0.6,0.1-0.3c0-0.2,0-0.3,0-0.5C83.7,55.8,83.7,55.6,83.6,56.3z"/>
			<path d="M83.7,55.5c0,0,0-0.1,0-0.2C83.8,55.4,83.8,55.5,83.7,55.5z"/>
			<polygon points="72.2,56 72,55.9 72.3,56.1 			"/>
			<path d="M72.6,56.7l-0.4-0.5L72.6,56.7C72.5,56.7,72.5,56.6,72.6,56.7z"/>
			<path d="M81.4,57.4l0-0.2c-0.1-0.2-0.1-0.2-0.1-0.2L81.4,57.4z"/>
			<polygon points="80.7,57.1 80.8,57.1 80.5,56.6 			"/>
			<path d="M80.5,58c0,0,0-0.1,0-0.1C80.6,58,80.3,57.3,80.5,58z"/>
		</g>
		<g>
			<path d="M60,56.7c0,0,0.3-0.3,0.3-0.3C60.2,56.4,59.9,56.7,60,56.7z"/>
			<polygon points="59,57.1 59.2,57 58.8,57.3 			"/>
			<path d="M58.8,56.9c-0.4,0.6,0.2,0,0.1,0.2l-0.1,0.1l0.4-0.4C59,56.8,58.7,57.1,58.8,56.9z"/>
			<path d="M59.6,55.5C59.4,55.8,59.4,55.7,59.6,55.5C59.6,55.6,59.6,55.6,59.6,55.5C59.6,55.6,59.6,55.6,59.6,55.5z"/>
			<path d="M59.6,55.6C59.6,55.6,59.7,55.4,59.6,55.6L59.6,55.6z"/>
			<path d="M59.4,55.6l0.2-0.2c0.1-0.1,0.1-0.2,0.2-0.3C59.6,55.2,59.5,55.4,59.4,55.6z"/>
			<path d="M59,56L59,56C59.1,55.8,59.1,55.8,59,56z"/>
			<path d="M59.3,55.8l-0.2,0.1c-0.1,0.1-0.2,0.3,0.1,0C59,56,59.2,55.9,59.3,55.8z"/>
			<path d="M59.2,55.9c-0.1,0.1-0.1,0.2-0.3,0.4C59.1,56.3,59.4,55.9,59.2,55.9z"/>
			<path d="M58.3,57.4l-0.1,0.2L58.3,57.4C58.3,57.5,58.4,57.3,58.3,57.4z"/>
			<path d="M59.3,55.1c-0.1,0.1-0.2,0.3-0.3,0.5l0.1-0.1C59.1,55.4,59.2,55.3,59.3,55.1z"/>
			<path d="M59,55.6l-0.2,0.2C58.8,55.8,58.9,55.7,59,55.6z"/>
			<polygon points="58.5,56.6 58.9,56.2 58.5,56.6 			"/>
			<polygon points="59.1,54.9 59.4,54.6 59,55 			"/>
			<path d="M58.9,54.9c0.2-0.2,0.2-0.4,0.4-0.6c-0.1,0-0.2,0.2-0.4,0.4C59,54.6,59,54.7,58.9,54.9z"/>
			<path d="M58.7,54.9c0.1,0,0.1-0.1,0.2-0.2C58.9,54.7,58.8,54.8,58.7,54.9z"/>
			<path d="M58.7,55.6c0-0.1,0.2-0.3,0.2-0.4L58.7,55.6L58.7,55.6z"/>
			<path d="M58.7,55.6L58.7,55.6C58.7,55.6,58.7,55.6,58.7,55.6C58.7,55.6,58.7,55.6,58.7,55.6z"/>
			<path d="M58.7,55.6L58.7,55.6C58.7,55.7,58.7,55.7,58.7,55.6z"/>
			<path d="M58.6,56.2c-0.2,0.2-0.4,0.3-0.5,0.7C58.3,56.6,58.4,56.5,58.6,56.2z"/>
			<path d="M58.4,56.1l0,0.1c0.1-0.1,0.2-0.2,0.2-0.3L58.4,56.1z"/>
			<polygon points="58.3,56.2 58.4,56.1 58.5,56 			"/>
			<path d="M58.6,55.3c-0.1,0.1-0.2,0.1-0.2,0.1c0,0.1,0,0.1,0,0.2C58.5,55.5,58.6,55.3,58.6,55.3z"/>
			<path d="M58.6,55.5L58.6,55.5C58.6,55.5,58.6,55.6,58.6,55.5z"/>
			<path d="M58.1,55.3C58.1,55.3,58,55.3,58.1,55.3L58.1,55.3L58.1,55.3z"/>
			<path d="M58.3,55.7c0,0.1,0,0,0.1-0.1C58.4,55.6,58.4,55.6,58.3,55.7C58.3,55.7,58.3,55.7,58.3,55.7z"/>
			<path d="M58.5,55.1c0,0.1-0.1,0.2-0.1,0.2C58.5,55.2,58.6,55,58.5,55.1z"/>
			<path d="M58.7,55.4C58.7,55.4,58.7,55.4,58.7,55.4C58.7,55.3,58.7,55.4,58.7,55.4z"/>
			<path d="M58.7,55.4c0,0-0.1,0.1-0.2,0.2c0,0,0.1,0,0.1-0.1C58.6,55.5,58.6,55.4,58.7,55.4z"/>
			<path d="M56.6,57.6c0.2-0.3,0.4-0.6,0.3-0.2c0.2-0.2,0.9-1.4,1.2-2c-0.1,0.1-0.2,0.3-0.3,0.5c-0.1,0.2-0.2,0.5-0.4,0.8
				c-0.2,0.1,0-0.1,0.1-0.3c-0.2,0.4-0.4,0.6-0.8,1.2l0.2-0.2C56.7,57.4,56.6,57.5,56.6,57.6z"/>
			<path d="M58.1,55.5L58.1,55.5c0.1-0.1,0.1-0.2,0.3-0.5c-0.1,0.1-0.2,0.3-0.3,0.4L58.1,55.5L58.1,55.5z"/>
			<path d="M58.3,55.5c-0.3,0.4-0.4,0.5-0.6,0.9c0.1,0,0.2-0.3,0.4-0.4C57.9,56,58.2,55.8,58.3,55.5C58.3,55.5,58.3,55.5,58.3,55.5
				c0.1-0.1,0.1-0.1,0.1-0.2l0,0l0,0l0,0c0,0,0,0.1,0,0c0,0,0,0,0,0C58.3,55.4,58.3,55.4,58.3,55.5c0-0.1,0.1-0.1,0.1-0.1l0-0.1l0,0
				l-0.2,0.1C58.2,55.5,58.2,55.5,58.3,55.5z"/>
			<path d="M57.5,57.6C57.5,57.6,57.5,57.5,57.5,57.6C57.5,57.5,57.5,57.6,57.5,57.6z"/>
			<path d="M57.6,57.3c0,0,0.1-0.2,0.1-0.1c-0.1,0.1-0.1,0.2-0.2,0.3c0.1-0.1,0.2-0.2,0.3-0.4l0,0c0.1-0.1,0.3-0.6,0.4-0.7
				C58,56.8,57.8,57,57.6,57.3z"/>
			<path d="M57.9,56.5l-0.2,0.1L57.5,57l0.1-0.2C57.7,56.9,57.8,56.7,57.9,56.5z"/>
			<polygon points="58.2,55.1 58.4,54.7 58,55.2 			"/>
			<polygon points="58,55.1 58.2,54.7 58.1,54.9 			"/>
			<path d="M51.7,58.8l0,0.1C51.7,58.9,51.7,58.9,51.7,58.8z"/>
			<path d="M51.8,58.8l0-0.2C51.8,58.7,51.8,58.8,51.8,58.8z"/>
			<path d="M54.8,53.9c0-0.4,0.1-0.9,0-0.5L54.8,53.9C54.8,53.8,54.8,53.8,54.8,53.9z"/>
			<path d="M52.7,56.4c0,0,0,0.1,0,0.1c0-0.1,0-0.3,0-0.4C52.7,56.2,52.7,56.3,52.7,56.4z"/>
			<path d="M52.7,58.2l-0.1-0.3C52.7,58,52.7,58.1,52.7,58.2z"/>
			<path d="M51.2,59.5l0.1,0.4C51.3,59.9,51.2,59.7,51.2,59.5z"/>
			<path d="M56.7,54.6c0-0.2,0-0.2,0-0.3C56.7,54.6,56.6,54.9,56.7,54.6z"/>
			<path d="M50.6,54.3c0,0.1,0,0.2,0,0.3C50.7,54.5,50.7,54.4,50.6,54.3z"/>
			<path d="M56.6,54.3c0,0,0,0.1,0,0.1c0.1-0.1,0.1-0.1,0.1-0.1C56.7,54.1,56.7,54,56.6,54.3z"/>
			<path d="M48.7,60.4C48.7,60.4,48.7,60.3,48.7,60.4C48.7,60.4,48.7,60.4,48.7,60.4z"/>
			<path d="M45.3,57.5C45.3,57.5,45.3,57.5,45.3,57.5C45.3,57.4,45.2,57.4,45.3,57.5z"/>
			<path d="M57.6,54.6C57.7,54.6,57.7,54.6,57.6,54.6L57.6,54.6z"/>
			<path d="M57,56.2c0,0-0.1,0.1-0.1,0.2C56.9,56.3,56.9,56.3,57,56.2z"/>
			<path d="M55.4,56.7L55.4,56.7C55.4,56.8,55.4,56.8,55.4,56.7z"/>
			<path d="M57.6,54.8c0-0.1,0-0.1,0-0.1C57.6,54.7,57.6,54.8,57.6,54.8z"/>
			<path d="M57.7,54.7C57.7,54.7,57.7,54.7,57.7,54.7C57.7,54.6,57.7,54.6,57.7,54.7z"/>
			<path d="M57.6,54.6C57.6,54.6,57.6,54.7,57.6,54.6C57.6,54.7,57.6,54.7,57.6,54.6C57.6,54.6,57.6,54.6,57.6,54.6z"/>
			<path d="M49.4,58.6C49.4,58.6,49.4,58.6,49.4,58.6C49.4,58.7,49.4,58.7,49.4,58.6z"/>
			<path d="M53.6,58.3C53.6,58.3,53.6,58.3,53.6,58.3L53.6,58.3L53.6,58.3z"/>
			<path d="M53.5,58.6c0.1-0.5,0.1-0.5,0.1-0.4l0.1-1.2L53.5,58.6z"/>
			<path d="M51.4,59l0.1,0.4c0.1,0.6,0,0.4,0.2,0.9c-0.4-1.3,0.1-0.2-0.3-1.5l0.1,0.3c0,0,0,0.1,0,0.1c0.2,0.6-0.2-1-0.1-0.8
				c0.1,0.1,0.1,0.3,0.1,0.4l0-0.3c0,0,0.1,0.3,0.1,0.2l0.1-0.1l0,0c0-0.2-0.1-0.5-0.1-0.7c0.1,0.2,0,0.1,0.1,0.3l0-0.3
				c0.1,0.3,0.1,0.7,0.1,0.6c0.3,1.3,0-0.3,0.2,0.4l0,0.2c0.2,0.7,0.2,0.5,0.3,0.9c-0.1-0.2-0.3-1.2-0.3-1.5c0,0.1,0.1,0.1,0-0.1
				c0.1,0.5,0.1,0.4,0.1,0.3l0.1,0.6c0-0.2-0.1-0.5-0.1-0.8c0,0.1,0.1,0.5,0.2,1c0.1,0.1-0.2-0.8-0.1-0.9c0.1,0.2,0.1,0,0.1-0.4
				c0.1,0.2,0,0.4,0.1,0.6l0-0.5c0,0,0,0.2,0,0.2c0-0.2-0.1-0.6-0.1-0.8c-0.1-0.7,0.2,1,0.2,0.2c0,0.2,0,0.4,0.1,0.6
				c0-0.5,0-0.4,0-1.1l0.1,0.4c-0.1-0.5-0.1-1,0-1.5c0-0.2-0.1-0.4-0.1-0.5l0.1-0.3c0,0.1,0,0.3,0,0.6c0-0.1,0-0.1,0-0.2
				c0,0.2,0,0.6,0,1c0-0.1,0-0.3-0.1-0.4c0,0.4,0,0.8,0,1.2c0-0.1,0-0.1,0-0.2c0,0.1,0,0.2,0,0.3c0,0.1,0-0.1,0-0.2l0.1,0.7l0-0.3
				l0.1,0.4c0-0.7,0.1-1.8,0.2-2.1c0,0.5,0,0.9,0,1.5c0-0.7-0.1,0.3-0.1,0.2c0,0.1,0,0.4,0,0.5l0.1-0.6c0,0.5,0,0.4,0,0.6
				c0-1,0.1-0.7,0.1-1c0,0.3,0,0.7-0.1,0.6c0,0.8,0.1-1.2,0.1-0.5c0,0,0,0,0,0.1c0-0.3,0.1-0.1,0.1,0.2l0,0c0.1,0.1,0.2,0,0.3-0.8
				c0,0.1-0.1,1-0.1,1.2c0.1-0.9,0.3-1.9,0.4-2.8c-0.1,0.7-0.2,2.5-0.3,2.9c0,0.1,0,0.2,0.1,0c0-0.1,0.1-1.1,0.1-1.1
				c0,0.8,0,0.4,0,1.1c0-0.2,0.2-1.3,0.2-1.3c0,0.2-0.2,1.1-0.2,1.2l0.2-1.1c0,0.2-0.1,0.9-0.2,1.3c0-0.2,0.1,0,0.1-0.1l0-0.3
				c0,0.2,0.3-1.5,0.4-1.5c-0.1,0.2-0.3,1.4-0.3,1.5c0.1-0.6,0.6-2.7,0.8-3.1l-0.1,0.3l0.2-0.3c-0.3,0.8-0.8,2.6-0.9,3.3
				c0,0.3-0.1,0.4,0,0.4C54,59,54,59.1,54,59.1l0,0.2c0.1-0.7,0.2-0.6,0.3-1.2l-0.3,0.7c0.1-0.7,0.5-1.9,0.5-1.7
				c0,0.3-0.3,1.2-0.3,1.4c0.1-0.2,0.2-0.4,0.1-0.3l-0.1,0.3c0,0.3,0.3-0.9,0.2-0.2c0,0-0.2,0.8-0.1,0.5c0.2-0.7,0.8-3,1-3.6
				c0,0.1-0.1,0.7-0.2,1.1c-0.1,0.6-0.5,1.4-0.6,1.9c0.1-0.2,0.1-0.4,0.2-0.5c0,0.2-0.2,0.5-0.1,0.5c0.2-0.6,0.1,0.1,0.2-0.5
				c0.1-0.2,0,0.2,0.1,0.1c0.1-0.4,0.5-1.4,0.6-1.6c-0.1,0.2-0.1,0.4-0.2,0.5c0.1,0.1,0,0.4,0.1,0.4c-0.1,0.2-0.1,0.4-0.2,0.6
				c0.1-0.1,0.2-0.3,0.2-0.3c-0.2,0.6-0.1,0.1-0.3,0.7c0.1-0.4,0.3-0.5,0.4-0.7c0.2-0.6,0-0.1-0.2,0.1c0.3-0.8,0.7-1.6,1-1.9
				c0.2-0.2-0.2,0.5-0.1,0.4c0.1,0.2,0.7-1.3,0.6-0.7c-0.2,0.5-0.5,1-0.6,1.3c-0.1,0.2,0-0.3,0-0.3l-0.1,0.3
				c-0.1,0.2-0.2,0.3-0.2,0.1c-0.2,0.4,0.2,0.2,0.1,0.6c0.1-0.2,0.2-0.3,0.3-0.5l-0.1,0c0.2-0.4,0.3-0.5,0.4-0.7
				c0.2-0.2,0.5-0.6,0.4-0.4l-0.3,0.5c0.1-0.2,0.1-0.3,0-0.2c0.2-0.2-0.3,0.8,0.1,0.1l0.2-0.4c0.2-0.2,0.6-0.8,0.6-0.6
				c0.3-0.5,0,0.1,0.3-0.6c-0.4,0.8-0.2-0.1-0.5,0.7c0.3-0.7,0.1-0.4,0.3-1c-0.1,0.2-0.2,0.4-0.2,0.2c0,0-0.1,0.1-0.1,0.2l0,0l0,0
				c0,0,0,0,0,0c0,0.1-0.1,0.2-0.1,0.3c-0.2,0.4-0.3,0.3-0.5,0.5c0-0.1,0.1-0.2,0.2-0.4L57,55.6c0.2-0.4,0.2-0.7,0.4-0.9l-0.1-0.1
				c0.1-0.3,0-0.4-0.1-0.2c0-0.1-0.3,0.4-0.1,0.1l-0.2,0.2l0-0.1c-0.1-0.1-0.5,0.6-0.4-0.2c-0.1,0.1-0.2,0.2-0.2,0.1l0.1-0.4
				c-0.1,0.1,0-0.4-0.2-0.1c0.3-1-0.2-0.3-0.3-0.5L55.9,54c-0.1,0-0.2,0.1-0.3,0.3l-0.1,0.4c-0.2,0.3-0.1-0.3-0.2-0.3
				c0-0.2,0.1-0.1,0.1,0c0.1-1-0.4,0.7-0.4-0.1c-0.1,0.2-0.1,0.1-0.1,0c0,0,0,0,0,0c0,0,0,0,0,0c0-0.1,0-0.2,0-0.2
				c0,0.1,0,0.2,0,0.2c0,0-0.1,0.1-0.1,0.2l0.1-0.5c0,0,0,0,0,0c0-0.2-0.1,0.2-0.1,0.6c0,0.1-0.1,0.2-0.1,0.3c0.1-0.8-0.1,0.2,0-0.6
				c-0.1,0.4-0.2,0.3-0.3,1.1c0-0.1,0-0.2,0-0.2c0-0.1,0-0.2-0.1,0l0.1-0.6L54,55.3c0-0.4,0-0.6,0.1-1.1c-0.2,0.7-0.1,0.3-0.3,1
				l0-0.4c0,0-0.1,0.5-0.1,0.2c0-0.8-0.4-0.1-0.6-0.8c0,1.2-0.1-0.5-0.1,0.4c0-0.3,0-0.4,0-0.7c-0.1,0.3-0.2-0.4-0.2,0.3
				c0-0.3,0-0.4,0-0.6c0,0.1,0,0.2,0,0.1c0-0.2,0-0.2,0-0.4c-0.1,0.1-0.1,0.9-0.1,1.7c-0.1-0.4-0.1-0.3-0.1,0.2c0-0.3-0.1-0.5,0-0.6
				c0,0-0.3-0.4-0.2,0.3c0-0.2-0.1,0-0.1,0c-0.1,0-0.1-0.1-0.2,0l0,0.1c0.1,0.8,0,0.2-0.1,0.3l0-0.1c-0.2-0.5,0,0.3-0.3-0.3l0.1,0.5
				c0.1,1-0.2-0.6-0.2-0.2l0.1,0.3c0,0.4-0.4-1.4-0.4-1.5c0-0.1,0-0.1,0-0.2c-0.2-0.6,0.1,0.6,0,0.8c-0.1-0.3-0.1-0.9-0.2-0.9
				c-0.1-0.3,0,1.1-0.2,0.5c0.1,0.3,0.1,0.5,0.2,0.7c0,0.1-0.4-0.9-0.3-0.1c0-0.1,0-0.1-0.1-0.2c0,0.2-0.1,0.4,0,0.8
				c-0.5-1.6-0.1,0.9-0.5-0.6l-0.1,0.1l0-0.2c-0.1-0.1,0,0.3,0,0.7C50,55.3,50,55.2,50,55.1c-0.2-0.3-0.2-0.2-0.1,0.6l-0.2-0.5
				c0.1,0.3-0.5-0.7-0.4-0.1c0-0.1-0.1-0.1-0.1-0.2c0.1,0.6-0.9-1.1-0.2,0.6l0.1,0.4c0.2,0.1,0.3,0.7,0.5,1c0,0.1-0.3-0.5-0.3-0.6
				l0,0.1c-0.4-0.9-0.3-0.2-0.5-0.8c-0.2,0.1-0.7-0.2-0.9-0.1l0.4,0.6l-0.1,0c-0.1-0.1-0.3-0.5-0.2-0.5C47.7,55.3,48,56,48,56.1
				c-0.2-0.2-0.4-0.8-0.4-0.8l0,0.1l0.1,0.1c0.1,0.3,0.3,0.6,0.2,0.6c-0.1-0.1-0.2-0.4-0.3-0.4c0,0,0-0.1,0,0l-0.1,0l0.3,0.5
				c0.1,0.3-0.1,0,0.3,0.6c-0.6-0.8-0.5-0.1-0.7-0.4c0.2,0.4,0.1,0.4,0,0.4c0.1,0.1,0.4,0.6,0.3,0.6c-0.7-1.2-0.4-0.4-1-1.2
				c0.4,0.5-0.1,0.2,0.5,1c-0.1-0.1-0.3-0.4-0.5-0.7c0.2,0.5-0.4-0.1-0.5,0.1c0.1,0.1,0.3,0.4,0.4,0.6L46,56.5
				c0,0.1,0.6,0.8,0.2,0.4c0.1,0.1,0.2,0.3,0.2,0.3c-0.8-0.5-0.1,0.9-1.4-0.1c0.3,0.2,0.3,0.3,0.2,0.3c0.1,0,0.3,0.3,0.4,0.5
				l-0.5-0.4c0.4,0.5-0.1,0.1,0.3,0.6l0-0.1c0.5,0.6,1.2,1.2,1.8,1.9c-0.5-0.7,0.9,0.9,0.2-0.1c0.1,0.1,0.2,0.2,0.3,0.4
				c-0.2-0.3-0.3-0.4-0.1-0.3l0.1,0.1c0-0.2,0.3,0.1,0.6,0.3L48,59.9c0.1,0,0.2,0.1,0.2,0.2c-0.4-0.6-0.1,0-0.5-0.6
				c0.6,0.7,0.2-0.1,0.9,0.7c0,0-0.3-0.4-0.3-0.5l0.2,0.2l-0.2-0.3c0.1,0,0.3,0.3,0.4,0.5c0,0,0,0.1,0,0.1c0.2,0.3,0-0.2,0.1-0.1
				l-0.1-0.1c0-0.3,0.3-0.1,0.1-0.6l-0.1-0.2c-0.1-0.4,0.2,0.2,0.2-0.1l0,0c-0.1-0.2-0.1-0.3-0.1-0.3c0.1,0.2,0.3,0.4,0.4,0.7
				c-0.1-0.4-0.1-0.3-0.5-1.1l0.2,0.3c-0.2-0.3-0.2-0.5-0.2-0.6c0.1,0.3,0.3,0.5,0.5,0.9c0.5,0.6-0.3-0.8,0.4,0.2
				C49,58.5,49.1,59,49,58.8c-0.2-0.3-0.3-0.7-0.3-0.6c0,0,0.7,1.1,0.8,1.1c0,0,0,0.1,0,0.1c0.2,0.2-0.1-0.3,0.1,0
				c-0.3-0.6,0.1,0-0.3-0.7l0,0.2c-0.1-0.2-0.4-1-0.2-0.7c0.1,0.1,0.1,0.3,0.2,0.5c0.1,0.2,0-0.2,0.1,0c0.4,0.7,0,0.2,0.2,0.8
				c0.2,0.3-0.2-0.5,0.2,0.2c-0.5-1,0.1,0.1-0.2-0.7l0.2,0.4c0-0.1-0.1-0.3-0.1-0.3l0.2,0.6c-0.2-0.5,0.3,0.4,0.2,0.1
				c-0.1,0.1-0.3-0.5-0.5-0.8c-0.2-0.6,0.6,1.1,0.6,0.8c0,0.1-0.2-0.2-0.2-0.4c0.1,0.1,0.2,0.2,0.3,0.4c0-0.1-0.2-0.4-0.3-0.7
				c0.3,0.5-0.1-0.2-0.1-0.4l0.2,0.4c0.2,0.2-0.4-0.9-0.1-0.6l0.2,0.6l0-0.2l0.2,0.5c-0.1-0.4-0.1-0.3,0-0.2
				c-0.1-0.3-0.3-0.8-0.3-0.8c0.1,0.3,0.2,0.4,0.2,0.3c0.1,0.3,0.2,0.6,0,0.2c0.1,0.1,0.1,0.3,0.2,0.4c0.2,0.3,0.1,0,0.1,0
				c0,0,0,0-0.1-0.1l-0.2-0.7c0.1,0.2,0.1,0.3,0.2,0.4c0-0.1-0.1-0.3-0.1-0.3c0.1,0.4,0.3,0.7,0.3,0.9l-0.1-0.4
				c0.1,0.2,0.2,0.4,0.2,0.6c0.1,0.2-0.2-0.8,0-0.5c0-0.1,0-0.1,0-0.2c0.1,0.1,0.3,0.5,0.2,0l0.3,0.7c0-0.2-0.3-0.8-0.3-1.1
				c0-0.2,0.2,0.6,0.3,0.7C51.4,59.1,51.2,58.4,51.4,59C51.5,59.1,51.4,59,51.4,59z M52,58.6c0,0.1,0,0.4,0,0.1
				C51.8,58.2,51.9,58.4,52,58.6z M52.8,57.3C52.8,57.5,52.8,57.4,52.8,57.3C52.8,57.2,52.8,57.2,52.8,57.3z M57.2,54.8
				C57.2,54.8,57.2,54.9,57.2,54.8C57.2,54.7,57.2,54.7,57.2,54.8z M57.2,55.1c0-0.1,0.1-0.1,0.1-0.2C57.2,55,57.2,55,57.2,55
				C57.1,55.1,57.1,55.2,57.2,55.1z M47.7,55.8l0.1,0.1C47.8,56.1,47.7,56,47.7,55.8z"/>
			<path d="M52.7,58c0-0.1,0-0.2,0-0.3C52.7,57.8,52.7,57.9,52.7,58z"/>
			<polygon points="51.2,59.4 51.2,59.4 51.2,59.5 			"/>
			<path d="M54.6,58.4c0-0.1,0-0.2,0.1-0.2C54.6,58.3,54.6,58.4,54.6,58.4z"/>
			<path d="M58,54.6l-0.1,0.1c0,0,0,0.1,0,0.2C57.9,54.7,58,54.6,58,54.6z"/>
			<path d="M56.9,57.4C57,57.4,56.9,57.4,56.9,57.4l0.2-0.2C57.1,57.2,56.9,57.3,56.9,57.4z"/>
			<path d="M57.3,56c-0.2,0.4-0.1,0.3,0,0.2c0,0,0,0,0,0C57.5,55.7,57.4,55.9,57.3,56z"/>
			<path d="M57.3,56.2C57.3,56.2,57.3,56.2,57.3,56.2C57.4,56,57.3,56.2,57.3,56.2z"/>
			<path d="M57.4,54.9c0,0.1,0.2-0.5,0.2-0.3C57.8,54.1,57.2,55.1,57.4,54.9z"/>
			<polygon points="56.6,57.2 56.9,56.8 56.7,57.1 			"/>
			<path d="M56.6,56.8l0,0.2C56.6,56.8,56.6,56.8,56.6,56.8C56.6,56.7,56.7,56.6,56.6,56.8z"/>
			<path d="M56.7,56.8C56.7,56.8,56.7,56.8,56.7,56.8C56.7,56.7,56.7,56.7,56.7,56.8z"/>
			<polygon points="56.5,57.3 56.5,57.2 56.5,57.2 			"/>
			<path d="M56.1,56.4L56,56.5c-0.1,0.2-0.1,0.3-0.1,0.2C56,56.6,56,56.6,56.1,56.4z"/>
			<path d="M55.7,57.7c0-0.1,0.1-0.2,0.1-0.4l-0.3,0.6L55.7,57.7z"/>
			<path d="M55.5,57.8c-0.1,0.2-0.3,0.4-0.2,0.4C55.4,58.1,55.5,57.9,55.5,57.8z"/>
			<polygon points="55,56.8 55,56.8 55.3,55.8 			"/>
			<path d="M53.9,59c0,0.3,0.1-0.6,0.1-0.3c0.1-0.2,0-0.3,0.1-0.5C54,58.5,54,58.4,53.9,59z"/>
			<path d="M54,58.3c0,0,0-0.1,0-0.1C54.1,58.2,54,58.2,54,58.3z"/>
			<path d="M44.7,57.2c-0.1,0-0.1-0.1-0.2-0.1c0.1,0.1,0.2,0.1,0.3,0.2L44.7,57.2z"/>
			<path d="M45.2,57.9l-0.5-0.5L45.2,57.9C45.1,57.8,45,57.8,45.2,57.9z"/>
			<path d="M52.3,59.8l0-0.2c0-0.2,0-0.2-0.1-0.2L52.3,59.8z"/>
			<polygon points="51.8,59.4 51.8,59.4 51.7,58.9 			"/>
			<path d="M51.7,60.3C51.7,60.3,51.7,60.1,51.7,60.3C51.7,60.3,51.5,59.6,51.7,60.3z"/>
		</g>
		<g>
			<path class="st1" d="M105.5,63.6c0,0,3.5-4,7.1,0c2.5,4.2-0.5,15.7-2.5,17.7c-2.7,3-6.3,0.8-6.3,0.8L105.5,63.6z"/>
			<path d="M106.7,83.4c-1.7,0-3.1-0.8-3.1-0.8l-0.3-0.2l1.7-19l0.1-0.1c0.1-0.1,1.8-1.9,4-1.9c1.4,0,2.6,0.7,3.8,1.9
				c2.6,4.4-0.3,16.2-2.5,18.4C109.3,83,107.9,83.4,106.7,83.4z M104.3,81.9c0.8,0.4,3.4,1.3,5.4-0.9c1.8-1.8,4.8-13,2.4-17.1
				c-0.9-1-1.9-1.5-3-1.5c0,0,0,0,0,0c-1.6,0-2.8,1.1-3.2,1.5L104.3,81.9z"/>
		</g>
		<g>
			<path class="st4" d="M49,90.6c0,0-8.3,8.1,0,22.2c5.7,8.3-1.8,16-1.8,16s7.2-0.2,8.2-4.9c0,0-0.5,5-2.6,7.3c0,0,6.8-0.8,8.9-7.2
				c0,0,3.2,5.2,0,9.6c0,0,6.9,1.2,9.8-8.9c0,0,4.6,4.4,2.3,8.9c0,0,7-1.7,11.6-15.8c3.5-9.9,9.6-6.4,15-17.7s6.1-16.4,5.9-20.6
				C106,75.2,49,90.6,49,90.6z"/>
			<path d="M71.8,135.1l1-1.9c1.3-2.5,0-5-1-6.4c-3.4,9-10.3,7.9-10.3,7.8l-1.6-0.3l0.9-1.3c1.6-2.3,1.3-4.8,0.8-6.5
				c-2.9,5-8.5,5.7-8.7,5.8l-2.7,0.3l1.8-2c0.6-0.6,1-1.5,1.3-2.4c-2.6,1.6-6,1.7-6.2,1.7l-2.4,0.1l1.7-1.8
				c0.3-0.3,6.9-7.2,1.7-14.8c-8.7-14.7,0-23.4,0.1-23.5l0.2-0.2l0.3-0.1c12.6-3.4,54-14.3,57.9-11.4c0.4,0.3,0.6,0.7,0.6,1.1
				c0.2,4.8-0.8,10.3-6,21.1c-2.9,5.9-5.9,8-8.6,9.8c-2.5,1.7-4.7,3.2-6.3,7.8c-4.7,14.4-12,16.3-12.3,16.4L71.8,135.1z M61.3,121.6
				l1.1,1.9c0.1,0.2,2.8,4.6,0.9,9c2-0.3,5.3-1.9,7.1-8.1l0.5-1.6l1.2,1.1c0.2,0.2,3.7,3.6,3.2,7.7c2.3-1.5,6.1-5.3,9-14.1
				c1.8-5.2,4.4-7,7.1-8.8c2.6-1.8,5.3-3.6,7.9-9c5.5-11.3,5.9-16.2,5.8-19.8c-3.5-1.1-30.7,5-55.7,11.7c-1.1,1.2-6.9,8.5,0.3,20.8
				c4.3,6.2,1.6,12.2-0.4,15.2c1.9-0.4,4.4-1.5,5-3.8l2,0.3c0,0.2-0.3,3.1-1.5,5.6c2-0.8,4.6-2.4,5.7-5.9L61.3,121.6z"/>
		</g>
		<g>
			<path class="st5" d="M61.3,97.1c0,0,6.2,3.1,17.8-6.2l0.3,3.2c0,0-7.4,5-11.4,5.5C63.2,100.3,61.3,97.1,61.3,97.1z"/>
			<path d="M66.7,100.2c-4,0-5.7-2.8-5.8-2.9l-0.8-1.4l1.5,0.7c0.1,0,6.1,2.7,17.3-6.1l0.7-0.6l0.4,4.5l-0.2,0.2
				c-0.3,0.2-7.5,5-11.7,5.6C67.6,100.2,67.1,100.2,66.7,100.2z M62.9,98c1,0.7,2.6,1.5,5.1,1.1c3.5-0.4,9.7-4.4,11-5.2l-0.2-2
				C70.8,97.9,65.4,98.3,62.9,98z"/>
		</g>
		<path d="M63,76.3H42.7l-0.8-14.7l23.5-0.2L63,76.3z M44.6,74.3h16.7L63,63.5l-19,0.1L44.6,74.3z"/>
		<g>
			<path class="st6" d="M46,56.9c0,0-14.2-5.1-3.5-23.7s64.4-15.6,61.5,6c0,0,6.6-4.3,9.2,5.7s-1.1,20.8-1.5,21.6
				c-0.5,0.8-3.5-3.4-3.5-3.4l-0.2-6.3c0,0-0.6,19.4-2.6,22.2s-5.4-1.2-5.4-1.2s1.2-21.3,0.6-23.9c0,0-0.5,1.7-7.4,0.9
				c0,0,3.5-1.7,4.6-5.2c0,0-8.9,5.5-19.1-2.8s-19.4-0.5-17.9,9.9c0,0-5.2,0.2-4-14.8c0,0-4.8,4.5-3.2,15.2c0,0-9.1-4-5.9-14.6
				C47.7,42.4,41,47.7,46,56.9z"/>
			<path d="M103.6,80.4c-2,0-4-2.3-4-2.4l-0.1-0.2l0-0.2c0.4-6.6,1-19,0.7-22.8c-1,0.5-2.9,0.9-7.1,0.4l-1.7-0.2l1.6-0.8
				c0,0,2.6-1.3,3.9-3.8c-2.9,1.2-10.3,3.2-18.5-3.4c-4.3-3.5-8.7-4.3-12.3-2.3c-3.6,2.1-5.5,6.7-4.8,11.7l0.1,0.6l-0.6,0
				c-0.1,0-1.1,0-2.2-1.1c-1.4-1.4-2.8-4.8-2.4-12.5c-1.3,2-3.2,6.3-2.1,13.6l0.1,0.9l-0.8-0.4c-0.1,0-8.4-3.8-6.6-13.4
				c-1.6,2-3.8,6.3-0.3,12.6l0.6,1.2l-1.2-0.4c-0.2-0.1-5.1-1.9-7-7.2c-1.7-4.7-0.6-10.5,3.2-17.3c7-12.2,32.3-15.4,48.7-9.9
				c9.4,3.2,14.2,8.6,13.8,15.3c1-0.4,2.7-0.9,4.5-0.2c2.1,0.8,3.7,3.1,4.6,6.7c2.7,10.2-1.2,21.2-1.6,21.9
				c-0.1,0.2-0.3,0.3-0.6,0.3c0,0,0,0,0,0c-0.8,0-2.2-1.6-3.4-3.1c-0.4,5.9-1.1,13.6-2.4,15.3C105.2,80,104.5,80.4,103.6,80.4
				C103.7,80.4,103.6,80.4,103.6,80.4z M100.5,77.5c0.6,0.7,2,1.9,3.2,1.9c0.5,0,0.9-0.3,1.3-0.8c1.6-2.2,2.4-16.5,2.5-21.9l1,0
				l0.2,6.2c1,1.3,2.2,2.7,2.7,3.1c0.7-1.8,3.8-11.7,1.4-20.9c-0.9-3.3-2.2-5.3-4-6c-2.2-0.9-4.4,0.5-4.5,0.6l-0.9,0.6l0.1-1.1
				c1.2-8.9-7.7-13.3-13-15.1c-16-5.4-40.7-2.4-47.5,9.4c-3.7,6.5-4.8,12-3.2,16.4c1.2,3.3,3.7,5.1,5.2,6C41,47.1,47.4,42.1,47.4,42
				l1.2-1l-0.5,1.5c-2.5,8.3,2.7,12.3,4.8,13.6c-1.2-10.2,3.3-14.5,3.5-14.7l0.9-0.9l-0.1,1.3c-0.7,8.5,0.7,12,2,13.4
				c0.3,0.4,0.7,0.6,0.9,0.7c-0.5-5.2,1.5-9.8,5.4-12c3.9-2.2,8.8-1.4,13.4,2.4c9.8,8,18.2,3,18.5,2.7l1.1-0.7l-0.4,1.3
				c-0.7,2.3-2.4,3.9-3.6,4.7c4.8,0.3,5.4-0.7,5.4-0.7l0.5-1.9l0.4,2C101.7,56.3,100.6,75.2,100.5,77.5z"/>
		</g>
		<g>
			<path class="st4" d="M59.4,79.9c0,0-3.2-2.4-13.2,3c-3.8,1.9-9.2-3.4-9.7-4.1c0,0-0.8,5.8,6.7,7.7c0,0-2,1.7-6.7,0
				c0,0-1.1,5.3,10.1,8.5c11.2,3.2,21.4-4.8,21.3-6.8C67.6,86.2,59.4,79.9,59.4,79.9z"/>
			<path d="M51.9,96.8c-1.9,0-3.8-0.2-5.7-0.8c-11.9-3.5-10.9-9.5-10.8-9.7l0.2-1.1l1.1,0.4c1.2,0.4,2.2,0.6,3,0.7
				c-4.9-2.7-4.3-7.5-4.3-7.6l0.3-2.4l1.5,1.9c0.5,0.6,5.4,5.4,8.5,3.8C56,76.4,59.6,78.8,60,79.1l0,0c2.6,2,8.6,6.9,8.8,9.1
				c0.1,1.2-1.3,2.6-2.5,3.6C63.1,94.3,57.8,96.8,51.9,96.8z M37.6,87.9c0.5,1.5,2.4,4.2,9.2,6.2c7.4,2.1,13.8-1,16.2-2.4
				c2.7-1.6,3.8-3.1,3.8-3.4c-0.2-0.9-4.3-4.7-8-7.6c-0.2-0.1-3.3-1.7-12.2,3.1c-2.9,1.5-6.5-0.5-8.7-2.3c0.6,1.5,2.1,3.2,5.5,4
				l1.9,0.5l-1.5,1.3C43.5,87.4,41.6,88.9,37.6,87.9z"/>
		</g>
		<g>
			<path class="st1" d="M62.9,58c0,0-3.1,19.7-4.4,24c-1.3,4.3,4.3,6.8,11.9,6.1l10.3-5.8"/>
			<path d="M67.9,88.7c-4.2,0-7.6-1.1-9.2-3c-0.9-1.1-1.1-2.4-0.7-3.9c1.3-4.2,4.3-23.8,4.4-24l1,0.2c-0.1,0.8-3.1,19.8-4.4,24.1
				c-0.3,1.1-0.2,2.1,0.5,3c1.6,2,5.7,2.9,10.7,2.5l10.2-5.8l0.5,0.9l-10.5,5.9C69.6,88.7,68.7,88.7,67.9,88.7z"/>
		</g>
		<path d="M62,66.2l-0.6-0.8c0.1,0,5.9-4.8,11.6-1l-0.6,0.8C67.2,61.9,62,66.2,62,66.2z"/>
		<g>
			<path class="st4" d="M70.6,88.4c0,0,0.8-12.2,12-11.8c4.9,0.3,8.3,5.2,19.5-2c0,0-0.3,2.6-1.8,4.5c0,0,4.5-1.9,6.1-5.4
				c0,0,3.9,5.4-7.1,14.7S72.1,90,70.6,88.4z"/>
			<path d="M86.3,93.9c-8.2,0-15.5-3.7-16.5-4.8l-0.3-0.3l0-0.4c0-0.1,1.1-13.1,13-12.7c1.4,0.1,2.7,0.5,4,0.9
				c3.5,1.2,7.1,2.3,15-2.8l1.8-1.2l-0.2,2.1c0,0.1-0.1,0.8-0.4,1.8c1.1-0.8,2.2-1.9,2.8-3.2l0.7-1.6l1,1.4
				c0.2,0.3,4.3,6.3-7.2,16.1C95.8,92.7,90.9,93.9,86.3,93.9z M71.7,88c2.6,1.9,17.2,8,27-0.4c6.5-5.5,7.5-9.4,7.4-11.5
				c-2.1,2.5-5.2,3.8-5.3,3.9l-3.6,1.5l2.4-3.1c0.4-0.5,0.7-1.1,1-1.7c-7.3,4.1-11.3,2.8-14.5,1.7c-1.2-0.4-2.3-0.8-3.4-0.8
				C73.6,77.3,71.9,85.8,71.7,88z"/>
		</g>
		<path d="M71.6,75.8V59.7H97v15.8L71.6,75.8z M73.6,61.7v12.1L95,73.5V61.7H73.6z"/>
	</g>
</g>
<path class="st7" d="M73.3,145.6c-39.9,0-72.3-32.4-72.3-72.3S33.4,0.9,73.3,0.9s72.3,32.4,72.3,72.3S113.1,145.6,73.3,145.6z
	 M73.3,6.9C36.7,6.9,6.9,36.7,6.9,73.3c0,36.6,29.8,66.3,66.3,66.3c36.6,0,66.3-29.8,66.3-66.3C139.6,36.7,109.8,6.9,73.3,6.9z"/>
</svg>
