<?xml version="1.0" encoding="utf-8"?>
<!-- Generator: Adobe Illustrator 21.1.0, SVG Export Plug-In . SVG Version: 6.00 Build 0)  -->
<svg version="1.1" id="Layer_1" xmlns="http://www.w3.org/2000/svg" xmlns:xlink="http://www.w3.org/1999/xlink" x="0px" y="0px"
	 viewBox="0 0 146.5 146.5" style="enable-background:new 0 0 146.5 146.5;" xml:space="preserve">
<style type="text/css">
	.st0{fill:#20AD8A;}
	.st1{fill:#F8EDD9;}
	.st2{fill:#231F20;}
	.st3{fill:#FFFFFF;}
	.st4{fill:#A9732A;}
	.st5{fill:none;stroke:#231F20;stroke-width:3;stroke-miterlimit:10;}
	.st6{fill:none;stroke:#231F20;stroke-miterlimit:10;}
	.st7{fill:#5781C1;}
</style>
<path class="st0" d="M73.3,145.6C33.4,145.6,1,113.2,1,73.3S33.4,0.9,73.3,0.9s72.3,32.4,72.3,72.3S113.1,145.6,73.3,145.6z
	 M73.3,6.9C36.7,6.9,6.9,36.7,6.9,73.3s29.8,66.3,66.3,66.3c36.6,0,66.3-29.8,66.3-66.3C139.6,36.7,109.8,6.9,73.3,6.9z"/>
<g>
	<g>
		<path class="st1" d="M40.5,61c0,0-1.4,40.1,5.8,55.3c7.2,15.2,7.7,13.5,16.6,13.5c8.8,0,19.9-3.6,23.8-9.4
			c3.9-5.8,22.7-20.2,22.7-20.2l5-50L76.2,38L40.5,61z"/>
		<path class="st2" d="M58.8,130.3c-5.3,0-6.9-1.1-12.9-13.8c-7.1-15.1-5.9-53.8-5.8-55.5l0-0.2l36-23.2l38.7,12.3l-5,50.6l-0.2,0.1
			c-0.2,0.1-18.8,14.4-22.6,20.1c-4,6-15.4,9.6-24.1,9.6c-0.9,0-1.6,0-2.3,0C59.9,130.2,59.4,130.3,58.8,130.3z M41,61.2
			c-0.1,3.3-1,40.5,5.8,54.8c6.4,13.5,7.4,13.4,13.8,13.3c0.7,0,1.5,0,2.4,0c8.5,0,19.6-3.4,23.4-9.2c3.7-5.6,20.7-18.7,22.6-20.2
			l4.9-49.5l-37.6-12L41,61.2z"/>
	</g>
	<rect x="89.1" y="70.3" transform="matrix(0.921 -0.3897 0.3897 0.921 -19.5403 45.0561)" class="st2" width="24.4" height="0.9"/>
	<g>
		<path class="st3" d="M99.8,50.6c0,0-13.3,9.6-37.2,13.6c-23.9,4.1-35.2,0.4-39.2-4.2c0,0,3.1,0.7,5-0.9c0,0-2.8-0.4-2.9-5.2
			c0,0,9.7,0.2,15-17.5c5.3-17.7,61.5-31.3,64-10.7c0,0,16.2,0.9,15.8,35c-0.4,34.1-6,50.3-6,50.3l-4.7-6.1l-4.2,6.1l0.9-22.8
			l8-10.7l-7.1-8.7L107,53.4c0,0-5.7,6.8-13.4,7.9C93.6,61.3,99.1,55.5,99.8,50.6z"/>
		<path class="st2" d="M105.1,111.8l1-23.7l8-10.6l-7-8.6l-0.2-15c-1.4,1.5-6.6,6.6-13.2,7.6L93,61.6l0.4-0.5
			c0.1-0.1,5.1-5.4,6.1-10.1c-2.5,1.7-15.5,9.8-36.9,13.4c-28,4.7-36.9-1.4-39.4-4.3l-0.5-0.5l0.7,0.2c0,0,2.7,0.6,4.5-0.6
			c-0.8-0.3-2.6-1.4-2.7-5.2l0-0.2l0.2,0c0.1,0,9.6-0.1,14.8-17.3c1.7-5.7,8.7-11.4,19.3-15.7c9.9-4,21.4-6.1,29.9-5.4
			c8.9,0.7,14.3,4.4,15.2,10.2c0.8,0.1,4.4,0.8,8,4.8c3.7,4.1,8,12.8,7.8,30.4c-0.4,33.7-5.9,50.2-6,50.4l-0.1,0.4l-4.8-6.2
			L105.1,111.8z M109.6,104.6l4.6,6c0.8-2.7,5.5-19,5.8-49.8c0.2-17.5-4.1-26-7.7-30.1c-3.9-4.4-7.9-4.7-7.9-4.7l-0.2,0l0-0.2
			c-0.9-7.4-8.5-9.5-14.8-10c-8.5-0.7-19.9,1.3-29.7,5.3C49.2,25.4,42.3,31,40.6,36.5c-4.8,16.1-13.5,17.5-15,17.6
			c0.2,4.3,2.6,4.7,2.7,4.7l0.5,0.1l-0.3,0.3c-1.4,1.3-3.5,1.2-4.5,1.1c3,3,12.3,8.2,38.6,3.7c23.6-4,37-13.5,37.1-13.6l0.4-0.3
			l-0.1,0.5c-0.6,4.1-4.6,8.8-5.9,10.3c7.3-1.3,12.6-7.7,12.7-7.7l0.4-0.5l0.2,16l7.2,8.7l-8.1,10.8l-0.9,22L109.6,104.6z"/>
	</g>
	<g>
		<path class="st4" d="M99.8,50.6c0,0-13.3,9.6-37.2,13.6c-9.2,1.6-16.5,2-22.2,1.6c-9.3-0.5-14.5-3-17-5.9c0,0,3.1,0.7,5-0.9
			c0,0-2.8-0.4-2.9-5.2c0,0,9.7,0.2,15-17.5c5.3-17.7,61.5-31.3,64-10.7c0,0,16.2,0.9,15.8,35c-0.4,34.1-6,50.3-6,50.3l-4.7-6.1
			l-4.2,6.1l0.3-8.3l0.6-14.5l8-10.7l-7.1-8.7L107,53.4c0,0-5.7,6.8-13.4,7.9C93.6,61.3,99.1,55.5,99.8,50.6z"/>
		<path class="st2" d="M105.1,111.8l1-23.7l8-10.6l-7-8.6l-0.2-15c-1.4,1.5-6.6,6.6-13.2,7.6L93,61.6l0.4-0.5
			c0.1-0.1,5.1-5.4,6.1-10.1c-2.5,1.7-15.5,9.8-36.9,13.4c-8.6,1.4-16,2-22.3,1.6c-10.4-0.6-15.1-3.6-17.2-5.9l-0.5-0.5l0.7,0.2
			c0,0,2.7,0.6,4.5-0.6c-0.8-0.3-2.6-1.4-2.7-5.2l0-0.2l0.2,0c0.1,0,9.6-0.1,14.8-17.3c1.7-5.7,8.7-11.4,19.3-15.7
			c9.9-4,21.4-6.1,29.9-5.4c8.9,0.7,14.3,4.4,15.2,10.2c0.8,0.1,4.4,0.8,8,4.8c3.7,4.1,8,12.8,7.8,30.4c-0.4,33.7-5.9,50.2-6,50.4
			l-0.1,0.4l-4.8-6.2L105.1,111.8z M109.6,104.6l4.6,6c0.8-2.7,5.5-19,5.8-49.8c0.2-17.5-4.1-26-7.7-30.1c-3.9-4.4-7.9-4.7-7.9-4.7
			l-0.2,0l0-0.2c-0.9-7.4-8.5-9.5-14.8-10c-8.5-0.7-19.9,1.3-29.7,5.3C49.2,25.4,42.3,31,40.6,36.5c-4.8,16.1-13.5,17.5-15,17.6
			c0.2,4.3,2.6,4.7,2.7,4.7l0.5,0.1l-0.3,0.3c-1.4,1.3-3.5,1.2-4.5,1.1c2.2,2.2,6.9,4.8,16.4,5.3c6.2,0.4,13.6-0.2,22.2-1.6
			c23.6-4,37-13.5,37.1-13.6l0.4-0.3l-0.1,0.5c-0.6,4.1-4.6,8.8-5.9,10.3c7.3-1.3,12.6-7.7,12.7-7.7l0.4-0.5l0.2,16l7.2,8.7
			l-8.1,10.8l-0.9,22L109.6,104.6z"/>
	</g>
	<path class="st2" d="M104.6,113.3l0.5-11.7l1.3,0.1l-0.3,7.2l3.5-5l4.5,5.8c1.2-4.3,5.3-20.4,5.6-48.9c0.2-17.3-4-25.7-7.5-29.7
		c-3.8-4.3-7.7-4.6-7.7-4.6l-0.5,0l-0.1-0.5c-0.9-7.1-8.3-9.2-14.4-9.7c-17.3-1.4-44.8,8.6-48.4,20.4c-4.6,15.4-12.5,17.6-14.9,17.9
		c0.3,3.5,2.3,3.9,2.3,3.9l1.3,0.2l-1,0.9c-1.1,1-2.4,1.2-3.6,1.3c3.3,2.5,9,4.2,15.9,4.6L41,66.8C32.7,66.3,26,64,22.9,60.5
		l-1.4-1.5l2,0.5c0,0,1.9,0.4,3.4-0.2c-1-0.7-2.1-2.1-2.2-5.2l0-0.7l0.7,0c0,0,0,0,0,0c0.1,0,9.3-0.2,14.4-17
		c3.7-12.6,31.6-22.9,49.7-21.4c9,0.7,14.5,4.4,15.5,10.3c1.3,0.2,4.6,1.1,8,4.9c5.4,6.1,8.1,16.4,8,30.7c-0.4,33.8-6,50.3-6,50.5
		l-0.4,1.1l-4.9-6.3L104.6,113.3z"/>
	<path class="st5" d="M99.8,50.6"/>
	<g>
		<line class="st3" x1="114.3" y1="77.5" x2="107.2" y2="68.9"/>
		
			<rect x="110.5" y="67.6" transform="matrix(0.7736 -0.6337 0.6337 0.7736 -21.3176 86.7608)" class="st2" width="0.4" height="11.2"/>
	</g>
	<path class="st2" d="M55.3,107.3c-1.1,0-2-0.2-2.7-0.7c-1.6-0.8-2.3-2.4-1.8-3.7c1.3-3.4,2.1-28.6,2.1-28.9l0.4,0
		c0,1-0.8,25.5-2.1,29c-0.4,1.1,0.2,2.4,1.6,3.2c2.7,1.5,7.8,0.6,13.2-6.7l0.4,0.3C62.3,105.4,58.3,107.3,55.3,107.3z"/>
	<path class="st2" d="M89.5,69.8c-8-6.9-20.6-1.9-20.7-1.9l-0.3-0.8c0.1-0.1,13.2-5.3,21.6,2L89.5,69.8z"/>
	<path class="st2" d="M39.7,71l-0.6-0.6c6.2-5.6,11.1-1.8,11.2-1.8l-0.5,0.7C49.6,69.1,45.3,65.9,39.7,71z"/>
	<path class="st2" d="M74.7,88.2c-4.2,0-7.3-1.2-9.3-3.7C61.9,80.4,63,74.2,63,73.9l0.1-0.3l27.1-1.2l0.1,0.4
		c0.7,5.2,0,8.8-2.1,11.2c-2.4,2.8-6.7,4.1-13.2,4.2C74.8,88.2,74.8,88.2,74.7,88.2z M63.8,74.4c-0.2,1.3-0.6,6.2,2.2,9.6
		c1.9,2.2,4.8,3.4,8.8,3.3c6.2,0,10.3-1.3,12.6-3.9c1.9-2.2,2.5-5.4,2-10.1L63.8,74.4z"/>
	<path class="st2" d="M46.1,85.9c-0.1,0-0.2,0-0.3,0c-1.7,0-3.1-0.7-4.1-1.9c-2.7-3-2.1-8.7-2.1-9l0-0.4l13.4-0.6l0,0.9
		c0,4,0,7.4-2,9.3C49.9,85.4,48.3,85.9,46.1,85.9z M40.4,75.5c-0.1,1.3-0.2,5.6,1.9,7.9c0.9,1,2.1,1.5,3.5,1.6
		c2.1,0,3.6-0.4,4.5-1.3c1.7-1.7,1.7-4.9,1.7-8.7L40.4,75.5z"/>
	<path class="st6" d="M110.9,67.5"/>
	<path class="st2" d="M62.9,78.4c-4.4-5.2-10-0.7-10.2-0.5l-0.6-0.7c0.1-0.1,6.5-5.3,11.4,0.6L62.9,78.4z"/>
	<path class="st2" d="M58.6,111.3l0-0.4c0.2,0,16.7-0.5,27.9-11.4l0.3,0.3C75.4,110.8,58.7,111.3,58.6,111.3z"/>
	<g>
		<path class="st1" d="M107,69c0,0,3.9-4.1,6.9-1.9c3,2.2,4.2,20-1.6,22.7c-4.4,2.2-6-3.4-5.5-2.2"/>
		<path class="st2" d="M110.4,90.4c-1.1,0-1.9-0.5-2.5-1c-0.6-0.6-1.1-1.4-1.3-1.8l0,0c0-0.1,0-0.1-0.1-0.2l0,0c0-0.1,0-0.1,0-0.2
			l0.1-0.1l0.2,0c0.2,0,0.2,0.1,0.3,0.3c0.2,0.4,0.9,1.8,2.2,2.3c0.9,0.4,1.9,0.3,3.1-0.3c2-0.9,3.4-3.9,3.8-8.5
			c0.6-5.7-0.6-12.6-2.3-13.8c-2.8-2.1-6.6,1.9-6.6,1.9l-0.3-0.3c0.2-0.2,4-4.3,7.2-2c1.9,1.4,3.1,8.3,2.5,14.2
			c-0.5,4.7-1.9,7.8-4.1,8.8C111.7,90.3,111,90.4,110.4,90.4z"/>
	</g>
	<g>
		<path class="st3" d="M86.6,77.2c0,4.2-4.6,7.6-10.2,7.6c-5.6,0-10.2-3.4-10.2-7.6c0-0.2,0-0.4,0-0.6L86.5,76
			C86.5,76.4,86.6,76.8,86.6,77.2z"/>
		<path class="st2" d="M76.4,85C70.7,85,66,81.5,66,77.2c0-0.2,0-0.4,0-0.6l0-0.2l20.6-0.6l0,0.2c0.1,0.4,0.1,0.8,0.1,1.2
			C86.8,81.5,82.1,85,76.4,85z M66.5,76.8c0,0.1,0,0.3,0,0.4c0,4.1,4.5,7.4,10,7.4s10-3.3,10-7.4c0-0.3,0-0.6-0.1-1L66.5,76.8z"/>
	</g>
	<g>
		<path class="st3" d="M51.7,77c0,0.3,0.1,0.5,0.1,0.8c0,3-2.2,5.4-5,5.4c-2.8,0-5-2.4-5-5.4c0-0.2,0-0.4,0-0.6L51.7,77z"/>
		<path class="st2" d="M46.7,83.4c-2.9,0-5.2-2.5-5.2-5.6c0-0.2,0-0.4,0-0.6l0-0.2l10.3-0.2l0,0.2c0,0.3,0.1,0.5,0.1,0.8
			C51.9,80.9,49.6,83.4,46.7,83.4z M41.9,77.4c0,0.1,0,0.2,0,0.4c0,2.8,2.1,5.1,4.8,5.1c2.6,0,4.8-2.3,4.8-5.1c0-0.2,0-0.4,0-0.6
			L41.9,77.4z"/>
	</g>
	<g>
		<circle class="st7" cx="76.9" cy="79.5" r="3.1"/>
		<path class="st2" d="M76.9,82.8c-1.8,0-3.4-1.5-3.4-3.4c0-1.8,1.5-3.4,3.4-3.4c1.8,0,3.4,1.5,3.4,3.4
			C80.3,81.3,78.8,82.8,76.9,82.8z M76.9,76.5c-1.6,0-2.9,1.3-2.9,2.9c0,1.6,1.3,2.9,2.9,2.9c1.6,0,2.9-1.3,2.9-2.9
			C79.8,77.8,78.5,76.5,76.9,76.5z"/>
	</g>
	<g>
		<circle class="st7" cx="46.6" cy="79.5" r="2.1"/>
		<path class="st2" d="M46.6,81.8c-1.3,0-2.3-1-2.3-2.3c0-1.3,1-2.3,2.3-2.3c1.3,0,2.3,1,2.3,2.3C48.9,80.7,47.9,81.8,46.6,81.8z
			 M46.6,77.6c-1,0-1.9,0.9-1.9,1.9c0,1,0.9,1.9,1.9,1.9c1,0,1.9-0.9,1.9-1.9C48.5,78.4,47.6,77.6,46.6,77.6z"/>
	</g>
	
		<rect x="47.4" y="125.8" transform="matrix(0.7886 -0.6149 0.6149 0.7886 -66.7089 57.9996)" class="st2" width="7.3" height="0.4"/>
	<rect x="49.8" y="128.8" transform="matrix(0.482 -0.8762 0.8762 0.482 -85.344 113.7072)" class="st2" width="7.4" height="0.4"/>
	
		<rect x="54.9" y="130.2" transform="matrix(0.1036 -0.9946 0.9946 0.1036 -77.5242 174.8074)" class="st2" width="6.7" height="0.4"/>
	<rect x="63.1" y="127.1" class="st2" width="0.4" height="5.9"/>
</g>
</svg>
