<?xml version="1.0" encoding="utf-8"?>
<!-- Generator: Adobe Illustrator 19.0.0, SVG Export Plug-In . SVG Version: 6.00 Build 0)  -->
<!DOCTYPE svg PUBLIC "-//W3C//DTD SVG 1.1//EN" "http://www.w3.org/Graphics/SVG/1.1/DTD/svg11.dtd">
<svg version="1.1" id="Layer_1" xmlns="http://www.w3.org/2000/svg" xmlns:xlink="http://www.w3.org/1999/xlink" x="0px" y="0px"
	 viewBox="0 0 302.1 302.1" style="enable-background:new 0 0 302.1 302.1;" xml:space="preserve">
<style type="text/css">
	.st0{fill:#24292F;}
	.st1{fill:#FFFFFF;}
	.st2{fill:#D94024;}
	.st3{fill:#E53A39;}
	.st4{clip-path:url(#XMLID_118_);}
</style>
<g id="XMLID_2_">
	<g id="XMLID_173_">
		<circle id="XMLID_176_" class="st0" cx="151.1" cy="151.1" r="146.7"/>
		<path id="XMLID_160_" class="st1" d="M135.6,5.2C216.1-3.4,288.4,55,296.9,135.6c8.5,80.6-49.8,152.8-130.4,161.4
			C86,305.5,13.7,247.1,5.2,166.5S55,13.7,135.6,5.2 M135.1,0.9C52.3,9.6-7.9,84.2,0.9,167S84.2,310,167,301.3
			c82.8-8.8,143.1-83.3,134.3-166.1S217.9-7.9,135.1,0.9L135.1,0.9z"/>
	</g>
	<g id="XMLID_75_">
		<path id="XMLID_76_" class="st1" d="M55.5,198c0.3-0.1,0.6-0.1,0.8,0.2l5.5,10.6c0.2,0.3,0,0.6-0.2,0.8l-0.8,0.4
			c-0.3,0.1-0.6,0.1-0.8-0.2l-4.7-9l-7.4,3.8l4,7.7c0.1,0.3,0,0.6-0.2,0.8l-0.8,0.4c-0.3,0.1-0.6,0-0.8-0.2l-4-7.7l-7.3,3.8
			c-0.3,0.1-0.6,0-0.8-0.2l-0.5-1c-0.2-0.3,0-0.6,0.2-0.8L55.5,198z"/>
		<path id="XMLID_78_" class="st1" d="M71.6,221.5c3.9,4.6,3.3,11.5-1.3,15.4c-4.6,3.9-11.5,3.3-15.4-1.3
			c-3.9-4.6-3.3-11.4,1.3-15.3C60.9,216.3,67.7,216.9,71.6,221.5z M56.5,234.2c3.1,3.7,8.7,4.2,12.4,1.1s4.2-8.7,1.1-12.4
			c-3.1-3.7-8.7-4.1-12.4-1C53.9,225,53.4,230.5,56.5,234.2z"/>
		<path id="XMLID_81_" class="st1" d="M91,239.3c4.9,3.5,6.1,10.3,2.5,15.3c-3.5,4.9-10.3,6.1-15.2,2.5c-4.9-3.5-6.1-10.2-2.6-15.2
			C79.3,237,86.1,235.8,91,239.3z M79.6,255.4c3.9,2.8,9.5,1.9,12.2-2c2.8-3.9,1.9-9.5-2-12.3c-3.9-2.8-9.5-1.8-12.3,2.1
			C74.7,247.1,75.7,252.6,79.6,255.4z"/>
		<path id="XMLID_84_" class="st1" d="M105.3,249.3c0.1-0.3,0.4-0.4,0.7-0.3l6.3,2.5c5.4,2.2,8.1,8.3,6,13.8
			c-2.2,5.5-8.4,8.1-13.8,6l-6.3-2.5c-0.3-0.1-0.4-0.5-0.3-0.7L105.3,249.3z M104.9,269c4.6,1.8,9.3-0.1,11.1-4.8
			c1.8-4.6-0.2-9.3-4.9-11.1l-4.2-1.7l-6.3,15.9L104.9,269z"/>
		<path id="XMLID_87_" class="st1" d="M147.5,258.7c3.1,0.2,5.2,1.3,7.2,3.2c0.2,0.3,0.2,0.6,0,0.8l-0.9,0.8
			c-0.3,0.3-0.5,0.2-0.8-0.1c-1.5-1.4-3.6-2.5-5.7-2.6c-4.8-0.3-8.7,3.6-8.9,8.3c-0.2,4.7,3.2,8.9,8,9.1c2.6,0.1,4.2-0.8,5.9-2
			c0.3-0.2,0.6-0.2,0.7-0.1l0.9,0.9c0.2,0.2,0.1,0.6-0.1,0.8c-2.2,1.9-4.8,2.7-7.5,2.5c-6.1-0.3-10.7-5.4-10.3-11.5
			C136.3,262.9,141.5,258.3,147.5,258.7z"/>
		<path id="XMLID_89_" class="st1" d="M170.4,257c6-1.1,11.6,2.8,12.7,8.8c1.1,6-2.8,11.6-8.8,12.7c-6,1.1-11.6-2.8-12.7-8.7
			C160.5,263.7,164.4,258.1,170.4,257z M173.9,276.4c4.7-0.9,7.9-5.5,7.1-10.2c-0.9-4.7-5.5-8-10.2-7.1c-4.7,0.9-7.9,5.5-7,10.3
			C164.6,274.1,169.2,277.2,173.9,276.4z"/>
		<path id="XMLID_92_" class="st1" d="M189.3,252.3c0-0.2,0.1-0.5,0.3-0.6l0.4-0.2c0.2-0.1,0.5-0.1,0.6,0.1l12.6,12.5
			c0.1,0,0.1,0,0.1-0.1l-1.8-17.6c0-0.2,0.1-0.4,0.3-0.5l0.4-0.2c0.2-0.1,0.5,0,0.7,0.1l12.3,16.7c0.3,0.3,0.2,0.7-0.2,0.9L214,264
			c-0.2,0.1-0.5,0-0.7-0.2l-9.1-13c0,0-0.1,0-0.1,0.1l1.8,16.9c0,0.2-0.2,0.4-0.3,0.5l-0.5,0.2c-0.2,0.1-0.5,0.1-0.6-0.1l-12-12.1
			c0,0-0.1,0-0.1,0.1l4.3,15.2c0.1,0.2-0.1,0.5-0.3,0.6l-1.1,0.5c-0.4,0.2-0.7,0-0.8-0.4L189.3,252.3z"/>
		<path id="XMLID_94_" class="st1" d="M212.1,240.5c-0.2-0.2-0.2-0.6,0.1-0.8l5.2-4.2c2.9-2.3,7.2-1.9,9.5,1c2.3,2.9,1.9,7.2-1,9.6
			l-3.9,3.1l4.4,5.6c0.2,0.2,0.1,0.6-0.1,0.8l-0.9,0.7c-0.3,0.2-0.6,0.1-0.8-0.1L212.1,240.5z M224.3,244.4c1.9-1.5,2.3-4.5,0.7-6.5
			c-1.5-1.9-4.4-2.1-6.3-0.5l-3.8,3l5.6,7L224.3,244.4z"/>
		<path id="XMLID_97_" class="st1" d="M240.1,243l-9.5-20.3c-0.1-0.2-0.1-0.4,0.1-0.6l0.2-0.2c0.2-0.2,0.4-0.2,0.6-0.2l21.5,6.3
			c0.4,0.1,0.6,0.6,0.3,0.9l-0.8,0.9c-0.2,0.2-0.4,0.2-0.6,0.2l-5.3-1.5l-7,8.2l2.4,4.9c0.1,0.1,0.1,0.4-0.1,0.6l-0.8,0.9
			C240.7,243.5,240.2,243.4,240.1,243z M244.5,227.9c-3.5-1-7-2.1-10.4-3.1l-0.2,0.2l4.7,9.8L244.5,227.9z"/>
		<path id="XMLID_100_" class="st1" d="M240.3,210.5c-0.3-0.1-0.4-0.5-0.2-0.8l0.4-0.7l21.4-4.2c0,0,0,0,0-0.1l-14.3-7.5
			c-0.3-0.1-0.4-0.5-0.2-0.8l0.5-0.9c0.1-0.3,0.5-0.4,0.8-0.2l18.1,9.5c0.3,0.1,0.4,0.5,0.2,0.8l-0.3,0.5l-21.9,4.3l0,0l14.6,7.6
			c0.3,0.1,0.4,0.5,0.2,0.8l-0.5,0.9c-0.1,0.3-0.5,0.4-0.8,0.2L240.3,210.5z"/>
		<path id="XMLID_102_" class="st1" d="M262.6,186.2l-11.7,4.4c-0.4,0.1-0.8-0.2-0.7-0.7l0.4-1.4c0.1-0.2,0.3-0.3,0.4-0.4l9.8-3.7
			l-6.5-8.2c-0.1-0.1-0.2-0.3-0.1-0.5l0.4-1.4c0.1-0.5,0.7-0.6,1-0.2l7.8,9.8l9.3,2.6c0.3,0.1,0.5,0.4,0.4,0.7l-0.3,1.1
			c-0.1,0.3-0.4,0.5-0.7,0.4L262.6,186.2z"/>
	</g>
	<g id="XMLID_49_">
		<path id="XMLID_50_" class="st1" d="M21.8,124.3c1.8-8.6,10.1-14,18.6-12.2c8.5,1.8,13.7,10.1,11.9,18.7c-1.8,8.6-10,14-18.5,12.2
			C25.3,141.2,19.9,132.9,21.8,124.3z M45.5,129.4c1-4.7-2-9.4-6.6-10.4c-4.7-1-9.3,2-10.4,6.8c-1,4.7,2,9.4,6.7,10.4
			C39.8,137.1,44.5,134.1,45.5,129.4z"/>
		<path id="XMLID_53_" class="st1" d="M32.8,95.3c-0.4-0.2-0.5-0.7-0.3-1.1l2.5-4.6c0.2-0.4,0.7-0.5,1.1-0.3l20.2,11.2l5.1-9.2
			c0.2-0.4,0.7-0.5,1.1-0.3l4.1,2.3c0.4,0.2,0.6,0.7,0.3,1.1l-8,14.5c-0.2,0.4-0.7,0.5-1.1,0.3L32.8,95.3z"/>
		<path id="XMLID_55_" class="st1" d="M49.8,68.1c-0.3-0.3-0.3-0.8,0-1.1l7.6-7.6c6-6,15.7-6.1,21.6-0.2c5.9,5.9,5.8,15.7-0.2,21.7
			l-7.6,7.6c-0.3,0.3-0.8,0.3-1.1,0L49.8,68.1z M74,76.6c3.5-3.5,3.3-8.8-0.2-12.3c-3.5-3.5-8.7-3.6-12.3-0.1l-3,3L71,79.6L74,76.6z
			"/>
		<path id="XMLID_58_" class="st1" d="M100.9,29.4c4-1.8,7.5-1.9,11.4-0.6c0.5,0.2,0.7,0.6,0.5,1.1l-1.7,4.6c-0.2,0.4-0.6,0.6-1,0.4
			c-2.1-0.7-4.4-0.5-6.3,0.4c-4.5,2-6.3,7.2-4.3,11.6c1.9,4.4,6.9,6.6,11.5,4.6c1.9-0.8,3.7-2.4,4.6-4.3c0.2-0.4,0.7-0.6,1.1-0.4
			l4.6,1.9c0.4,0.2,0.6,0.7,0.4,1.1c-1.6,3.8-4.5,6.6-8.1,8.2c-8.1,3.5-17.3,0.1-20.8-7.8C89.2,42.2,92.9,33,100.9,29.4z"/>
		<path id="XMLID_60_" class="st1" d="M125.4,51.3l10.2-30.6c0.1-0.3,0.4-0.5,0.7-0.6l0.4-0.1c0.3,0,0.6,0.1,0.8,0.4l17.1,27.3
			c0.3,0.5,0,1.1-0.6,1.2l-4.8,0.6c-0.8,0.1-1.2-0.1-1.7-0.9l-2-3.2l-11.9,1.4l-1.2,3.6c-0.2,0.5-0.6,1.1-1.4,1.2l-4.8,0.6
			C125.6,52.4,125.2,51.8,125.4,51.3z M142.3,39.9l-4.2-6.7l0,0l-2.4,7.5L142.3,39.9z"/>
		<path id="XMLID_63_" class="st1" d="M164.4,20.5c0.1-0.4,0.5-0.8,1-0.7l10.5,1.6c5.3,0.8,9.1,5.8,8.3,11
			c-0.8,5.3-5.9,8.9-11.2,8.1l-4.6-0.7l-1.6,10.1c-0.1,0.4-0.5,0.8-1,0.7l-5.1-0.8c-0.5-0.1-0.8-0.5-0.7-0.9L164.4,20.5z
			 M173.4,34.2c1.9,0.3,3.7-0.9,4-2.8c0.3-1.8-1.1-3.4-2.9-3.7l-4.1-0.6l-1,6.6L173.4,34.2z"/>
		<path id="XMLID_66_" class="st1" d="M197.3,27.9c0.2-0.4,0.7-0.6,1.1-0.5l4.9,1.9c0.4,0.2,0.6,0.7,0.5,1.1l-10.3,26.8
			c-0.2,0.4-0.7,0.6-1.1,0.5l-4.9-1.9c-0.4-0.2-0.6-0.7-0.5-1.1L197.3,27.9z"/>
		<path id="XMLID_68_" class="st1" d="M218,43.6l-5.3-3.4c-0.4-0.3-0.5-0.8-0.3-1.1l2.5-4c0.2-0.4,0.7-0.5,1.1-0.3l16.5,10.4
			c0.4,0.3,0.5,0.8,0.3,1.1l-2.5,4c-0.2,0.4-0.7,0.5-1.1,0.3l-5.3-3.4l-12.3,19.6c-0.2,0.4-0.8,0.5-1.1,0.3l-4.5-2.8
			c-0.4-0.2-0.5-0.8-0.3-1.1L218,43.6z"/>
		<path id="XMLID_70_" class="st1" d="M253.7,64.6c5.8,6.6,5.2,16.5-1.3,22.2c-6.5,5.7-16.3,5-22.1-1.6c-5.8-6.6-5.2-16.4,1.3-22.1
			C238,57.3,247.9,58,253.7,64.6z M235.4,80.6c3.2,3.6,8.7,4,12.3,0.9c3.6-3.1,3.9-8.7,0.7-12.4c-3.2-3.6-8.7-4-12.3-0.8
			C232.6,71.4,232.3,77,235.4,80.6z"/>
		<path id="XMLID_73_" class="st1" d="M270.4,90.8c0.4-0.2,0.9,0,1.1,0.4l2.2,4.8c0.2,0.4,0,0.9-0.4,1.1l-21.1,9.5l4.3,9.5
			c0.2,0.4,0,0.9-0.4,1.1l-4.3,1.9c-0.4,0.2-0.9,0-1.1-0.4l-6.8-15.1c-0.2-0.4,0-0.9,0.4-1.1L270.4,90.8z"/>
	</g>
	<path id="XMLID_161_" class="st2" d="M151.1,151.1"/>
	<g id="XMLID_169_">
		<path id="XMLID_172_" class="st3" d="M158.2,218.4c-37.2,3.9-70.6-23.1-74.5-60.2c-3.9-37.2,23.1-70.6,60.2-74.5
			c37.2-3.9,70.6,23.1,74.5,60.2C222.4,181.1,195.4,214.5,158.2,218.4z"/>
		<path id="XMLID_159_" class="st1" d="M143.9,83.7c37.2-3.9,70.6,23.1,74.5,60.2c3.9,37.2-23.1,70.6-60.2,74.5
			c-37.2,3.9-70.6-23.1-74.5-60.2C79.7,121,106.7,87.6,143.9,83.7 M143.4,79.3c-39.5,4.2-68.3,39.8-64.1,79.3
			c4.2,39.5,39.8,68.3,79.3,64.1c39.5-4.2,68.3-39.8,64.1-79.3C218.6,103.9,183,75.2,143.4,79.3L143.4,79.3z"/>
	</g>
	<g id="XMLID_157_">
		<path id="XMLID_158_" class="st1" d="M94.6,221.2c-9.1-7.3-16.6-16.2-22.2-26.4c-5.8-10.5-9.5-22-10.7-34
			c-1.3-12.1-0.2-24,3.3-35.5c3.4-11.1,8.8-21.4,16.2-30.5c7.3-9.1,16.2-16.6,26.4-22.2l1.1,1.9C98.7,80,90,87.3,82.8,96.1
			c-7.2,8.9-12.5,18.9-15.8,29.7c-3.4,11.2-4.5,22.9-3.3,34.7c1.2,11.8,4.8,22.9,10.5,33.2c5.5,9.9,12.8,18.6,21.7,25.8L94.6,221.2z
			"/>
		<path id="XMLID_156_" class="st1" d="M97.5,217.5c-8.6-7-15.7-15.4-21-25c-5.5-10-9-20.8-10.2-32.3s-0.1-22.8,3.2-33.7
			c3.2-10.5,8.4-20.3,15.3-28.9c7-8.6,15.4-15.7,25-21l1.1,1.9c-9.4,5.2-17.6,12.1-24.4,20.5c-6.8,8.4-11.8,17.9-14.9,28.1
			c-3.2,10.6-4.3,21.7-3.1,32.8c1.2,11.1,4.5,21.7,9.9,31.4c5.2,9.4,12.1,17.6,20.5,24.4L97.5,217.5z"/>
	</g>
	<g id="XMLID_154_">
		<path id="XMLID_167_" class="st1" d="M221,207.8l-1.7-1.4c7.2-8.9,12.5-18.9,15.8-29.7c3.4-11.2,4.5-22.9,3.3-34.7
			c-1.2-11.8-4.8-22.9-10.5-33.2c-5.5-9.9-12.8-18.6-21.7-25.8c-8.9-7.2-18.9-12.5-29.7-15.8l0.6-2.1c11.1,3.4,21.4,8.8,30.5,16.2
			c9.1,7.3,16.6,16.2,22.2,26.4c5.8,10.5,9.4,22,10.7,34c1.3,12.1,0.2,24-3.3,35.5C233.8,188.4,228.3,198.7,221,207.8z"/>
		<path id="XMLID_168_" class="st1" d="M217.3,204.8l-1.7-1.4c6.8-8.4,11.8-17.9,14.9-28.1c3.2-10.6,4.3-21.7,3.1-32.8
			c-1.2-11.1-4.5-21.7-9.9-31.4c-5.2-9.4-12.1-17.6-20.5-24.4c-8.4-6.8-17.9-11.8-28.1-14.9l0.6-2.1C186.3,72.9,196,78,204.6,85
			c8.6,7,15.7,15.4,21,25c5.5,10,9,20.8,10.2,32.3c1.2,11.4,0.1,22.8-3.2,33.7C229.4,186.5,224.3,196.2,217.3,204.8z"/>
	</g>
	<g id="XMLID_24_">
		<path id="XMLID_25_" class="st1" d="M107.7,220.8c0.1-0.1,0.3-0.2,0.5-0.1l1.8,1.1c0.1,0.1,0.2,0.3,0.1,0.5l-6.2,9.7
			c-0.1,0.1-0.3,0.2-0.5,0.1l-1.8-1.1c-0.1-0.1-0.2-0.3-0.1-0.5L107.7,220.8z"/>
		<path id="XMLID_28_" class="st1" d="M120.4,227.1c3.2,1.4,4.6,5,3.3,8.2c-1.4,3.2-5,4.6-8.2,3.3c-3.2-1.4-4.6-5-3.3-8.2
			C113.6,227.2,117.2,225.7,120.4,227.1z M116.6,236c1.8,0.8,3.8-0.1,4.5-1.8c0.8-1.8-0.1-3.8-1.8-4.6c-1.7-0.7-3.8,0.1-4.5,1.8
			C114,233.2,114.8,235.2,116.6,236z"/>
		<path id="XMLID_34_" class="st1" d="M130.4,231.5c0-0.3,0.1-0.4,0.4-0.4l2,0.4c0.1,0,0.3,0.2,0.3,0.3l0.4,6l0.1,0l3.7-5.5
			c0.1-0.1,0.2-0.2,0.3-0.1l0.3,0.1c0.2,0,0.2,0.1,0.3,0.2l1.6,6.5l0.1,0l2.5-5.5c0.1-0.1,0.2-0.2,0.3-0.2l2,0.4
			c0.2,0,0.3,0.2,0.2,0.5l-5.2,10.9c-0.1,0.1-0.2,0.2-0.3,0.2l-0.3,0c-0.1,0-0.2-0.1-0.3-0.2l-1.9-7.5l-0.1,0l-4.3,6.4
			c-0.1,0.1-0.2,0.2-0.3,0.1l-0.3,0c-0.1,0-0.3-0.2-0.3-0.3L130.4,231.5z"/>
		<path id="XMLID_36_" class="st1" d="M148.7,245.4l5-11.8c0-0.1,0.2-0.2,0.3-0.2l0.2,0c0.1,0,0.2,0.1,0.3,0.2l5.8,11.5
			c0.1,0.2,0,0.5-0.3,0.5l-1.9,0.1c-0.3,0-0.5-0.1-0.6-0.4l-0.7-1.3l-4.7,0.2l-0.6,1.4c-0.1,0.2-0.3,0.4-0.6,0.4l-1.9,0.1
			C148.8,245.9,148.7,245.7,148.7,245.4z M155.7,241.5l-1.4-2.8l0,0l-1.2,2.9L155.7,241.5z"/>
		<path id="XMLID_40_" class="st1" d="M175.9,229.6c1.7-0.5,3-0.4,4.5,0.3c0.2,0.1,0.3,0.3,0.2,0.5l-0.9,1.7
			c-0.1,0.2-0.3,0.2-0.4,0.1c-0.8-0.4-1.7-0.4-2.5-0.1c-1.9,0.6-2.8,2.6-2.2,4.4c0.6,1.8,2.4,2.9,4.3,2.3c0.8-0.2,1.5-0.8,2-1.5
			c0.1-0.1,0.3-0.2,0.4-0.1l1.7,1c0.2,0.1,0.2,0.3,0.1,0.5c-0.8,1.4-2,2.4-3.5,2.9c-3.3,1-6.8-0.8-7.8-4.1
			C170.7,234.1,172.6,230.6,175.9,229.6z"/>
		<path id="XMLID_43_" class="st1" d="M184.7,226.6c-0.1-0.2,0-0.4,0.2-0.4l1.9-0.9c0.2-0.1,0.4,0,0.4,0.2l5,10.3
			c0.1,0.2,0,0.4-0.2,0.4l-1.9,0.9c-0.2,0.1-0.4,0-0.4-0.2L184.7,226.6z"/>
		<path id="XMLID_45_" class="st1" d="M194.8,223.7l-2.1,1.4c-0.2,0.1-0.4,0.1-0.5-0.1l-1-1.6c-0.1-0.1-0.1-0.4,0.1-0.5l6.4-4.2
			c0.2-0.1,0.4,0,0.5,0.1l1,1.6c0.1,0.1,0.1,0.4-0.1,0.5l-2.1,1.4l5.1,7.7c0.1,0.1,0.1,0.4-0.1,0.5l-1.7,1.1
			c-0.1,0.1-0.4,0.1-0.5-0.1L194.8,223.7z"/>
		<path id="XMLID_47_" class="st1" d="M208.3,218.2l-6.7-1.6c-0.3-0.1-0.3-0.4-0.1-0.6l1.7-1.5c0.1-0.1,0.2-0.1,0.3-0.1l4.2,1
			l-0.6-4.2c0-0.1,0-0.2,0.1-0.3l1.7-1.5c0.2-0.2,0.5-0.1,0.5,0.2l1.1,6.9l3.8,4.1c0.1,0.1,0.1,0.3,0,0.5l-1.5,1.4
			c-0.1,0.1-0.3,0.1-0.5,0L208.3,218.2z"/>
	</g>
	<g id="XMLID_3_">
		<path id="XMLID_6_" class="st1" d="M123.2,76.2c0.6-1.6,1.9-5.7,2.5-7.5c0.1-0.4,0.2-0.9,0-1.4c-0.2-0.6-0.9-1-1.8-0.7
			c-0.7,0.2-1.1,0.9-1.3,1.3c-0.1,0.2-0.3,0.2-0.5,0.1l-1.3-0.7c-0.1-0.1-0.2-0.3-0.2-0.4c0,0,0.8-2,2.8-2.7
			c2.4-0.8,4.2,0.3,4.8,2.1c0.3,0.9,0.2,1.5,0,2.4c-0.2,1.1-1,3.3-1.5,4.6l2.9-0.9c0.2-0.1,0.4,0,0.4,0.2l0.5,1.5
			c0.1,0.2,0,0.4-0.2,0.4l-6.6,2.1c-0.2,0.1-0.4,0-0.4-0.2L123.2,76.2z"/>
		<path id="XMLID_8_" class="st1" d="M132.7,67.9c-0.6-3.7,0.6-6.2,3.4-6.7s4.7,1.5,5.4,5.3c0.6,3.7-0.6,6.2-3.4,6.7
			C135.3,73.6,133.4,71.6,132.7,67.9z M138.7,66.9c-0.4-2.2-1.2-3.4-2.2-3.2c-1,0.2-1.4,1.5-1,3.8c0.4,2.3,1.2,3.4,2.2,3.2
			C138.7,70.5,139.1,69.2,138.7,66.9z"/>
		<path id="XMLID_11_" class="st1" d="M146.9,63.9l-1.7,0.1c-0.2,0-0.3-0.1-0.3-0.3l0-1.1c0-0.1,0-0.2,0.1-0.3l2.5-2.1l1.6-0.1
			c0.2,0,0.3,0.1,0.3,0.3l0.4,11.1c0,0.2-0.1,0.3-0.3,0.3l-1.9,0.1c-0.2,0-0.3-0.1-0.3-0.3L146.9,63.9z"/>
		<path id="XMLID_18_" class="st1" d="M153.1,69l0.2-1.8l6.7-6.7c0.1,0,0.1-0.1,0.3-0.1l1.2,0.1c0.2,0,0.3,0.2,0.3,0.4l-0.6,7.1
			l1.4,0.1c0.2,0,0.3,0.2,0.3,0.3l-0.1,1.4c0,0.2-0.2,0.3-0.4,0.3l-1.4-0.1l-0.2,2.1c0,0.2-0.2,0.3-0.4,0.3l-1.8-0.2
			c-0.2,0-0.3-0.2-0.3-0.4l0.2-2.1l-5.1-0.4C153.2,69.4,153.1,69.2,153.1,69z M158.7,67.7l0.3-3.2l-3,3L158.7,67.7z"/>
	</g>
	<g id="XMLID_141_">
		<defs>
			<path id="XMLID_142_" d="M157.4,210.5c-32.8,3.5-62.3-20.4-65.8-53.2c-3.5-32.8,20.4-62.3,53.2-65.8
				c32.8-3.5,62.3,20.4,65.8,53.2C214,177.5,190.2,207,157.4,210.5z"/>
		</defs>
		<clipPath id="XMLID_118_">
			<use xlink:href="#XMLID_142_"  style="overflow:visible;"/>
		</clipPath>
		<g id="XMLID_143_" class="st4">
			<path id="XMLID_145_" class="st1" d="M202.6,194.5l-2.6-24.3l-15.6,1.7l-3-28.5l-8.7,0.9c-2.1-10.7-11.8-18.3-22.8-17.9l-1-9.7
				l12.6-8.1l-17-5.9l2.5,24c-10.8,1.9-18.7,11.4-18.5,22.3l-8.7,0.9l3,28.5l-15.6,1.7l2.6,24.3l4-1.7l-2-19l84.7-9l2,19
				L202.6,194.5z M147.8,106.6l7.7,2.7l-7,4.4L147.8,106.6z M148.9,130.6c9.3-1,17.7,5.2,19.7,14.1l-35.9,3.8
				C132.7,139.5,139.6,131.6,148.9,130.6z M124.3,153.6l53.5-5.7l2.6,24.4l-9.7,1l-2-19.2c-0.1-1.2-1.2-2-2.4-1.9
				c-1.2,0.1-2,1.2-1.9,2.4l2,19.2l-5.7,0.6l-2-19.2c-0.1-1.2-1.2-2-2.4-1.9c-1.2,0.1-2,1.2-1.9,2.4l2,19.2l-5.7,0.6l-2-19.2
				c-0.1-1.2-1.2-2-2.4-1.9c-1.2,0.1-2,1.2-1.9,2.4l2,19.2l-5.7,0.6l-2-19.2c-0.1-1.2-1.2-2-2.4-1.9c-1.2,0.1-2,1.2-1.9,2.4l2,19.2
				l-9.7,1L124.3,153.6z"/>
			<polygon id="XMLID_144_" class="st1" points="154.6,184.6 198.3,193.3 195.5,196.8 155,188.7 119.1,204.3 113.7,202.3 			"/>
		</g>
	</g>
	<circle id="XMLID_140_" class="st1" cx="37.4" cy="174.3" r="6.8"/>
	<circle id="XMLID_139_" class="st1" cx="267.1" cy="149.9" r="6.8"/>
</g>
</svg>
