<?xml version="1.0" encoding="utf-8"?>
<!-- Generator: Adobe Illustrator 22.0.1, SVG Export Plug-In . SVG Version: 6.00 Build 0)  -->
<svg version="1.1" id="Layer_1" xmlns="http://www.w3.org/2000/svg" xmlns:xlink="http://www.w3.org/1999/xlink" x="0px" y="0px"
	 viewBox="0 0 302.1 302" style="enable-background:new 0 0 302.1 302;" xml:space="preserve">
<style type="text/css">
	.st0{fill:#19AC8A;}
	.st1{fill:none;}
	.st2{fill:#D1E0DC;}
	.st3{fill:#D84127;}
	.st4{fill:#FFFFFF;}
	.st5{clip-path:url(#SVGID_2_);}
</style>
<g>
	<path class="st0" d="M150.9,4C69.7,4,3.9,69.8,3.9,151S69.7,298.1,151,298.1S298,232.3,298,151S232.2,4,150.9,4z M150.9,234.9
		c-46.3,0-83.9-37.6-83.9-83.9s37.6-83.9,83.9-83.9s83.9,37.6,83.9,83.9S197.3,234.9,150.9,234.9z"/>
	<g>
		<g id="XMLID_2_">
			<polygon id="XMLID_193_" class="st1" points="250.7,196.5 244.6,196.5 250.7,199.7 			"/>
			<path class="st2" d="M151,302C73.6,302,9,243.9,0.9,166.9C-3.4,126.8,8.3,87.5,33.7,56C59.1,24.6,95.1,5.1,135,0.9
				c5.3-0.6,10.7-0.9,16-0.9c77.5,0,142,58.1,150.2,135.1c4.3,40-7.4,79.4-32.8,110.8s-61.4,51-101.5,55.3
				C161.6,301.7,156.3,302,151,302L151,302z M151.3,7.6c-5.1,0-10.3,0.3-15.4,0.8C57.3,16.7,0.1,87.4,8.4,166.1
				c7.7,73.2,69,128.4,142.5,128.4c5,0,10.1-0.3,15.2-0.8c78.6-8.4,135.8-79.2,127.5-157.8C285.9,62.7,224.7,7.6,151.3,7.6z"/>
			<path id="XMLID_192_" class="st3" d="M151,151"/>
			<g id="XMLID_159_">
				<g>
					<path id="XMLID_190_" class="st4" d="M58.9,202.1c0.3-0.2,0.6-0.1,0.8,0.2l7.4,10.9c0.2,0.3,0.1,0.7-0.2,0.8l-2.9,2
						c-0.3,0.2-0.6,0.1-0.8-0.2l-4.9-7.3l-3.8,2.6l4.1,6c0.2,0.3,0.1,0.7-0.2,0.8l-2.9,1.9c-0.3,0.2-0.7,0.1-0.8-0.2l-4.1-6
						l-6.4,4.3c-0.3,0.2-0.7,0.1-0.8-0.2l-2.1-3.1c-0.2-0.3-0.1-0.7,0.2-0.8L58.9,202.1z"/>
					<path class="st4" d="M55.2,220.5c-0.4,0-0.7-0.2-0.9-0.5l-3.8-5.6l-6,4c-0.5,0.3-1.2,0.2-1.6-0.3l-2.1-3.1
						c-0.3-0.5-0.2-1.2,0.3-1.6l17.5-11.8c0.2-0.2,0.6-0.2,0.8-0.2c0.3,0.1,0.5,0.2,0.7,0.5l7.4,10.9c0.3,0.5,0.2,1.2-0.3,1.6
						l-2.9,1.9c-0.3,0.2-0.6,0.2-0.9,0.2c-0.3-0.1-0.5-0.2-0.7-0.5l-4.6-6.9l-2.9,2l3.8,5.6c0.3,0.5,0.2,1.2-0.3,1.6l-2.9,1.9
						C55.6,220.4,55.4,220.5,55.2,220.5z M50.7,213l4.3,6.4l3-1.9l-4.3-6.6l4.7-3.1l5.2,7.7l3-1.9l-7.3-11h-0.1l-17.5,11.8l2.1,3.2
						L50.7,213z"/>
				</g>
				<g>
					<path id="XMLID_187_" class="st4" d="M76.6,223.1c4.5,4.5,4.5,11.7,0,16.2s-11.7,4.5-16.2,0s-4.5-11.6,0-16.1
						C64.8,218.6,72,218.6,76.6,223.1z M64,235.7c2.5,2.5,6.5,2.5,9,0s2.5-6.6,0-9s-6.5-2.4-9,0.1C61.5,229.2,61.5,233.3,64,235.7z"
						/>
					<path class="st4" d="M68.5,243.2c-3,0-6.1-1.2-8.4-3.5c-4.7-4.7-4.8-12.1-0.1-16.9c4.7-4.7,12.3-4.7,16.9-0.1
						c2.3,2.3,3.5,5.3,3.5,8.5s-1.2,6.2-3.5,8.5S71.5,243.2,68.5,243.2z M68.5,220.3c-2.8,0-5.6,1.1-7.8,3.2
						c-4.3,4.3-4.3,11.1,0,15.4c2.1,2.1,4.8,3.2,7.7,3.2l0,0c2.9,0,5.6-1.1,7.7-3.2c2.1-2.1,3.2-4.8,3.2-7.8c0-2.9-1.2-5.7-3.2-7.7
						C74.1,221.3,71.3,220.3,68.5,220.3z M68.5,238.1c-1.8,0-3.5-0.7-4.9-2l0,0c-2.7-2.7-2.7-7,0-9.7c2.7-2.7,7.1-2.7,9.7-0.1
						c2.7,2.7,2.7,7.1,0,9.8C72,237.4,70.2,238.1,68.5,238.1z M64.4,235.3c2.3,2.3,6,2.3,8.2,0c2.3-2.3,2.3-6,0-8.3s-6-2.2-8.3,0.1
						C62.1,229.4,62.1,233.1,64.4,235.3L64.4,235.3z"/>
				</g>
				<g>
					<path id="XMLID_181_" class="st4" d="M95.8,238.3c5.4,3.4,7,10.4,3.7,15.8c-3.4,5.4-10.3,7-15.8,3.7c-5.4-3.4-7-10.3-3.7-15.7
						C83.4,236.6,90.4,234.9,95.8,238.3z M86.4,253.4c3,1.8,6.9,0.9,8.7-2c1.8-3,0.9-6.9-2-8.8c-2.9-1.8-6.9-0.9-8.8,2.1
						C82.5,247.6,83.5,251.6,86.4,253.4z"/>
					<path class="st4" d="M89.8,260c-2.2,0-4.4-0.6-6.4-1.8c-5.7-3.5-7.4-10.8-3.9-16.4c3.5-5.6,10.9-7.4,16.5-3.9l0,0
						c5.6,3.5,7.3,10.9,3.9,16.5C97.6,258,93.8,260,89.8,260z M89.8,237.1c-3.7,0-7.3,1.8-9.3,5.2c-3.2,5.2-1.7,11.8,3.5,15
						c5.2,3.2,11.8,1.7,15-3.5c1.6-2.5,2-5.4,1.4-8.3c-0.7-2.8-2.4-5.3-4.9-6.8l0,0C93.7,237.6,91.8,237.1,89.8,237.1z M89.8,254.9
						c-1.2,0-2.5-0.3-3.6-1l0,0c-1.5-1-2.6-2.5-3-4.3s-0.1-3.6,0.8-5.2c1-1.6,2.5-2.7,4.3-3.1c1.8-0.4,3.6-0.1,5.2,0.8
						c1.6,1,2.6,2.5,3.1,4.3c0.4,1.8,0.1,3.7-0.9,5.2C94.3,253.7,92.1,254.9,89.8,254.9z M86.7,253c2.7,1.7,6.3,0.9,8-1.9
						c0.8-1.3,1.1-2.9,0.7-4.4s-1.3-2.8-2.6-3.6c-1.3-0.8-2.9-1.1-4.4-0.7c-1.5,0.4-2.8,1.3-3.6,2.6c-0.8,1.3-1.1,2.9-0.7,4.4
						C84.5,250.9,85.4,252.1,86.7,253L86.7,253z"/>
				</g>
				<g>
					<path id="XMLID_178_" class="st4" d="M108.4,246.4c0.1-0.3,0.4-0.5,0.7-0.4l7.3,2.5c5.8,2,8.9,8.4,6.9,14.1
						c-2,5.8-8.4,8.9-14.2,6.9l-7.3-2.5c-0.3-0.1-0.4-0.5-0.3-0.8L108.4,246.4z M110.4,265.1c3.4,1.2,6.8-0.6,8-4.1
						c1.2-3.4-0.4-6.9-3.8-8.1l-2.9-1l-4.2,12.2L110.4,265.1z"/>
					<path class="st4" d="M112.9,270.7c-1.3,0-2.6-0.2-3.8-0.7l-7.3-2.5c-0.3-0.1-0.5-0.3-0.6-0.5c-0.1-0.3-0.2-0.6-0.1-0.9
						l6.9-19.9c0.1-0.3,0.3-0.5,0.5-0.6c0.3-0.1,0.6-0.2,0.9-0.1l7.3,2.5c2.9,1,5.3,3.1,6.7,5.9c1.4,2.8,1.6,6,0.6,8.9
						s-3.1,5.3-6,6.7C116.3,270.4,114.6,270.7,112.9,270.7z M108.4,246.4l0.5,0.2l-6.9,19.9l7.4,2.6c2.7,0.9,5.6,0.8,8.1-0.5
						c2.6-1.2,4.5-3.4,5.4-6.1s0.7-5.5-0.5-8.1s-3.4-4.5-6.1-5.4l-7.3-2.5L108.4,246.4z M112.5,265.9c-0.7,0-1.5-0.1-2.3-0.4
						l-3.4-1.2l4.6-13.1l3.4,1.2c1.8,0.6,3.1,1.9,3.9,3.5c0.7,1.6,0.8,3.5,0.2,5.3C117.9,264.1,115.3,265.9,112.5,265.9z
						 M110.6,264.6c3.1,1.1,6.2-0.6,7.3-3.7c0.5-1.5,0.5-3.1-0.1-4.5s-1.8-2.4-3.3-2.9l-2.4-0.8l-3.9,11.2L110.6,264.6z"/>
				</g>
				<g>
					<path id="XMLID_175_" class="st4" d="M148.4,254.3c3.2,0.2,5.5,1.3,7.5,3.4c0.3,0.3,0.3,0.7,0,0.9l-2.6,2.4
						c-0.2,0.2-0.6,0.2-0.8,0c-1.1-1.1-2.6-1.8-4.2-1.8c-3.6-0.2-6.4,2.7-6.6,6.2c-0.2,3.5,2.3,6.6,5.9,6.8c1.5,0.1,3.1-0.4,4.3-1.3
						c0.2-0.2,0.6-0.2,0.8,0.1l2.3,2.8c0.2,0.2,0.2,0.6-0.1,0.9c-2.3,2-5.1,2.8-7.9,2.7c-6.4-0.3-11.2-5.7-10.9-12
						C136.6,258.8,142,253.9,148.4,254.3z"/>
					<path class="st4" d="M147.8,277.7c-0.2,0-0.5,0-0.7,0c-6.6-0.4-11.7-6-11.4-12.6c0.4-6.6,6-11.7,12.6-11.4l0,0
						c3.2,0.2,5.6,1.3,7.9,3.5c0.2,0.2,0.4,0.5,0.3,0.8c0,0.3-0.1,0.6-0.4,0.8l-2.6,2.4c-0.2,0.2-0.5,0.3-0.8,0.3s-0.6-0.1-0.8-0.4
						c-1-1-2.4-1.6-3.8-1.7c-1.6-0.1-3.1,0.5-4.2,1.6c-1.1,1.1-1.8,2.6-1.9,4.2c-0.1,1.6,0.4,3.1,1.4,4.3c1,1.2,2.4,1.9,4,2
						c1.4,0.1,2.9-0.4,4-1.2c0.2-0.2,0.5-0.2,0.8-0.2s0.5,0.2,0.7,0.4l2.3,2.8c0.2,0.2,0.3,0.5,0.3,0.8s-0.2,0.6-0.4,0.8
						C153.3,276.7,150.6,277.7,147.8,277.7z M147.7,254.8c-5.8,0-10.7,4.5-11,10.4c-0.3,6,4.3,11.2,10.4,11.5
						c2.8,0.2,5.4-0.7,7.5-2.5v-0.1l-2.3-2.8c-1.4,1-3.1,1.5-4.8,1.4c-1.9-0.1-3.5-0.9-4.7-2.3s-1.8-3.2-1.7-5
						c0.1-1.9,0.9-3.6,2.2-4.9s3.1-1.9,5-1.8c1.7,0.1,3.3,0.8,4.5,2l2.7-2.4l0,0v-0.1c-2-2.1-4.3-3.1-7.2-3.2l0,0
						C148.1,254.8,147.9,254.8,147.7,254.8z"/>
				</g>
				<g>
					<path id="XMLID_172_" class="st4" d="M169.2,253c6.3-1,12.1,3.3,13.1,9.6c1,6.3-3.2,12.1-9.5,13.1s-12.1-3.2-13.1-9.5
						C158.8,259.9,163,254,169.2,253z M172,270.6c3.5-0.5,5.8-3.8,5.3-7.2c-0.5-3.5-3.8-5.9-7.3-5.3c-3.4,0.5-5.8,3.8-5.3,7.3
						C165.3,268.8,168.6,271.2,172,270.6z"/>
					<path class="st4" d="M171,276.3c-2.5,0-4.9-0.8-7-2.3c-2.6-1.9-4.3-4.6-4.8-7.8c-0.5-3.2,0.2-6.4,2.1-8.9
						c1.9-2.6,4.6-4.3,7.8-4.8l0,0c3.2-0.5,6.3,0.3,8.9,2.1c2.6,1.9,4.3,4.7,4.8,7.8c0.5,3.2-0.3,6.3-2.1,8.9
						c-1.9,2.6-4.7,4.3-7.8,4.8C172.2,276.3,171.6,276.3,171,276.3z M171.1,253.4c-0.6,0-1.2,0-1.7,0.1l0,0c-2.9,0.5-5.4,2-7.1,4.4
						c-1.7,2.4-2.4,5.3-1.9,8.2c0.5,2.9,2,5.4,4.3,7.1s5.2,2.4,8.1,1.9c2.9-0.5,5.4-2,7.2-4.3c1.7-2.3,2.4-5.2,1.9-8.1
						s-2-5.5-4.4-7.2C175.6,254.1,173.4,253.4,171.1,253.4z M171,271.2c-1.4,0-2.8-0.5-4-1.3c-1.5-1.1-2.5-2.7-2.7-4.5
						c-0.3-1.8,0.2-3.6,1.2-5.1c1.1-1.5,2.7-2.5,4.5-2.8s3.6,0.2,5.1,1.3c1.5,1.1,2.5,2.7,2.8,4.5s-0.2,3.6-1.2,5.1
						c-1.1,1.5-2.7,2.5-4.5,2.7C171.7,271.2,171.4,271.2,171,271.2z M171,258.5c-0.3,0-0.6,0-0.9,0.1c-1.5,0.2-2.9,1.1-3.8,2.3
						c-0.9,1.3-1.3,2.8-1,4.4c0.2,1.5,1.1,2.9,2.3,3.8c1.3,0.9,2.8,1.3,4.3,1.1l0,0c1.5-0.2,2.9-1.1,3.8-2.3
						c0.9-1.3,1.3-2.8,1.1-4.3s-1.1-2.9-2.3-3.8C173.4,258.9,172.2,258.5,171,258.5z"/>
				</g>
				<g>
					<path id="XMLID_170_" class="st4" d="M185.9,250c-0.1-0.3,0.1-0.6,0.3-0.7l0.5-0.2c0.1-0.1,0.5-0.1,0.6,0.1l12.1,9.8h0.1
						l1.5-15.5c0-0.2,0.2-0.4,0.4-0.5l0.5-0.2c0.2-0.1,0.6,0,0.7,0.2l11.6,18.3c0.2,0.4,0.1,0.7-0.3,0.9l-3.5,1.5
						c-0.3,0.1-0.6,0-0.8-0.2l-5.1-8.5h-0.1l-0.9,11.6c0,0.2-0.2,0.5-0.4,0.5l-0.5,0.2c-0.2,0.1-0.5,0-0.6-0.1l-8.9-7.4H193l2.5,9.6
						c0.1,0.2-0.1,0.6-0.4,0.7l-3.5,1.5c-0.4,0.1-0.7,0-0.8-0.4L185.9,250z"/>
					<path class="st4" d="M191.4,272.1c-0.2,0-0.3,0-0.5-0.1c-0.3-0.1-0.5-0.4-0.6-0.7l-5-21.1c-0.1-0.5,0.1-1.1,0.6-1.3l0.5-0.2
						c0.3-0.1,0.9-0.1,1.2,0.2L199,258l1.4-14.6c0-0.4,0.4-0.8,0.7-0.9l0.5-0.2c0.5-0.2,1.1,0,1.4,0.5l11.6,18.3
						c0.2,0.3,0.2,0.6,0.1,0.9s-0.3,0.6-0.7,0.7l-3.5,1.5c-0.5,0.2-1.2,0-1.4-0.5l-4.3-7.2l-0.8,10.1c0,0.4-0.3,0.8-0.7,1l-0.5,0.2
						c-0.4,0.2-0.9,0.1-1.2-0.2l-7.8-6.5l2.1,8.1c0.1,0.5-0.1,1.1-0.7,1.3l-3.5,1.5C191.7,272,191.5,272.1,191.4,272.1z
						 M186.9,249.6l-0.6,0.2l0,0v0.1l5,21.1l0.3,0.5l-0.2-0.5l3.5-1.5l-2.6-10.1l0.7-0.3l0.3,0.2l8.9,7.4l0.6-0.2v-0.1l1-11.9
						l0.7-0.3l0.3,0.4l5.1,8.5l3.6-1.4L202,243.3l-0.6,0.2l-1.6,15.9l-0.6,0.2l-0.3-0.2L186.9,249.6z"/>
				</g>
				<g>
					<path id="XMLID_167_" class="st4" d="M209.1,239.5c-0.2-0.3-0.1-0.6,0.2-0.8l6.3-4.4c3.2-2.2,7.7-1.5,9.9,1.7
						c2.3,3.2,1.5,7.7-1.7,9.9l-2.7,1.9l4.3,6.1c0.2,0.3,0.1,0.7-0.1,0.8l-3.1,2.2c-0.3,0.2-0.7,0.1-0.8-0.2L209.1,239.5z
						 M220.8,242.2c1.1-0.8,1.4-2.3,0.6-3.5c-0.8-1.1-2.3-1.3-3.4-0.5l-2.5,1.7l2.8,4L220.8,242.2z"/>
					<path class="st4" d="M221.7,257.5c-0.4,0-0.7-0.2-0.9-0.5l-12.1-17.3c-0.4-0.5-0.2-1.2,0.3-1.6l6.3-4.4
						c1.7-1.2,3.7-1.6,5.7-1.3s3.8,1.4,4.9,3.1c1.2,1.7,1.6,3.7,1.3,5.7c-0.4,2-1.5,3.8-3.1,4.9l-2.3,1.6l4,5.7
						c0.3,0.5,0.2,1.2-0.3,1.6l-3.1,2.2C222.1,257.5,221.9,257.5,221.7,257.5z M209.5,239.2l12.1,17.3l3.2-2.1l-4.6-6.7l3.2-2.2
						c1.4-1,2.4-2.5,2.7-4.3s-0.1-3.5-1.1-5c-1-1.4-2.5-2.4-4.2-2.6c-1.7-0.3-3.5,0.1-4.9,1.1l-6.3,4.4l-0.4,0.4L209.5,239.2z
						 M218.2,244.7l-3.4-4.8l2.9-2c1.4-1,3.2-0.7,4.1,0.6c1,1.4,0.6,3.3-0.7,4.2L218.2,244.7z M216.2,240.1l2.2,3.1l2.1-1.4
						c0.9-0.6,1.1-1.9,0.5-2.8c-0.6-0.8-1.8-1-2.7-0.4L216.2,240.1z"/>
				</g>
				<g>
					<path id="XMLID_164_" class="st4" d="M236,246l-8.1-22.2c-0.1-0.2,0-0.5,0.1-0.6l0.2-0.2c0.2-0.2,0.4-0.2,0.6-0.1L251,231
						c0.4,0.2,0.5,0.6,0.2,1l-2.5,2.5c-0.4,0.4-0.7,0.5-1.4,0.2l-2.6-1l-6.1,6.1l1,2.6c0.2,0.4,0.2,0.9-0.3,1.4l-2.5,2.5
						C236.6,246.5,236.2,246.4,236,246z M240.5,231.9l-5.4-2l0,0l2,5.4L240.5,231.9z"/>
					<path class="st4" d="M236.5,246.9c-0.1,0-0.2,0-0.2,0c-0.4-0.1-0.7-0.3-0.8-0.7l0,0l-8.1-22.2c-0.1-0.4,0-0.9,0.3-1.2l0.2-0.2
						c0.3-0.3,0.8-0.4,1.2-0.3l22.2,8.1c0.4,0.1,0.6,0.4,0.7,0.8c0.1,0.4,0,0.7-0.3,1l-2.5,2.5c-0.6,0.6-1.2,0.6-1.9,0.3l-2.3-0.9
						l-5.7,5.6l0.9,2.3c0.3,0.7,0.1,1.4-0.4,1.9l-2.5,2.5C237.1,246.8,236.8,246.9,236.5,246.9z M236.5,245.8L236.5,245.8l2.6-2.5
						c0.2-0.2,0.3-0.5,0.2-0.8l-1.1-2.9l6.6-6.6l2.9,1.1c0.5,0.2,0.6,0.1,0.8-0.1l2.5-2.5l-22.2-8.3l-0.3,0.2L236.5,245.8z
						 M236.8,236.3l-2.4-6.5l0.5-0.5l0.3,0.1l6.2,2.3L236.8,236.3z M235.9,230.7l1.4,3.6l2.3-2.3L235.9,230.7z"/>
				</g>
				<g>
					<path id="XMLID_162_" class="st4" d="M237.6,214c-0.3-0.2-0.3-0.6-0.1-0.8l0.4-0.7l17.2-3.9l0,0l-9.5-6.2
						c-0.3-0.2-0.4-0.5-0.2-0.8l2.1-3.2c0.2-0.3,0.6-0.4,0.8-0.2l17.9,11.8c0.3,0.2,0.3,0.6,0.1,0.8l-0.3,0.4
						c-0.1,0.1-0.3,0.2-0.4,0.3l-17.5,3.6l0,0l9.9,6.5c0.3,0.2,0.4,0.5,0.2,0.8l-2.1,3.2c-0.2,0.3-0.6,0.4-0.8,0.2L237.6,214z"/>
					<path class="st4" d="M255.9,226.3c-0.2,0-0.4-0.1-0.6-0.2l-18-11.7c-0.5-0.3-0.6-1-0.3-1.5l0.6-0.8h0.2l16.1-3.7l-8.5-5.6
						c-0.2-0.2-0.4-0.4-0.5-0.7s0-0.6,0.2-0.8l2.1-3.2c0.3-0.5,1-0.7,1.6-0.3l17.9,11.8c0.5,0.3,0.6,1,0.3,1.5l-0.3,0.4
						c-0.1,0.2-0.4,0.4-0.7,0.5l-16.3,3.4l8.9,5.8c0.2,0.2,0.4,0.4,0.5,0.7s0,0.6-0.2,0.9l-2.1,3.2
						C256.6,226.1,256.2,226.3,255.9,226.3z M237.9,213.5l18,11.7l2.2-3.2l-10.4-6.9l0.4-0.6l0.2-0.1l17.5-3.6c0,0,0,0,0.1-0.1
						l0.2-0.4l-17.9-11.9l-2.2,3.2l9.9,6.6l-0.4,0.6l-0.2,0.1l-17,3.9l-0.6,1L237.9,213.5z"/>
				</g>
				<g>
					<path id="XMLID_160_" class="st4" d="M262.3,193.5l-12.5,2.6c-0.5,0.1-0.9-0.3-0.7-0.8l1.5-3.8c0.1-0.2,0.3-0.3,0.5-0.4
						l7.7-1.7l-4.4-6.5c-0.1-0.1-0.2-0.3-0.1-0.6l1.5-3.8c0.2-0.5,0.8-0.5,1-0.1l7.2,10.5l9.4,3.8c0.3,0.1,0.5,0.5,0.3,0.8l-1.4,3.5
						c-0.1,0.3-0.5,0.5-0.8,0.3L262.3,193.5z"/>
					<path class="st4" d="M271.9,197.8c-0.1,0-0.3,0-0.4-0.1l-9.2-3.7l-12.3,2.6c-0.4,0.1-0.8-0.1-1.1-0.4c-0.3-0.3-0.3-0.7-0.2-1.1
						l1.5-3.8c0.1-0.2,0.3-0.5,0.8-0.7l7-1.5l-4-5.9c-0.1-0.2-0.3-0.6-0.1-1.1l1.5-3.8c0.2-0.4,0.5-0.7,0.9-0.7s0.8,0.1,1.1,0.5
						l7.1,10.4l9.3,3.7c0.3,0.1,0.5,0.3,0.6,0.6s0.1,0.6,0,0.9l-1.4,3.5C272.8,197.5,272.4,197.8,271.9,197.8z M262.4,192.9l0.1,0.1
						l9.4,3.8l1.5-3.6l-9.6-3.9l-0.1-0.1l-7.2-10.5l-0.6-0.2l0.5,0.2l-1.5,3.8l4.9,7.3l-8.4,1.8l-1.6,3.9l0.2,0.6l-0.1-0.5
						L262.4,192.9z"/>
				</g>
			</g>
			<g id="XMLID_154_">
				<g id="XMLID_155_">
					<g id="XMLID_156_">
						<g>
							<g>
								<g>
									<defs>
										<path id="SVGID_1_" d="M158.7,222.8c-39.6,4.2-75.3-24.7-79.5-64.3s24.7-75.3,64.3-79.5s75.3,24.7,79.5,64.3
											C227.1,182.9,198.3,218.6,158.7,222.8z"/>
									</defs>
									<clipPath id="SVGID_2_">
										<use xlink:href="#SVGID_1_"  style="overflow:visible;"/>
									</clipPath>
									<g id="XMLID_158_" class="st5">
										<path class="st2" d="M156.9,184.4l6.4-0.9c0.7-0.1,1.3-0.8,1.2-1.5l-0.9-6.1l-2.2-15.6c-0.2-2-2-3.4-4.4-3.3l0,0
											c-1.1,0.1-2,0.7-2.6,1.6c-0.6,0.8-0.8,1.9-0.7,2.9l2.3,15.7L156.9,184.4 M144.4,186.2l6.4-0.9c0.7-0.1,1.3-0.8,1.2-1.5
											l-0.9-6.1l-2.2-15.6c-0.2-2-2-3.4-4.4-3.3l0,0c-2.1,0.3-3.6,2.2-3.3,4.5l2.3,15.7L144.4,186.2 M169.8,182.3l35-4.8
											c0.7-0.1,1.4,0.4,1.5,1.2l3,20.9c0.1,0.6,0.5,1.1,1.1,1.2l4.9,0.8c0.9,0.1,1.7-0.6,1.6-1.5l-4.3-29.8
											c-0.1-0.7-0.8-1.3-1.5-1.2l-16.6,2.5c-0.7,0.1-1.4-0.4-1.5-1.2l-4.7-32.7c-0.1-0.7-0.8-1.3-1.5-1.2l-8.4,1.2
											c-0.7,0.1-1.3-0.3-1.5-0.9c-3.8-11.8-15-20-27.6-20.1c-0.7,0-1.2-0.5-1.3-1.1l-1.2-8.2c-0.1-0.5,0.1-1,0.6-1.3l13.8-9.6
											c0.9-0.7,0.7-2.1-0.4-2.4l-21-6.4c-1-0.3-1.9,0.5-1.7,1.5l3.9,27.3c0.1,0.7-0.3,1.3-1,1.5c-12,3.6-20.5,14.7-20.8,27.1
											c0,0.7-0.5,1.2-1.1,1.3l-8.4,1.2c-0.7,0.1-1.3,0.8-1.2,1.5l4.7,32.7c0.1,0.7-0.4,1.4-1.2,1.5l-16.7,2.5
											c-0.7,0.1-1.3,0.8-1.2,1.5l4.3,29.8c0.1,0.9,1.1,1.4,1.9,1l4.6-2.2c0.5-0.3,0.9-0.8,0.8-1.4l-3-20.9
											c-0.1-0.7,0.4-1.4,1.2-1.5l33.7-4.9c0.7-0.1,1.3-0.8,1.2-1.5l-0.9-6l-2.2-15.6c-0.2-2-2-3.4-4.4-3.3l0,0
											c-1,0.1-1.9,0.6-2.5,1.4c-0.7,0.8-1,1.9-0.8,3.1l2.1,14.3c0.1,0.7-0.4,1.4-1.2,1.5l-6.9,1c-0.7,0.1-1.4-0.4-1.5-1.2
											l-3.4-25.3c-0.1-0.7,0.4-1.4,1.2-1.5l61.3-8.9c0.7-0.1,1.4,0.4,1.5,1.2l3.6,25.1c0.1,0.7-0.4,1.4-1.2,1.5l-6.9,1
											c-0.7,0.1-1.4-0.4-1.5-1.2l-2.1-14.3c-0.2-2-2-3.4-4.4-3.3l0,0c-2.1,0.3-3.6,2.2-3.3,4.5l2.1,15.5l1,7.2L169.8,182.3z"/>
									</g>
								</g>
							</g>
						</g>
					</g>
				</g>
			</g>
			<circle id="XMLID_153_" class="st4" cx="39.5" cy="173.8" r="6.7"/>
			<g id="XMLID_3_">
				<g>
					<path id="XMLID_149_" class="st4" d="M24.2,124.7c1.8-8.4,9.9-13.7,18.2-12s13.4,9.9,11.7,18.3s-9.8,13.7-18.1,12
						C27.6,141.3,22.4,133.2,24.2,124.7z M47.5,129.7c1-4.6-2-9.2-6.5-10.2c-4.6-1-9.1,2-10.2,6.7c-1,4.6,2,9.2,6.6,10.2
						C41.9,137.3,46.5,134.3,47.5,129.7z"/>
					<path class="st4" d="M39.2,143.9c-1.1,0-2.2-0.1-3.3-0.4c-4.2-0.9-7.7-3.3-10-6.9c-2.3-3.6-3.1-7.9-2.1-12.1
						c0.9-4.2,3.3-7.8,6.9-10.1c3.5-2.3,7.8-3.1,12-2.2c8.6,1.8,13.9,10.1,12.1,18.9c-0.9,4.2-3.3,7.9-6.9,10.2
						C45.2,143.1,42.2,143.9,39.2,143.9z M39.2,112.9c-2.8,0-5.6,0.8-8,2.4c-3.3,2.2-5.6,5.5-6.4,9.5l0,0c-0.9,3.9-0.2,7.9,2,11.3
						c2.1,3.3,5.5,5.6,9.4,6.4c3.9,0.8,7.8,0.1,11.1-2c3.3-2.2,5.6-5.5,6.4-9.5c1.7-8.2-3.2-16-11.3-17.7
						C41.3,113.1,40.3,112.9,39.2,112.9z M39,137.1c-0.6,0-1.2-0.1-1.7-0.2c-4.9-1-8-5.9-7-10.8c1.1-5,5.9-8.1,10.8-7.1
						c4.8,1.1,7.9,5.9,6.9,10.8l0,0C47.1,134.1,43.2,137.1,39,137.1z M39.2,119.9c-3.7,0-7,2.6-7.9,6.5c-0.9,4.4,1.8,8.6,6.2,9.6
						c4.3,0.9,8.6-2,9.5-6.3l0,0c0.9-4.4-1.8-8.6-6.1-9.6C40.3,119.9,39.7,119.9,39.2,119.9z"/>
				</g>
				<g>
					<path id="XMLID_148_" class="st4" d="M35,96.3c-0.4-0.2-0.5-0.7-0.3-1.1l2.5-4.5c0.2-0.4,0.7-0.5,1.1-0.3l19.8,11l5-9
						c0.2-0.4,0.7-0.5,1.1-0.3l4,2.3c0.4,0.2,0.6,0.7,0.3,1.1l-7.8,14.2c-0.2,0.4-0.7,0.5-1.1,0.3L35,96.3z"/>
					<path class="st4" d="M59.9,110.5c-0.2,0-0.4,0-0.6-0.2L34.8,96.8c-0.3-0.1-0.5-0.4-0.6-0.7c-0.1-0.3-0.1-0.7,0.1-1.1l2.5-4.5
						c0.1-0.3,0.4-0.5,0.7-0.6s0.7-0.1,1.1,0.1L58,100.7l4.7-8.6c0.3-0.6,1.1-0.8,1.8-0.5l4,2.3c0.3,0.2,0.6,0.5,0.7,0.8
						s0,0.7-0.2,1l-8,14.2C60.8,110.3,60.4,110.5,59.9,110.5z M37.8,90.8L37.8,90.8c-0.2,0-0.2,0.1-0.2,0.1l-2.5,4.5
						c0,0.1,0,0.2,0,0.3c0,0.1,0.1,0.1,0.1,0.1l0,0l24.5,13.6c0.1,0.1,0.3,0.1,0.4-0.1L68,95.2c0.1-0.1,0.1-0.1,0.1-0.2
						S68,94.9,68,94.8l-4-2.3c-0.1-0.1-0.3,0-0.4,0.1l-5.3,9.5L38,90.9C37.9,90.8,37.9,90.8,37.8,90.8z"/>
				</g>
				<g>
					<path id="XMLID_144_" class="st4" d="M51.7,69.6c-0.3-0.3-0.3-0.8,0-1.1l7.5-7.5c5.9-5.9,15.4-6,21.2-0.2s5.7,15.4-0.2,21.3
						l-7.5,7.5c-0.3,0.3-0.8,0.3-1.1,0L51.7,69.6z M75.4,78c3.4-3.4,3.2-8.6-0.2-12.1s-8.5-3.5-12.1-0.1l-2.9,2.9l12.3,12.2L75.4,78
						z"/>
					<path class="st4" d="M72.1,90.4c-0.3,0-0.7-0.1-0.9-0.4L51.3,70c-0.5-0.5-0.5-1.3,0-1.8l7.4-7.4c2.9-2.9,6.8-4.6,11-4.6
						c0.1,0,0.1,0,0.2,0c4.1,0,7.9,1.6,10.8,4.4c6,6,5.9,15.9-0.2,22L73,90C72.8,90.2,72.5,90.4,72.1,90.4L72.1,90.4z M69.9,57.1
						L69.9,57.1c-4,0-7.6,1.6-10.4,4.3L52,68.9c-0.1,0.1-0.1,0.3,0,0.3l0,0l19.9,20c0.1,0.1,0.2,0.1,0.3,0l7.5-7.5
						C82.4,79,84,75.3,84,71.4s-1.4-7.5-4.1-10.2C77.3,58.6,73.7,57.1,69.9,57.1z M72.5,81.6l-13-12.9l3.3-3.3
						c3.7-3.6,9.1-3.6,12.8,0.1s3.8,9.2,0.2,12.8l0,0L72.5,81.6z M60.9,68.8l11.5,11.4l2.6-2.6c3.2-3.2,3.1-8-0.2-11.3
						c-3.3-3.3-8-3.3-11.3-0.1L60.9,68.8z"/>
				</g>
				<g>
					<path id="XMLID_143_" class="st4" d="M101.8,31.7c3.9-1.8,7.4-1.9,11.2-0.6c0.5,0.2,0.7,0.6,0.5,1.1l-1.7,4.5
						c-0.2,0.4-0.6,0.6-1,0.4c-2.1-0.7-4.3-0.5-6.2,0.4c-4.4,2-6.2,7.1-4.2,11.4c1.9,4.3,6.8,6.5,11.3,4.5c1.9-0.8,3.6-2.4,4.5-4.2
						c0.2-0.4,0.7-0.6,1.1-0.4l4.5,1.9c0.4,0.2,0.6,0.7,0.4,1.1c-1.6,3.7-4.4,6.5-7.9,8c-7.9,3.4-17,0.1-20.4-7.6
						C90.3,44.2,93.9,35.2,101.8,31.7z"/>
					<path class="st4" d="M107.7,61.6c-6.1,0-11.8-3.4-14.4-9.3c-1.8-3.9-1.9-8.2-0.3-12.2c1.6-3.9,4.6-7.1,8.5-8.9l0,0
						c3.9-1.8,7.5-2,11.6-0.6c0.4,0.2,0.7,0.4,0.8,0.7c0.1,0.3,0.1,0.7,0,1l-1.7,4.5c-0.2,0.4-0.5,0.6-0.8,0.7
						c-0.3,0.1-0.6,0.1-0.9-0.1c-1.8-0.6-3.9-0.5-5.7,0.4c-2,0.9-3.4,2.4-4.2,4.4c-0.8,2-0.7,4.3,0.2,6.3c0.9,2,2.5,3.6,4.5,4.4
						c2,0.8,4.1,0.7,6.1-0.1c1.8-0.8,3.5-2.3,4.2-4c0.2-0.3,0.5-0.6,0.8-0.7c0.3-0.1,0.7-0.1,1,0.1l4.5,1.8c0.4,0.2,0.6,0.5,0.7,0.8
						s0.1,0.7-0.1,1c-1.6,3.7-4.4,6.6-8.2,8.3C112.2,61.2,110,61.6,107.7,61.6z M102,32.2c-3.7,1.7-6.5,4.6-8,8.3s-1.4,7.8,0.3,11.4
						c3.3,7.5,12,10.7,19.7,7.4c3.5-1.6,6.2-4.3,7.7-7.8c0.1-0.1,0-0.2,0-0.2c0-0.1-0.1-0.2-0.2-0.2l-4.5-1.8c-0.1,0-0.2,0-0.2,0
						c-0.1,0-0.2,0.1-0.2,0.2c-0.9,1.9-2.7,3.6-4.8,4.5c-2.2,1-4.7,1-6.9,0.1c-2.3-0.9-4.1-2.6-5-4.9c-1-2.3-1.1-4.8-0.2-7.1
						c0.8-2.2,2.5-4,4.7-5c2-1,4.4-1.1,6.6-0.4h0.2c0.1,0,0.1-0.1,0.2-0.2L113,32c0-0.1,0.1-0.2,0-0.2c0-0.1-0.1-0.1-0.2-0.2
						C109,30.3,105.7,30.5,102,32.2L102,32.2z"/>
				</g>
				<g>
					<path id="XMLID_140_" class="st4" d="M125.8,53.2l10-30c0.1-0.3,0.4-0.5,0.7-0.6l0.4-0.1c0.3,0,0.6,0.1,0.8,0.4l16.8,26.8
						c0.3,0.5,0,1.1-0.6,1.2l-4.7,0.6c-0.8,0.1-1.2-0.1-1.7-0.9l-2-3.1l-11.7,1.4l-1.2,3.5c-0.2,0.5-0.6,1.1-1.4,1.2l-4.7,0.6
						C126,54.2,125.6,53.7,125.8,53.2z M142.4,42l-4.1-6.6l0,0l-2.4,7.4L142.4,42z"/>
					<path class="st4" d="M126.3,54.6c-0.3,0-0.6-0.1-0.8-0.4c-0.3-0.3-0.4-0.8-0.2-1.3l10-30c0.1-0.4,0.5-0.7,1-0.9l0.4-0.1
						c0.6,0,1.1,0.2,1.3,0.6l16.8,26.8c0.2,0.4,0.3,0.8,0.1,1.2s-0.6,0.7-1,0.8l-4.7,0.6c-1,0.1-1.6-0.2-2.2-1.1l-1.8-2.9l-11,1.3
						l-1.1,3.2c-0.4,0.9-1,1.4-1.8,1.5l-4.7,0.6C126.5,54.6,126.4,54.6,126.3,54.6z M136.9,23l-0.3,0.1c-0.1,0-0.3,0.2-0.3,0.2
						l-10,30c0,0.1,0,0.1,0,0.2l0,0h0.2l4.7-0.6c0.2,0,0.6-0.1,1-0.9l1.3-3.8h0.3l12-1.4l2.1,3.4c0.4,0.6,0.6,0.7,1.2,0.6l4.7-0.6
						c0.1,0,0.2-0.1,0.2-0.2c0,0,0-0.1,0-0.2L137.2,23C137.2,23.1,137.1,23,136.9,23z M135.1,43.4l2.9-9.2l5.1,8.2L135.1,43.4z
						 M138.4,36.6l-1.8,5.5l4.9-0.6L138.4,36.6z"/>
				</g>
				<g>
					<path id="XMLID_137_" class="st4" d="M164,23c0.1-0.4,0.5-0.8,1-0.7l10.3,1.6c5.2,0.8,8.9,5.7,8.1,10.8
						c-0.8,5.2-5.8,8.7-11,7.9l-4.5-0.7l-1.6,9.9c-0.1,0.4-0.5,0.8-1,0.7l-5-0.8c-0.5-0.1-0.8-0.5-0.7-0.9L164,23z M172.8,36.4
						c1.9,0.3,3.6-0.9,3.9-2.7c0.3-1.8-1.1-3.3-2.8-3.6l-4-0.6l-1,6.5L172.8,36.4z"/>
					<path class="st4" d="M165.5,53c-0.1,0-0.2,0-0.3,0l-5-0.8c-0.4-0.1-0.8-0.3-1-0.6s-0.2-0.6-0.1-0.9l4.3-27.8
						c0.2-0.6,0.8-1.2,1.6-1.1l10.3,1.6c2.7,0.4,5.1,1.9,6.7,4.1c1.6,2.1,2.2,4.7,1.8,7.3c-0.4,2.6-1.8,5-4,6.6s-4.9,2.2-7.5,1.8
						l-4-0.6l-1.5,9.4C166.7,52.5,166.2,53,165.5,53z M164.5,23.1l-4.3,27.8V51c0,0.1,0.1,0.1,0.3,0.1l5,0.8c0.2,0,0.4-0.2,0.4-0.3
						l1.6-10.4l5,0.8c2.4,0.4,4.8-0.2,6.8-1.6c2-1.4,3.3-3.5,3.6-5.9c0.4-2.3-0.2-4.6-1.7-6.5c-1.5-2-3.7-3.3-6-3.7l-10.3-1.6
						C164.7,22.8,164.6,23,164.5,23.1z M173.4,37c-0.2,0-0.4,0-0.7-0.1l-4.4-0.6l1.1-7.5l4.5,0.7c1.1,0.2,2,0.8,2.7,1.6
						c0.6,0.8,0.8,1.7,0.6,2.6C177,35.6,175.3,37,173.4,37z M169.5,35.5l3.4,0.4c0.8,0.1,1.5-0.1,2.2-0.5c0.6-0.4,1-1.1,1.2-1.8
						c0.1-0.8-0.2-1.4-0.4-1.8c-0.5-0.6-1.2-1.1-2-1.2l-3.5-0.5L169.5,35.5z"/>
				</g>
				<g>
					<path id="XMLID_136_" class="st4" d="M196.3,30.2c0.2-0.4,0.7-0.6,1.1-0.5l4.8,1.9c0.4,0.2,0.6,0.7,0.5,1.1L192.6,59
						c-0.2,0.4-0.7,0.6-1.1,0.5l-4.8-1.9c-0.4-0.2-0.6-0.7-0.5-1.1L196.3,30.2z"/>
					<path class="st4" d="M191.7,60c-0.1,0-0.2,0-0.3,0l-4.9-1.9c-0.6-0.3-1-1-0.8-1.7L195.8,30c0.3-0.6,1-0.9,1.7-0.8l4.9,1.9
						c0.6,0.3,1,1,0.8,1.7L193,59.1C192.8,59.7,192.2,60,191.7,60z M196.7,30.4l-10.1,26.2c0,0.1,0.1,0.3,0.2,0.4l4.8,1.8
						c0.1,0,0.3-0.1,0.4-0.2l10.1-26.2c0-0.1-0.1-0.3-0.2-0.4l-4.8-1.8C197.1,30.2,196.8,30.3,196.7,30.4z"/>
				</g>
				<g>
					<path id="XMLID_135_" class="st4" d="M216.6,45.6l-5.2-3.3c-0.4-0.3-0.5-0.8-0.3-1.1l2.5-3.9c0.2-0.4,0.7-0.5,1.1-0.3
						l16.2,10.2c0.4,0.3,0.5,0.8,0.3,1.1l-2.5,3.9c-0.2,0.4-0.7,0.5-1.1,0.3l-5.2-3.3l-12.1,19.2c-0.2,0.4-0.8,0.5-1.1,0.3l-4.4-2.7
						c-0.4-0.2-0.5-0.8-0.3-1.1L216.6,45.6z"/>
					<path class="st4" d="M209.6,69.3c-0.2,0-0.5-0.1-0.7-0.2l-4.4-2.7c-0.3-0.1-0.5-0.4-0.6-0.8s0-0.8,0.1-1l11.8-18.8l-4.8-3.1
						c-0.6-0.5-0.8-1.3-0.4-1.8L213,37c0.3-0.6,1.1-0.8,1.7-0.5l16.2,10.2c0.6,0.5,0.8,1.3,0.4,1.8l-2.4,3.9
						c-0.3,0.6-1.1,0.8-1.8,0.5l-4.8-3.1l-11.8,18.8C210.4,68.9,210.1,69.1,209.6,69.3C209.8,69.3,209.7,69.3,209.6,69.3z
						 M214.2,37.4c-0.1,0-0.2,0-0.2,0.1l-2.5,4c0,0.1,0,0.2,0.2,0.4l5.6,3.6L205,65.1c0,0,0,0.1,0,0.2s0.1,0.1,0.1,0.1l4.5,2.8
						c0,0,0.1,0,0.2,0c0.1,0,0.1-0.1,0.1-0.1l12.4-19.7l5.6,3.6c0.1,0,0.3,0,0.3-0.1l2.5-4c0-0.1,0-0.3-0.2-0.4l-16.1-10.2
						C214.3,37.4,214.3,37.4,214.2,37.4z"/>
				</g>
				<g>
					<path id="XMLID_95_" class="st4" d="M251.6,66.2c5.7,6.5,5.1,16.2-1.3,21.8c-6.4,5.6-16,4.9-21.7-1.6s-5.1-16.1,1.3-21.7
						C236.2,59,245.9,59.7,251.6,66.2z M233.6,81.9c3.1,3.5,8.5,3.9,12.1,0.9c3.5-3,3.8-8.5,0.7-12.2c-3.1-3.5-8.5-3.9-12.1-0.8
						C230.9,72.9,230.6,78.4,233.6,81.9z"/>
					<path class="st4" d="M240.3,92.3c-4.4,0-8.8-1.9-12-5.6c-2.9-3.3-4.3-7.4-4-11.6s2.2-8,5.3-10.8c3.1-2.8,7.1-4.2,11.2-4
						c4.3,0.2,8.3,2.2,11.2,5.5l0,0c2.9,3.3,4.3,7.4,4,11.7c-0.3,4.2-2.2,8-5.3,10.8C247.6,91,243.9,92.3,240.3,92.3z M239.9,61.4
						c-3.6,0-7,1.3-9.7,3.7c-3,2.6-4.7,6.2-5,10.1c-0.3,4,1.1,7.8,3.8,10.9c5.5,6.3,14.7,7,20.9,1.5c3-2.6,4.7-6.2,5-10.1
						c0.3-4-1.1-7.9-3.8-10.9c-2.7-3.1-6.4-4.9-10.4-5.1C240.5,61.4,240.2,61.4,239.9,61.4z M240.2,85.3c-2.5,0-5.1-1.1-6.9-3.1l0,0
						c-3.2-3.7-2.9-9.6,0.7-12.8c1.8-1.6,4.1-2.4,6.6-2.2c2.4,0.2,4.6,1.3,6.2,3.1c1.7,1.9,2.5,4.3,2.3,6.8c-0.2,2.4-1.2,4.5-3,6.1
						C244.3,84.6,242.2,85.3,240.2,85.3z M234,81.5c2.9,3.3,8,3.7,11.3,0.8c1.6-1.3,2.5-3.2,2.7-5.3c0.2-2.2-0.6-4.4-2-6.1
						c-1.4-1.6-3.4-2.6-5.5-2.7s-4.2,0.6-5.8,2C231.5,73,231.2,78.2,234,81.5z"/>
				</g>
				<g>
					<path id="XMLID_94_" class="st4" d="M267.9,91.9c0.4-0.2,0.9,0,1.1,0.4l2.2,4.7c0.2,0.4,0,0.9-0.4,1.1l-20.7,9.3l4.2,9.3
						c0.2,0.4,0,0.9-0.4,1.1l-4.2,1.9c-0.4,0.2-0.9,0-1.1-0.4l-6.7-14.8c-0.2-0.4,0-0.9,0.4-1.1L267.9,91.9z"/>
					<path class="st4" d="M249.4,120.2c-0.5,0-1-0.3-1.2-0.8l-6.7-14.8c-0.1-0.3-0.2-0.7,0-1c0.1-0.3,0.4-0.6,0.7-0.7l25.6-11.5
						c0.3-0.1,0.6-0.2,1-0.1c0.3,0.1,0.6,0.4,0.8,0.7l2.2,4.7c0.2,0.3,0.2,0.7,0,1c-0.1,0.3-0.4,0.6-0.7,0.7l-20.2,9.1l4,8.8
						c0.1,0.3,0.2,0.6,0.1,1c-0.1,0.3-0.4,0.6-0.7,0.8l-4.2,1.9C249.7,120.2,249.6,120.2,249.4,120.2z M268.3,92.3
						C268.2,92.3,268.2,92.3,268.3,92.3h-0.1l-25.6,11.5c-0.1,0-0.1,0.1-0.1,0.2c0,0,0,0.1,0,0.2l6.7,14.8c0.1,0.1,0.2,0.2,0.4,0.1
						l4.2-1.9c0.1,0,0.1-0.1,0.1-0.2c0,0,0-0.1,0-0.2l-4.4-9.8l21.2-9.5c0.1,0,0.1-0.1,0.1-0.2c0,0,0-0.1,0-0.2l-2.2-4.7
						C268.5,92.4,268.4,92.4,268.3,92.3L268.3,92.3z"/>
				</g>
			</g>
			<circle id="XMLID_66_" class="st4" cx="265" cy="144.7" r="6.2"/>
			<path class="st2" d="M150.9,236.8c-44,0-80.7-33-85.4-76.9c-5-47.1,29.3-89.5,76.4-94.5c3-0.3,6-0.5,9-0.5
				c44.2,0,81,33,85.5,76.8c2.4,22.8-4.2,45.1-18.7,63s-34.9,29-57.7,31.5C157,236.7,153.9,236.8,150.9,236.8L150.9,236.8z
				 M151,70.5c-2.8,0-5.7,0.2-8.5,0.4c-21.4,2.2-40.6,12.7-54.1,29.4S68.7,138,71,159.4c4.3,41,38.7,71.9,80,71.9
				c2.8,0,5.6-0.2,8.5-0.4c44.1-4.6,76.1-44.3,71.5-88.5C226.7,101.5,192.3,70.5,151,70.5z"/>
		</g>
		<path class="st2" d="M169.3,181.6l2.1,14.8c0,0-1.2,3.1-1.8,3.2c-0.6,0.1-2.9-2.5-2.9-2.5l-2.2-15.3l-7.6,2.5l2,13.9
			c0,0-1.3,3.1-1.9,3.2c-0.6,0.1-2.8-2.5-2.8-2.5l-2.2-15.2l-7.6,2.4l2,13.9c0,0-1.3,3.1-1.8,3.2c-0.6,0.1-2.6-2.6-2.6-2.6l-2.2-15
			l-7.8,2.3l4.2,29.2c0,0,1.9,4.4,6.9,4.6c5.1,0.2,14.3,4.5,15.8,14.9l3.1-0.4l3.1-0.5c-1.5-10.4,6-17.1,10.8-18.7
			c4.7-1.6,5.3-6.3,5.3-6.3l-4.4-30.6L169.3,181.6z"/>
	</g>
</g>
</svg>
