<?xml version="1.0" encoding="utf-8"?>
<!-- Generator: Adobe Illustrator 19.0.0, SVG Export Plug-In . SVG Version: 6.00 Build 0)  -->
<!DOCTYPE svg PUBLIC "-//W3C//DTD SVG 1.1//EN" "http://www.w3.org/Graphics/SVG/1.1/DTD/svg11.dtd">
<svg version="1.1" id="Layer_1" xmlns="http://www.w3.org/2000/svg" xmlns:xlink="http://www.w3.org/1999/xlink" x="0px" y="0px"
	 viewBox="0 0 300.3 300.3" style="enable-background:new 0 0 300.3 300.3;" xml:space="preserve">
<style type="text/css">
	.st0{fill:#24292F;}
	.st1{fill:#FFFFFF;}
	.st2{fill:#D94024;}
	.st3{fill:#E53A39;}
	.st4{clip-path:url(#XMLID_139_);}
</style>
<g id="XMLID_30_">
	<path id="XMLID_5081_" class="st0" d="M273.9,224.4c0.1,0,0.3,0,0.4,0c15.5-25.8,23.1-56.7,19.8-89c-1.2-12-3.9-23.6-7.8-34.4
		c-0.1,0-0.2,0.1-0.4,0.1c0-0.4-0.1-0.8-0.1-1.2c0,0,0,0,0.1,0C263.4,39.4,202.4-0.6,135.4,6.2c-7.7,0.8-15.1,2.2-22.3,4.1
		c0.1,0.2,0.2,0.4,0.2,0.8c-0.2,0-0.5,0.1-0.7,0.1c-0.1-0.3,0-0.5,0-0.7c-3.8,1-7.5,2.2-11.2,3.5c0,0-0.1,0.1-0.1,0.1
		c-0.1,0-0.2,0-0.2,0c-0.5,0.2-1,0.4-1.5,0.5c0.3,0.6,0.5,1.1-0.3,1.4c-0.5-1.1-1.7,0.3-2.3-0.4c-23.1,9.1-43.1,24-58.5,42.6
		c0.6,0.1,0.9,0.6,1,1.3c-0.6,0.1-0.8-0.3-1.3-0.4c-0.1-0.3,0.1-0.5,0.2-0.8c-0.8,1-1.7,2.1-2.5,3.1c0.1,0.2,0.1,0.6,0.1,0.9
		c-0.3,0-0.5-0.1-0.6-0.3c-21.7,28.3-33,64.5-29.1,102.8c5,49.3,34.3,90.2,74.7,112.3c1.2-1.4,5.7-3.2,6.5-1
		c-2.6,0.8-4.6-0.9-5.3,1.7c10.1,5.4,21,9.6,32.3,12.5c-0.3-0.1-0.6-0.3-0.5-0.6c0.8-0.3,0.8,0.3,1.3,0.4c-0.1,0.3-0.4,0.3-0.7,0.3
		c16,4.1,32.9,5.4,50.3,3.6c47-4.8,86.4-31.6,109.1-69.1C273.9,224.8,273.9,224.6,273.9,224.4z M288.7,112.3
		c-0.6,0.1-0.8-0.4-1.5-0.1C287.2,111.4,288.7,111.5,288.7,112.3z M293.2,151.2c0.2,1.3-1.4,0.6-2,0.5
		C291.4,151.1,292.6,151.4,293.2,151.2z M269.7,176.7c-0.3-0.4-1.6,0.3-1.3-0.9C269.1,175.8,269.8,175.8,269.7,176.7z M259.7,90.4
		c0.4,0.7-1.3,1.3-1.2,0.4C258.7,90.5,259.1,90.4,259.7,90.4z M258.1,77.5c0.2,0,0.5-0.1,0.7-0.1c0,0.8,0,1.5-0.8,1.6
		C257.7,78.3,258.1,78.1,258.1,77.5z M264.6,143.6c0,0.3,0.1,0.7,0.1,1c-0.6-0.1-0.9-0.3-1.1-0.9
		C263.9,143.7,264.3,143.6,264.6,143.6z M267.5,166.6c0,0.6-1.3,0.3-1.5,0.2C266,166.2,267.3,166.5,267.5,166.6z M269.2,166.5
		c0.8,0,0.8-0.5,1.7-0.4C271.5,167.3,269.1,167.6,269.2,166.5z M274.4,212.6c0.1-0.5,0.6-0.7,1.2-0.9
		C275.8,212.5,275.1,212.6,274.4,212.6z M272.9,192.4c0.2-0.6,0.5-0.9,1.4-0.9C274.4,192.3,273.6,192.3,272.9,192.4z M277.9,190.2
		c-0.3,0.8-1-0.8-0.6-0.9c0.5,0.2,1.3-0.1,1.3,0.6c-0.3,0-0.7,0.1-1,0.1C277.6,190.1,277.7,190.2,277.9,190.2z M276.9,185.7
		c-0.9,0.3-0.6-1.3-0.4-1.5C277.1,184.1,277.4,185.5,276.9,185.7z M277.5,196.5c0.2-1,0.6-1.9,2.1-2
		C279.5,195.7,278.4,195.9,277.5,196.5z M276.5,176.5c-0.5-0.9,0.6-1.6,0.1-1.8c0-0.3,0.4-0.3,0.7-0.3c0.1,1.3-0.1,1.3,0.5,2
		C277.3,176.9,277.1,176.5,276.5,176.5z M272.2,137c0-1.1,0.5-1,1.4-0.9C273.2,136.5,272.8,136.9,272.2,137z M275,146.8
		c-0.3,0.5-0.4,1-1.1,1.1C273.8,147.2,274.1,146.8,275,146.8z M276.4,160.7c-0.5,0-0.6-0.6-0.6-1.2c0.2,0,0.5-0.1,0.7-0.1
		C276.9,160.2,276.7,160.1,276.4,160.7z M277.6,157.6c0.8-0.2,0.8,0.4,0.9,1.2C277.7,158.9,277.6,158.3,277.6,157.6z M279,164.7
		c0.4-0.1,0.5,0.2,0.8,0.2c0.1,0.6-0.3,0.9-0.9,0.8C278.7,165.2,279,165,279,164.7z M279.7,173.4c0.4-1.8,1.8,0.3,1.3,0.9
		C280.2,174.2,281,172.7,279.7,173.4z M282.6,194.2c0-0.9,0.6-0.7,0.1-1.5c0.5,0.2,0.9,0.4,0.9,1.2
		C283.1,193.9,283,194.2,282.6,194.2z M279,156.9c0.6,0,1,0.3,1.1,0.9C279.3,158,279,157.7,279,156.9z M280.9,143.4
		c-0.4,0.1-0.6-0.3-1-0.1c-0.4-0.9,0.8-0.6,0.9-1.1C281.3,142.2,281,143.3,280.9,143.4z M286,188.6c0.2-0.6,1.2,0.2,2-0.2
		C287.5,189.1,286.7,189,286,188.6z M285,171.6c-0.1-0.5,0.9-0.2,1.2-0.4C286.1,174,286.6,171.5,285,171.6z M280.4,111.4
		c-0.5-0.3-0.2-1.6-1.4-1.1c-0.8-0.3,1.1-0.3,1.5-0.4C280.6,110.5,280.6,111,280.4,111.4z M287.6,167.3c0-0.3-0.1-0.4-0.3-0.5
		c1.2-1.1-0.9-0.2-0.8-0.9c0.9-0.6,2-0.2,2.1,1C288.4,167.2,288,167.3,287.6,167.3z M280.7,104.8c0.6,0.1,1.3,1.1,0.9,1.7
		C280.8,106.5,280.8,105.6,280.7,104.8z M281.5,110c0-0.8,1.3-0.7,1.3,0.1C282.4,110.6,282,110.1,281.5,110z M290.3,159.3
		c-0.4-0.3-1.4-0.8-1.5,0.2c-0.9-0.6,0.9-0.9,1.4-1.1C290.2,158.6,290.3,158.9,290.3,159.3z M283.8,105.7c0.4-0.1,0.6,0.2,1,0.1
		c-0.1,0.2-0.2,0.4-0.2,0.8c-0.2,0-0.5,0.1-0.7,0.1C283.9,106.4,283.8,106.1,283.8,105.7z M282.8,101.3c-0.4-0.4-1.7,0.2-1.6-0.8
		C282,100.4,282.8,100.5,282.8,101.3z M280.6,96.3c0.2,0,0.5-0.1,0.7-0.1c0.3,0.9-0.4,1-1.1,1.1C280.1,96.8,280.8,96.9,280.6,96.3z
		 M279.6,93.6c-0.4,0.7-1.1,1.3-1.8,1.7C278,94.5,278.4,93.7,279.6,93.6z M277.8,96.3c0.2,0.6-1.5,1.4-1.5,0.4
		C276.9,96.7,277,96.2,277.8,96.3z M274.5,88.4c0.1-0.6,1.2-0.3,1,0.4c-0.3,0.4-1.2,0.2-1.2,0.9C273.1,89.2,275.6,88.7,274.5,88.4z
		 M273.8,91.5c0.3,0.9,1,1.3,1.2,2.1c-0.2,0.2-0.7,0.2-0.7,0.6c-0.4-0.6-1.1-0.9-1.9-1.1C272.7,92.4,272.5,91.3,273.8,91.5z
		 M272.8,98.3c0.3,0,0.3,0.6,0.3,1c-0.5-0.4-0.3,0.1-1,0.1c0-0.4-0.4-0.5-0.3-1C272.3,98,272.8,99,272.8,98.3z M268.6,77.4
		c0.2,0,0.2-0.1,0.2-0.3c0.2,0,0.3,0,0.5-0.1c0,0.2,0.1,0.2,0.3,0.2c0,0.2,0,0.3,0.1,0.5c-0.2,0-0.2,0.1-0.2,0.3
		c-0.2,0-0.3,0-0.5,0.1c0-0.2-0.1-0.2-0.3-0.2C268.6,77.8,268.6,77.6,268.6,77.4z M268.7,88.2c0,0.4,0,0.7,0.3,0.7
		c0.1,0.5-0.9,0.2-1.2,0.4C267.8,88.7,268.1,88.3,268.7,88.2z M268.9,92.2c-0.2,0.8,0,0.6,0.2,1.5c-0.3,0-0.4,0.1-0.5,0.3
		c-0.5-0.1-0.7-0.6-0.9-1.2C268.1,92.7,268.2,92.2,268.9,92.2z M268,96.3c1.1,0.1,2.1,0.4,3.3,0.4c0,0.9-0.6,0.4-0.1,1.3
		c-0.6-0.7-2.8-0.8-3.3-0.7C267.1,97.2,268.4,96.9,268,96.3z M268,100.8c0.8-0.2,0.7,0.6,1.3,0.6C269,102.2,267.9,101.6,268,100.8z
		 M273.2,144c-0.7,0.9-2.8,0.6-2.3-0.5c-0.8,0.3-2-0.8-1.7,0.7c-0.8-0.2-0.1-1.1-0.9-1.7C269.4,141.1,273.3,141.2,273.2,144z
		 M265.6,102.3c-0.7-0.2-1.1-0.2-1.7,0.2C263.7,101.8,265.9,101,265.6,102.3z M261,71.4c-0.1,0.6-1.2,0.2-1.7,0.4
		C259.2,71.2,260.6,71.1,261,71.4z M268.4,151.7c0.3,0.8-0.3,1-0.9,1.1C267.5,152.2,267.8,151.8,268.4,151.7z M269.7,173.4
		c-0.7,0-0.5,0.5-1,0.1c0-0.2,0-0.3-0.1-0.5c0.5-0.5,0.3,0,1-0.1C269.6,173.1,269.6,173.3,269.7,173.4z M268.4,165.8
		c-0.3,0-0.3-0.6-0.4-1c-0.6,0.1-0.4,0.9-1.2,0.9c0.3-0.5,0.4-1,1.1-1.1C268.3,165,268.9,165.2,268.4,165.8z M259.1,82.9
		c0.1-0.3,0.4-0.4,0.4-0.8C260.6,82.2,259.8,83.7,259.1,82.9z M255.7,54.2c0.6,0.3,1.2,0.5,1.2,1.6c-0.7-1-1-0.9-1.8-0.1
		C254.9,54.9,256.2,55.2,255.7,54.2z M255.3,65.3c0.4,0,0.6,0.4,0.6,0.9c-0.5,0.2-0.7-0.1-1-0.1C255,65.7,255.3,65.6,255.3,65.3z
		 M258.4,93c-0.3,0.6-0.8,0.5-1.5,0.4C257,92.6,257.9,93,258.4,93z M264.2,157.2c0.8,0,0.7,1.3-0.1,1.3
		C264,157.9,264,157.5,264.2,157.2z M257.1,102.5c-0.2-1,2-1.4,1.8,0.1C258,102.8,257.9,102.3,257.1,102.5z M256.6,97.7
		c-0.4-0.4-0.9-0.6-1.6-0.6C255.5,96.4,257.6,96.8,256.6,97.7z M255.4,92.6c0.4,0.5-0.5,1,0.1,1c-0.3,0.8-1-0.2-0.8-0.9
		C254.9,92.6,255.1,92.6,255.4,92.6z M250,81.6c0.4,0,0.6,0.4,0.6,0.9c-0.9,0.1-0.7,0.4-1.5,0.2C248.7,81.8,249.9,82.1,250,81.6z
		 M246.7,84c0.1,0.2-0.1,0.2-0.2,0.3c-0.8,0.3,0.7,2.4-0.8,2.1C246.7,86.1,245.3,83.9,246.7,84z M242.1,49c0,0.3,0.1,0.7,0.1,1
		c-0.4,0-0.8,0.1-1.2,0.1C241,49.5,241.3,49.1,242.1,49z M247.7,125.7c0.1,0.8-0.5,0.9-1.1,1.1C246.6,126.2,247.1,126,247.7,125.7z
		 M247,138.4c-0.9,0.3-0.4-0.9-0.6-1.4C247,136.9,246.9,137.7,247,138.4z M249.8,163.2c-0.1,0.2-0.2,0.4-0.2,0.8
		c-0.2,0-0.5,0.1-0.7,0.1c0-0.2-0.1-0.5-0.1-0.7C249.1,163.2,249.5,163.2,249.8,163.2z M243,113.9c0.9-0.4,0.6,0.8,1.1,0.9
		C243.9,115.4,242.9,114.6,243,113.9z M243.5,118.7c0.5-0.2,0.7,0.1,1,0.1c0.1,0.4-0.3,0.6-0.1,1C243.6,120,243.5,119.4,243.5,118.7
		z M243.7,125.9c0.4,0,0.5-0.4,1-0.4c0,0.2,0.1,0.5,0.1,0.7C244.3,126.3,243.5,126.7,243.7,125.9z M245.6,146.5
		c-1.1,0.4-0.8-0.9-1.1-1.4C245.1,145.2,245.5,145.7,245.6,146.5z M238,111.9c0.9,0.6,1-0.8,1.4-1.4c0.4,0,0.8-0.1,1.2-0.1
		c-0.6,1.5-1.6,1.3-2.3,2.5C238.9,112.2,237.9,112.8,238,111.9z M240.1,142.3c-0.8,0.3-0.4-0.8-0.8-0.9c-0.2,0.2-0.4,0.3-0.7,0.3
		c0-0.5,0.6-0.6,1.2-0.6C239.7,141.7,240.3,141.6,240.1,142.3z M236,111.4c0.6-0.5,2-0.4,2.7-0.8C238.3,111.7,237,111.3,236,111.4z
		 M232.2,69.4c0.5-0.2,0.7,0.1,1,0.1c0,0.9-0.5,1.4-0.8,2.1C231.6,71,232.9,70.1,232.2,69.4z M237.2,82.2c-0.6-0.1-1.2-0.2-1.3-0.9
		c0.5-0.6,1,0,1.5,0.1C237.3,81.6,237.2,81.8,237.2,82.2z M234.9,69.1c0-0.6,0.3-1,0.9-1.1C236,68.8,235.5,69,234.9,69.1z
		 M233.5,50.7c-0.3,0-0.4,0.1-0.5,0.3c-0.5-0.1-0.6-0.3-0.3-0.7c-0.5-0.1-0.4,0.4-0.4,0.8c-0.8-0.1-0.4-0.6-0.4-1.2
		c0-0.2-0.1-0.2-0.3-0.2C231.8,49.5,233.7,49.5,233.5,50.7z M232.6,56.3c-0.2,0.7-1.3,1.5-2.2,1c-0.3-0.9,0.6-0.8,0.6-1.6
		C231.9,55.5,231.7,56.5,232.6,56.3z M228.6,32.4c-0.3,0.6-1,1.5-1.6,1.2C226.7,32.5,227.7,32.5,228.6,32.4z M231.4,69.2
		c-0.2,0.5-0.5,0.8-0.6,1.3c-1-0.7,0.4-1.1-0.7-2.2C230.6,68.5,230.7,69.2,231.4,69.2z M235.7,111.7c0,1.2-0.8,0.4-1.4,0.9
		C234.4,112,235.2,111.9,235.7,111.7z M236.9,172.3c0.4,0,0.5-0.4,1-0.3c0,0.2,0.1,0.5,0.1,0.7C237.5,172.7,236.7,173,236.9,172.3z
		 M224.4,52.1c-0.2,0.9-1.7,1.1-2.2,0.5C222.3,51.6,223.6,52.2,224.4,52.1z M232.8,154.4c0.1-1,1.3-0.4,1.1,0.6
		c-0.3-0.1-0.7-0.4-0.3-0.5C233.5,154.3,233.1,154.4,232.8,154.4z M233,146.6c-0.8,0.2-1.1-0.1-1.1-0.9
		C232.5,145.7,233.1,145.7,233,146.6z M233.2,148.1c-0.4-0.3-1.2,0-1.5-0.3C231.7,147.8,233.3,146.7,233.2,148.1z M219.1,27.8
		c0,0.8-1.3,0.7-1.3-0.1C218.4,27.6,218.8,27.6,219.1,27.8z M226.1,196.5c0.8-0.3,0.8,0.3,1.3,0.4
		C227.3,197.4,225.9,197.2,226.1,196.5z M210.9,89.4c0.5,1.3-1.3,1.3-1.5,0.4C209.7,89.5,210.3,89.4,210.9,89.4z M201.9,45.6
		c0.2-0.2,0.5-0.3,1-0.4c0,0.3,0.1,0.7,0.1,1C202.7,45.9,201.7,46.5,201.9,45.6z M199.5,44.9c0.7-0.3,0.7,0.3,1.3,0.1
		c-0.8,0.7-1.7,1.3-2.6,2C198.4,46.1,199.7,46.1,199.5,44.9z M203,85.7c-0.2-0.5,1.3-0.9,1.5-0.4C204.6,86.3,203.4,85.6,203,85.7z
		 M204.7,90.8c0,0.9-2,0.8-1.8-0.3C203.8,90.2,204.2,90.6,204.7,90.8z M197.7,44.1c0-0.4,0.4-0.6,0.9-0.6c0,0.3,0.1,0.7,0.1,1
		C198.1,44.7,198.2,44,197.7,44.1z M195.9,16.4c-0.9,0.5-0.5-0.6-1.3-0.4C194.6,15.1,195.7,15.8,195.9,16.4z M210.8,164.4
		c-0.6,0.1-1.1,0-1.1-0.6C210.3,163.6,210.9,163.6,210.8,164.4z M213,181c-0.2,0-0.5,0.1-0.7,0.1c-0.2-0.5,0.1-0.7,0.1-1
		C213.1,179.7,212.9,180.6,213,181z M196.6,45.4c-0.3,0.1-0.4,0-0.5-0.2c-0.5,0.1,0.1,1.1-0.9,0.8c0.3-0.8-0.2-1,0.1-1.5
		C195.6,44.9,196.7,44.5,196.6,45.4z M201.2,90.6c-0.8,0.3-0.8-0.3-1.3-0.4C200.1,89.7,201.4,89.8,201.2,90.6z M192,20.3
		c0.7-0.2,0.6,0.4,1,0.4c-0.1,0.7-0.3,0.3-1,0.4C192.1,20.8,192,20.5,192,20.3z M195.7,49.3c0.1-0.5,0.4,0.2,0,0.2
		c0,0.7,1.4-0.4,1.1,0.6c-0.9,0-1.4,0.9-2,0.5C195.2,50.2,195.7,49.9,195.7,49.3z M197.4,68.2c-0.1,1.7-1.5,0-1.8-0.6
		c0.2,0,0.5-0.1,0.7-0.1C196.3,68.8,196.9,67.6,197.4,68.2z M215.1,239c-0.2,0.5-0.9,0.5-0.9,1.1c-0.4,0-0.6-0.4-0.6-0.9
		C214.2,239.1,214.6,239,215.1,239z M194.4,48.7c0.3,0.7-0.8,0.4-0.4,1.3c-0.8-0.3-1.3-1-2.4-1c-0.2-1.1,1.2-0.5,1.2-0.9
		C193,48.3,193.4,49.4,194.4,48.7z M203.4,163.2c-0.6,0.3-0.9,0.8-1.7,0.9C201.9,163.5,202.6,162.6,203.4,163.2z M201.1,158.1
		c0.6-0.1,1.1,0,1.1,0.6C201.8,159.3,201.2,158.8,201.1,158.1z M194,74.3c0.5,0.4,0.3-0.1,1-0.1C195.9,75.3,194.1,75.4,194,74.3z
		 M189.3,13.8c-0.3,0.4-2,1.5-2,0.2C187.8,13.9,188.7,13.6,189.3,13.8z M191.2,47c0.1,0.4-0.3,0.6-0.1,1c0.3-0.5,1.4-0.9,2-0.5
		c-0.7,1.1-2.4,0.2-3,0.6C189.6,47.9,190.7,47.1,191.2,47z M186.3,16.1c-0.2-0.2-0.6-0.2-1-0.1c0-0.7,0.6-0.9,1.1-1.1
		C186.6,15.4,186.5,15.8,186.3,16.1z M190.2,76.4c-0.8,1.2-1.8-1.3-0.1-1C190.4,75.9,189.5,76.3,190.2,76.4z M202.9,212.1
		c-0.7,0-0.9-0.6-1.1-1.1c0.2-0.3,1.5-0.7,1.7-0.2C203.8,211.7,202.3,211.1,202.9,212.1z M199.6,199.9c0.1-0.9,1.9-0.2,2.5,0
		C201.5,200.7,200.4,199.8,199.6,199.9z M202.1,217.2c-0.1,0.6-1.5,0.4-1.3-0.4C201.6,216.6,201.6,217.2,202.1,217.2z M185.8,33.2
		c0-0.8,0.3-1.2,1.1-1.4c-0.2,0.5-0.3,1-0.3,1.5C186.4,33.3,186.1,33.2,185.8,33.2z M184,15.6c0-0.7,0.3-1.1,1.1-1.1
		C185.4,15.4,184.7,15.5,184,15.6z M196.3,115.7c0,0.6-1.3,0.3-1.5,0.2C194.8,115.3,196.1,115.5,196.3,115.7z M185.2,12.7
		c-0.7,0.1-0.8-0.5-0.9-1.2C184.8,11.7,185.2,11.9,185.2,12.7z M182.4,10c1.2-0.5,2.4,1.4,0.9,1.7c0.4-1-0.3-0.1-1-0.1
		C182.2,10.9,182.2,10.3,182.4,10z M191.2,105.2c0.5-0.2,0.7,0.1,1,0.1c-0.6,0.2-0.1,1.3-1.1,1.1
		C190.9,105.9,191.4,105.9,191.2,105.2z M192.7,110.6c-0.5-0.3-1.6,0.1-1.8-0.6C191,109.8,192.7,109.8,192.7,110.6z M189.1,95.1
		c-0.7-0.1-0.6,0.4-1.2,0.4C187.7,94.6,189.1,93.9,189.1,95.1z M190.8,146.1c0.5-0.2,1-1,1.2-0.1c0.3-0.1,0.2-0.8-0.1-0.7
		c1-1,0.3,0.7,1.1,0.6c-0.1-0.1-0.2-0.1-0.3-0.2c0.1,0.1,0.3-0.1,0.3,0.2c0,0,0,0,0,0c1.1,1-1.8,0.5-1.6,1.2
		C191,147.1,190.8,146.7,190.8,146.1z M191.9,144.3c0.3,0.9-1.1,0.3-0.9,1.1C190.2,145,191,144,191.9,144.3z M199.3,204
		c0,0.3,0.1,0.7,0.1,1C198.4,205.3,198.3,203.9,199.3,204z M186.5,78.8c0.1,0.6-0.3,0.9-0.9,0.8C185.4,79,185.8,78.8,186.5,78.8z
		 M186.7,103.6c0.3,0,0.7-0.1,1-0.1C188.1,104.4,186.5,104.8,186.7,103.6z M186.7,108.2c0.6-0.2,1.2-0.6,1.7-0.2
		c-0.5,0.3-0.9,0.6-1.4,0.9c0-0.2-0.1-0.2-0.3-0.2C186.7,108.5,186.7,108.3,186.7,108.2z M194.2,176.9c0.6,0,1.2,0,1.1,0.9
		c-0.7,0.2-0.8,0.9-1.9,0.7C193.6,177.9,193.6,177.1,194.2,176.9z M191.4,171.2c-0.9,0.4-0.8-0.5-1.5-0.3
		C190,170.2,191.5,170.4,191.4,171.2z M184.9,124.7c-0.3-0.3-0.5-0.7-1.3-0.4c0-0.2-0.1-0.5-0.1-0.7c0.6-0.5,0.8,0,1.5-0.4
		C185.1,123.7,185.1,124.3,184.9,124.7z M184.6,117.2c0,0.6-0.8,0.2-1,0.1c0.8,1.2-0.4,2.3-0.4,3.6c-1.7-0.7-2,1.1-3.9,0.9
		c0-0.5,0.6-0.6,1.2-0.6c-0.3-0.7-1.3-0.7-2.3-0.5c-0.7-0.3,1.2-0.4,1.4-0.6c-0.1-1.9-2.8,0.4-1.9-1.1c-1-0.7-1.1,1.4-1.6,1.9
		c-0.4,0,0.2-0.8-0.6-0.9c0-2.4,4.2-1.4,4.7-3.5C180.9,117.9,183.9,115.2,184.6,117.2z M193.1,234.5c-0.1-0.4,0.3-0.6,0.1-1
		c0.8-0.2,1.1,0.1,1.1,0.9c-0.4,0.1-0.5-0.2-0.3-0.2C193.8,233.4,193.8,234.7,193.1,234.5z M175.5,104c-0.7,0.6-1.8-0.1-2.5,0.5
		c-0.3-0.3,1.1-1.2,2.1-1.2C175.2,103.7,175.2,104,175.5,104z M178.2,130.6c-0.5-0.8-1.4-1.1-1.9-1.8c0.3-0.3,0.8-0.4,1.5-0.4
		C177.7,129.4,178.3,129.6,178.2,130.6z M183,167.5c0.3,1.3-0.9,0.1-1.2,0.9C180.9,167.9,182.7,167.7,183,167.5z M187.2,220.8
		c0.8,0,0.2,1.7-0.3,2C187.1,222.2,186.9,221.3,187.2,220.8z M185.3,202.1c0.3-0.3,0.8-0.4,1.5-0.4
		C187.2,202.6,185.2,203.1,185.3,202.1z M181,153.4c0.3-0.4,1.3-0.2,1.3,0.6C181.9,153.8,181,154.2,181,153.4z M187.5,194.6
		c0.7,0.5-0.2,1.6-0.9,1.1C186.6,195.1,187.3,195,187.5,194.6z M188.4,198.6c0.2,0.3,0.4,0.6,0.4,1.2c-0.6,0-0.6-0.7-1.1-0.9
		C187.7,198.6,188.1,198.6,188.4,198.6z M181,133.8c-0.6-0.7-0.4-1.4-1.7-1.6c1.1-0.7,0.5-1.1,0.6-1.8c0.6-0.1,1.2-0.1,1.7-0.2
		C182.9,131,182.6,133.5,181,133.8z M178.7,126c0.2-1.1,1.1-1.1,1.9-0.7C180.5,125.9,179.6,126,178.7,126z M180.9,124.8
		c0.4-0.5,1.8-0.5,1.8,0.3C182.1,125,180.8,125.8,180.9,124.8z M175.5,111.3c0.2-0.5,0.9-0.6,1.7-0.7c0,0.7-1,0.6-1.1,1.1
		C175.7,111.7,175.8,111.3,175.5,111.3z M179.1,68.3c-0.8,0.3-0.8-0.3-1.3-0.4C177.9,67.3,179.3,67.5,179.1,68.3z M182.2,105.9
		c0.1,1.3-0.7,1.9-1.5,2.4c0.1,0.5,0.7,0.2,0.6,0.9C179.7,109.1,180.3,105.9,182.2,105.9z M177.8,82.5c-1-0.2-1.4-1.1-1.7-2.1
		C177.1,80.6,177.5,81.4,177.8,82.5z M179.5,115.9c0,1.1-0.5,0.5-1.4,0.9C178.1,116.2,178.9,116.2,179.5,115.9z M176.9,107.7
		c0.8,0.8-0.8,1.3-1.7,0.9C175.2,107.8,176.6,108.2,176.9,107.7z M170.5,54.9c-0.6,0.1-1.2,0.2-1.5-0.1
		C168.8,54.1,170.4,54.2,170.5,54.9z M173.6,102.5c0.3,1-1.4,0.5-1.3-0.1C172.7,102.5,173.6,101.9,173.6,102.5z M168.1,53.6
		c-0.8,0-1.2-0.5-1.1-1.4C167.5,52.4,168.4,53.1,168.1,53.6z M166.6,49c0.3,0,0.7-0.1,1-0.1c0.1,0.6,0.1,1-0.1,1.3
		C166.7,50.4,166.6,49.7,166.6,49z M182.9,237.8c1.2-0.4,1.4,0.4,2.6,0.5c-0.4,1.4-2.1,0.8-2.3,2C181.8,239.8,183.5,239,182.9,237.8
		z M164.2,101.2c-0.3,0.4-0.1,1.1-0.9,1.1c-0.1-0.4,0.2-0.6,0.1-1C163.7,101.2,163.9,101.2,164.2,101.2z M159.1,54.5
		c0.7,0,1.3,1.2,0.1,1.2C159,55,159,55.3,159.1,54.5z M166.4,128.3c-0.7,0.1-0.8-0.5-0.9-1.2C166.7,127.1,166,127.6,166.4,128.3z
		 M175.4,203.4c-0.2,0.6-1.1,0.6-1.9,0.7C173.2,203.1,174.8,203.7,175.4,203.4z M173.9,198.8c0-0.4,2-0.8,1.8,0.1
		C175,198.9,174.3,199.1,173.9,198.8z M166.9,88.4c1-0.2,0.5,1.2,0.1,1.2C166.2,89.5,167,88.8,166.9,88.4z M171.3,143.9
		c0.8-0.2,1.2,0.1,1.8,0.1c0.3,0.9-0.2,1.2-0.9,1.3c-0.3-0.7,0.4-0.6,0.4-1C172,143.7,171.5,145.3,171.3,143.9z M172.4,149.5
		c-0.2,0-0.5,0.1-0.7,0.1c-0.3-0.7,0.4-0.6,0.4-1C172.8,148.7,172.3,148.9,172.4,149.5z M167.2,91.6c0.2,0.8-0.1,1.1-0.9,1.1
		c0-0.2,0.2-0.3,0.2-0.5c0-0.7-1.4,0.4-1.1-0.6C166.1,91.5,166.8,91.3,167.2,91.6z M168.3,117.1c0,0.9-0.8,0.8-1.4,0.6
		C166.8,117.1,167.6,117.1,168.3,117.1z M176.3,195c-0.7,0.1-1.5,0.4-1.3-0.6C175.7,194.3,176.3,194.3,176.3,195z M175.8,202.9
		c0.9-0.6,2.1-0.2,1.6,0.8C177,203.3,175.7,203.9,175.8,202.9z M174.1,175.9c0-0.9,1.8-0.6,1.8,0.3C175.4,176,175,175.7,174.1,175.9
		z M172.9,150.2c0-1,0.7-0.7,1.2-0.6C174.1,150.1,173.6,150.2,172.9,150.2z M171.8,132c0-0.3-0.1-0.7-0.1-1c0.4,0.3,1.1,0.1,1.1,0.9
		C172.5,131.9,172.2,132,171.8,132z M166.5,72.8c0-0.3,0.4-0.3,0.7-0.3c0,0.4,0.1,0.8,0.1,1.2C166.7,73.9,167,72.9,166.5,72.8z
		 M181.8,204.5c0.2,0.6-1.5,1.4-1.5,0.4C180.6,204.6,181.1,204.5,181.8,204.5z M179.7,186.9c-0.9,0-0.8-0.7-1.1-0.9
		c0-0.5,0.6-0.6,1.2-0.6C180.1,186.1,179.4,186.2,179.7,186.9z M169.1,83.1c-0.4,0-1.2,0.4-1-0.4c0.2-0.2,0.5-0.3,1-0.3
		C169,82.6,169.1,82.9,169.1,83.1z M165.1,61.7c1-0.3,1.1,0.5,1.1,1.4c-0.4,0.1-0.7-0.4-0.7,0.1C165,63.2,165.3,62.1,165.1,61.7z
		 M166.6,83.4c0.1,0.3,0.5,0.2,0.8,0.2c-0.1,0.9-1.6,0.7-1.3,1.9c-0.5-0.1-0.5-0.7-1.3-0.4c0.8-0.3,1.1-1.4,1.8-2.4
		C166.8,82.6,166.9,83.3,166.6,83.4z M158.7,23.7c0.8-0.4,0.6-0.1,1.5-0.2c-0.4,0.6-0.5,1.2-1.4,0.9C158.8,24.2,158.8,24,158.7,23.7
		z M163.5,72.4c-0.4-0.4-1.3-0.1-1.3-0.9C162.7,71.6,163.4,71.6,163.5,72.4z M163.1,76.2c-0.1,0.3-0.4,0.4-0.4,0.8
		C161.6,76.9,162.4,75.5,163.1,76.2z M159.1,54c0-0.2-0.3-0.2-0.5-0.2c-0.1-0.8,0.6-1,1.4-1.1C160.1,53.5,159.8,53.9,159.1,54z
		 M156.5,33.7c0.6,0,0.7,0.9,0.4,1.2c-0.3-0.1-0.4-0.4-0.8-0.4C156.1,34.2,156.5,34.1,156.5,33.7z M161.5,97.4
		c0.3,0.2,0.7,0.3,1.3,0.1c-0.2,0.9-0.7,1.5-1,2.4C161.3,99.3,160.8,98,161.5,97.4z M164.3,156.1c0.6-0.1,0.8,0.3,0.8,0.9
		C164.5,157.2,164.3,156.8,164.3,156.1z M159.1,113c0.4,0,0.5-0.4,1-0.3C161,113.5,159.1,114.3,159.1,113z M164.3,149.6
		c-0.9-0.5,1.8-2.1,1.7-0.7C165.3,149,164.3,148.9,164.3,149.6z M176.2,260.3c0.4,0,0.8-0.1,1.2-0.1c0.3,0.8-0.7,0.5-1.2,0.6
		C176.2,260.6,176.2,260.5,176.2,260.3z M167.5,175.9c0.8-0.1,1,0.4,1.6,0.6C168.8,177.1,167.6,176.4,167.5,175.9z M170.7,196.9
		c0.2,0,0.5-0.1,0.7-0.1c0.2,0.5-0.1,0.7-0.1,1C170.8,197.8,170.7,197.4,170.7,196.9z M167.7,175.1c0.2-0.7,1.3-1.4,1.9-0.9
		C169.4,174.8,168.7,175.1,167.7,175.1z M163,111.6c0-0.4-0.1-0.8-0.1-1.2C163.6,109.9,163.8,111.9,163,111.6z M178.2,253.6
		c0.3,0.1,0.4,0.4,0.8,0.4c-0.1,0.8-0.6,0.4-1.2,0.4C177.9,254,178.2,253.9,178.2,253.6z M160,95.3c0.6-0.1,0.7,0.5,0.8,0.9
		C160,96.5,159.7,95.7,160,95.3z M159.7,96.6c0.3,0.9-1.1,0.4-1.7,0.7C158.4,97.1,159.1,96,159.7,96.6z M150.9,33.3
		c0.2,0,0.5-0.1,0.7-0.1c0,0.2,0.1,0.5,0.1,0.7c-0.3,0-0.7,0.1-1,0.1C150.9,33.8,151,33.6,150.9,33.3z M166.7,187.2
		c0.4,0.2,0.8,0.3,0.8,0.9c-0.3,0-0.7,0.1-1,0.1C166.4,187.7,166.6,187.6,166.7,187.2z M158.7,133.9c0.7-0.4,1,1.8,0.2,1.5
		C159,134.6,159,134.6,158.7,133.9z M156.8,120.3c0-1,0.9-1.2,1.9-1.4C158.4,119.6,157.6,119.9,156.8,120.3z M152.7,99.6
		c0.3-1.7,2.1,1.1,0.3,1c0.1-0.2,0.2-0.5,0.4-0.5C153.3,99.8,153,99.7,152.7,99.6z M154,110.2c0.8,0.1,1.3,0.4,1.4,1.4
		c-0.3,0.2-0.6,0.4-1.2,0.4C154.2,111.4,154.1,110.8,154,110.2z M164.2,190c-0.5-0.4-1.3-0.5-1.6-1.1
		C163.6,188.7,164.2,189,164.2,190z M160.2,129.2c-0.1,0.9-0.8,0.4-1.2,0.1C159,128.7,160.1,129.1,160.2,129.2z M157,102.2
		c-0.6,0.1-0.8-0.4-1.5-0.1c-0.4-0.8,0.8-0.3,0.4-1C156.6,101,157,101.4,157,102.2z M155.8,100.8c-0.4,0-0.8,0.1-1.2,0.1
		C154.2,99.7,156.1,99.4,155.8,100.8z M147.8,27.6c-0.1,0.9-1.2,0.2-1.3-0.4C147.3,26.9,147.3,27.5,147.8,27.6z M143.8,12.2
		c0.7-0.1,1.4-0.2,1.3,0.6C144.4,12.9,143.7,13,143.8,12.2z M145.7,34.1c0.7,0.3,1,1,1.4,1.6c-0.7,0.8-1.2-0.4-2-0.3
		C144.8,34.6,146.1,35,145.7,34.1z M155.1,145.3c0.3-0.7,1.2-0.8,1.9-1.2C156.8,144.8,156.1,145.2,155.1,145.3z M161.6,206.6
		c-0.2,0.6-1.2-0.2-2,0.2C159.6,205.7,161.4,206.2,161.6,206.6z M148.2,72.5c0.9-0.2,0.5,1.3,0.9,1.7c-0.3,0.4-0.9,0.4-1.2,0.1
		C148.7,73.4,148,73.2,148.2,72.5z M151.9,103.7c0.1,0.7-0.5,0.8-0.3,1.5C151,105.1,151,103.5,151.9,103.7z M142.8,7.5
		c-0.6,0.1-1.1,0-1.1-0.6C142.3,6.7,142.8,6.9,142.8,7.5z M139.6,11.4c0-0.2,0-0.3-0.1-0.5c0.8,0.7,1.4,0.6,2.9,1
		c-0.6,1.3-1.8-0.5-3-0.2C139.4,11.4,139.5,11.4,139.6,11.4z M145.9,67.9c-0.3,0-0.4,0.1-0.5,0.3c-0.4-0.2-0.6-0.6-0.6-1.2
		C145.6,66.8,146,67.1,145.9,67.9z M152.2,156.4c-0.4,0-0.8,0.1-1.2,0.1c-0.2-1.1,0.7-1.3,1.3-1.6
		C152.4,155.4,152,155.6,152.2,156.4z M149.6,140.8c0-0.2-0.1-0.5-0.1-0.7c0.5-0.2,0.7,0.1,1,0.1
		C150.6,140.7,150.2,140.8,149.6,140.8z M142.3,71.6c0.7-0.1,1.4-0.1,1.3,0.9C143,72.3,142.3,72.3,142.3,71.6z M141.2,61.1
		c0.2,0,0.2,0.3,0.3,0.5c0.1,0.5,0.9,0.1,1,0.4c-0.1,0.4-0.3,0.7-0.4,1c-0.7,0.3-0.7-0.3-1.3-0.1C141.2,62.1,141.2,61.8,141.2,61.1z
		 M132.4,21.9c0.3-0.1,0.5-0.4,0.4-0.8c0.4,0.2,0.4,1,0.6,1.4c-0.3,0-0.7,0.1-1,0.1c0.2-0.6-2.1-1.9,0-2.3c0.3,0.7-0.4,0.6-0.4,1
		C132.2,21.6,132.4,21.6,132.4,21.9z M135.4,50.7c0.7-0.4,1.2,0.9,0.6,1.2C135.2,52.2,135.6,51.1,135.4,50.7z M146.1,145.4
		c-0.3,0-0.7,0.1-1,0.1C144.8,144.6,146.2,144.5,146.1,145.4z M131.7,12.4c-0.6,0.7-1.4-0.1-2.2,0.5
		C129.6,11.5,130.9,12.3,131.7,12.4z M139,110.5c0.4-0.5,0.6-0.1,1.2-0.1C140.5,110.9,138.9,111.5,139,110.5z M143.1,138.2
		c-0.2,0.6-1.2,0.7-1.3-0.1C142.3,137.5,142.6,138,143.1,138.2z M144.3,201.8c0.2-0.7,0.7-0.9,1.4-0.6c0.3,1-0.4,1.2-1.1,1.4
		c0.1-0.4,0.3-0.6,0.7-0.8C145.1,201,144.8,202,144.3,201.8z M141.7,170.7c0.2-0.5,0.8-0.7,1.2-0.4C142.9,171,142,171,141.7,170.7z
		 M139,119.8c-1-0.1-0.2-1.4-1.6-0.6c0.1-0.6,0.9-0.6,0.9-1.3C139.2,117.6,138.7,119.2,139,119.8z M131.1,58.1
		c-1.1,0.1-0.2-1.7-0.2-2.2C131.3,56.5,131.4,57.5,131.1,58.1z M130.1,48.2c-0.7-0.3-0.8-0.7-0.6-1.4
		C130.3,46.4,129.9,47.7,130.1,48.2z M141.6,163c-0.3,0-0.4,0.1-0.5,0.3C139.9,162.9,141.5,161.5,141.6,163z M147.2,202.5
		c-0.5-0.1-1.1,0-1.1-0.6C146.8,201.8,147.3,201.7,147.2,202.5z M139.6,140.6c0-0.9,1.7-1.7,2.4-1.2
		C142.1,140.5,140.2,140,139.6,140.6z M132.7,38.9c0.2-0.4,0.2-0.6-0.3-0.7c0-0.6,0.6-0.6,1-0.3C133.3,38.3,133.3,38.9,132.7,38.9z
		 M134.8,67.3c-0.9,0.5-0.5-0.6-1.3-0.4c0.3-0.7,0.9-1,1.1-1.9C135.3,65.4,134.4,66.4,134.8,67.3z M131.3,39.8
		c0.9,0.5,0,2.2-0.9,1.3C130.2,40.3,131.1,40.3,131.3,39.8z M127.3,16.1c0.4,0,0.9-0.2,1,0.1C128.7,17.1,126.9,17.1,127.3,16.1z
		 M130.4,33.4c-0.6,1.3-2.6,0.3-3.1-0.4C128,31.6,128.9,33.9,130.4,33.4z M129.4,45.8c-0.1,0.9-1.6,0.5-1.5-0.3
		C128.6,45.2,128.8,45.7,129.4,45.8z M130.1,74.8c-1.6-0.3-1.6-0.1-3.3-0.4c0.1-0.7,1.1-0.6,1.1-1.4
		C128.5,73.8,130.1,73.3,130.1,74.8z M135.4,126.2c-0.8,0-1.6-0.1-1.6-1.1C133.9,126,135.2,125.4,135.4,126.2z M131.5,125.6
		c-0.2-0.4,0.2-1.5-0.4-1.5c0.5-0.7,1.3,0.6,2.3,0.3C133.7,125.5,132.1,125.1,131.5,125.6z M134.7,139.3c-0.6,0-1-0.3-1.1-0.9
		C134.4,138.2,134.7,138.5,134.7,139.3z M127.6,67.8c0,0.5-0.6,0.6-1.2,0.6C126.6,67.9,127.1,67.3,127.6,67.8z M121.5,22.8
		c0.6-0.1,0.9,0.3,0.8,0.9C121.7,23.8,121.5,23.4,121.5,22.8z M129.2,87.7c-0.3,0.5-1.5,1-1.9,0.7C127.6,88,128.5,87.9,129.2,87.7z
		 M122.8,48.2c-0.5-0.9-0.6-0.9-1.8-0.6c-0.1-0.8,0.2-1.2,0.3-1.8C122.5,45.9,123.3,47,122.8,48.2z M118,35.6c0-0.4-0.4-0.5-0.3-1
		c0.3-0.4,1,0,1.5,0.1C119.1,35.3,118.6,35.5,118,35.6z M120.5,40.4c-0.5,0.6-0.2,0.7-0.4,1.3c-0.2-0.1-0.4-0.2-0.8-0.2
		C119.3,40.8,120,40.6,120.5,40.4z M119.4,43.5c0.6-0.1,1-0.1,1.3,0.1C120.8,44.3,119,44.7,119.4,43.5z M131.1,145.7
		c-0.3,0-0.7,0.1-1,0.1C129.8,144.9,131.2,144.7,131.1,145.7z M131.8,157.7c0.9,0.4,1.5,1.2,1.7,2.3c-1-0.2-1-1.6-2.2-1.5
		C131.4,158.2,131.8,158.1,131.8,157.7z M117.7,10.6c0.3,0.9,0,1.2,1.1,1.1c-0.6,0.9-1.9,1.5-3.3,2.1c-0.7-0.5,0.5-0.7,0.1-1.8
		C117.2,12.3,117.5,11.4,117.7,10.6z M114.2,17.5c-0.2,0.4-0.2,0.6,0.3,0.7c-0.2,0.6-1.3-0.1-1.3-0.6
		C113.5,17.5,113.9,17.5,114.2,17.5z M118.6,65.9c-0.4,0.5-1,0-1.1-0.6C118.2,65.2,118.7,65.3,118.6,65.9z M126.1,146.5
		c-0.1,0.3-0.5,0.5-0.9,0.6c-0.2-0.5,0.1-0.7,0.1-1C125.7,146.1,125.8,146.5,126.1,146.5z M114.4,31.8c-0.5,0.3-0.8,0.9-1.7,0.9
		C112.7,31.9,113.8,32,114.4,31.8z M118.3,74.5c-0.6-0.1-1.2-0.2-1.3-0.9C117.7,73.5,118.1,73.8,118.3,74.5z M113.6,46.1
		c-0.3,0.4-1.5,0.4-1.5-0.3C112.6,45.6,113.6,45.1,113.6,46.1z M126.7,201.1c0-0.4-0.1-0.8-0.1-1.2c1,0.1,1.2-0.1,1.8,0.1
		c0,0.4,0.1,0.8,0.1,1.2C127.6,201,127.6,201.4,126.7,201.1z M131.3,231c-0.3-0.3-1.1-0.2-1.1-0.9
		C130.9,229.9,131.3,230.2,131.3,231z M109.8,46c-0.2-0.8,0.3-1,0.3-1.5c0.7,0,0.3,0.5,0.9,1.2C110.8,45.9,110.4,46,109.8,46z
		 M114.3,70.4c-0.1,0.6-1.1-0.1-1.5-0.1C113.1,69.6,114,70.3,114.3,70.4z M122.6,163.6c0.8-0.3,0.6,0.6,1.1,0.6
		c-0.4,0.9-0.9-0.3-1.5-0.1C122.2,163.9,122.7,164,122.6,163.6z M110.3,21.4c-0.6,0.1-1.1,0-1.1-0.6
		C109.9,20.6,110.5,20.5,110.3,21.4z M110.5,28.1c0,0.9-0.8,0.8-1.4,0.6C109.3,27.9,109.6,28.1,110.5,28.1z M110.1,31.4
		c-0.2,0.6-0.8,1.5-1.4,1.1C109.2,32.2,109.5,31.7,110.1,31.4z M109.4,34.8c0,0.3,0.1,0.7,0.1,1c-0.6-0.1-1.5,0.2-1.6-0.6
		C108.6,34.7,108.7,35.2,109.4,34.8z M104.7,40.5c-0.1-0.7,0.5-0.8,1.2-0.9c0.2,1-0.1,1.5-0.3,2c-0.3-0.1-0.4-0.4-0.8-0.4
		c0.1-0.4,0.3,0.1,0.7-0.1C105.7,40.5,105.4,40.3,104.7,40.5z M106.4,39.6c-0.5,0.2-0.8-1.4-1.1-0.6c-0.8-0.3,0.6-0.7,0.9-0.8
		C106.8,38.5,106.1,38.8,106.4,39.6z M117.5,150.1c-1.1-0.2-1,1.2-2,0.5c0.1-0.8,1.6-0.3,1.6-1.2
		C117.4,149.4,117.4,149.8,117.5,150.1z M104.6,36.8c0.4,0,0.8-0.1,1.2-0.1C106,37.8,104.7,37.9,104.6,36.8z M109.8,85.4
		c-0.5,0.3-0.5,1-1.1,1.1C108,86,109.4,85,109.8,85.4z M121.2,199.2c-0.4,0.1-1,0-1,0.4c-0.7-0.3-0.8-1.2-1.2-1.9
		C120.2,197.6,120.8,198.3,121.2,199.2z M123.7,208.5c0,0.8-1.7,0.6-1.8-0.1C122.6,208.3,123.3,208.1,123.7,208.5z M110.8,84.8
		c0.4-0.5,0.5-1.2,1.4-1.4c0.2,0.2,0.2,1.7,0.5,0.4c1,0.1-0.1,0.9-0.4,1.3C111.6,85.3,111.8,84.4,110.8,84.8z M106.7,27.5
		c0.6,0,0.3,1.1,0.1,1.2c-0.7,0.3-0.5-0.4-1-0.4C105.8,27.9,106.7,28,106.7,27.5z M107.1,36.5c-0.9,0-0.6-1-1.5-0.3
		C105.5,34.4,107.7,35.5,107.1,36.5z M102.7,30.2c1.1,0,1.3,1,2.4,1c0,1-0.1,0.8,0.2,1.7c-0.3,0-0.4,0.1-0.5,0.3
		c-1.3,0,0.9-1.5-0.9-1.2c0.1-0.2,0.2-0.5,0.4-0.5c-0.1-0.3-0.4,0-0.5,0.3C103.3,31.5,102.6,31.3,102.7,30.2z M102.7,32.5
		c0.8-0.3,1,0.3,1.1,0.9C103,33.5,102.6,33.2,102.7,32.5z M105.9,69c0.4,0,0.7,0,0.7-0.3c0.4,0.2,0.2,1.7-0.6,1.6
		C106,69.8,106,69.4,105.9,69z M107.6,70.6c1,0.7-1.1,0.8-1.1,1.4C105.4,71.2,107.7,71.3,107.6,70.6z M109.4,105.3
		c0.5-0.5,0.3,0,1-0.1C110.7,106.1,109.3,106.3,109.4,105.3z M109.9,125.3c0.4,0,0.8-0.1,1.2-0.1C111.5,126.2,110,126.1,109.9,125.3
		z M112.6,151.9c-0.6,0.1-0.3-0.7-0.8-0.7c0.2-0.6,1,0.2,1.7-0.2C114.1,152,112.5,151.2,112.6,151.9z M104.6,71.4
		c0.4,0.1,0.7,0.3,1,0.4c0,0.7-0.3,1.1-1.1,1.1C104.5,72.3,104.4,71.7,104.6,71.4z M105.4,69.3c-0.4,1-1,0.6-1.6,1.7
		c0.2-0.2,0.3-0.7-0.1-0.7C104.2,69.8,104.8,69.5,105.4,69.3z M99.1,32.3c0.8,0.3,1.6,0.6,1.9,1.6c-0.7,0.4-1,0.2-1.8-0.1
		C99.2,33.3,99.2,32.8,99.1,32.3z M103.2,64.5c0.1,0.6,0,1.1-0.6,1.1c-0.4-0.6,0-0.5-0.4-1.2C102.7,64.2,102.8,64.5,103.2,64.5z
		 M96.7,28.3c0.3,0,0.7-0.1,1-0.1c0.1,0.6-0.5,0.7-0.9,0.8C96.8,28.8,96.7,28.5,96.7,28.3z M102.5,70.4c1.1-0.1,0.2,1.3,0.2,1.7
		c-0.6,0.1-1.2,0.1-1.7,0.2C101.2,71.4,103,71.8,102.5,70.4z M117.8,219.8c0.1,1.4-1.2,0.4-1.3-0.4
		C117,219.5,117.1,220.1,117.8,219.8z M100.6,75.8c0.4-0.4,0.7-1,1.7-0.9C102.3,75.7,101.3,75.7,100.6,75.8z M103.1,80.8
		c-0.5-0.3,0.2-0.9-0.4-1.5c0.4-0.1,0.5,0.2,0.8,0.2C103.8,80.3,103.2,80.4,103.1,80.8z M96.8,46.1c0.4-0.5,0.5,0.1,1.2-0.1
		c0,0.3,0.1,0.7,0.1,1c-0.6,0.2-0.6-0.4-1.3-0.1C96.8,46.6,96.8,46.4,96.8,46.1z M105.6,137c-0.6,0.4-2-0.5-2.4-1.3
		C104.3,134.9,104.6,137,105.6,137z M103.1,146.8c-0.5-0.5-0.7-1.3-0.5-2c0,0,0-0.1,0-0.1c-0.1-0.1-0.1-0.2,0,0
		c0.1,0.3,0.5,0.9,0.9,0.8C103.7,146.3,102.8,146.1,103.1,146.8z M92.7,52.3c-1-0.7,1.5-1.5,1.9-1.2C93.9,51.5,93,51.7,92.7,52.3z
		 M94.3,78c0.4,0,0.8-0.1,1.2-0.1c0.3,0.8-0.7,0.5-1.2,0.6C94.3,78.3,94.3,78.1,94.3,78z M93.9,76.8c-0.6-0.5-0.1-0.8,0.1-1.3
		C94.6,75.7,94.9,76.8,93.9,76.8z M98.4,79.3c-0.2,0.6-1.6,0.4-1.5-0.3C97.2,79.3,98.1,79,98.4,79.3z M100.4,98.7
		c-0.6,0.1-1.1,0-1.1-0.6C100,97.9,100.6,97.8,100.4,98.7z M107.1,164.2c-0.6,0.2-0.6-0.4-1.3-0.1
		C105.7,163.5,107.5,163.1,107.1,164.2z M109.2,176.8c0.8-1.5-0.7-1.2-1.2-1.9c0.6,0,1,0.3,1.8,0.1
		C109.6,175.6,110,176.7,109.2,176.8z M114.1,220.5c-0.4-0.3-1.6,0.3-1.6-0.6C112.8,219.7,114.3,219.4,114.1,220.5z M107.1,156.7
		c-0.4-1.2,1.5-1.7,1.9-0.9C108.9,156.4,107.8,157.2,107.1,156.7z M93.4,30.6c0.4,0.2,0.8,0.3,0.8,0.9c-0.2,0.1-0.4,0.3-0.4,0.5
		C93,32,93.4,31.2,93.4,30.6z M92.1,34.5c0.2,0,0.5-0.1,0.7-0.1c0,0.6,0.1,1.3-0.6,1.3C92.2,35.4,92.1,35,92.1,34.5z M90.3,29.2
		c0.3,0,0.2,0.5,0.5,0.4c0,0.4-0.4,0.6-0.9,0.6C89.6,29.6,90.3,29.7,90.3,29.2z M94.6,68.9c-0.1,0.4-0.3,0.7-0.4,1
		c-0.8,0.1-0.9-0.5-1.1-1.1C93.6,68.2,94.2,68.7,94.6,68.9z M88.2,20.9c0.3,0,0.2,0.5,0.5,0.4c-0.1,1-1,0.3-1.7,0.4
		C86.8,21,88.1,21.5,88.2,20.9z M90.6,66.1c0.4-0.3,0.9,0.7,1-0.1c1.1,0.3-1.5,1,0.1,1c-0.2,0.4-0.3,0.8-0.9,0.8
		C90.1,67.3,90.8,66.9,90.6,66.1z M94.7,97.3c0.4,0,0.6,0.4,0.6,0.9c-0.3,0-0.7,0.1-1,0.1C94.1,97.6,94.8,97.7,94.7,97.3z
		 M86.2,26.4c0.6,0,1.2,0.7,0.9,1.2c-0.7,0.3-0.5-0.6-1.3-0.4C85.9,26.8,86.2,26.7,86.2,26.4z M89.3,39.6c-0.3,1.1-1.9,0.4-2.3,0
		C87.4,38.3,88.8,39.4,89.3,39.6z M101.3,134.5c-0.5,0.8-0.8,0.4-0.1,1.3c-0.6,0.6-1.8,0.6-1.6,1.9c-0.4-0.4-2.8-2.3-3.3-0.7
		c-0.6,0.2,0-1.1-0.8-0.7c-0.2-1.5,0.3-2.3,0.9-3.1C98,133.7,99.7,134,101.3,134.5z M106.9,237.5c-0.8,0.2-0.3,1.6-1.3,1.6
		c-0.2-0.8,0.8-0.7,0.1-1.3c-0.8-0.7-1.9,0.1-1.9-1.1c0.8,0.3,1.9,0.1,3-0.1C106.2,237.3,105.9,237.3,106.9,237.5z M105.2,248.7
		c0,0.6-1,0.2-1.5,0.4c-0.1-0.7,0.7-0.8,0.9-1.3C105.6,247.8,104.5,248.6,105.2,248.7z M104,246.3c-0.5-0.8-1.5-2-2.6-1
		c0.1,0.6,0.6,1,0.2,1.5c-0.5-0.2-0.6-0.9-1.1-1.1c0.3-0.8,0.7-1.5-0.6-1.4c2-0.5,5.9,1.1,7.9,0.7
		C107.2,245.7,104.9,245.4,104,246.3z M101.5,248.9c-0.4,0-0.6-0.4-0.6-0.9c0.4,0,0.7,0,0.7-0.3
		C102.4,247.8,101.5,248.6,101.5,248.9z M88.9,194.7c0.3,0.7-0.3,0.7-0.1,1.3c-0.6,0-1.2,0-1.1-0.9C88,194.8,88.3,194.7,88.9,194.7z
		 M82.5,142.2c0.1-0.6,0.5-1.4,1.2-0.9C83.3,141.6,83.4,142.2,82.5,142.2z M89.7,201.9c-0.6,0.3-1.1,0.8-1.9,0.9
		C87.6,201.9,88.8,202,89.7,201.9z M88.9,196.7c0.5,0.5,1,1,1.9,1.1c0.2,1-0.7,0-1.5,0.4C89.2,197.6,88.8,197.5,88.9,196.7z
		 M93.1,208.8c0,1.2,0.8,1.4,1.2,2.1c-1.4-0.1-2.2-0.8-2.5-2.3C92.4,208.5,92.4,209.1,93.1,208.8z M92.7,205.1
		c0.7-0.3,0.6,0.4,1,0.4c-0.8,0.2-1.3,1.3-1.9,0.9C91.6,205.5,92.8,205.8,92.7,205.1z M100.2,249c0,0.9-1.3,0.8-1.9,1.2
		C98.8,249.6,99.2,249,100.2,249z M98.6,242.6c-0.2,0-0.2,0.1-0.2,0.3c-0.7-1.3,1.5-1.3,1.2-2.6c0.9-0.4,0.5,0.9,1.3,0.6
		c-0.6,0.8-0.6,0.9-0.8,2.1C99.8,242.2,99.3,243.2,98.6,242.6z M97.5,234.2c0.3-0.9,1.4,1,0.6,1.4C96.9,236,98,234,97.5,234.2z
		 M93,121.8c-0.2-0.6,1.1-1.1,1.2-0.6c0,0.2,0,0.3,0.1,0.5C93.8,121.7,93.4,121.7,93,121.8z M97.3,153.9c0.5-0.1,0.8,0.1,0.8,0.7
		c-0.9-0.4-0.4,0.4-0.7,0.8C96.9,155.4,97.1,154.1,97.3,153.9z M99.6,164c-0.1,0.2-0.3,0.5,0.1,0.5c0,0.8-1.3-0.6-0.9,0.6
		c-0.4-0.5-1.7,0.1-1.8-0.8C97.2,163.9,98.5,164.3,99.6,164z M101.1,171.9c0.3,0.9-0.4,1-1.1,1.1C100.3,172.5,100.4,172,101.1,171.9
		z M100.1,166.5c0-0.3-0.1-0.7-0.1-1c0.2,0,0.5-0.1,0.7-0.1C100.9,166,100.7,166.5,100.1,166.5z M101.6,193.7
		c-0.3-0.7,0.6-0.5,0.4-1.3c0.2,0,0.3,0,0.5-0.1c0,0.2,0.1,0.2,0.3,0.2C102.5,193,102.2,193.5,101.6,193.7z M103.8,203.2
		c-0.2,0.4-0.6,0.6-1.2,0.6c-0.2-0.5,0.1-0.7,0.1-1C103.2,202.9,103.5,203.1,103.8,203.2z M95.4,157.2c0.6,0.1,0.3,1.4-0.4,1.3
		C94.4,158,95.1,157.6,95.4,157.2z M92.2,131.1c0.2,0,0.5-0.1,0.7-0.1c0,0.3,0.1,0.7,0.1,1C92.4,132.2,92.2,131.8,92.2,131.1z
		 M96.2,167.4c0.1-0.9-0.5-0.9-0.4-1.7c1.4,0.1,0.1,1.2,1.3,0.9C97.2,167.2,96.8,167.4,96.2,167.4z M104,241.1
		c-0.7,0.1-0.8-0.5-0.9-1.2C103.8,239.8,103.9,240.5,104,241.1z M87.6,81.7c0.2,0,0.5-0.1,0.7-0.1c0,0.2-0.2,0.3-0.2,0.5
		c0.5,0,0.8-0.1,0.7-0.6c0.3,0.1,0.4,0.4,0.8,0.4c0,0.3-0.5,0.2-0.4,0.5C88.6,82.3,87.6,82.6,87.6,81.7z M86.2,58.2
		c0-0.2,0-0.3-0.1-0.5c0.7,0,0.5-0.5,1-0.1c0,0.2,0,0.3,0.1,0.5C86.8,58.6,86.9,58.1,86.2,58.2z M83.7,48c0-0.2-0.1-0.5-0.1-0.7
		c0.5,0,0.8-0.1,0.7-0.6c0.7-0.3,0.6,0.4,1,0.4C84.7,47.2,84.6,47.6,83.7,48z M87.7,77.6c-1.6,0.2-1-1-1.7-1.6
		C86.9,74.8,88.4,76.3,87.7,77.6z M101.7,238.8c1.1-0.2,0.3,1,0.1,1.2C101.1,239.9,101.9,239.2,101.7,238.8z M92.6,147.2
		c-0.7-0.6,0.1-1.2,0.3-1.8C93.8,145.5,93.5,147.2,92.6,147.2z M84.2,70c0.1-0.5,1.5-0.4,1.7-0.2C85.8,70.7,84.5,70.4,84.2,70z
		 M97.4,196.8c-0.3,0.4-0.9,0.7-1.2,0.4c0.1-0.3,0.4-0.4,0.4-0.8C97,196.5,97.1,196.8,97.4,196.8z M99.4,233c0.4-0.5,0-0.6-0.1-1.2
		c-0.2,0.1-0.4,0.3-0.4,0.5c-1,0,0.2-1-1.1-0.6c-0.1-0.8,0.9-0.8,1.1-1.4C100.1,230.4,100.7,232.4,99.4,233z M106.5,241.1
		c-0.3,0-0.7,0.1-1,0.1C105.2,240.2,106.6,240.1,106.5,241.1z M106,224.1c0.8,0.1,1.5,0.2,1.6,1.1c-0.7,0.1-1.3,0.1-2,0.2
		C105.3,224.6,106.2,224.8,106,224.1z M108,226.4c-0.5,0.6-0.8-0.2-1.5-0.1C106.8,225.8,108,225.2,108,226.4z M93.7,113.7
		c-0.1,0.2-0.3,0.5,0.1,0.5c-0.2,0.8-1-0.1-1.3-0.1C92.4,113.5,93.3,113.8,93.7,113.7z M91.1,91.1c0,0.5-0.6,0.4-0.4,1
		c-0.6-0.1-1.2-0.2-1.3-0.9C90,91.8,90.3,91.1,91.1,91.1z M83.3,22.4c0.2,0.8-1,1-1.4,0.6C82.2,22.7,82.7,22.5,83.3,22.4z
		 M84.2,28.1c-0.3,1.3-1.2,0.8-2.7,1C82,28.1,83.2,28.9,84.2,28.1z M82,33.6c-0.2,0.6-0.1,1.4-0.6,1.8c-0.7-0.6-2.2-0.2-2.4-1.5
		C79.6,33.2,81.2,33,82,33.6z M92.7,160.9c0,0.8-1.7,0.6-1.8-0.1C91.8,161.2,92.2,160.7,92.7,160.9z M85.7,112
		c-0.6-0.1-1-0.6-1.8-0.6C84.3,110.7,85.8,111.1,85.7,112z M82.4,94c-1.1,0.2-1.3-0.7-1.6-1.3C81.8,92.4,82.4,92.9,82.4,94z
		 M84.1,108.9c-0.6,0.1-1.2,0.1-1.7,0.2C82.7,108.6,84,107.5,84.1,108.9z M91.1,193.7c-0.5-0.1-1.5,0.5-1.3-0.4
		C90.4,193.1,91,192.7,91.1,193.7z M76.5,63.7c0.4,0.2,0.6,0.6,1.1,0.6c-0.1,0.4-0.5,0.5-0.9,0.6C76.6,64.6,76.6,64.2,76.5,63.7z
		 M80.7,104.5c1.8,0.6-1.4,1.9-1.5,0.4C79.7,103.8,80.9,105.5,80.7,104.5z M79.8,107.8c0.3,0,0.7-0.1,1-0.1c0.4,0.6,0.4,1.7,1,2.2
		c-0.8-0.1-1.4-0.3-2.1-0.5C79.4,108.6,80,108.6,79.8,107.8z M81.6,128.2c-0.1,0.9-1.8,0.6-1.8-0.3
		C80.3,127.4,80.9,128.2,81.6,128.2z M88,208.1c0.7,0.4-0.1,1.2-0.3,2C87,209.6,88.1,208.8,88,208.1z M69.4,40.9
		c0.4-0.1,0.7-0.1,0.8,0.2c-0.7,0.5-0.5,1.7-1.6,1.9C68.7,42.1,69.3,41.7,69.4,40.9z M67.5,54.4c0.8-0.3,0.8,0.3,1.3,0.4
		C68.7,55.3,67.4,55,67.5,54.4z M68.6,62.3c-0.4-0.3-0.4-0.9-0.1-1.2c0.2,0,0.5-0.1,0.7-0.1C69.3,61.7,69.4,62.3,68.6,62.3z
		 M69.3,79c0.6-0.1,1.2-0.1,1.7-0.2c0.3,0.5-1.2,0.6-0.4,0.8c0,0.8-1.5-0.6-1.2,0.6C68.4,80.1,69.4,79.8,69.3,79z M77.4,204.4
		c-0.2-0.7,1.5-1,0.6-1.6c0.7-0.3,1.2,2,2.2,2.3C79.8,205.4,78.5,204.2,77.4,204.4z M80.2,217.2c-0.9-0.7,0.4-0.8,0.3-1.5
		C81.5,215.4,80.9,217.3,80.2,217.2z M75.2,208.1c0-1.7,2-1.7,2.9-1c0.1,0.5,0.1,1,0.2,1.5c-0.7-0.1-0.8-0.8-1.2,0.1
		C75.9,208.7,76.3,206.9,75.2,208.1z M79.4,231.3c0,0.2,0,0.3,0.1,0.5c-0.2,0-0.2,0.1-0.2,0.3c-0.2,0-0.2-0.3-0.3-0.5
		c-0.3,0.1-0.5,0.4-0.4,0.8c-0.3,0-0.3-0.4-0.3-0.7C78.8,231.7,78.6,231.2,79.4,231.3z M76.8,191.4c-0.3,0.6-0.6-0.1-1.2,0.4
		c-0.2-0.2-0.3-0.5-0.3-1C75.8,191,76.3,191.2,76.8,191.4z M74.4,178.4c-0.1-0.6,0.3-0.9,0.9-0.8C75.4,178.2,74.9,178.8,74.4,178.4z
		 M77.2,193.4c0.6,0,0.5-0.5,1.2-0.4C78.9,193.8,77.2,194.4,77.2,193.4z M75,163.8c-0.6-1.5-2.5-2.3-4.4-1.3c1.2-2,4.2-0.3,5.1,0.7
		C75.6,163.6,74.9,163.3,75,163.8z M65.5,103.3c0.3,0,0.7-0.1,1-0.1c0,0.3,0.1,0.7,0.1,1C66.2,103.9,65.5,104,65.5,103.3z
		 M72.6,140.9c-0.4,0.1-0.5-0.1-0.5-0.4c1.3,0.4,2.5-0.1,2.9,1.7c-0.4,0.1-0.5-0.2-0.8-0.2c-0.2,0.2-0.2,0.6-0.7,0.6
		C73.4,141.8,72,141.7,72.6,140.9z M68.5,100.4c0.7-0.3,0.7,0.3,1.3,0.1C69.8,101.3,68.5,101.2,68.5,100.4z M75.6,145.9
		c-0.8,0-1.2-0.5-2-0.3C73.4,145,75.8,144.8,75.6,145.9z M78.5,159.4c0.2,0.7-1.4-0.1-1.2,0.6C76.4,159.5,78.1,158.8,78.5,159.4z
		 M68.2,87.9c0.9,0.3,1.6,0.9,1.9,1.8C69.3,90.3,68.5,88.8,68.2,87.9z M66.6,62.2c0.3,0.8-0.8,1-1.2,0.6
		C65.4,62.3,66,62.3,66.6,62.2z M63.1,48c0.1-0.6,1.5-0.4,1.3,0.4C63.6,48.7,63.6,48.1,63.1,48z M63.8,40.4c-0.4,1.3-1.7,0-1.8-0.8
		C63,39.4,62.6,40.9,63.8,40.4z M63.4,48.3c0.2,0.8-0.1,1.1-0.9,1.1C62.3,48.6,62.6,48.2,63.4,48.3z M64.6,64.7
		c-0.5-0.2-0.7-0.8-0.4-1.2C65.1,63.2,64.7,64.5,64.6,64.7z M66.2,73.3c0.3,0.7-0.3,0.7-0.1,1.3c-0.8-0.1-0.5-0.1-1.2,0.1
		C64.7,73.7,65.2,73.3,66.2,73.3z M71.9,138.5c0,0.4-0.7,0.2-0.7,0.6c0.4,0,0.7,0.5,1.5,0.1c0.5,1-1.3,0.2-1.2,0.9
		c-0.6-0.1-0.6-0.9-0.9-1.4C71,138.6,71.5,138.5,71.9,138.5z M64.5,83.5c-0.3,0.6-1.4,1.3-1.5-0.1C63.7,83.2,63.7,83.8,64.5,83.5z
		 M69.6,145.5c0.4,0,0.2,1.4-0.4,1.3C68.9,146,69.3,145.8,69.6,145.5z M59.6,74.8c0.8-0.1,1.2,0.2,1.3,0.9c-0.4,0-0.8,0.1-1.2,0.1
		C59.6,75.4,59.6,75.1,59.6,74.8z M66.9,129c-0.8-1-1.6-0.3-1.9-1.6C65.9,127.4,67.7,127.8,66.9,129z M70.6,173
		c-0.8-0.5-0.2-1.2-0.7-2.2c0.4-0.1,0.5,0.2,0.8,0.2C70.4,172,70.9,172.2,70.6,173z M67.3,147.7c0-0.3-0.1-0.7-0.1-1
		c0.8,0,0.9-0.6,1.5-0.2C68.7,147.4,68.2,147.7,67.3,147.7z M74.8,211.4c-0.2,1,0.9,0.4,0.6,1.4c-0.9,0-1.3-0.7-1.9-1.1
		c-0.2,0-0.3,0-0.5,0.1C73.2,211.3,74.3,211.6,74.8,211.4z M69.2,170.9c-0.4-0.2-0.9-0.1-1.3-0.4C67.9,169.7,69.4,169.9,69.2,170.9z
		 M54.4,58.7c0.7-0.1,1.3,0.4,0.8,0.9C54.6,59.8,54.4,59.4,54.4,58.7z M59.2,110.4c1.6,0.1,0.9,2.1-0.4,1
		C58.6,110.8,59.3,110.9,59.2,110.4z M60.2,118.1c0.1-0.8-0.5-0.7-0.1-1.2c0.4,0.2,0.4,0.8,0.6,1.2c-0.9,0.1-0.6,1.1-1.9,0.9
		C58.9,118.4,59.7,118.3,60.2,118.1z M60.3,135.9c-0.6,0-1.3,0.1-1.3-0.6c0.4,0,0.5-0.4,1-0.3C60,135.4,60.3,135.4,60.3,135.9z
		 M57.5,120.4c-0.5-0.1-1.1,0-1.1-0.6C56.8,119.3,57.4,119.7,57.5,120.4z M62.1,165.3c-0.9,0.3-1-0.4-1.8-0.3
		C60.6,163.5,63.3,163.9,62.1,165.3z M48.6,51.3c-0.7-0.2-1.5-0.4-1.6-1.3C47.9,49.9,48.7,50.1,48.6,51.3z M53.7,105.7
		c-0.1,0.6-1.5,0.4-1.3-0.4C53,105.2,53.2,105.7,53.7,105.7z M46.9,53.7c1.1-0.2,0.3,1,0.1,1.2C46.3,54.8,47.1,54.2,46.9,53.7z
		 M59.4,161.6c0.2-0.8,0.7,0.2,0.6,0.7c-0.8-0.2-2.5,0.8-2.5-0.2C58.4,161.8,60.1,162.3,59.4,161.6z M63.2,210.6
		c0.2-0.2,1.3-0.7,1.5-0.2C65.1,211.2,62.9,211.4,63.2,210.6z M58.8,177.2c-0.7,0.3-0.7-0.3-1.3-0.1
		C57.7,176.5,58.8,176.2,58.8,177.2z M55.9,156.4c-0.2,0.7-0.8-0.3-1.5,0.2c-0.4-0.9,0.5-0.8,1.2-0.9c0.1,0.4-0.2,0.5-0.2,0.8
		C55.6,156.5,55.7,156.4,55.9,156.4z M49.1,105.2c-1.2-0.2-0.7-2,0.4-1.3C49.8,104.7,49.2,104.7,49.1,105.2z M51.2,117.8
		c0,0.3,0.1,0.7,0.1,1c-0.2-0.4-1.2,0.2-1.1-0.6C50.4,117.9,50.7,117.8,51.2,117.8z M53.1,140.9c0.4-0.7-0.1-1.2-0.8-0.7
		C51.9,138.4,54.5,140.6,53.1,140.9z M52.6,131.9c-0.4-0.8-1-0.1-1.1-0.9c0.4,0,0.5-0.4,1-0.3C52.9,131,52.9,131.6,52.6,131.9z
		 M44.1,63c-0.1-0.6,0.7-0.3,0.7-0.8c1.7-0.3,0.9,3-0.5,2.1C44,63.6,45.8,62.9,44.1,63z M45.6,72.9c0.2,0.8-0.1,1.1-0.9,1.1
		C44.7,73.4,45,73,45.6,72.9z M42.5,64.7c0.8-0.3,0.6,0.6,1.1,0.6C43.4,65.9,42.3,65.5,42.5,64.7z M48.3,152.9
		c0.8-0.4,2.1-0.4,3.7-0.6c0,0.7,0,1.4-0.3,1.8C50.5,153.3,49.4,154,48.3,152.9z M52.3,160.3c-0.1,0.4-1.6,0.3-1.3-0.6
		C51.9,159.3,51.8,160.1,52.3,160.3z M47.6,146.7c0.3-0.9,1.3-0.4,1.7-0.4c0.3,0.8-0.6,0.6-0.6,1.1
		C48.2,147.4,48.1,146.8,47.6,146.7z M52.5,158c0.7,0.1-0.4,1.2,0.6,1.2C52.6,160.3,52,158.4,52.5,158z M48.3,118.6
		c0,0.3,0.1,0.4,0.3,0.5c0.1,0.4-1.8,0.5-0.4,0.5c-0.3,1.2-1-0.2-1.1-0.9C47.4,118.7,47.8,118.6,48.3,118.6z M50.8,145.4
		c0.3,0.9-1,0.6-1.2,0.4C49.4,145.3,50.6,144.9,50.8,145.4z M40.1,65.7c0.3,0.9-1,0.5-1.2,0.4C38.7,65.6,39.9,65.2,40.1,65.7z
		 M43.2,83.7c-1.3,0.9-2.3,1.2-4.4,1.2c0-0.2,0.3-0.2,0.5-0.3c0.7-0.3-0.6-0.3-0.3-1c0.4,0,0.5-0.4,1-0.3c0.2,0.6-0.4,0.6-0.1,1.3
		c1.2,0.3,0.4-1,0.9-1.3c-0.1-0.5-1.1,0.1-1.1-0.6c-0.2,0.2-0.2,0.6-0.7,0.6c0-0.7-0.6-0.6-1.1-0.6C38.6,80.7,43.6,80.7,43.2,83.7z
		 M46.6,146.3c-0.6-0.2-1.1-0.5-1.1-1.4c0.3-0.2,0.6-0.4,1.2-0.4C46.1,145.2,46.4,145.4,46.6,146.3z M46,152.7
		c-0.6-0.4-1.3-0.8-1.7-1.6c0.6-0.6,1.2,0.1,1.5-0.4C46.2,151,45.3,152,46,152.7z M39.1,100.7c0.4,0.2,0.6,0.6,0.6,1.2
		c-0.3,0-0.7,0.1-1,0.1C39.3,101.3,38.9,101.3,39.1,100.7z M39.1,102.9c0.4,1.2-0.9,0.9-0.8,1.8c-0.3-0.6-1-0.9-1.2-1.6
		C37.7,102.5,38.2,103.2,39.1,102.9z M42.3,153.1c0.8-0.2,0.8,0.4,0.9,1.2C42.1,154.6,41.8,153.6,42.3,153.1z M43.1,159
		c0,0.8-1.9,0.7-2,0C42.3,158.9,42.5,158.9,43.1,159z M34.8,73c0,0.3,0.1,0.7,0.1,1c-0.2-0.2-0.6-0.2-1-0.1
		C34.1,73.5,34.2,73,34.8,73z M41.4,149.9c-1.2-0.1-2.5-0.1-2.7-1.5C39.9,147.6,40.5,149.5,41.4,149.9z M37.5,145.5
		c0.8,0.3,0.8-0.3,1.5,0.1C39,146.4,37.5,146.2,37.5,145.5z M39.1,156.4c0,0.3,0.1,0.7,0.1,1c-0.6,0.1-0.8-0.3-0.8-0.9
		C38.6,156.4,38.8,156.4,39.1,156.4z M37.6,129.2c-0.5,0.5-1.4,0.1-1.6-0.6C36.7,128.5,37.6,128.3,37.6,129.2z M33.4,115.6
		c-0.3-0.3-0.4-0.8-0.4-1.5c1.1-0.2,1.6,0.3,1.9,1.1C34.4,115.4,33.8,115.9,33.4,115.6z M29.3,78.1c0.4,0,0.8-0.1,1.2-0.1
		c-0.1,0.2-0.3,0.5,0.1,0.5c-0.3,0.6-0.6-0.1-1.2,0.4C29.4,78.6,29.3,78.4,29.3,78.1z M30.6,96c0.8,0.1,1.5,0.2,1.6,1.1
		c-0.8-0.4-1.5,0.2-2,0C29.9,96.3,31,96.8,30.6,96z M39,157.7c0.7,0,0.3,1.3,1.4,1.4c-0.4,0.4-0.7,0.8-1.1,1.1
		c-1.3,0.1-1.7-1-2.9-1.2C37.1,158,38.5,158.5,39,157.7z M38.4,166.5c-0.3,0-0.7,0.1-1,0.1c-0.2-0.5,0.1-0.7,0.1-1
		C37.9,165.8,38.5,165.7,38.4,166.5z M37.5,175.1c0.5,0.2,0.4,1,1.3,0.6C38.7,176.7,37.3,176.1,37.5,175.1z M29.7,113.4
		c-0.9,0.2-1.1-0.5-1.4-1.1C29,111.5,30.4,112.6,29.7,113.4z M36.7,184.7c-0.6,0.1-1,0.1-1.3-0.1C35.4,183.9,36.9,183.8,36.7,184.7z
		 M26.8,114.7c1,0.3,0.8,0.3,1.7-0.2c-0.5,0.5-0.4,1.5-1.6,1.4C27.3,115.5,26.9,115.4,26.8,114.7z M29.8,149.6c-0.3,0-0.7,0.1-1,0.1
		c-0.1-0.4,0.1-0.5,0.4-0.5c0-0.7-1.4,0.4-1.1-0.6c0.8,0.1,0.5,0.1,1.2-0.1C29.7,148.6,29.9,149,29.8,149.6z M25.2,109.1
		c-0.1,0.4-0.3,0.7-0.4,1c-0.1-0.6-1.1-0.1-1.1-0.9C24,108.9,24.9,108.8,25.2,109.1z M32,175.4c-0.3,0-0.4,0.1-0.5,0.3
		c-0.4-0.3-0.9-0.5-1.1-1.1C31.3,174.4,32.1,174.4,32,175.4z M25.2,153.3c-0.2-0.9,0.7-0.8,1.4-0.9c0,0.4,0.1,0.8,0.1,1.2
		C25.8,153.5,26.4,152.7,25.2,153.3z M29,195.6c0.3-0.2,0.6-0.4,1.2-0.4C30.7,195.9,29,196.5,29,195.6z M22.8,117.2
		c-0.5,0.3-0.3,1.1-1.1,1.1C21,117.4,21.7,117.2,22.8,117.2z M22,109.7c0.3,0.9-1,1-1.4,0.6C20.5,109.7,21.3,109.8,22,109.7z
		 M16.4,103.8c0.4,0,0.8-0.1,1.2-0.1c-0.4,0.9-0.1,1.2-0.3,2c-0.4-0.3-0.4-1-1.1-0.9C16.4,104.5,16.4,104.2,16.4,103.8z M18.8,122.1
		c-0.1-0.4,0.3-0.6,0.1-1C19.7,120.7,19.7,122.5,18.8,122.1z M23.1,162.3c0,0.2,0.1,0.5,0.1,0.7c-0.4,0-1.2,0.4-1-0.4
		C22.6,162.6,22.6,162.3,23.1,162.3z M17.9,118.2c0,0.3,0.1,0.7,0.1,1C17,119.5,16.9,118.1,17.9,118.2z M16.5,154.2
		c-0.8,0.1-1-0.4-1.6-0.6C15.2,153,16.6,153.4,16.5,154.2z M8.8,164.5c-0.6,0-1-0.3-1.1-0.9C8.5,163.4,8.8,163.7,8.8,164.5z
		 M8.4,155.8c0-0.2,0-0.3-0.1-0.5c0.4,0,0.8-0.1,1.2-0.1C9.9,156,8.9,155.6,8.4,155.8z M11.7,173.5c0-0.4,0.4-0.6,0.9-0.6
		c0,0.3,0.1,0.4,0.3,0.5C12.9,174.2,11.9,174,11.7,173.5z M14.4,189.5c-0.2-0.1-0.4-0.2-0.8-0.2c-0.1-0.4,0.3-0.6,0.1-1
		c0.2,0,0.5-0.1,0.7-0.1C14.7,188.9,14.1,188.9,14.4,189.5z M19.4,209.3c0.2-1,1-0.8,1.9-0.7C21.4,209.4,20.2,209.2,19.4,209.3z
		 M21.9,203.8c-0.6-0.8-1.1-1.5-2.1-0.5c0-0.5,0.6-0.4,0.4-1c0.4,0.3,1.2,0,1.5,0.3C21.8,203,21.8,203.4,21.9,203.8z M18.7,175.5
		c-1.8-0.5,1.7-2.7,1.7-0.7C19.5,174.1,18.4,174.8,18.7,175.5z M24.9,216.3c0-0.5,0.6-0.4,0.4-1c0.2,0,0.5-0.1,0.7-0.1
		C25.7,215.6,25.8,216.4,24.9,216.3z M20.9,143.4c-0.1,0.7-0.7,1.5-1.4,0.9C19.7,143.8,20.1,143.4,20.9,143.4z M26.5,207.4
		c0-0.6,0.9-0.7,1.2-0.4C27.5,207.8,27.1,207.9,26.5,207.4z M28.3,215.2c0.4,0,0.8-0.1,1.2-0.1C29.4,215.7,28.3,216.4,28.3,215.2z
		 M18.6,120.1c0.5-0.6,1.8-1.4,2.7-1C21.4,120.5,19.6,120.2,18.6,120.1z M30.2,209.2c1.2-0.1,2.8,0.4,2.4,1.3
		C31.9,210,29.9,211.4,30.2,209.2z M33.6,210.9c-0.2,0.5-1.3,0.3-1.7,0.7C31.8,210.8,33.4,210.8,33.6,210.9z M35.4,216
		c-0.7-0.2-0.9-0.9-1.6-1.1c0-0.4,0.8,0.1,0.9-0.6c0.6,0.3,1.4,0.3,1.6,1.1C35.8,215.4,35.4,215.5,35.4,216z M37,219.6
		c-0.4,0-0.6-0.4-0.6-0.9c0.2,0,0.5-0.1,0.7-0.1c0,0.3,0.1,0.4,0.3,0.5C37.4,219.3,37,219.3,37,219.6z M37.4,218
		c-0.6,0.4-0.5,0-1.2,0.4c0-0.4,0-0.7-0.3-0.7c0.3-0.4,0.8-0.6,1.4-0.6C37.3,217.4,37.3,217.7,37.4,218z M32.9,183.9
		c0.6-0.1,1-0.6,1.5-0.2C34.3,184.4,32.9,185.1,32.9,183.9z M33.9,174.5c-0.3-0.6-1.1-0.7-1.4-1.4C33.2,173.3,34.6,173.5,33.9,174.5
		z M40.2,211.7c-0.1-0.4,0.2-0.5,0.2-0.8c-0.8-0.2-0.1,0.8-0.9,0.6c-0.3-1.3-0.3-0.1-1.3-0.1c-0.2-0.5,0.1-0.7,0.1-1
		c0.9,0.2,2,0.4,3.3,0.2C41.3,211.1,41.2,211.7,40.2,211.7z M40.3,185.6c0,0.2,0,0.3,0.1,0.5c-0.4,0-0.8,0.1-1.2,0.1
		C39.4,186.1,40,185,40.3,185.6z M44.2,218.6c-0.3,0.3-0.8,0.4-1.5,0.4c-0.3-1,0.8-1.6,1.4-1.1C44.1,218.1,44.2,218.4,44.2,218.6z
		 M48.9,247.2c-0.5-0.1-1.1-0.6-0.6-1.2C48.8,246.2,49.3,246.7,48.9,247.2z M42.7,184.1c0.6-0.1,1.1,0,1.1,0.6
		C43.3,185.3,42.6,185,42.7,184.1z M44.5,192.2c-0.6,0-0.7-0.9-0.4-1.2c0.7-0.3,0.6,0.4,1,0.4C45.2,191.9,44.4,191.7,44.5,192.2z
		 M46.7,201.8C44.3,201.3,46.7,200.2,46.7,201.8L46.7,201.8z M49.6,232.3c-0.6,0-0.3-1.1-0.1-1.2C50.4,231.2,49.9,231.9,49.6,232.3z
		 M46,194.3c-0.6,0.1-0.3-0.9-1.1-0.6c0.2-0.5,0.2-1.2,1.1-1.1C46,193.2,45.7,193.5,46,194.3z M49.4,191c-0.5-0.1-1.1,0-1.1-0.6
		C49,190.2,49.6,190.1,49.4,191z M53.5,221.4c0-0.6,0.9-0.7,1.2-0.4C54.8,221.7,53.9,221.7,53.5,221.4z M48.7,164.9
		c-0.5,0.1-0.1,0.9-0.4,1c-0.9-0.7-0.5,0.7-1.4,0.6c0.1-0.3,0.4-0.4,0.4-0.8c-0.6-1.1-3.3-0.1-1.9,1.2c-3.4,0.5-4.8,4.5-6.7,0.7
		c0.7-0.6,2.4-0.3,2.6-1.3c0.3,0,0.3,0.4,0.3,0.7c0.6-1.2,2.6-2.4,4-2.2c1-1.4,2.8-2.3,5-2.8c0.4,0.8,1.2,1.2,1.2,2.4
		c-0.5,0.6-1.2-0.3-1.4,0.6C49.5,165.3,49.7,164.3,48.7,164.9z M51.2,171.7c0.2,0,0.5-0.1,0.7-0.1c0.3,0.8-0.6,0.6-0.6,1.1
		C50.5,172.6,51.5,172.2,51.2,171.7z M50.9,174c2.2,0.6,5.9,0.8,5.8,3.2C56.2,175.5,50.7,176.6,50.9,174z M63.6,241.2
		c-0.7,0-1.1-0.3-1.8-0.3C62,240.4,63.8,240.3,63.6,241.2z M65,250.3c0.4-0.1,0.7,0.1,0.8,0.4c0,0.7-0.6,0.9-1.1,1.1
		C64.4,251,64.8,250.8,65,250.3z M66.2,264.3c0-0.9,1.4-0.5,2-0.5C68.1,264.7,67.2,263.9,66.2,264.3z M67.5,250.1
		c-0.6,0.4-1.1-0.7-1,0.3c-0.8-0.1-0.4-0.6-0.4-1.2C66.7,249.4,67.6,249.1,67.5,250.1z M64.6,219.3c-0.4-0.4-1-0.4-0.9-1.4
		c0.6,0.1,1.4,0.2,1.4,1.1C64.8,219,64.6,219.1,64.6,219.3z M66.7,237.9c0.8,0,1.5,0,1.6,0.8C67.7,238.5,66.8,238.8,66.7,237.9z
		 M60.9,178.2c-0.2-1,0.3-1.4,1.4-1.4C62.1,177.6,61.4,177.8,60.9,178.2z M65.8,199.1c0.4,0.9-0.9,0.5-0.6,1.3
		C64.5,200.1,65.1,199,65.8,199.1z M71.9,266.2c0.3-0.7,1.4,0,1.8,0.1C73.4,267,72.2,266.4,71.9,266.2z M70.9,249
		c0.6-0.1,1.1,0,1.1,0.6C71.6,250.1,71,249.7,70.9,249z M62.3,170.3c0-1.2,1.3-1.2,1.9-0.7C64.3,170.4,63.1,170.2,62.3,170.3z
		 M63.9,156.6c-1.1,0.4-1.5-0.3-2.1-0.5c-0.1-1.1,1.5,0.1,1.2-0.9c0.2,0,0.5-0.1,0.7-0.1C63.9,156,64.1,155.8,63.9,156.6z
		 M63.6,143.3c-0.4,0.1-0.9-1.1-1-0.4c-0.5-0.4,0.4-0.9,1.2-0.6C63.9,142.8,63.6,143,63.6,143.3z M56.6,77.1
		c0.3-0.6,1.3,0.5,1.6,0.8C57.3,78,57.2,77.2,56.6,77.1z M71.3,201.8c-0.4,0.1-0.6-0.3-1-0.1c0-0.5,1.1-0.2,0.9-0.8
		C71.8,200.8,71.4,201.6,71.3,201.8z M68.6,178c0.2-1.5,3,0.6,1.1,0.9C69.5,178.2,69.5,178.2,68.6,178z M77.4,253.8
		c0.2-1,1.9-0.4,1.6,0.8C78.2,254.7,78.2,253.8,77.4,253.8z M79.1,257.9c0.5-0.7,0.7,0.5,1.8,0.1C81.1,259.2,79.3,258.5,79.1,257.9z
		 M81.9,260.9c-0.8,0.2-0.7-0.6-1.3-0.6c0-0.4,0.4-0.6,0.9-0.6C81.8,260,81.9,260.3,81.9,260.9z M80.3,245.3
		c0.9-0.1,0.9,0.8,1.6,0.8C81.9,247.1,79.6,246,80.3,245.3z M83.9,273.2c-0.2-0.8,0.4-0.8,1.2-0.9C85,272.9,84.5,273.1,83.9,273.2z
		 M83.7,268.3c0-0.2-0.1-0.5-0.1-0.7c0.5-0.2,0.7,0.1,1,0.1C84.6,268.1,84.2,268.3,83.7,268.3z M80.4,231.2c0.1-1,1.5-0.9,1.6-1.9
		c0.7-0.1,0.8,0.5,0.9,1.2C81.4,230.3,81.6,231.3,80.4,231.2z M81.9,224c0.1,0.3-0.5-0.6-0.9-1.2c0.4,0.1,0.7,0.3,1,0.4
		C82.1,223.6,82.2,224,81.9,224z M73.8,150.3c0.6,0.1,1,0.4,1.1,1.1C74.3,151.5,73.9,151.1,73.8,150.3z M83.1,225.7
		c0.4,0,0.8-0.1,1.2-0.1c-0.1,0.5-0.4,0.9-0.6,1.3C83.1,226.9,83.1,226.3,83.1,225.7z M87.1,245.8c-0.8,0.3-1-0.1-1.3-0.4
		C86.1,244.8,87.3,244.6,87.1,245.8z M87.2,255.9c0.6,0,0.7,0.9,0.4,1.2C86.7,257,87.1,256.4,87.2,255.9z M90.8,278.8
		c-0.3,0-0.7,0.1-1,0.1c-0.3-0.7,0.4-0.6,0.4-1C90.6,277.9,90.8,278.2,90.8,278.8z M85.6,218.4c0.4,0.2,0.6,0.6,0.6,1.2
		C85.2,219.6,85,218.9,85.6,218.4z M79.3,152c-0.7,0.3-0.6-0.4-1-0.4c0-0.4,0.4-0.6,0.9-0.6C79.2,151.4,79.2,151.7,79.3,152z
		 M75.6,121c-0.3,0-0.3-0.4-0.3-0.7c-0.5-0.2-1,0.8-0.4,0.8c-0.7,0.8-0.4-0.7-0.4-1.2c0.6,0.2,1.3,0.3,2,0.3
		C76.7,120.9,75.6,120.5,75.6,121z M73.7,84.9c-1.6,0.6-2.1,2.1-3.7,2.6c0.6-1.2-0.9-0.5-0.7-1.9c1,0.1-0.3-1.4-0.3-2.5
		c1.7,0.8,1.3-1.1,2.4-0.8c-0.1,0.3-0.5,0.3-0.4,0.8c0.8,0.5,1.5-0.5,2-0.5c-0.1-0.5-0.7-0.5-1.3-0.4c0.2-0.6,0.1-1.4,0.8-1.6
		c0.2,1.4,0.5,2.6,2,2.3C73.9,83.4,73.2,83.7,73.7,84.9z M74.6,88.8c0.6,0,0.3,1.3,0.2,1.5C74.2,90.2,74.4,89,74.6,88.8z
		 M88.9,226.1c-0.2-0.8,1-0.5,1.4-0.9C90.7,226.2,89.5,225.9,88.9,226.1z M91.5,237.3c0.9-0.3,1.5,0.7,1.1,1.1
		C92,238.5,91.7,237.9,91.5,237.3z M94.6,257.8c0.5-0.2,0.7,0.1,1,0.1c-0.1,0.4-0.8,0.3-0.4,1C94.7,259.1,94.7,258.5,94.6,257.8z
		 M96.7,272.7c0-0.3-0.1-0.7-0.1-1c0.2,0,0.5-0.1,0.7-0.1C97.4,272.3,97.3,272.7,96.7,272.7z M97.8,254c-1.2-0.3-0.9,0.6-1.8-0.3
		c-0.1-0.9,1-0.1,0.9-0.6c0.3,0,0.2,0.2,0,0.2C96.9,254,98,253.1,97.8,254z M98.5,255.9c0-0.5,0.6-0.6,1.2-0.6c0.5,0.5,0,0.3,0.1,1
		c1.3-0.9,1.6,0.8,1.9,1.8c-0.4,0-0.5,0.4-1,0.4c-0.4-1-1.2-1.3-1.9-1.3C98.7,256.8,99,255.9,98.5,255.9z M103.1,274.5
		c-1.4-0.6-1.1-0.6-2,0c-0.1-0.7,0.5-0.8,0.3-1.5c0.4-0.1,1.3,0.6,1.5-0.2C103.5,272.9,103.3,274.3,103.1,274.5z M106.8,256.4
		c-0.4,0-0.8,0.1-1.2,0.1c-0.1-0.6-0.1-1.2-0.2-1.7c0.6-0.1,1.2-0.2,1.5,0.1C107,255.4,107,256,106.8,256.4z M107.5,253.5
		c-1.3-0.1-1.6,0.7-3.2,0.3c0-0.6,0.4-0.8-0.1-1.2c-1.5,0.2-0.9,1.7-1.5,2.2c1,0.3,1.4,1.4,2.4,1.8c0.2,0.6-0.4,0.6-0.1,1.3
		c-0.5,0.2-1.5-0.2-1.2,0.6c-0.3-0.4-0.9-0.7-1,0.1c-0.3-1.3-0.9-2.1-0.6-3.5c-0.6-0.4-1.5-0.6-1.9-1.3c-0.5,0.2-0.6,0.7-1.4,0.6
		c-0.3-0.3-0.5-0.7-0.8-0.9c0.1-0.3,0.4-0.4,0.4-0.8c1.8,0.6,2.5-1.3,4.4-0.7c-0.1,0.3-0.4,0.4-0.4,0.8c0.4,0.2,1.7-0.9,2.9-0.8
		C105.2,253.5,107.8,251.7,107.5,253.5z M107.4,250c0-0.3-0.1-0.7-0.1-1c1.3,0,2.2-0.3,2.9-0.8C109.9,249.4,108.4,249.5,107.4,250z
		 M109.7,243.8c-0.4,0.5-1,0.7-1.9,0.7c0.4-0.4,0.8-0.7,0.9-1.3c-0.8-0.9-1.1,0.6-1.4,0.9c-0.6-0.7-0.2-1-1.2-1.9
		c0.5-0.3,1.2-0.4,1.1-1.1c0.7,1,1.1,0.2,1.8,0.3C108.8,242.7,109.8,242.5,109.7,243.8z M109.6,239.5c-1,0.5-1.4,0.1-2.5,0.5
		c0.1-0.6,1.1-0.9,1.4-0.6c-0.1-0.6-0.1-1,0.1-1.3c-0.1-0.8-1.4-0.2-1.4-1.1c0.4,0,0.8-0.1,1.2-0.1c-0.1,0.7,0.6,0.4,0.8,0.7
		C108.7,238.4,109.5,238.5,109.6,239.5z M102.2,165.5c-0.2-0.6-0.5-1.1-0.5-2c2.8-0.6,2.5,3.5,0.4,3.7
		C102.5,166.6,104.8,165.1,102.2,165.5z M114.9,286.9c-0.7,0.1-0.8-1.4,0.1-1.3C115.2,286.2,115.1,286.6,114.9,286.9z M110.5,231.1
		c-0.6,0.1-1,0.1-1.3-0.1c-0.1-0.8,0.8-1.4,1.4-0.9C110.4,230.4,110.4,230.7,110.5,231.1z M109.3,226.7c0.8,0.1,1.6,0.1,1.6,1.1
		C110.5,227.3,109.5,227.5,109.3,226.7z M105.5,177.7c-0.5,0.1-0.2-0.9-0.4-1.2c0.4-0.1,0.5,0.2,0.8,0.2
		C105.8,177,105.6,177.3,105.5,177.7z M104.5,166c0.1-0.5,0.6-0.7,1.2-0.9C105.9,165.9,105.3,166,104.5,166z M110,213.9
		c0.9-0.1,1.3,0.2,1.4,1.1C110.5,215,110.1,214.6,110,213.9z M117.2,265.3c0.5-0.7,0.7,0.3,1.3,0.4
		C118.5,266.1,117.1,265.9,117.2,265.3z M114.8,229.7c0.3,0,0.4-0.1,0.5-0.3c0.5,0,0.6,0.6,0.6,1.2
		C115.3,230.5,114.7,230.5,114.8,229.7z M117.1,246.5c-0.2-0.9,0.7-0.8,1.4-0.9C118.5,246.8,117.8,245.9,117.1,246.5z M108.5,148.3
		c-0.6,0.4-1.1-0.6-1.2,0.1C106.2,147.8,108.7,146.9,108.5,148.3z M123.4,271.5c-0.8-0.1-1.3-0.2-1.5,0.2
		C120.9,271.4,123.6,270.4,123.4,271.5z M122.4,267.3c-0.2-0.5,0.1-0.7,0.1-1c0.8-0.3,0.8,0.3,1.3,0.4
		C123.9,267.3,123.1,267.2,122.4,267.3z M113.5,165.1c0.4,0,0.5-0.4,1-0.3c0,0.2,0.1,0.5,0.1,0.7
		C114.1,165.5,113.3,165.9,113.5,165.1z M126.9,286.2c-0.3-1-0.3-1.1-0.5-2.5c0.5-0.3,0.8-0.7,1.7-0.7
		C128.5,284,127.7,285.4,126.9,286.2z M122.9,220.3c-0.6-0.1-0.9-0.3-1.1-0.9c0.3,0,0.7-0.1,1-0.1
		C122.8,219.7,122.9,220,122.9,220.3z M128.2,267c-0.2,1,0.7,0.6,0.6,1.4c-1.2,0.3-0.8-1.3-0.7-1.9c0.7-0.3,0.6,0.4,1,0.4
		C129.1,267.6,128.6,266.7,128.2,267z M130.3,277.8c0.8,0.1,1.2,0.5,1.4,1.4C131.2,278.7,130.5,278.6,130.3,277.8z M126.3,226.5
		c0.1-0.5,1.5-0.4,1.7-0.2C127.7,227.1,126.9,226.2,126.3,226.5z M131.4,251.8c-0.3,0-0.7,0.1-1,0.1c0-0.3-0.1-0.7-0.1-1
		c0.2,0,0.5-0.1,0.7-0.1C130.5,251.6,131.5,251,131.4,251.8z M131.5,247.6c0-0.4,0.7-0.2,0.7-0.6c0.6,0,0.5,0.9,1.1,0.9
		C133.1,248.9,131.8,248,131.5,247.6z M136.3,275.2c-0.2,1.1-0.9-0.1-1.5-0.1C134.9,274.5,135.9,275.2,136.3,275.2z M137.6,288.3
		c-0.4,0-0.6-0.4-0.6-0.9c0.2,0,0.5-0.1,0.7-0.1C138,287.8,137.7,288,137.6,288.3z M118.9,88c0,0.9-0.6,0.7-1.2,0.6
		C117.7,88.1,118.3,88,118.9,88z M129.4,200.3c0.6-0.1,1-0.1,1.3,0.1C130.7,201.2,129.4,201.1,129.4,200.3z M129.8,202.1
		c0.4,0,0.7,0,0.7-0.3c0.8,0.1-0.2,0.6,0.1,1c-0.2,0-0.3,0-0.5,0.1C130,202.6,129.8,202.4,129.8,202.1z M135.2,241.9
		c-0.5,0-0.6-0.6-0.6-1.2c0.6-0.1,1.2-0.2,1.5,0.1c0.1,0.6,0,1.1-0.6,1.1c0-0.3-0.1-0.7-0.1-1C135,241,135.2,241.5,135.2,241.9z
		 M140.6,288c0.8-0.2,0.9,0.4,1.8,0.1C142.6,289.3,140.6,289,140.6,288z M120.4,73c-0.2-0.5-0.9-0.6-0.9-1.4c0.2,0,0.5-0.1,0.7-0.1
		C120.7,72,120.1,72.2,120.4,73z M115.5,10.8c-0.2,0.5-0.5,0.8-0.6,1.3C114,11.8,114.4,10.8,115.5,10.8z M121.1,73
		c0.1-0.3,0.4-0.4,0.4-0.8C122.6,72.2,121.8,73.7,121.1,73z M131.2,164.3c0.8-0.3,0.5,0.7,0.6,1.2
		C131.3,165.3,130.9,164.7,131.2,164.3z M136.1,204.2c-0.1-0.3-0.5-0.2-0.5,0.1c-0.2,0.1-0.2-0.1-0.3-0.2c0-0.2,0-0.3-0.1-0.5
		c0.6,0.2,1.3,0.3,1.1,1.4C135.9,204.8,135.8,204.6,136.1,204.2z M139.1,219.7c-0.1,0.3-0.4,0.4-0.4,0.8c-0.5-0.1-1.1,0-1.1-0.6
		C137.9,219.4,138.8,219.4,139.1,219.7z M144.4,280.6c-0.4,0-0.6-0.4-0.6-0.9c0.3,0,0.7-0.1,1-0.1
		C145,280.2,144.3,280.1,144.4,280.6z M139.6,224.1c-1.8,0.3-1-1.8-0.2-2C139.5,222.3,140,223.5,139.6,224.1z M134.2,181
		c0.2-0.7,0.2-1.3-0.2-2c1.3,0.2,1.1-1.7,2.2-1C134.9,178.6,135,180.2,134.2,181z M133,130c-0.5,0.3-1.1,0.6-1.7,0.9
		C131.2,129.5,132,130.1,133,130z M139.9,204.8c-0.7,0.1-0.7-1.1-0.4-1.5C140,203.3,139.7,204.4,139.9,204.8z M137.6,187
		c0-0.5,0.6-0.6,1.2-0.6C138.9,187.3,138.2,187.1,137.6,187z M135.1,162.9c0.2-0.6,0.5-0.9,1.4-0.9
		C136.3,162.5,136,162.9,135.1,162.9z M134.2,144.4c0.3-1.4,1.4-0.1,2.2-0.7c0-0.8-0.6-0.7-1.3-0.6c0.1-0.9,1.4-0.3,2-0.2
		C137.5,144.5,135.5,144.2,134.2,144.4z M137.7,164.1c-1.1,1-0.7-1.3-0.2-1.5c0.4,0.2,0.8,0.3,0.8,0.9
		C138.3,163.9,136.9,163.4,137.7,164.1z M141.9,192.5c0-0.8,1.9-0.5,2,0.3C143.1,192.9,142.9,192.2,141.9,192.5z M148.1,243.6
		c0.4,0,0.8-0.1,1.2-0.1C149.5,244.4,148.2,244.5,148.1,243.6z M152,267c0.7,0.3,0.9,1.2,1,2.2C152,269.3,151.8,267.5,152,267z
		 M155,288.3c0.2-0.4,0.6-0.6,1.2-0.6C156.3,288.4,155.4,288.6,155,288.3z M144.2,160.7c-0.5,0.2-0.7-0.1-1-0.1
		c0-0.4,0.4-0.6,0.9-0.6C144.1,160.2,144.1,160.4,144.2,160.7z M142.6,142.8c0.5,0.1,1.1,0.9,0.6,1.4
		C142.3,144.5,142.2,143.2,142.6,142.8z M147.3,174.2c-0.3,0-0.7,0.1-1,0.1C146,173.3,147.4,173.2,147.3,174.2z M152.2,227.4
		c0.4-0.5,0-0.6-0.1-1.2c0.9-0.3,0.5,1,1.1,1.1C153.2,227.9,152.8,227,152.2,227.4z M156.2,256.1c-1.4,0.1-0.4-1-0.2-1.5
		C157,254.7,156,255.3,156.2,256.1z M151.5,207.9c-1.2-0.1-0.2-2.1,0.6-1.3C152.2,207.3,151.7,207.5,151.5,207.9z M152.5,210.8
		c0-0.2-0.1-0.5-0.1-0.7c0.3,0,0.7-0.1,1-0.1C153.6,210.6,153,210.6,152.5,210.8z M132.7,19.8c0.5-0.3,0.8-0.1,1.7-0.4
		C134.6,20,132.7,20.8,132.7,19.8z M136.6,35.3c0-0.3-0.1-0.4-0.3-0.5c1-0.4,1.2-0.8,1.1-1.6C138.2,33.3,137.8,35.4,136.6,35.3z
		 M143.6,96c0.2,0,0.5-0.1,0.7-0.1c0.1,0.5,0.1,1,0.2,1.5C143.6,97.7,143.6,96.8,143.6,96z M148.1,138c0.4,0,0.6-0.3,0.7-0.6
		c0.6,0,0.2,1.2,0.4,1.7C148.8,138.8,148.2,138.7,148.1,138z M153.6,184.6c0.2-0.4,0.6-0.6,1.2-0.6
		C155.1,184.8,154,184.9,153.6,184.6z M159.8,224.8c-0.6,0-0.8-0.4-1,0.3c-0.6-0.3,0.3-1.3,0.9-1.3
		C159.7,224.2,159.7,224.5,159.8,224.8z M151.7,150.9c0.8-0.2,0.8,0.7,1.3,0.9C152.6,152.5,151.4,151.9,151.7,150.9z M157.8,196.4
		c0.3,0.1,0.4,0.4,0.8,0.4c-0.4,0.2-0.3,0.8-0.9,0.8C157.6,197.1,158.1,197.1,157.8,196.4z M169.3,293.1c-0.3,0-1-0.9-1.3-0.1
		c-0.6-0.2,0.4-1,1.2-0.9C169.2,292.4,169.2,292.8,169.3,293.1z M163.4,224.2c-0.4,0-0.8,0.1-1.2,0.1
		C162,223.3,163.6,222.7,163.4,224.2z M160.2,185.1c-0.1-0.7,1.1-0.7,1.5-0.4C161.4,185.1,160.5,185.4,160.2,185.1z M158.2,153.2
		c0.6-0.1,1.1,0,1.1,0.6C158.9,154.4,158.3,153.9,158.2,153.2z M163.3,197.9c-0.7-0.6,1-1.1,1.9-1.2c0.2,0.9,0.5,1.1-0.1,1.8
		c-0.4-0.2-0.4-0.8-0.6-1.2C164.3,198.1,163.6,197.2,163.3,197.9z M173.3,281.2c0-0.9,1.4-0.3,1.3,0.6
		C173.8,282,173.9,281.2,173.3,281.2z M166.3,200.3c0.2-0.6,1.3-0.9,1.3,0.1C166.9,200.7,166.9,200.2,166.3,200.3z M170.1,213.5
		c-0.8,0.1-0.4-1.2-1.1-1.1c0-0.3,0.4-0.3,0.7-0.3C170,212.3,170.1,212.9,170.1,213.5z M167.4,193.9c-0.6,0.5-0.7,0.4-0.5-0.4
		c-0.4,0.7-0.8,1-1.5,0.4c0.8-1.8,3.1-0.1,3.2,1.4C167.4,195.3,168.2,194.5,167.4,193.9z M179,275.3c-0.3,0.4-1,0.5-1.7,0.7
		C177.3,275.3,178.4,274.8,179,275.3z M180.3,278.4c-0.6,0.2-0.6-0.4-1.3-0.1C178.9,277.7,180.6,277.3,180.3,278.4z M182.2,285.3
		c-0.8,0.2-0.5-1-0.9-1.4C182.2,283.6,182.2,284.5,182.2,285.3z M175.1,223.3c0-0.2-0.1-0.5-0.1-0.7c0.3,0,0.7-0.1,1-0.1
		C176.2,223.1,175.6,223.1,175.1,223.3z M182.5,280.5c0-0.2,0-0.3-0.1-0.5c0.4,0,0.8-0.1,1.2-0.1C184,280.6,183,280.3,182.5,280.5z
		 M181.2,260c0.1-0.6,0.9-1.1,1.4-0.6C182.6,260,181.8,260,181.2,260z M181.4,218.6c-0.9-0.3-1.8-0.6-2.6-1
		C179.6,217,181.2,217.6,181.4,218.6z M179.8,222.5c0.3-0.4,1-0.5,1.7-0.7C181.8,222.8,180.4,222.3,179.8,222.5z M186.3,283.3
		c0.4-0.9,1-0.3,1.7-0.2C187.8,284.3,187.2,283,186.3,283.3z M185.8,254.3c-0.7-0.2,0.2-0.9,0.1-1.3c0.6-0.1,0.9,0.3,0.8,0.9
		C186.4,254,185.9,253.9,185.8,254.3z M189,275.5c0.2-1.2,2.3-0.7,2.5-0.3C190.7,275.4,189.9,275.4,189,275.5z M190.2,248.1
		c-0.2-0.5-1.4,0.2-1.4,0.6c-0.5-1.3,2.5-1.8,4-2.2c0.4,0.6,1,0.8,0.9,1.9c-1.6,0.5-2.7,1.1-4.4,1
		C189.6,248.9,190.7,249.1,190.2,248.1z M191.2,258c0.5-0.5,0.3,0,1-0.1C192.5,258.8,191.1,259,191.2,258z M194.2,257.4
		c0.3-0.4,0.7-0.8,0.9-1.3c0.6,0.2,1,0.7,1.1,1.4C195.3,257.8,195.1,257.2,194.2,257.4z M196.2,250.2c-0.9,0.3-1.2-0.2-2,0
		C194.2,249.4,196.4,249.1,196.2,250.2z M185.1,134.4c1,0.2,0.4,1.7-0.3,1.8C185.1,135.8,185.4,135.3,185.1,134.4z M190.1,175.6
		c-0.3,0.4,0,1.2-0.3,1.5C188.8,177,189.2,175.5,190.1,175.6z M189.7,181.1c-0.1-0.5-0.1-1-0.2-1.5c1.1-0.3,0.9,1.3,1.2-0.1
		C192,179.9,191,181.5,189.7,181.1z M193,199.3c0.6-0.1,1-0.1,1.3,0.1C194,199.7,192.8,200.6,193,199.3z M195.7,218.6
		c0-1.1,2-1.5,2-0.2C197.1,218.5,196.4,218.6,195.7,218.6z M196.5,216.1c-0.2-0.8,0.7-0.6,0.3-1.5c0.2,0,0.5-0.1,0.7-0.1
		C197.3,215,197.5,216.1,196.5,216.1z M205.9,261.3c-0.7,0.3-0.6-0.4-1-0.4c0-0.4,0.4-0.6,0.9-0.6
		C205.8,260.6,205.9,260.9,205.9,261.3z M209.1,236.3c-2.9,0.5-4.6-0.4-7.2-1.3c0.7-1.2-1.7-2.1-2.2-1.8
		C200.5,229.5,209.9,232.1,209.1,236.3z M204.5,173.8c-0.6,0.3-2.4,0.1-2.4-1.3c0.8-0.2,1.4,0,2,0
		C204,173.2,204.6,173.1,204.5,173.8z M197.2,98.1c0-0.7,1.2-1.3,1.2-0.1C197.8,98,197.7,98.5,197.2,98.1z M213.8,245.4
		c-0.1-0.8,0.8-0.7,1.4-0.9C215,245,214.6,245.3,213.8,245.4z M216.9,258.6c0.1-0.9,1.6-0.3,2.2-0.2
		C218.8,259.1,217.8,258.2,216.9,258.6z M220.4,265.8c-1-0.7,0-1.2-0.3-2.5C220.9,263.8,220.3,265.1,220.4,265.8z M213.1,187.5
		c0-0.2,0.2-0.3,0.2-0.5c0-0.7-1.4,0.4-1.1-0.6C213.2,186.1,214.5,187.3,213.1,187.5z M209,146.8c-0.4-1.4-0.4-0.5-1-2.2
		c0.4,0,0.4-0.2,0.4-0.5c0.4-0.1,0.6,0.2,1,0.1C209.4,145.3,210.7,146.7,209,146.8z M205.9,114.5c-0.4,0-0.5,0.4-1,0.3
		c0.1-1,1.7-1.1,1.8,0.1C206.2,115,205.9,114.9,205.9,114.5z M205.3,96.5c-0.4,0-0.8,0.1-1.2,0.1c-0.4-1.4,0.9-1.6,1.8-1.9
		C206.1,95.6,204.9,95.4,205.3,96.5z M215.3,186.8c0-0.5,0.8-0.3,0.7-0.8c0.8-0.3,0.6,0.6,1.1,0.6
		C216.9,187.6,216.1,186.7,215.3,186.8z M220.9,221.6c-0.4-0.3-0.5-1.1-0.2-1.5c0.7-0.3,0.7,0.3,1.3,0.1
		C221.9,220.9,221.9,221.6,220.9,221.6z M220.3,189c0.3-0.9,1-0.8,1.9-0.7C222.2,189.8,221.3,188.3,220.3,189z M220.2,178
		c-0.9-0.5-1.2-1.3-2.3-0.8c0.3-0.8,1.3-1.1,1.6-1.9c0.9,0.4-0.3,0.9-0.6,1.1c0.8,0.5,1.7-0.8,2.4-1c0.3,0.5,1.1,0.3,1.1,1.1
		C222.2,177.5,219.8,176.6,220.2,178z M225.3,203.3c0-0.8,2.1-0.9,2,0C226.2,203.5,226.3,202.9,225.3,203.3z M233,259.2
		c0.1-0.9,0.4-0.2,1.2-0.4C234.3,260.1,233.7,259.2,233,259.2z M233.1,257.5c0.4-0.5,1-0.3,1.3,0.1
		C234.4,258.4,233.1,258.2,233.1,257.5z M215.5,48.8c-1.2-0.4-1.2,0.8-2.2,0.2C213.7,48.3,215,47.7,215.5,48.8z M228.8,176.4
		c-0.9,0.3-1.1-0.3-2,0C226.9,176,229,175.5,228.8,176.4z M228.8,185.7c-0.7-0.6-0.2,0.4-1,0.4c0.3-0.8,0-0.8-0.2-1.7
		c0.2,0,0.5-0.1,0.7-0.1C228.7,184.5,228.7,185,228.8,185.7z M232.1,213.4c0.8-0.1,1,0.6,1.1,1.4
		C232.2,215.2,231.5,214.2,232.1,213.4z M220.6,100.7c-0.1-0.7,0.4-1.3,0.9-0.8C221.6,100.5,221,100.5,220.6,100.7z M217.2,50.3
		c-0.3-0.7,0.3-0.7,0.1-1.3c0.8,0,0.2,0.4,0.6,1.2C217.7,50.3,217.4,50.3,217.2,50.3z M218.7,48.2c-0.7,0.1-0.7-1.1-0.4-1.5
		C218.8,46.7,218.5,47.8,218.7,48.2z M232.4,169.7c0.5-0.6,1.1-0.2,1.5,0.1C233.9,170.6,232.4,170.5,232.4,169.7z M235,192.5
		c0-0.4-0.1-0.8-0.1-1.2c0.7-0.3,0.9,0.2,1.5,0.1c0,0.4,0,0.7,0.3,0.7C236.6,193.1,235.7,192.4,235,192.5z M234.8,173.7
		c-0.6-0.5-1.2-1.2-1.2-2.4C234.5,171.5,234.7,172.5,234.8,173.7z M232.9,159.9c-0.1-1.1,0.8-1.5,1.8-1.7
		C234.3,158.9,234.2,159.9,232.9,159.9z M237.8,178.5c0.7-0.6,0-1.6-0.7-1.9c-0.8-0.2-0.1,0.8-0.9,0.6
		C236.5,174.8,240,177.7,237.8,178.5z M231.3,95.8c-0.1-0.6-0.2-1.2,0.1-1.5C232.1,93.8,232,95.9,231.3,95.8z M239.1,169
		c-0.2-0.9,1.2-1.6,1.2-0.4C239.6,168.5,239.7,169.1,239.1,169z M245.6,220.3c0.3-1.2,1-0.1,1.3,0.4
		C246.5,221.6,246.4,219.9,245.6,220.3z M240.7,148.3c-0.2,0.2-0.4,0.3-0.7,0.3c-0.3-0.8,0.7-0.5,1.2-0.6c0,0.2,0.1,0.5,0.1,0.7
		C240.9,148.9,240.8,148.6,240.7,148.3z M248.1,215.3c0.3,0,0.7-0.1,1-0.1C249.4,216.1,248,216.3,248.1,215.3z M240.1,136.8
		c-1.4-2.3,2.2-2.1,2.5-0.5C241.7,136,241.1,136.9,240.1,136.8z M249.7,204.3c0-0.8-0.6-0.9-0.2-1.5c0.4,0.4,1.3,0.2,1.4,1.1
		C250.2,203.8,250.3,204.4,249.7,204.3z M252.1,217.1c-0.6-0.1-0.4-1.5,0.4-1.3C252.5,216.5,252.1,216.7,252.1,217.1z M247.2,165.2
		c0.7-0.1,1.4-0.2,1.8,0.1C249.1,166,247,166.2,247.2,165.2z M250.6,180.7c-0.4-0.7,1.8-1,1.5-0.2
		C251.5,180,251.4,180.7,250.6,180.7z M254.2,208.4c0.6-0.1,0.7-0.5,1.5-0.4C256,209.2,254.3,209.3,254.2,208.4z M258.5,234
		c-0.8,0.3-0.8-0.3-0.8-0.9c0.2,0,0.5-0.1,0.7-0.1C258.5,233.4,258.5,233.7,258.5,234z M258.9,230.5c-0.9-0.7-1.5-0.4-1.9-1.3
		C258.3,228.8,259.4,229.6,258.9,230.5z M250.3,156.3c0.4,0.4,1.2,0.4,1.4,1.1C251.1,157.3,250.3,157.3,250.3,156.3z M241.2,54.4
		c0.6,0.1,0.9,0.3,1.1,0.9C241.8,55.9,241.3,55,241.2,54.4z M250,123.5c-0.3,0-0.7,0.1-1,0.1c0-0.2,0.3-0.2,0.5-0.3
		c0-0.6-0.5-0.7-0.8-0.9C249.1,121.6,250.2,122.5,250,123.5z M249.4,125.1c0.6,0.2-0.3,1.3,0.6,1.4c1-0.7-0.7-2.2,0.7-2.6
		c-0.2,1,0.4,1.9,0.1,3c-0.4,0-0.8,0.1-1.2,0.1C249.2,126.3,248.8,125.6,249.4,125.1z M259.8,224.4c-0.9-0.7,1.9-1.8,2-0.5
		C261,224.4,259.8,223.2,259.8,224.4z M248.6,90.8c1.3-0.3,1.6,0.5,1.7,1.6C249.4,92.3,249,91.5,248.6,90.8z M256.6,158.7
		c0.9-0.1,0.5,1.2,1.4,1.1C257.6,160.4,256.4,159.8,256.6,158.7z M264.1,214.9c0.6-0.5,0.9-1.2,0.8-2.3
		C265.5,213.1,265.4,215.1,264.1,214.9z M257.8,148.3c-0.3-0.2-0.7-0.3-1.3-0.1c-0.5-0.9-0.2-2.2,1-2.4c-0.3,1.3,0.9,0.7,0.9,1.7
		C257.8,147.4,258,148,257.8,148.3z M250.7,59.2c1.5,0.6-0.5,1.1-0.8,1.6C248.8,60.1,251.3,60.3,250.7,59.2z M255.1,112.2
		c0.5-0.6,0.8-0.1,1.3,0.1C256.5,112.7,254.8,113,255.1,112.2z M255.6,114.7c0.3,0,0.7-0.1,1-0.1c0,0.6,0,1.2-0.9,1.1
		C255.7,115.3,255.6,115,255.6,114.7z M261,164.5c0.3,0,0.7-0.1,1-0.1C262.3,165.4,260.9,165.5,261,164.5z M267.3,214.6
		c0.4-0.5-0.2-0.5,0.1-1c-0.2,0-0.5,0.1-0.7,0.1c0-0.3,0.6-0.3,1-0.3C267.7,213.8,268.2,214.7,267.3,214.6z M258.8,128.4
		c0-0.4,0-0.7-0.3-0.7c0.1-0.6,0.7,0.6,1.5,0.1C260,128.3,259.4,128.4,258.8,128.4z M260.6,141.2c0.1-0.7,0.3-1.5,1.4-1.4
		C262.1,140.8,261.6,141.2,260.6,141.2z M267,179.5c-3,0.2,1.5-1.4,1.3,0.6C267.5,180.4,267.2,180,267,179.5z M268.5,187.1
		c0.6-0.1,1.1,0,1.1,0.6C269,187.9,268.4,188,268.5,187.1z"/>
	<path id="XMLID_5792_" class="st0" d="M81.2,277.3c0.2,0.1,0.5,0.3,0.7,0.4c-0.1-0.2-0.1-0.5-0.1-0.7
		C81.5,277,81.4,277.2,81.2,277.3z"/>
</g>
<path id="XMLID_131_" class="st1" d="M299.5,134.8C291,52.5,217.2-7.6,134.8,0.8C52.5,9.2-7.6,83.1,0.8,165.4
	c8.4,82.3,82.3,142.5,164.6,134.1C247.8,291,307.9,217.2,299.5,134.8z M164.9,294C85.4,302.2,14.4,244.3,6.2,164.9
	S55.9,14.4,135.4,6.2C214.9-1.9,285.9,55.9,294,135.4S244.3,285.9,164.9,294z"/>
<g id="XMLID_96_">
	<path id="XMLID_97_" class="st1" d="M55.8,196.1c0.3-0.1,0.6-0.1,0.8,0.2l5.4,10.5c0.2,0.3,0,0.6-0.2,0.8l-0.8,0.4
		c-0.3,0.1-0.6,0.1-0.8-0.2l-4.6-8.9l-7.3,3.8l3.9,7.6c0.1,0.3,0,0.6-0.2,0.8l-0.8,0.4c-0.3,0.1-0.6,0-0.8-0.2l-3.9-7.6l-7.3,3.7
		c-0.3,0.1-0.6,0-0.8-0.2l-0.5-1c-0.1-0.3,0-0.6,0.2-0.8L55.8,196.1z"/>
	<path id="XMLID_99_" class="st1" d="M71.5,219.2c3.8,4.6,3.2,11.3-1.4,15.2c-4.6,3.8-11.3,3.2-15.1-1.4c-3.8-4.6-3.2-11.3,1.3-15.1
		C60.9,214.1,67.7,214.6,71.5,219.2z M56.6,231.7c3.1,3.7,8.5,4.2,12.2,1.1c3.6-3.1,4.2-8.6,1.1-12.2c-3-3.6-8.6-4.1-12.2-1
		C54,222.6,53.6,228.1,56.6,231.7z"/>
	<path id="XMLID_102_" class="st1" d="M90.6,237c4.9,3.5,6,10.2,2.5,15.1s-10.1,5.9-15,2.5c-4.9-3.5-6-10.1-2.5-15
		C79.1,234.6,85.8,233.5,90.6,237z M79.3,252.8c3.9,2.8,9.3,1.9,12.1-2s1.9-9.4-2-12.1c-3.9-2.8-9.3-1.8-12.1,2
		C74.5,244.6,75.4,250,79.3,252.8z"/>
	<path id="XMLID_105_" class="st1" d="M104.7,246.8c0.1-0.3,0.4-0.4,0.7-0.3l6.2,2.5c5.4,2.1,8,8.2,5.9,13.6
		c-2.1,5.4-8.3,8-13.6,5.9l-6.2-2.5c-0.3-0.1-0.4-0.4-0.3-0.7L104.7,246.8z M104.2,266.3c4.6,1.8,9.2-0.1,11-4.7
		c1.8-4.6-0.2-9.1-4.8-10.9l-4.2-1.7l-6.2,15.7L104.2,266.3z"/>
	<path id="XMLID_108_" class="st1" d="M146.3,256.2c3,0.2,5.1,1.3,7.1,3.2c0.2,0.3,0.2,0.6,0,0.8l-0.9,0.8c-0.3,0.3-0.5,0.2-0.8-0.1
		c-1.5-1.4-3.5-2.5-5.6-2.6c-4.7-0.3-8.6,3.5-8.8,8.1c-0.3,4.6,3.1,8.8,7.8,9.1c2.6,0.1,4.2-0.8,5.8-1.9c0.3-0.2,0.6-0.2,0.7,0
		l0.9,0.9c0.2,0.2,0.1,0.6-0.1,0.8c-2.1,1.9-4.8,2.6-7.4,2.5c-6-0.3-10.5-5.4-10.2-11.3S140.3,255.9,146.3,256.2z"/>
	<path id="XMLID_110_" class="st1" d="M168.8,254.6c5.9-1.1,11.4,2.8,12.5,8.7c1.1,5.9-2.8,11.4-8.7,12.5
		c-5.9,1.1-11.4-2.8-12.5-8.7C159.1,261.3,162.9,255.7,168.8,254.6z M172.2,273.8c4.7-0.8,7.8-5.4,7-10c-0.8-4.7-5.4-7.9-10.1-7
		c-4.7,0.8-7.8,5.4-7,10.1C163,271.5,167.5,274.6,172.2,273.8z"/>
	<path id="XMLID_113_" class="st1" d="M187.5,250.1c0-0.2,0.1-0.5,0.3-0.6l0.4-0.2c0.2-0.1,0.5-0.1,0.6,0.1l12.4,12.4
		c0.1,0,0.1,0,0.1-0.1l-1.7-17.4c0-0.2,0.1-0.4,0.3-0.5l0.4-0.2c0.2-0.1,0.5,0,0.7,0.1l12,16.5c0.3,0.3,0.2,0.7-0.2,0.9l-1.1,0.5
		c-0.2,0.1-0.5,0-0.7-0.1l-9-12.8c0,0-0.1,0-0.1,0.1l1.7,16.6c0,0.2-0.2,0.4-0.3,0.5l-0.5,0.2c-0.2,0.1-0.5,0.1-0.6-0.1l-11.8-11.9
		c0,0-0.1,0-0.1,0l4.2,15c0.1,0.2-0.1,0.5-0.3,0.6l-1.1,0.5c-0.4,0.2-0.7,0-0.8-0.4L187.5,250.1z"/>
	<path id="XMLID_115_" class="st1" d="M209.9,238.6c-0.2-0.2-0.2-0.6,0.1-0.8l5.2-4.1c2.9-2.3,7.1-1.8,9.3,1
		c2.3,2.9,1.8,7.2-1.1,9.4l-3.9,3.1l4.4,5.5c0.2,0.2,0.1,0.6-0.1,0.8l-0.9,0.7c-0.3,0.2-0.6,0.1-0.8-0.1L209.9,238.6z M222,242.5
		c1.9-1.5,2.3-4.4,0.7-6.4c-1.5-1.9-4.3-2.1-6.2-0.5l-3.7,2.9l5.5,6.9L222,242.5z"/>
	<path id="XMLID_118_" class="st1" d="M237.5,241.2l-9.4-20c-0.1-0.2-0.1-0.4,0.1-0.6l0.2-0.2c0.2-0.2,0.4-0.2,0.6-0.2l21.2,6.3
		c0.4,0.1,0.6,0.6,0.3,0.9l-0.8,0.9c-0.2,0.2-0.4,0.2-0.6,0.2l-5.2-1.5l-6.9,8.1l2.3,4.9c0.1,0.1,0.1,0.4-0.1,0.6l-0.8,0.9
		C238.2,241.6,237.7,241.6,237.5,241.2z M242,226.3c-3.4-1-6.9-2.1-10.3-3.1l-0.2,0.2l4.6,9.7L242,226.3z"/>
	<path id="XMLID_121_" class="st1" d="M237.9,209.1c-0.3-0.1-0.3-0.5-0.2-0.8l0.4-0.7l21.2-4.1c0,0,0,0,0-0.1l-14.1-7.4
		c-0.3-0.1-0.4-0.5-0.2-0.8l0.5-0.9c0.1-0.3,0.5-0.4,0.8-0.2l17.8,9.4c0.3,0.1,0.4,0.5,0.2,0.8l-0.2,0.5l-21.6,4.2l0,0l14.4,7.6
		c0.3,0.1,0.4,0.5,0.2,0.8l-0.5,0.9c-0.1,0.3-0.5,0.4-0.8,0.2L237.9,209.1z"/>
	<path id="XMLID_123_" class="st1" d="M260,185.1l-11.6,4.2c-0.4,0.1-0.8-0.2-0.7-0.7l0.4-1.4c0.1-0.2,0.3-0.3,0.4-0.4l9.7-3.6
		l-6.4-8.1c-0.1-0.1-0.2-0.3-0.1-0.5l0.4-1.4c0.1-0.5,0.7-0.6,1-0.2l7.6,9.7l9.2,2.6c0.3,0.1,0.5,0.4,0.4,0.7l-0.3,1.1
		c-0.1,0.3-0.4,0.5-0.7,0.4L260,185.1z"/>
</g>
<g id="XMLID_70_">
	<path id="XMLID_71_" class="st1" d="M22.6,124c1.8-8.5,10-13.8,18.3-12.1s13.6,10,11.8,18.5c-1.8,8.5-9.9,13.8-18.2,12
		S20.8,132.4,22.6,124z M46,129c1-4.7-2-9.3-6.5-10.3c-4.6-1-9.2,2-10.2,6.7c-1,4.6,2,9.2,6.6,10.2C40.5,136.6,45,133.6,46,129z"/>
	<path id="XMLID_74_" class="st1" d="M33.5,95.2c-0.4-0.2-0.5-0.7-0.3-1.1l2.5-4.5c0.2-0.4,0.7-0.5,1.1-0.3l20,11l5-9
		c0.2-0.4,0.7-0.5,1.1-0.3l4.1,2.3c0.4,0.2,0.5,0.7,0.3,1.1l-7.9,14.3c-0.2,0.4-0.7,0.5-1.1,0.3L33.5,95.2z"/>
	<path id="XMLID_76_" class="st1" d="M50.4,68.3c-0.3-0.3-0.3-0.8,0-1.1l7.5-7.5c5.9-5.9,15.5-6,21.3-0.2c5.9,5.9,5.8,15.5-0.2,21.4
		l-7.5,7.5c-0.3,0.3-0.8,0.3-1.1,0L50.4,68.3z M74.2,76.7c3.5-3.5,3.3-8.7-0.1-12.1c-3.4-3.4-8.6-3.6-12.1-0.1l-2.9,2.9l12.2,12.2
		L74.2,76.7z"/>
	<path id="XMLID_79_" class="st1" d="M101,30.1c4-1.7,7.4-1.8,11.2-0.6c0.5,0.2,0.7,0.6,0.5,1.1l-1.7,4.5c-0.2,0.4-0.6,0.6-1,0.4
		c-2-0.7-4.3-0.5-6.2,0.3c-4.5,2-6.2,7.1-4.3,11.5c1.9,4.3,6.8,6.5,11.3,4.5c1.9-0.8,3.6-2.4,4.5-4.2c0.2-0.4,0.7-0.6,1.1-0.4
		l4.5,1.9c0.4,0.2,0.6,0.7,0.4,1.1c-1.6,3.8-4.5,6.5-8,8c-7.9,3.5-17.1,0-20.5-7.8C89.5,42.6,93.1,33.5,101,30.1z"/>
	<path id="XMLID_81_" class="st1" d="M125.3,51.6l10.2-30.1c0.1-0.3,0.4-0.5,0.7-0.6l0.4,0c0.3,0,0.6,0.1,0.8,0.4l16.8,27
		c0.3,0.5,0,1.1-0.6,1.2l-4.8,0.5c-0.8,0.1-1.1-0.1-1.6-0.9l-1.9-3.2l-11.7,1.3l-1.2,3.6c-0.2,0.5-0.6,1.1-1.4,1.2l-4.7,0.5
		C125.5,52.7,125.1,52.2,125.3,51.6z M142,40.5l-4.1-6.6l0,0l-2.4,7.4L142,40.5z"/>
	<path id="XMLID_84_" class="st1" d="M163.9,21.5c0.1-0.4,0.5-0.7,0.9-0.7l10.3,1.7c5.3,0.8,8.9,5.8,8.1,10.9
		c-0.8,5.2-5.9,8.8-11.1,8l-4.5-0.7l-1.6,9.9c-0.1,0.4-0.5,0.7-0.9,0.7l-5.1-0.8c-0.5-0.1-0.8-0.5-0.7-0.9L163.9,21.5z M172.8,35.1
		c1.8,0.3,3.6-0.9,3.9-2.8c0.3-1.8-1-3.4-2.9-3.7l-4.1-0.7l-1,6.5L172.8,35.1z"/>
	<path id="XMLID_87_" class="st1" d="M196.4,29c0.2-0.4,0.7-0.6,1.1-0.5l4.9,1.9c0.4,0.2,0.6,0.7,0.5,1.1l-10.3,26.3
		c-0.2,0.4-0.7,0.6-1.1,0.5l-4.9-1.9c-0.4-0.2-0.6-0.7-0.5-1.1L196.4,29z"/>
	<path id="XMLID_89_" class="st1" d="M216.8,44.7l-5.2-3.3c-0.4-0.3-0.5-0.8-0.3-1.1l2.5-3.9c0.2-0.4,0.7-0.5,1.1-0.2l16.2,10.4
		c0.4,0.3,0.5,0.8,0.3,1.1l-2.5,3.9c-0.2,0.4-0.7,0.5-1.1,0.2l-5.2-3.3l-12.3,19.2c-0.2,0.4-0.8,0.5-1.1,0.2l-4.4-2.8
		c-0.4-0.2-0.5-0.8-0.3-1.1L216.8,44.7z"/>
	<path id="XMLID_91_" class="st1" d="M251.9,65.6c5.7,6.6,5,16.3-1.4,21.9c-6.5,5.6-16.1,4.8-21.8-1.8c-5.7-6.6-5.1-16.2,1.4-21.8
		C236.5,58.3,246.2,59.1,251.9,65.6z M233.8,81.3c3.1,3.6,8.6,4.1,12.1,1c3.6-3.1,3.9-8.6,0.8-12.2c-3.1-3.6-8.6-4-12.1-0.9
		C231.1,72.2,230.7,77.7,233.8,81.3z"/>
	<path id="XMLID_94_" class="st1" d="M268.4,91.8c0.4-0.2,0.9,0,1.1,0.4l2.1,4.7c0.2,0.4,0,0.9-0.4,1.1l-20.9,9.2l4.2,9.5
		c0.2,0.4,0,0.9-0.4,1.1l-4.3,1.9c-0.4,0.2-0.9,0-1.1-0.4l-6.6-14.9c-0.2-0.4,0-0.9,0.4-1.1L268.4,91.8z"/>
</g>
<path id="XMLID_38_" class="st2" d="M150.1,150.1"/>
<g id="XMLID_3_">
	<path id="XMLID_20_" class="st1" d="M94.2,219.1c-8.9-7.3-16.3-16.1-21.8-26.1c-5.7-10.4-9.2-21.7-10.5-33.6
		c-1.2-11.9-0.1-23.7,3.4-35c3.4-11,8.8-21,16-30c7.3-8.9,16.1-16.3,26.1-21.8l1,1.9C98.8,79.8,90.2,87,83.1,95.7
		c-7.1,8.7-12.4,18.6-15.7,29.3c-3.4,11.1-4.5,22.6-3.3,34.2c1.2,11.6,4.6,22.6,10.2,32.8c5.4,9.8,12.5,18.4,21.3,25.5L94.2,219.1z"
		/>
	<path id="XMLID_19_" class="st1" d="M97.1,215.5c-8.5-6.9-15.4-15.2-20.7-24.7c-5.4-9.9-8.8-20.6-9.9-31.8
		c-1.2-11.3-0.1-22.4,3.2-33.2c3.2-10.4,8.3-19.9,15.2-28.4c6.9-8.5,15.2-15.4,24.7-20.7l1,1.9c-9.3,5.1-17.4,11.9-24.1,20.1
		c-6.7,8.3-11.7,17.6-14.8,27.7c-3.2,10.5-4.3,21.4-3.2,32.3c1.1,11,4.4,21.4,9.7,31c5.1,9.3,11.9,17.4,20.1,24.1L97.1,215.5z"/>
</g>
<g id="XMLID_2_">
	<path id="XMLID_24_" class="st1" d="M218.9,206.3l-1.7-1.3c7.1-8.7,12.4-18.6,15.7-29.3c3.4-11.1,4.5-22.6,3.3-34.2
		c-1.2-11.6-4.6-22.6-10.2-32.8c-5.4-9.8-12.6-18.4-21.3-25.5c-8.7-7.1-18.6-12.4-29.3-15.7l0.6-2c11,3.4,21,8.8,30,16.1
		c8.9,7.3,16.3,16.1,21.8,26.1c5.7,10.4,9.2,21.7,10.5,33.6c1.2,11.9,0.1,23.7-3.4,35C231.6,187.3,226.2,197.4,218.9,206.3z"/>
	<path id="XMLID_25_" class="st1" d="M215.3,203.4l-1.7-1.3c6.7-8.3,11.7-17.6,14.8-27.7c3.2-10.5,4.3-21.4,3.2-32.3
		c-1.1-11-4.4-21.4-9.7-31c-5.1-9.3-11.9-17.4-20.1-24.1c-8.3-6.7-17.6-11.7-27.7-14.8l0.6-2c10.4,3.2,19.9,8.3,28.4,15.2
		c8.5,6.9,15.4,15.2,20.7,24.7c5.4,9.9,8.8,20.6,9.9,31.8s0.1,22.4-3.2,33.2C227.3,185.4,222.2,194.9,215.3,203.4z"/>
</g>
<g id="XMLID_47_">
	<path id="XMLID_48_" class="st1" d="M107.7,218.1c0.1-0.1,0.3-0.2,0.5-0.1l1.7,1.1c0.1,0.1,0.2,0.3,0.1,0.4l-6,9.6
		c-0.1,0.1-0.3,0.2-0.4,0.1l-1.7-1.1c-0.1-0.1-0.2-0.3-0.1-0.4L107.7,218.1z"/>
	<path id="XMLID_50_" class="st1" d="M120.1,224.2c3.2,1.3,4.6,5,3.2,8.1c-1.3,3.2-4.9,4.6-8.1,3.2c-3.2-1.3-4.6-4.9-3.2-8.1
		C113.4,224.3,117,222.8,120.1,224.2z M116.4,233c1.7,0.7,3.8-0.1,4.5-1.8c0.7-1.7-0.1-3.8-1.8-4.5c-1.7-0.7-3.7,0.1-4.5,1.8
		C113.8,230.3,114.6,232.3,116.4,233z"/>
	<path id="XMLID_53_" class="st1" d="M129.7,228.5c0-0.2,0.1-0.4,0.4-0.4l2,0.3c0.1,0,0.2,0.2,0.3,0.3l0.5,6l0.1,0l3.6-5.5
		c0.1-0.1,0.2-0.2,0.3-0.1l0.3,0.1c0.2,0,0.2,0.1,0.3,0.2l1.6,6.4l0.1,0l2.4-5.4c0.1-0.1,0.2-0.2,0.3-0.2l2,0.3
		c0.2,0,0.3,0.2,0.2,0.5l-5.1,10.7c-0.1,0.1-0.2,0.2-0.3,0.2l-0.3,0c-0.1,0-0.2-0.1-0.3-0.2l-1.9-7.4l-0.1,0l-4.3,6.3
		c-0.1,0.1-0.2,0.2-0.3,0.1l-0.3,0c-0.1,0-0.2-0.1-0.3-0.3L129.7,228.5z"/>
	<path id="XMLID_55_" class="st1" d="M147.6,242.2l5-11.7c0-0.1,0.2-0.2,0.3-0.2l0.2,0c0.1,0,0.2,0.1,0.3,0.2l5.7,11.3
		c0.1,0.2,0,0.4-0.3,0.5l-1.9,0.1c-0.3,0-0.4-0.1-0.6-0.4l-0.7-1.3l-4.7,0.2l-0.6,1.4c-0.1,0.2-0.3,0.4-0.6,0.4l-1.9,0.1
		C147.7,242.7,147.5,242.4,147.6,242.2z M154.5,238.3l-1.4-2.8l0,0l-1.2,2.9L154.5,238.3z"/>
	<path id="XMLID_58_" class="st1" d="M174.1,226.7c1.6-0.5,3-0.4,4.4,0.3c0.2,0.1,0.2,0.3,0.2,0.5l-0.9,1.7
		c-0.1,0.1-0.3,0.2-0.4,0.1c-0.8-0.4-1.7-0.4-2.5-0.2c-1.8,0.6-2.7,2.5-2.2,4.3c0.6,1.8,2.4,2.9,4.2,2.3c0.8-0.2,1.5-0.8,1.9-1.5
		c0.1-0.1,0.3-0.2,0.4-0.1l1.7,1c0.2,0.1,0.2,0.3,0.1,0.4c-0.8,1.4-2,2.4-3.5,2.8c-3.3,1-6.7-0.8-7.7-4.1
		C169,231.1,170.8,227.7,174.1,226.7z"/>
	<path id="XMLID_60_" class="st1" d="M182.7,223.9c-0.1-0.2,0-0.4,0.2-0.4l1.9-0.9c0.2-0.1,0.4,0,0.4,0.2l4.9,10.2
		c0.1,0.2,0,0.4-0.2,0.4l-1.9,0.9c-0.2,0.1-0.4,0-0.4-0.2L182.7,223.9z"/>
	<path id="XMLID_62_" class="st1" d="M192.6,221.1l-2.1,1.3c-0.2,0.1-0.4,0-0.4-0.1l-1-1.6c-0.1-0.1-0.1-0.3,0.1-0.4l6.4-4.1
		c0.2-0.1,0.4,0,0.5,0.1l1,1.6c0.1,0.1,0.1,0.3-0.1,0.4l-2.1,1.3l5,7.7c0.1,0.1,0,0.4-0.1,0.5l-1.7,1.1c-0.1,0.1-0.4,0-0.5-0.1
		L192.6,221.1z"/>
	<path id="XMLID_64_" class="st1" d="M205.8,215.9l-6.6-1.7c-0.3-0.1-0.3-0.4-0.1-0.6l1.6-1.5c0.1-0.1,0.2-0.1,0.3-0.1l4.1,1
		l-0.6-4.2c0-0.1,0-0.2,0.1-0.3l1.6-1.5c0.2-0.2,0.5-0.1,0.5,0.2l1,6.8l3.7,4c0.1,0.1,0.1,0.3,0,0.5l-1.5,1.4
		c-0.1,0.1-0.3,0.1-0.5,0L205.8,215.9z"/>
</g>
<g id="XMLID_16_">
	<path id="XMLID_34_" class="st1" d="M122.9,77.2c0.6-1.5,1.9-5.6,2.4-7.4c0.1-0.4,0.2-0.9,0-1.4c-0.2-0.6-0.9-1-1.8-0.7
		c-0.7,0.2-1.1,0.9-1.3,1.3c-0.1,0.2-0.3,0.2-0.5,0.1l-1.3-0.7c-0.1-0.1-0.2-0.3-0.2-0.4c0,0,0.8-2,2.8-2.6c2.3-0.7,4.2,0.3,4.7,2.1
		c0.3,0.9,0.2,1.4,0,2.3c-0.2,1.1-1,3.3-1.4,4.6l2.9-0.9c0.2-0.1,0.4,0,0.4,0.2l0.5,1.5c0.1,0.2,0,0.4-0.2,0.4l-6.5,2.1
		c-0.2,0.1-0.4,0-0.4-0.2L122.9,77.2z"/>
	<path id="XMLID_36_" class="st1" d="M132.5,69c-0.6-3.7,0.6-6.2,3.4-6.6c2.8-0.4,4.7,1.5,5.3,5.2c0.6,3.7-0.6,6.2-3.4,6.6
		C135,74.7,133.1,72.7,132.5,69z M138.4,68.1c-0.4-2.2-1.1-3.4-2.2-3.2c-1,0.2-1.4,1.5-1,3.7c0.4,2.2,1.1,3.4,2.2,3.2
		C138.4,71.6,138.8,70.3,138.4,68.1z"/>
	<path id="XMLID_42_" class="st1" d="M146.5,65.1l-1.6,0.1c-0.2,0-0.3-0.1-0.3-0.3l0-1.1c0-0.1,0-0.2,0.1-0.3l2.4-2l1.6-0.1
		c0.2,0,0.3,0.1,0.3,0.3l0.4,11c0,0.2-0.1,0.3-0.3,0.3l-1.9,0.1c-0.2,0-0.3-0.1-0.3-0.3L146.5,65.1z"/>
	<path id="XMLID_44_" class="st1" d="M152.7,70.2l0.2-1.8l6.6-6.6c0.1,0,0.1-0.1,0.3-0.1l1.2,0.1c0.2,0,0.3,0.2,0.3,0.4l-0.6,7
		l1.3,0.1c0.2,0,0.3,0.2,0.3,0.3l-0.1,1.4c0,0.2-0.2,0.3-0.4,0.3l-1.3-0.1l-0.2,2.1c0,0.2-0.2,0.3-0.4,0.3l-1.8-0.2
		c-0.2,0-0.3-0.2-0.3-0.4l0.2-2.1l-5-0.5C152.8,70.6,152.6,70.4,152.7,70.2z M158.2,69l0.3-3.2l-3,2.9L158.2,69z"/>
</g>
<circle id="XMLID_7_" class="st1" cx="37.9" cy="172.6" r="6.7"/>
<circle id="XMLID_6_" class="st1" cx="264.5" cy="149.4" r="6.7"/>
<path id="XMLID_29_" class="st3" d="M156.9,216.6c-36.7,3.8-69.5-23-73.3-59.7c-3.8-36.7,23-69.5,59.7-73.3
	c36.7-3.8,69.5,23,73.3,59.7C220.4,180,193.6,212.9,156.9,216.6z"/>
<path id="XMLID_18_" class="st1" d="M143.3,83.7c36.7-3.8,69.5,23,73.3,59.7c3.8,36.7-23,69.5-59.7,73.3
	c-36.7,3.8-69.5-23-73.3-59.7C79.9,120.3,106.7,87.4,143.3,83.7 M142.9,79.4c-39,4-67.5,39-63.5,78c4,39,39,67.5,78,63.5
	c39-4,67.5-39,63.5-78C216.9,103.9,181.9,75.4,142.9,79.4L142.9,79.4z"/>
<g id="XMLID_8_">
	<defs>
		<path id="XMLID_9_" d="M156.2,209.6c-32.8,3.4-62.2-20.6-65.5-53.4C87.3,123.4,111.3,94,144,90.7c32.8-3.4,62.2,20.6,65.5,53.4
			C212.9,176.8,189,206.2,156.2,209.6z"/>
	</defs>
	<clipPath id="XMLID_139_">
		<use xlink:href="#XMLID_9_"  style="overflow:visible;"/>
	</clipPath>
	<g id="XMLID_10_" class="st4">
		<path id="XMLID_65_" class="st1" d="M203.4,195.4l-2.6-25.2l-16.2,1.7l-3-29.5l-9.1,0.9c-2.2-11.1-12.2-19.1-23.6-18.6l-1-10
			l13.1-8.4l-17.6-6.2l2.5,24.9c-11.2,1.9-19.4,11.7-19.3,23l-9.1,0.9l3,29.5l-16.2,1.7l2.6,25.2l4.1-1.8l-2-19.7l87.9-9l2,19.7
			L203.4,195.4z M146.9,104l8,2.9l-7.2,4.5L146.9,104z M148,128.9c9.6-1,18.3,5.5,20.3,14.7l-37.3,3.8
			C131.1,138,138.3,129.9,148,128.9z M122.4,152.7l55.5-5.7l2.6,25.3l-10.1,1l-2-19.9c-0.1-1.2-1.2-2.1-2.4-2s-2.1,1.2-2,2.4l2,19.9
			l-5.9,0.6l-2-19.9c-0.1-1.2-1.2-2.1-2.4-2c-1.2,0.1-2.1,1.2-2,2.4l2,19.9l-5.9,0.6l-2-19.9c-0.1-1.2-1.2-2.1-2.4-2
			c-1.2,0.1-2.1,1.2-2,2.4l2,19.9l-5.9,0.6l-2-19.9c-0.1-1.2-1.2-2.1-2.4-2c-1.2,0.1-2.1,1.2-2,2.4l2,19.9l-10.1,1L122.4,152.7z"/>
		<polygon id="XMLID_11_" class="st1" points="153.7,184.9 199,194.1 196,197.8 154.1,189.2 116.7,205.2 111.2,203.1 		"/>
	</g>
</g>
</svg>
