<?xml version="1.0" encoding="utf-8"?>
<!-- Generator: Adobe Illustrator 19.0.0, SVG Export Plug-In . SVG Version: 6.00 Build 0)  -->
<svg version="1.1" id="Layer_1" xmlns="http://www.w3.org/2000/svg" xmlns:xlink="http://www.w3.org/1999/xlink" x="0px" y="0px"
	 viewBox="-64 -7.1 302.1 302.1" style="enable-background:new -64 -7.1 302.1 302.1;" xml:space="preserve">
<style type="text/css">
	.st0{fill:none;}
	.st1{fill:#FFFFFF;}
	.st2{fill:#E41B00;}
	.st3{clip-path:url(#XMLID_3_);}
</style>
<g id="XMLID_1_">
	<g id="XMLID_32_">
		<polygon id="XMLID_113_" class="st0" points="185.3,188.8 179.3,188.8 185.3,192 		"/>
		<path id="XMLID_110_" class="st1" d="M87,295C9.6,295-55,236.9-63.1,159.8c-4.3-40.1,7.4-79.5,32.8-110.9
			C-4.9,17.5,31.1-2,71.1-6.2c5.3-0.6,10.7-0.9,16-0.9C164.5-7.1,229.1,51,237.2,128c4.3,40-7.4,79.4-32.8,110.8
			c-25.4,31.4-61.4,51-101.5,55.3C97.7,294.7,92.3,295,87,295C87,295,87,295,87,295z M87.3,4.6c-5,0-10,0.3-14.9,0.8
			C-4,13.5-59.5,82.2-51.5,158.6c7.5,71.1,67,124.7,138.4,124.7c4.9,0,9.9-0.3,14.8-0.8c76.3-8.1,131.9-76.9,123.8-153.2
			C218,58.2,158.6,4.6,87.3,4.6z"/>
		<path id="XMLID_109_" class="st2" d="M87.1,143.9"/>
		<g id="XMLID_80_">
			<path id="XMLID_107_" class="st1" d="M-3.8,194.3c0.3-0.2,0.6-0.1,0.8,0.2l7.3,10.8c0.2,0.3,0.1,0.7-0.2,0.8L1.3,208
				c-0.3,0.2-0.6,0.1-0.8-0.2l-4.9-7.2l-3.7,2.5l4,5.9c0.2,0.3,0.1,0.6-0.2,0.8l-2.8,1.9c-0.3,0.2-0.7,0.1-0.8-0.2l-4-5.9l-6.3,4.3
				c-0.3,0.2-0.7,0.1-0.8-0.2l-2.1-3.1c-0.2-0.3-0.1-0.6,0.2-0.8L-3.8,194.3z"/>
			<path id="XMLID_104_" class="st1" d="M13.6,215c4.4,4.4,4.4,11.5,0,16s-11.5,4.4-15.9,0c-4.4-4.4-4.5-11.5,0-15.9
				C2.1,210.6,9.2,210.6,13.6,215z M1.2,227.4c2.4,2.4,6.4,2.4,8.8,0c2.4-2.4,2.4-6.5,0-8.9c-2.4-2.4-6.4-2.4-8.9,0.1
				C-1.2,221-1.2,225,1.2,227.4z"/>
			<path id="XMLID_101_" class="st1" d="M32.6,230c5.3,3.3,6.9,10.2,3.6,15.6c-3.3,5.3-10.2,6.9-15.5,3.6
				c-5.3-3.3-6.9-10.2-3.6-15.5C20.3,228.3,27.2,226.7,32.6,230z M23.3,244.9c2.9,1.8,6.8,0.9,8.6-2c1.8-2.9,0.9-6.8-2-8.7
				c-2.9-1.8-6.8-0.9-8.6,2.1C19.5,239.2,20.4,243.1,23.3,244.9z"/>
			<path id="XMLID_98_" class="st1" d="M45,238c0.1-0.3,0.4-0.5,0.7-0.4l7.2,2.5c5.7,2,8.8,8.3,6.8,13.9c-2,5.8-8.3,8.8-14,6.8
				l-7.2-2.5c-0.3-0.1-0.4-0.5-0.3-0.7L45,238z M47,256.4c3.3,1.2,6.7-0.6,7.9-4c1.2-3.3-0.4-6.8-3.7-8l-2.8-1l-4.2,12L47,256.4z"/>
			<path id="XMLID_96_" class="st1" d="M84.4,245.7c3.1,0.2,5.4,1.3,7.4,3.3c0.3,0.3,0.2,0.6,0,0.9l-2.6,2.4c-0.2,0.2-0.6,0.2-0.8,0
				c-1.1-1.1-2.6-1.7-4.2-1.8c-3.5-0.2-6.3,2.6-6.5,6.1c-0.2,3.5,2.3,6.5,5.8,6.7c1.5,0.1,3.1-0.4,4.3-1.3c0.2-0.2,0.6-0.2,0.8,0.1
				l2.3,2.7c0.2,0.2,0.2,0.6-0.1,0.8c-2.2,2-5,2.8-7.8,2.6c-6.3-0.3-11.1-5.6-10.7-11.9C72.8,250.2,78.1,245.4,84.4,245.7z"/>
			<path id="XMLID_93_" class="st1" d="M105,244.5c6.2-1,11.9,3.2,12.9,9.4c1,6.2-3.2,11.9-9.4,12.9c-6.2,1-11.9-3.2-12.9-9.4
				C94.7,251.3,98.8,245.5,105,244.5z M107.7,261.9c3.4-0.5,5.8-3.8,5.2-7.1c-0.5-3.4-3.8-5.8-7.2-5.2c-3.4,0.5-5.7,3.8-5.2,7.2
				C101.1,260.1,104.4,262.4,107.7,261.9z"/>
			<path id="XMLID_91_" class="st1" d="M121.4,241.5c-0.1-0.3,0.1-0.6,0.3-0.7l0.5-0.2c0.1-0.1,0.5-0.1,0.6,0.1l12,9.7l0.1,0
				l1.5-15.3c0-0.2,0.2-0.4,0.4-0.5l0.5-0.2c0.2-0.1,0.6,0,0.7,0.2l11.4,18.1c0.2,0.3,0.1,0.7-0.3,0.9l-3.4,1.4
				c-0.3,0.1-0.6,0-0.7-0.2l-5.1-8.4l-0.1,0l-0.9,11.4c0,0.2-0.2,0.5-0.4,0.5l-0.5,0.2c-0.2,0.1-0.5,0-0.6-0.1l-8.8-7.3l-0.1,0
				l2.5,9.5c0.1,0.2-0.1,0.6-0.4,0.7l-3.4,1.4c-0.3,0.1-0.7,0-0.8-0.4L121.4,241.5z"/>
			<path id="XMLID_88_" class="st1" d="M144.3,231.2c-0.2-0.3-0.1-0.6,0.1-0.8l6.2-4.3c3.2-2.2,7.6-1.5,9.7,1.6
				c2.2,3.2,1.5,7.6-1.7,9.8l-2.7,1.9l4.2,6c0.2,0.3,0.1,0.7-0.1,0.8l-3,2.1c-0.3,0.2-0.6,0.1-0.8-0.1L144.3,231.2z M155.8,233.9
				c1.1-0.8,1.4-2.3,0.6-3.5c-0.8-1.1-2.3-1.3-3.4-0.5l-2.4,1.7l2.8,3.9L155.8,233.9z"/>
			<path id="XMLID_85_" class="st1" d="M170.8,237.6l-8-21.9c-0.1-0.2,0-0.5,0.1-0.6l0.2-0.2c0.2-0.2,0.4-0.2,0.6-0.1l21.9,8
				c0.4,0.2,0.5,0.6,0.2,1l-2.5,2.5c-0.4,0.4-0.7,0.4-1.3,0.2l-2.6-1l-6,6l1,2.6c0.2,0.4,0.2,0.9-0.3,1.3l-2.4,2.4
				C171.5,238.1,171,238,170.8,237.6z M175.2,223.7l-5.3-2l0,0l2,5.3L175.2,223.7z"/>
			<path id="XMLID_83_" class="st1" d="M172.4,206c-0.3-0.2-0.3-0.5-0.1-0.8l0.4-0.7l17-3.9l0,0l-9.3-6.1c-0.3-0.2-0.4-0.5-0.2-0.8
				l2.1-3.2c0.2-0.3,0.6-0.3,0.8-0.2l17.7,11.6c0.3,0.2,0.3,0.5,0.1,0.8l-0.3,0.4c-0.1,0.1-0.3,0.2-0.4,0.3L183,207l0,0l9.8,6.4
				c0.3,0.2,0.4,0.5,0.2,0.8l-2.1,3.1c-0.2,0.3-0.6,0.3-0.8,0.2L172.4,206z"/>
			<path id="XMLID_29_" class="st1" d="M196.8,185.8l-12.3,2.6c-0.5,0.1-0.8-0.3-0.7-0.8l1.5-3.8c0.1-0.2,0.3-0.3,0.4-0.4l7.6-1.7
				l-4.4-6.4c-0.1-0.1-0.2-0.3-0.1-0.6l1.5-3.8c0.2-0.5,0.7-0.5,1-0.1l7.1,10.4l9.3,3.7c0.3,0.1,0.4,0.5,0.3,0.8l-1.4,3.5
				c-0.1,0.3-0.5,0.4-0.8,0.3L196.8,185.8z"/>
		</g>
		<g id="XMLID_20_">
			<g id="XMLID_21_">
				<g id="XMLID_72_">
					<defs>
						<path id="XMLID_22_" d="M94.6,214.8c-39.1,4.2-74.2-24.3-78.4-63.4s24.3-74.2,63.4-78.4s74.2,24.3,78.4,63.4
							C162,175.4,133.7,210.6,94.6,214.8z"/>
					</defs>
					<clipPath id="XMLID_3_">
						<use xlink:href="#XMLID_22_"  style="overflow:visible;"/>
					</clipPath>
					<g id="XMLID_74_" class="st3">
						<path id="XMLID_26_" class="st1" d="M149.7,195.4l-3.2-29.6l-19,2.1l-3.7-34.7l-10.6,1.1c-2.6-13-14.4-22.3-27.8-21.8
							l-1.2-11.8l15.3-9.9l-20.7-7.2l3,29.2c-13.2,2.3-22.8,13.9-22.5,27.2l-10.6,1.1l3.7,34.7l-19,2.1l3.2,29.6l4.9-2.1l-2.4-23.1
							l103.1-11l2.4,23.1L149.7,195.4z M84.3,117.6c11.3-1.2,21.6,6.3,24,17.2l-43.7,4.6C64.6,128.5,73,118.8,84.3,117.6z
							 M54.3,145.6l65.1-6.9l3.2,29.7l-11.8,1.2l-2.4-23.4c-0.1-1.5-1.5-2.4-2.9-2.3c-1.5,0.1-2.4,1.5-2.3,2.9l2.4,23.4l-6.9,0.7
							l-2.4-23.4c-0.1-1.5-1.5-2.4-2.9-2.3c-1.5,0.1-2.4,1.5-2.3,2.9l2.4,23.4l-6.9,0.7L84,148.9c-0.1-1.5-1.5-2.4-2.9-2.3
							c-1.5,0.1-2.4,1.5-2.3,2.9l2.4,23.4l-6.9,0.7l-2.4-23.4c-0.1-1.5-1.5-2.4-2.9-2.3c-1.5,0.1-2.4,1.5-2.3,2.9l2.4,23.4
							l-11.8,1.2L54.3,145.6z"/>
						<polygon id="XMLID_23_" class="st1" points="91.2,183.4 144.4,194 141,198.2 91.7,188.4 48,207.4 41.4,204.9 						"/>
					</g>
				</g>
			</g>
		</g>
		<circle id="XMLID_67_" class="st1" cx="-22.9" cy="166.4" r="6.6"/>
		<g id="XMLID_37_">
			<path id="XMLID_16_" class="st1" d="M-38,118c1.7-8.3,9.8-13.5,18-11.8s13.2,9.8,11.5,18.1s-9.7,13.5-17.9,11.8
				C-34.6,134.4-39.8,126.3-38,118z M-15.1,123c1-4.5-1.9-9.1-6.4-10.1c-4.5-1-9,1.9-10.1,6.6c-1,4.5,1.9,9.1,6.5,10.1
				C-20.6,130.4-16,127.5-15.1,123z"/>
			<path id="XMLID_54_" class="st1" d="M-27.4,90c-0.4-0.2-0.5-0.7-0.3-1.1l2.4-4.4c0.2-0.4,0.7-0.5,1.1-0.3L-4.6,95l4.9-8.9
				c0.2-0.4,0.7-0.5,1.1-0.3l4,2.2c0.4,0.2,0.6,0.7,0.3,1.1l-7.7,14c-0.2,0.4-0.7,0.5-1.1,0.3L-27.4,90z"/>
			<path id="XMLID_51_" class="st1" d="M-10.9,63.7c-0.3-0.3-0.3-0.8,0-1.1l7.3-7.3c5.8-5.8,15.2-5.9,20.9-0.2
				c5.7,5.7,5.6,15.2-0.2,21l-7.3,7.3c-0.3,0.3-0.8,0.3-1.1,0L-10.9,63.7z M12.5,71.9c3.4-3.4,3.2-8.5-0.2-11.9
				c-3.4-3.4-8.4-3.5-11.9-0.1l-2.9,2.9l12.1,12L12.5,71.9z"/>
			<path id="XMLID_14_" class="st1" d="M38.5,26.3c3.9-1.7,7.3-1.8,11-0.6c0.5,0.2,0.7,0.6,0.5,1.1l-1.6,4.4c-0.2,0.4-0.6,0.6-1,0.4
				c-2-0.7-4.3-0.5-6.1,0.4c-4.4,1.9-6.1,7-4.2,11.2c1.8,4.3,6.7,6.4,11.1,4.4c1.8-0.8,3.6-2.3,4.4-4.2c0.2-0.4,0.7-0.6,1.1-0.4
				l4.4,1.8c0.4,0.2,0.6,0.7,0.4,1.1c-1.5,3.7-4.4,6.4-7.8,7.9C42.9,57.3,34,54,30.6,46.4C27.2,38.7,30.7,29.8,38.5,26.3z"/>
			<path id="XMLID_12_" class="st1" d="M62.2,47.5L72,17.9c0.1-0.3,0.4-0.5,0.7-0.6l0.4-0.1c0.3,0,0.6,0.1,0.8,0.4L90.4,44
				c0.3,0.5,0,1.1-0.6,1.2l-4.6,0.6c-0.8,0.1-1.2-0.1-1.6-0.9l-1.9-3.1l-11.5,1.4l-1.2,3.5c-0.2,0.5-0.6,1.1-1.4,1.2l-4.6,0.6
				C62.4,48.5,62,47.9,62.2,47.5z M78.5,36.4L74.4,30l0,0l-2.3,7.3L78.5,36.4z"/>
			<path id="XMLID_44_" class="st1" d="M99.9,17.7c0.1-0.4,0.5-0.8,1-0.7l10.2,1.5c5.1,0.8,8.8,5.6,8,10.6
				c-0.8,5.1-5.7,8.6-10.8,7.8l-4.4-0.7l-1.5,9.8c-0.1,0.4-0.5,0.8-1,0.7L96.3,46c-0.5-0.1-0.8-0.5-0.7-0.9L99.9,17.7z M108.6,30.9
				c1.8,0.3,3.6-0.9,3.9-2.7c0.3-1.7-1.1-3.3-2.8-3.6l-4-0.6l-1,6.4L108.6,30.9z"/>
			<path id="XMLID_9_" class="st1" d="M131.7,24.8c0.2-0.4,0.7-0.6,1.1-0.5l4.7,1.8c0.4,0.2,0.6,0.7,0.5,1.1l-10,25.9
				c-0.2,0.4-0.7,0.6-1.1,0.5l-4.7-1.8c-0.4-0.2-0.6-0.7-0.5-1.1L131.7,24.8z"/>
			<path id="XMLID_42_" class="st1" d="M151.7,40l-5.1-3.3c-0.4-0.3-0.5-0.8-0.3-1.1l2.4-3.9c0.2-0.4,0.7-0.5,1.1-0.3l16,10.1
				c0.4,0.3,0.5,0.8,0.3,1.1l-2.4,3.9c-0.2,0.4-0.7,0.5-1.1,0.3l-5.1-3.3l-11.9,18.9c-0.2,0.4-0.8,0.5-1.1,0.3l-4.4-2.7
				c-0.4-0.2-0.5-0.8-0.3-1.1L151.7,40z"/>
			<path id="XMLID_39_" class="st1" d="M186.2,60.3c5.6,6.4,5,16-1.3,21.5c-6.3,5.5-15.8,4.8-21.4-1.5c-5.6-6.4-5-15.9,1.3-21.4
				C171,53.3,180.6,53.9,186.2,60.3z M168.5,75.8c3.1,3.5,8.4,3.9,11.9,0.9s3.8-8.4,0.7-12c-3.1-3.5-8.4-3.9-11.9-0.8
				C165.8,66.9,165.5,72.3,168.5,75.8z"/>
			<path id="XMLID_38_" class="st1" d="M202.3,85.6c0.4-0.2,0.9,0,1.1,0.4l2.1,4.6c0.2,0.4,0,0.9-0.4,1.1l-20.4,9.2l4.2,9.2
				c0.2,0.4,0,0.9-0.4,1.1l-4.2,1.8c-0.4,0.2-0.9,0-1.1-0.4L176.7,98c-0.2-0.4,0-0.9,0.4-1.1L202.3,85.6z"/>
		</g>
		<circle id="XMLID_5_" class="st1" cx="199.4" cy="137.7" r="6.1"/>
		<path id="XMLID_33_" class="st1" d="M86.9,230C42.8,230,6,196.8,1.3,152.9c-5-47.2,29.3-89.7,76.6-94.7c3-0.3,6-0.5,9-0.5
			c44.3,0,81.2,33.1,85.7,77c2.4,22.8-4.2,45.2-18.7,63.2c-14.5,17.9-35,29.1-57.9,31.6C93,229.8,89.9,230,86.9,230
			C86.9,230,86.9,230,86.9,230z M87,66c-2.7,0-5.5,0.1-8.2,0.4c-20.7,2.2-39.3,12.3-52.4,28.5S7.3,131.4,9.6,152.1
			c4.2,39.7,37.5,69.7,77.5,69.7c2.7,0,5.5-0.1,8.2-0.4c42.7-4.5,73.7-42.9,69.2-85.7C160.3,96,127,66,87,66z"/>
	</g>
</g>
</svg>
