<?xml version="1.0" encoding="utf-8"?>
<!-- Generator: Adobe Illustrator 21.1.0, SVG Export Plug-In . SVG Version: 6.00 Build 0)  -->
<svg version="1.1" id="Layer_1" xmlns="http://www.w3.org/2000/svg" xmlns:xlink="http://www.w3.org/1999/xlink" x="0px" y="0px"
	 viewBox="0 0 633.2 123.9" style="enable-background:new 0 0 633.2 123.9;" xml:space="preserve">
<style type="text/css">
	.st0{fill:#FFFFFF;}
</style>
<g>
	<path class="st0" d="M110.5,37c0,0.8-0.3,1.4-0.8,1.9c-4.4,4.7-9.9,7-16.3,7c-6.3,0-11.6-2.2-16-6.7c-4.4-4.5-6.6-9.8-6.6-16.2
		V11.9h-2.5c-0.9,0-1.6-0.3-2.2-0.8c-0.6-0.6-0.9-1.2-0.9-2.1V4.9c0-0.8,0.3-1.5,0.9-2.1C66.7,2.3,67.4,2,68.2,2h16
		c0.8,0,1.5,0.3,2.1,0.8c0.6,0.6,0.9,1.2,0.9,2.1V9c0,0.8-0.3,1.5-0.9,2.1c-0.6,0.6-1.3,0.8-2.1,0.8h-2.4v11.4
		c0,3.4,1.1,6.3,3.4,8.7c2.3,2.4,5,3.6,8.1,3.6c2.5,0,4.5-0.6,6-1.9v-7.6c0-0.8,0.3-1.5,0.9-2.1c0.6-0.6,1.3-0.8,2.1-0.8h5.1
		c0.8,0,1.5,0.3,2.1,0.8c0.6,0.6,0.9,1.2,0.9,2.1V37z"/>
	<path class="st0" d="M173.9,23.2c0,6-2.2,11.1-6.6,15.2c-4.4,4.1-9.8,6.2-16.1,6.2h-20.9c-0.9,0-1.6-0.3-2.2-0.8
		c-0.6-0.6-0.9-1.2-0.9-2.1V4.9c0-0.8,0.3-1.5,0.9-2.1c0.6-0.6,1.3-0.8,2.2-0.8h20.9c6.3,0,11.7,2,16.1,6.1
		C171.7,12.2,173.9,17.2,173.9,23.2z M162.8,23.2c0-3.3-1.1-6-3.4-8.1c-2.2-2.1-5-3.2-8.2-3.2h-12.9v22.8h12.9c3.2,0,6-1.1,8.2-3.3
		C161.7,29.3,162.8,26.5,162.8,23.2z"/>
	<path class="st0" d="M259.6,41.7c0,0.8-0.3,1.5-0.9,2.1c-0.6,0.6-1.3,0.8-2.1,0.8H239c-6.3,0-11.6-2.1-16-6.2
		c-4.4-4.1-6.6-9.2-6.6-15.2c0-6,2.2-11.1,6.6-15.1C227.4,4,232.8,2,239,2h17.6c0.8,0,1.5,0.3,2.1,0.8c0.6,0.6,0.9,1.2,0.9,2.1v8.6
		c0,0.8-0.3,1.5-0.9,2.1c-0.6,0.6-1.3,0.8-2.1,0.8H252c-0.8,0-1.5-0.3-2.1-0.8c-0.6-0.6-0.9-1.3-0.9-2.1v-1.5h-10
		c-3.2,0-5.9,1-8.1,3.1c-2.3,2.2-3.4,4.9-3.4,8.2c0,3.3,1.1,6.1,3.4,8.2c2.3,2.2,5,3.3,8.1,3.3h10v-1.5c0-0.8,0.3-1.5,0.9-2.1
		c0.6-0.6,1.3-0.8,2.1-0.8h4.6c0.8,0,1.5,0.3,2.1,0.8c0.6,0.6,0.9,1.2,0.9,2.1V41.7z"/>
	<path class="st0" d="M324.8,41.7c0,0.8-0.3,1.5-0.9,2.1c-0.6,0.6-1.3,0.8-2.1,0.8h-5.2c-0.8,0-1.5-0.3-2.1-0.8
		c-0.6-0.6-0.9-1.2-0.9-2.1V37h-23.1v4.7c0,0.8-0.3,1.5-0.9,2.1c-0.6,0.6-1.3,0.8-2.2,0.8h-5c-0.9,0-1.6-0.3-2.2-0.8
		c-0.6-0.6-0.9-1.2-0.9-2.1V23.4c0-6.3,2.2-11.7,6.6-16.1c4.4-4.4,9.8-6.7,16-6.7c6.3,0,11.6,2.2,16,6.7c4.4,4.4,6.6,9.8,6.6,16.1
		V41.7z M313.7,27.1V23c0-3.5-1.1-6.4-3.4-8.9c-2.3-2.4-5-3.6-8.1-3.6c-3.1,0-5.9,1.2-8.2,3.6c-2.3,2.4-3.5,5.3-3.5,8.7v4.3H313.7z"
		/>
	<path class="st0" d="M390.9,20c0,3.7-1.4,6.9-4.1,9.5c-2.8,2.6-6.1,4-10,4h-20.4v8.3c0,0.8-0.3,1.5-0.9,2.1
		c-0.6,0.6-1.3,0.8-2.2,0.8h-5c-0.9,0-1.6-0.3-2.2-0.8c-0.6-0.6-0.9-1.2-0.9-2.1V4.9c0-0.8,0.3-1.5,0.9-2.1c0.6-0.6,1.3-0.8,2.2-0.8
		h28.4c3.9,0,7.2,1.3,10,3.9c2.7,2.6,4.1,5.8,4.1,9.5V20z M379.8,19.7v-4.3c0-1-0.3-1.9-0.9-2.5c-0.6-0.7-1.3-1-2.1-1h-20.4v11.3
		h20.4c0.8,0,1.5-0.3,2.1-1C379.5,21.6,379.8,20.7,379.8,19.7z"/>
	<path class="st0" d="M451,41.7c0,0.8-0.3,1.5-0.9,2.1c-0.6,0.6-1.3,0.8-2.1,0.8h-39.2c-0.9,0-1.6-0.3-2.2-0.8
		c-0.6-0.6-0.9-1.2-0.9-2.1v-4.1c0-0.8,0.3-1.5,0.9-2.1c0.6-0.6,1.3-0.8,2.2-0.8h14.1V11.9h-14.1c-0.9,0-1.6-0.3-2.2-0.8
		c-0.6-0.6-0.9-1.2-0.9-2.1V4.9c0-0.8,0.3-1.5,0.9-2.1c0.6-0.6,1.3-0.8,2.2-0.8H448c0.8,0,1.5,0.3,2.1,0.8c0.6,0.6,0.9,1.2,0.9,2.1
		V9c0,0.8-0.3,1.5-0.9,2.1c-0.6,0.6-1.3,0.8-2.1,0.8h-14v22.8h14c0.8,0,1.5,0.3,2.1,0.8c0.6,0.6,0.9,1.2,0.9,2.1V41.7z"/>
	<path class="st0" d="M509.2,15.4c0,0.8-0.3,1.5-0.9,2.1c-0.6,0.6-1.3,0.8-2.1,0.8h-4.5c-0.8,0-1.5-0.3-2.1-0.8
		c-0.6-0.6-0.9-1.2-0.9-2.1v-3.5H492v22.8h5.5c0.8,0,1.5,0.3,2.1,0.8c0.6,0.6,0.9,1.2,0.9,2.1v4.1c0,0.8-0.3,1.5-0.9,2.1
		c-0.6,0.6-1.3,0.8-2.1,0.8h-22.2c-0.8,0-1.5-0.3-2.1-0.8c-0.6-0.6-0.9-1.2-0.9-2.1v-4.1c0-0.8,0.3-1.5,0.9-2.1
		c0.6-0.6,1.3-0.8,2.1-0.8h5.5V11.9h-6.6v3.5c0,0.8-0.3,1.5-0.9,2.1c-0.6,0.6-1.3,0.8-2.1,0.8h-4.5c-0.9,0-1.6-0.3-2.2-0.8
		c-0.6-0.6-0.9-1.2-0.9-2.1V4.9c0-0.8,0.3-1.5,0.9-2.1c0.6-0.6,1.3-0.8,2.2-0.8h39.2c0.8,0,1.5,0.3,2.1,0.8c0.6,0.6,0.9,1.2,0.9,2.1
		V15.4z"/>
	<path class="st0" d="M629.9,37c0,0.8-0.3,1.4-0.8,1.9c-4.4,4.7-9.9,7-16.3,7c-6.3,0-11.6-2.2-16-6.7c-4.4-4.5-6.6-9.8-6.6-16.2
		V11.9h-2.5c-0.9,0-1.6-0.3-2.2-0.8c-0.6-0.6-0.9-1.2-0.9-2.1V4.9c0-0.8,0.3-1.5,0.9-2.1c0.6-0.6,1.3-0.8,2.2-0.8h16
		c0.8,0,1.5,0.3,2.1,0.8c0.6,0.6,0.9,1.2,0.9,2.1V9c0,0.8-0.3,1.5-0.9,2.1c-0.6,0.6-1.3,0.8-2.1,0.8h-2.4v11.4
		c0,3.4,1.1,6.3,3.4,8.7s5,3.6,8.1,3.6c2.5,0,4.5-0.6,6-1.9v-7.6c0-0.8,0.3-1.5,0.9-2.1c0.6-0.6,1.3-0.8,2.1-0.8h5.1
		c0.8,0,1.5,0.3,2.1,0.8c0.6,0.6,0.9,1.2,0.9,2.1V37z"/>
	<path class="st0" d="M49.6,108.7c0,3.7-1.4,6.8-4.1,9.4c-2.7,2.6-6.1,3.8-10,3.8h-27c-0.8,0-1.5-0.3-2.1-0.8
		c-0.6-0.6-0.9-1.2-0.9-2.1v-4.1c0-0.8,0.3-1.5,0.9-2.1c0.6-0.6,1.3-0.8,2.1-0.8h27c0.8,0,1.5-0.3,2.1-0.9c0.6-0.6,0.9-1.4,0.9-2.4
		c0-1-0.3-1.8-0.9-2.4c-0.6-0.6-1.3-0.9-2.1-0.9H18.4c-3.9,0-7.2-1.2-10-3.7c-2.8-2.5-4.1-5.6-4.1-9.3c0-3.7,1.4-6.8,4.1-9.4
		c2.8-2.6,6.1-3.8,10-3.8H46c0.8,0,1.5,0.3,2.1,0.8c0.6,0.6,0.9,1.2,0.9,2.1v8.6c0,0.8-0.3,1.5-0.9,2.1c-0.6,0.6-1.3,0.8-2.1,0.8
		h-4.5c-0.9,0-1.6-0.3-2.2-0.8c-0.6-0.6-0.9-1.2-0.9-2.1v-1.5H18.3c-0.8,0-1.5,0.3-2.1,0.9c-0.6,0.6-0.9,1.4-0.9,2.4
		c0,2.1,1,3.1,3,3.1h17.1c3.9,0,7.2,1.3,10,3.8C48.2,101.9,49.6,105,49.6,108.7z"/>
	<path class="st0" d="M171.5,86c0,5.2-1.6,9.8-4.7,13.9c-3.2,4.1-7.2,6.8-12,8.1c-0.2,0-0.3,0.2-0.3,0.4V119c0,0.8-0.3,1.5-0.9,2.1
		c-0.6,0.6-1.3,0.8-2.1,0.8h-5.1c-0.9,0-1.6-0.3-2.2-0.8c-0.6-0.6-0.9-1.2-0.9-2.1v-10.6c0-0.2-0.1-0.3-0.3-0.4
		c-4.9-1.3-8.9-4-12-8.1c-3.1-4.1-4.7-8.7-4.7-13.9v-3.9c0-0.8,0.3-1.5,0.9-2.1c0.6-0.6,1.3-0.8,2.2-0.8h5.1c0.8,0,1.5,0.3,2.1,0.8
		c0.6,0.6,0.9,1.2,0.9,2.1V86c0,3.5,1.1,6.4,3.4,8.8c2.3,2.4,4.9,3.6,8.1,3.6c3.1,0,5.8-1.2,8.1-3.6c2.3-2.4,3.4-5.3,3.4-8.8v-3.9
		c0-0.8,0.3-1.5,0.9-2.1c0.6-0.6,1.3-0.8,2.2-0.8h5.1c0.8,0,1.5,0.3,2.1,0.8c0.6,0.6,0.9,1.2,0.9,2.1V86z"/>
	<path class="st0" d="M261.3,108.8c0,3.6-1.4,6.7-4.1,9.2c-2.7,2.6-6.1,3.8-10,3.8h-27.5c-0.9,0-1.6-0.3-2.2-0.8
		c-0.6-0.6-0.9-1.2-0.9-2v-37c0-0.8,0.3-1.4,0.9-2c0.6-0.6,1.3-0.8,2.2-0.8H245c3.9,0,7.2,1.3,10,3.8c2.7,2.6,4.1,5.6,4.1,9.2
		c0,2.6-0.7,4.9-2.2,7C259.8,101.9,261.3,105.1,261.3,108.8z M248,92.4c0-0.9-0.3-1.7-0.9-2.3c-0.6-0.6-1.3-0.9-2.1-0.9h-17.3v6.4
		H245c0.8,0,1.5-0.3,2.1-0.9C247.7,94.1,248,93.3,248,92.4z M250.2,108.8c0-1-0.3-1.8-0.9-2.4c-0.6-0.6-1.3-0.9-2.1-0.9h-19.5v6.5
		h19.5c0.8,0,1.5-0.3,2.1-0.9C249.9,110.5,250.2,109.7,250.2,108.8z"/>
	<path class="st0" d="M321.3,119c0,0.8-0.3,1.5-0.9,2.1c-0.6,0.6-1.3,0.8-2.1,0.8h-25.6c-3.9,0-7.2-1.3-10-3.9
		c-2.7-2.6-4.1-5.8-4.1-9.5c0-2.8,1.1-5.5,3.2-7.9c-2.1-2.5-3.2-5.1-3.2-7.8c0-3.7,1.4-6.9,4.1-9.5c2.7-2.6,6.1-3.9,10-3.9h25.6
		c0.8,0,1.5,0.3,2.1,0.8c0.6,0.6,0.9,1.2,0.9,2.1v4.1c0,0.8-0.3,1.5-0.9,2.1c-0.6,0.6-1.3,0.8-2.1,0.8h-25.6c-0.8,0-1.5,0.3-2.1,0.8
		c-0.6,0.6-0.9,1.3-0.9,2.3c0,1,0.3,1.8,0.9,2.4c0.6,0.6,1.3,0.8,2.1,0.8h17.1c0.9,0,1.6,0.3,2.2,0.8c0.6,0.6,0.9,1.2,0.9,2.1v4.1
		c0,0.8-0.3,1.5-0.9,2.1c-0.6,0.6-1.3,0.8-2.2,0.8h-17.1c-0.8,0-1.5,0.3-2.1,0.9s-0.9,1.4-0.9,2.4c0,1,0.3,1.8,0.9,2.4
		c0.6,0.6,1.3,0.9,2.1,0.9h25.6c0.8,0,1.5,0.3,2.1,0.8c0.6,0.6,0.9,1.2,0.9,2.1V119z"/>
	<path class="st0" d="M383.4,119c0,0.8-0.3,1.5-0.9,2.1c-0.6,0.6-1.3,0.8-2.1,0.8h-5.2c-0.8,0-1.5-0.3-2.1-0.8
		c-0.6-0.6-0.9-1.2-0.9-2.1v-4.7h-23.1v4.7c0,0.8-0.3,1.5-0.9,2.1c-0.6,0.6-1.3,0.8-2.2,0.8h-5c-0.9,0-1.6-0.3-2.2-0.8
		c-0.6-0.6-0.9-1.2-0.9-2.1v-18.3c0-6.3,2.2-11.7,6.6-16.1c4.4-4.4,9.8-6.7,16-6.7c6.3,0,11.6,2.2,16,6.7c4.4,4.4,6.6,9.8,6.6,16.1
		V119z M372.3,104.4v-4.1c0-3.5-1.1-6.4-3.4-8.9c-2.3-2.4-5-3.6-8.1-3.6c-3.1,0-5.9,1.2-8.2,3.6c-2.3,2.4-3.5,5.3-3.5,8.7v4.3H372.3
		z"/>
	<path class="st0" d="M446.7,119c0,0.8-0.3,1.5-0.9,2.1c-0.6,0.6-1.3,0.8-2.1,0.8H438c-0.9,0-1.6-0.3-2.2-1l-23.2-24.8V119
		c0,0.8-0.3,1.5-0.9,2.1c-0.6,0.6-1.3,0.8-2.1,0.8h-5.1c-0.9,0-1.6-0.3-2.1-0.8c-0.6-0.6-0.9-1.2-0.9-2.1V82.2
		c0-0.8,0.3-1.5,0.9-2.1c0.6-0.6,1.3-0.8,2.2-0.8h6.3c0.9,0,1.7,0.3,2.3,1l22.5,24V82.2c0-0.8,0.3-1.5,0.9-2.1
		c0.6-0.6,1.3-0.8,2.1-0.8h5.1c0.8,0,1.5,0.3,2.1,0.8c0.6,0.6,0.9,1.2,0.9,2.1V119z"/>
	<path class="st0" d="M508.1,119c0,0.8-0.3,1.5-0.9,2.1c-0.6,0.6-1.3,0.8-2.1,0.8h-25.6c-3.9,0-7.2-1.3-10-3.9
		c-2.7-2.6-4.1-5.8-4.1-9.5c0-2.8,1.1-5.5,3.2-7.9c-2.1-2.5-3.2-5.1-3.2-7.8c0-3.7,1.4-6.9,4.1-9.5c2.7-2.6,6.1-3.9,10-3.9H505
		c0.8,0,1.5,0.3,2.1,0.8c0.6,0.6,0.9,1.2,0.9,2.1v4.1c0,0.8-0.3,1.5-0.9,2.1c-0.6,0.6-1.3,0.8-2.1,0.8h-25.6c-0.8,0-1.5,0.3-2.1,0.8
		c-0.6,0.6-0.9,1.3-0.9,2.3c0,1,0.3,1.8,0.9,2.4c0.6,0.6,1.3,0.8,2.1,0.8h17.1c0.9,0,1.6,0.3,2.2,0.8c0.6,0.6,0.9,1.2,0.9,2.1v4.1
		c0,0.8-0.3,1.5-0.9,2.1c-0.6,0.6-1.3,0.8-2.2,0.8h-17.1c-0.8,0-1.5,0.3-2.1,0.9s-0.9,1.4-0.9,2.4c0,1,0.3,1.8,0.9,2.4
		c0.6,0.6,1.3,0.9,2.1,0.9H505c0.8,0,1.5,0.3,2.1,0.8c0.6,0.6,0.9,1.2,0.9,2.1V119z"/>
	<path class="st0" d="M572.3,119c0,0.8-0.3,1.5-0.9,2.1c-0.6,0.6-1.3,0.8-2.1,0.8h-5.1c-0.9,0-1.6-0.3-2.1-0.8
		c-0.6-0.6-0.9-1.2-0.9-2.1v-6.2c0-1-0.3-1.8-0.9-2.5c-0.6-0.7-1.3-1-2.1-1h-21.1v9.7c0,0.8-0.3,1.5-0.9,2.1
		c-0.6,0.6-1.3,0.8-2.1,0.8h-5.1c-0.9,0-1.6-0.3-2.2-0.8c-0.6-0.6-0.9-1.2-0.9-2.1V82.2c0-0.8,0.3-1.5,0.9-2.1
		c0.6-0.6,1.3-0.8,2.2-0.8h25.1c3.9,0,7.2,1.3,10,3.9c2.7,2.6,4.1,5.8,4.1,9.5v3c0,2.3-0.6,4.4-1.7,6.4c2,1.2,3.4,2.5,4.2,3.8
		c0.9,1.6,1.4,3.9,1.4,6.9V119z M557.3,95.9v-3.2c0-1-0.3-1.9-0.9-2.6c-0.6-0.7-1.3-1-2.1-1h-17.1v10.2h17.1c0.8,0,1.5-0.3,2.1-1
		C557,97.8,557.3,96.9,557.3,95.9z"/>
	<path class="st0" d="M629.8,86c0,5.2-1.6,9.8-4.7,13.9c-3.2,4.1-7.2,6.8-12,8.1c-0.2,0-0.3,0.2-0.3,0.4V119c0,0.8-0.3,1.5-0.9,2.1
		c-0.6,0.6-1.3,0.8-2.1,0.8h-5.1c-0.9,0-1.6-0.3-2.2-0.8c-0.6-0.6-0.9-1.2-0.9-2.1v-10.6c0-0.2-0.1-0.3-0.3-0.4
		c-4.9-1.3-8.9-4-12-8.1c-3.1-4.1-4.7-8.7-4.7-13.9v-3.9c0-0.8,0.3-1.5,0.9-2.1c0.6-0.6,1.3-0.8,2.2-0.8h5.1c0.8,0,1.5,0.3,2.1,0.8
		c0.6,0.6,0.9,1.2,0.9,2.1V86c0,3.5,1.1,6.4,3.4,8.8c2.3,2.4,4.9,3.6,8.1,3.6c3.1,0,5.8-1.2,8.1-3.6c2.3-2.4,3.4-5.3,3.4-8.8v-3.9
		c0-0.8,0.3-1.5,0.9-2.1c0.6-0.6,1.3-0.8,2.2-0.8h5.1c0.8,0,1.5,0.3,2.1,0.8c0.6,0.6,0.9,1.2,0.9,2.1V86z"/>
	<g>
		<path class="st0" d="M51,23.2c0,6.4-2.3,11.7-7,16.1C39.4,43.8,33.8,46,27.1,46c-6.7,0-12.3-2.2-16.9-6.6c-4.6-4.4-7-9.8-7-16.1
			c0-6.4,2.3-11.7,7-16.1c4.6-4.4,10.3-6.5,16.9-6.5c6.7,0,12.3,2.2,16.9,6.5C48.7,11.5,51,16.9,51,23.2z M40,23.2
			c0-3.6-1.2-6.7-3.7-9.1c-2.5-2.4-5.5-3.6-9.1-3.6c-3.6,0-6.6,1.2-9.1,3.6c-2.5,2.4-3.7,5.4-3.7,9.1c0,3.6,1.2,6.7,3.7,9.1
			c2.5,2.4,5.5,3.7,9.1,3.7c3.6,0,6.6-1.2,9.1-3.7C38.7,29.9,40,26.9,40,23.2z"/>
		<circle class="st0" cx="32.2" cy="18.2" r="7.3"/>
	</g>
	<g>
		<path class="st0" d="M112.7,100.5c0,6.4-2.3,11.7-7,16.1c-4.6,4.4-10.3,6.6-16.9,6.6c-6.7,0-12.3-2.2-16.9-6.6
			c-4.6-4.4-7-9.8-7-16.1c0-6.4,2.3-11.7,7-16.1c4.6-4.4,10.3-6.5,16.9-6.5c6.7,0,12.3,2.2,16.9,6.5
			C110.4,88.8,112.7,94.2,112.7,100.5z M101.7,100.5c0-3.6-1.2-6.7-3.7-9.1c-2.5-2.4-5.5-3.6-9.1-3.6c-3.6,0-6.6,1.2-9.1,3.6
			c-2.5,2.4-3.7,5.4-3.7,9.1c0,3.6,1.2,6.7,3.7,9.1c2.5,2.4,5.5,3.7,9.1,3.7c3.6,0,6.6-1.2,9.1-3.7
			C100.4,107.2,101.7,104.2,101.7,100.5z"/>
		<circle class="st0" cx="93.9" cy="95.5" r="7.3"/>
	</g>
	<g>
		<path class="st0" d="M570.5,23.2c0,6.4-2.3,11.7-7,16.1c-4.6,4.4-10.3,6.6-16.9,6.6c-6.7,0-12.3-2.2-16.9-6.6
			c-4.6-4.4-7-9.8-7-16.1c0-6.4,2.3-11.7,7-16.1c4.6-4.4,10.3-6.5,16.9-6.5c6.7,0,12.3,2.2,16.9,6.5
			C568.2,11.5,570.5,16.9,570.5,23.2z M559.4,23.2c0-3.6-1.2-6.7-3.7-9.1c-2.5-2.4-5.5-3.6-9.1-3.6c-3.6,0-6.6,1.2-9.1,3.6
			c-2.5,2.4-3.7,5.4-3.7,9.1c0,3.6,1.2,6.7,3.7,9.1c2.5,2.4,5.5,3.7,9.1,3.7c3.6,0,6.6-1.2,9.1-3.7
			C558.1,29.9,559.4,26.9,559.4,23.2z"/>
		<circle class="st0" cx="551.7" cy="18.2" r="7.3"/>
	</g>
</g>
</svg>
