<?xml version="1.0" encoding="utf-8"?>
<!-- Generator: Adobe Illustrator 21.1.0, SVG Export Plug-In . SVG Version: 6.00 Build 0)  -->
<svg version="1.1" id="Layer_1" xmlns="http://www.w3.org/2000/svg" xmlns:xlink="http://www.w3.org/1999/xlink" x="0px" y="0px"
	 viewBox="0 0 114 114" style="enable-background:new 0 0 114 114;" xml:space="preserve">
<style type="text/css">
	.st0{fill:#FFFFFF;}
</style>
<path class="st0" d="M57,3.5C27.5,3.5,3.5,27.5,3.5,57c0,29.5,24,53.5,53.5,53.5c29.5,0,53.5-24,53.5-53.5
	C110.5,27.5,86.5,3.5,57,3.5z M73.5,34c-3.1,0-6.4,0-8,0c-1.6,0-3.2,1.6-3.2,2.9c0,1.2,0,8.1,0,8.1s9.9,0,11.1,0
	c-0.4,6.2-1.4,12-1.4,12h-9.8v35.4H47.6V57h-7.1V45.1h7.1c0,0,0-8,0-9.7c0-1.8-0.4-13.7,15-13.7c2.1,0,6.7,0,10.9,0
	C73.5,26.8,73.5,32.4,73.5,34z"/>
</svg>
