<?xml version="1.0" encoding="utf-8"?>
<!-- Generator: Adobe Illustrator 22.0.1, SVG Export Plug-In . SVG Version: 6.00 Build 0)  -->
<svg version="1.1" id="Layer_1" xmlns="http://www.w3.org/2000/svg" xmlns:xlink="http://www.w3.org/1999/xlink" x="0px" y="0px"
	 viewBox="0 0 110 110" style="enable-background:new 0 0 110 110;" xml:space="preserve">
<style type="text/css">
	.st0{fill:#84CEBB;}
	.st1{fill:#B1E0DF;}
	.st2{fill:#FFFFFF;}
	.st3{fill:#009788;}
	.st4{fill:#00B7A5;}
	.st5{fill:#49C0B4;}
	.st6{fill:#3D948C;}
	.st7{fill:#15645C;}
	.st8{fill:#5BC4BA;}
</style>
<g>
	<circle class="st0" cx="55" cy="55" r="55"/>
</g>
<g>
	<g>
		<g>
			<path class="st1" d="M87,87H23v0c0-2.2,1.8-4,4-4H83C85.2,83,87,84.8,87,87L87,87z"/>
		</g>
	</g>
	<g>
		<g>
			<rect x="27" y="47" class="st2" width="56" height="36"/>
		</g>
	</g>
	<g>
		<g>
			<path class="st3" d="M32.1,47c0,2.2-2,4-4.6,4C25,51,23,49.2,23,47H32.1z"/>
		</g>
	</g>
	<g>
		<g>
			<path class="st1" d="M41.3,47c0,2.2-2,4-4.6,4c-2.5,0-4.6-1.8-4.6-4H41.3z"/>
		</g>
	</g>
	<g>
		<g>
			<path class="st3" d="M50.4,47c0,2.2-2,4-4.6,4c-2.5,0-4.6-1.8-4.6-4H50.4z"/>
		</g>
	</g>
	<g>
		<g>
			<path class="st1" d="M59.6,47c0,2.2-2,4-4.6,4s-4.6-1.8-4.6-4H59.6z"/>
		</g>
	</g>
	<g>
		<g>
			<path class="st1" d="M77.9,47c0,2.2-2,4-4.6,4s-4.6-1.8-4.6-4H77.9z"/>
		</g>
	</g>
	<g>
		<g>
			<path class="st3" d="M68.7,47c0,2.2-2,4-4.6,4c-2.5,0-4.6-1.8-4.6-4H68.7z"/>
		</g>
	</g>
	<g>
		<g>
			<path class="st3" d="M87,47c0,2.2-2,4-4.6,4c-2.5,0-4.6-1.8-4.6-4H87z"/>
		</g>
	</g>
	<g>
		<g>
			<polygon class="st4" points="23,47 32.1,47 40.1,27 32.1,27 			"/>
		</g>
	</g>
	<g>
		<g>
			<polygon class="st2" points="32.1,47 41.3,47 47,27 40.1,27 			"/>
		</g>
	</g>
	<g>
		<g>
			<polygon class="st4" points="41.3,47 50.4,47 53.9,27 47,27 			"/>
		</g>
	</g>
	<g>
		<g>
			<polygon class="st2" points="50.4,47 59.6,47 59.6,27 53.9,27 			"/>
		</g>
	</g>
	<g>
		<g>
			<polygon class="st4" points="87,47 77.9,47 72.1,27 79,27 			"/>
		</g>
	</g>
	<g>
		<g>
			<polygon class="st2" points="77.9,47 68.7,47 65.3,27 72.1,27 			"/>
		</g>
	</g>
	<g>
		<g>
			<polygon class="st4" points="68.7,47 59.6,47 59.6,27 65.3,27 			"/>
		</g>
	</g>
	<g>
		<g>
			<rect x="31" y="55" class="st5" width="28" height="16"/>
		</g>
	</g>
	<g>
		<g>
			<polygon class="st4" points="59,71 31,71 59,55 			"/>
		</g>
	</g>
	<g>
		<g>
			<rect x="65" y="55" class="st4" width="14" height="13"/>
		</g>
	</g>
	<g>
		<g>
			<rect x="65" y="71" class="st4" width="14" height="12"/>
		</g>
	</g>
	<g>
		<g>
			<path class="st6" d="M58,76c0.3-3.3-3.4-5.6-7.4-5.6c-2.3,0-4.4,0.8-5.8,2c-0.6-1.2-1.6-2-2.8-2c-1.1,0-2.1,0.7-2.7,1.8
				c-0.8-1.9-2.6-3.3-4.7-3.3c-2.5,0-4.6,1.8-5,4.3c-0.4-0.3-0.8-0.5-1.2-0.5c-1.4,0-2.4,1.5-2.3,3.3H58z"/>
		</g>
	</g>
	<g>
		<g>
			<rect x="26" y="76" class="st7" width="32" height="7"/>
		</g>
	</g>
	<g>
		<g>
			<rect x="26" y="76" class="st8" width="32" height="2"/>
		</g>
	</g>
</g>
</svg>
