<?xml version="1.0" encoding="utf-8"?>
<!-- Generator: Adobe Illustrator 22.0.1, SVG Export Plug-In . SVG Version: 6.00 Build 0)  -->
<svg version="1.1" id="Layer_1" xmlns="http://www.w3.org/2000/svg" xmlns:xlink="http://www.w3.org/1999/xlink" x="0px" y="0px"
	 viewBox="0 0 110 110" style="enable-background:new 0 0 110 110;" xml:space="preserve">
<style type="text/css">
	.st0{fill:#84CEBB;}
	.st1{fill:#B1E0DF;}
	.st2{fill:#FFFFFF;}
	.st3{fill:#5BC4BA;}
</style>
<g>
	<circle class="st0" cx="55" cy="55" r="55"/>
</g>
<g>
	<g>
		<g>
			<path class="st1" d="M91.7,41l-49,17.5v22.7c0,0.6,0.3,1.1,0.7,1.4c0.5,0.3,1.1,0.4,1.6,0.2l46.7-16.7V41z"/>
		</g>
	</g>
	<g>
		<g>
			<path class="st1" d="M18.3,43.6l24.5,14.9l3.5,22.7c0,0.6-0.3,1.1-0.7,1.4c-0.5,0.3-1.1,0.4-1.6,0.2L18.3,65.5V43.6z"/>
		</g>
	</g>
	<g>
		<g>
			<polygon class="st2" points="91.7,41 42.8,58.5 18.3,43.6 67.2,27 			"/>
		</g>
	</g>
	<g>
		<g>
			<circle class="st3" cx="64.6" cy="68.1" r="0.9"/>
		</g>
	</g>
	<g>
		<g>
			<circle class="st3" cx="87.4" cy="47.1" r="0.9"/>
		</g>
	</g>
	<g>
		<g>
			<circle class="st3" cx="81.2" cy="55" r="3.5"/>
		</g>
	</g>
	<g>
		<g>
			<circle class="st3" cx="54.1" cy="57.6" r="0.9"/>
		</g>
	</g>
	<g>
		<g>
			<path class="st3" d="M58.1,75.9C58.1,75.9,58.1,75.9,58.1,75.9c-0.7,0.9-0.6,1.7-0.2,2.3l3.2-1.1C61,75.8,59.5,74.9,58.1,75.9z"
				/>
		</g>
	</g>
	<g>
		<g>
			<circle class="st3" cx="75.1" cy="63.7" r="1.7"/>
		</g>
	</g>
	<g>
		<g>
			<circle class="st3" cx="51.5" cy="67.2" r="1.7"/>
		</g>
	</g>
	<g>
		<g>
			<ellipse class="st1" cx="69.9" cy="33.6" rx="2.6" ry="1.3"/>
		</g>
	</g>
	<g>
		<g>
			<ellipse class="st1" cx="64.2" cy="43" rx="2.2" ry="1.1"/>
		</g>
	</g>
	<g>
		<g>
			<ellipse class="st1" cx="77.3" cy="39.2" rx="3.9" ry="1.7"/>
		</g>
	</g>
	<g>
		<g>
			
				<ellipse transform="matrix(0.9116 -0.4111 0.4111 0.9116 -23.4933 16.0077)" class="st3" cx="25.5" cy="62.6" rx="1.3" ry="2.2"/>
		</g>
	</g>
	<g>
		<g>
			<ellipse transform="matrix(0.9116 -0.4111 0.4111 0.9116 -21.833 18.6882)" class="st3" cx="32.5" cy="60.1" rx="0.8" ry="1.1"/>
		</g>
	</g>
	<g>
		<g>
			<ellipse class="st1" cx="55.9" cy="48.9" rx="1.7" ry="0.9"/>
		</g>
	</g>
	<g>
		<g>
			<ellipse class="st1" cx="38.6" cy="46.9" rx="1.6" ry="0.7"/>
		</g>
	</g>
</g>
</svg>
