<?xml version="1.0" encoding="utf-8"?>
<!-- Generator: Adobe Illustrator 22.0.1, SVG Export Plug-In . SVG Version: 6.00 Build 0)  -->
<svg version="1.1" id="Layer_1" xmlns="http://www.w3.org/2000/svg" xmlns:xlink="http://www.w3.org/1999/xlink" x="0px" y="0px"
	 viewBox="0 0 110 110" style="enable-background:new 0 0 110 110;" xml:space="preserve">
<style type="text/css">
	.st0{fill:#84CEBB;}
	.st1{fill:#B1E0DF;}
	.st2{fill:#01B7A5;}
	.st3{fill:#FFFFFF;}
	.st4{fill:#DBF0F1;}
	.st5{fill:#0C3631;}
</style>
<g>
	<g>
		<circle class="st0" cx="55" cy="55" r="55"/>
	</g>
	<g>
		<g>
			<g>
				<path class="st1" d="M37,79c0,0,3.8-10.4-2.4-17.4c-0.3-0.4-0.3-1,0-1.3c2.1-2.3,6-2.3,11.4,7.7c1.4,2.6,4.4,2.5,7,1
					c4.9-2.8,12-11.8,19.5-9.6c0.3,0.1,0.6,0.4,0.7,0.7c0.1,0.3,0,0.7-0.3,1L47,87L37,79z"/>
			</g>
		</g>
		<g>
			<g>
				<path class="st2" d="M87,58c0,0.6-0.4,1-1,1H24c-0.6,0-1-0.4-1-1v-2c0-0.6,0.4-1,1-1h62c0.6,0,1,0.4,1,1V58z"/>
			</g>
		</g>
		<g>
			<g>
				<path class="st3" d="M55,27c1,0,2,0,3,0.1V24c0-0.6-0.4-1-1-1h-4c-0.6,0-1,0.4-1,1v3.1C53,27,54,27,55,27z"/>
			</g>
		</g>
		<g>
			<g>
				<path class="st4" d="M27,55c0,0-1-28,28-28s28,28,28,28H27z"/>
			</g>
		</g>
		<g>
			<g>
				<polygon class="st5" points="37,79 27,87 47,87 				"/>
			</g>
		</g>
		<g>
			<g>
				<path class="st3" d="M55,27c-29,0-28,28-28,28h28V27z"/>
			</g>
		</g>
		<g>
			<g>
				<path class="st1" d="M37,79c0,0,3.8-10.4-2.4-17.4c-0.3-0.4-0.3-1,0-1.3c2.1-2.3,6-2.3,11.4,7.7c1.4,2.6,4.4,2.5,7,1
					c4.9-2.8,12-11.8,19.5-9.6c0.3,0.1,0.6,0.4,0.7,0.7c0.1,0.3,0,0.7-0.3,1L47,87L37,79z"/>
			</g>
		</g>
		<g>
			<g>
				<path class="st4" d="M72.9,61.1c0.2-0.3,0.3-0.6,0.3-1c-0.1-0.3-0.3-0.6-0.7-0.7C65,57.2,57.9,66.2,53,69c-2.6,1.5-5.6,1.6-7-1
					c-5.5-10-9.3-10.1-11.4-7.7c-0.3,0.4-0.3,1,0,1.3C40.8,68.6,37,79,37,79l2.7,2.2l31-17.9L72.9,61.1z"/>
			</g>
		</g>
	</g>
</g>
</svg>
