<?xml version="1.0" encoding="utf-8"?>
<!-- Generator: Adobe Illustrator 22.0.1, SVG Export Plug-In . SVG Version: 6.00 Build 0)  -->
<svg version="1.1" id="Layer_1" xmlns="http://www.w3.org/2000/svg" xmlns:xlink="http://www.w3.org/1999/xlink" x="0px" y="0px"
	 viewBox="0 0 258 283" style="enable-background:new 0 0 258 283;" xml:space="preserve">
<style type="text/css">
	.st0{clip-path:url(#SVGID_2_);fill:#939598;}
	.st1{clip-path:url(#SVGID_2_);fill-rule:evenodd;clip-rule:evenodd;fill:#F1F2F2;}
	.st2{fill-rule:evenodd;clip-rule:evenodd;fill:#BCBEC0;}
	.st3{fill-rule:evenodd;clip-rule:evenodd;fill:#DCDDDE;}
	.st4{fill:#DCDDDE;}
	.st5{fill:#939598;}
	.st6{fill:#BCBEC0;}
	.st7{fill:#F1F2F2;}
	.st8{fill:#FFFFFF;}
	.st9{fill-rule:evenodd;clip-rule:evenodd;fill:#FFFFFF;}
</style>
<g>
	<defs>
		<rect id="SVGID_1_" width="258" height="283"/>
	</defs>
	<clipPath id="SVGID_2_">
		<use xlink:href="#SVGID_1_"  style="overflow:visible;"/>
	</clipPath>
	<path class="st0" d="M237.2,56.5c0,0-0.2,25.5-21.3,42.5c-1.2,1-2.5,1.8-3.8,2.6l1.1-39.1l-7.4,3.9l-6.9-3.9l-7.1,3.3l-8.4-3.5
		l-7.1,4.3l-3.3-1.7c2.9-4,6.5-7.9,11-11.4C208.9,34,237.2,56.5,237.2,56.5"/>
	<path class="st1" d="M171.8,0.9c0,0,13.2,20.3,15.8,50.1c-1.2,0.8-2.5,1.6-3.7,2.6c-4.5,3.5-8.1,7.4-11,11.4l-1.7-0.9
		c-2-11.5-10-37-42.1-37c-1.4,0-2.8,0.1-4.1,0.2C144.5-0.2,171.8,0.9,171.8,0.9 M125.8,66.8c1.8-7.8,2.7-17.4,0-26.4
		c-0.5-1.6-1.1-3.1-1.7-4.5c1.7-0.2,3.6-0.3,5.5-0.3c25.7,0,31.9,21,33.3,29.9l-2.5,1.4l-8.9-4.4l-7.5,5.4l-9.8-5.4l-7.3,4.8
		L125.8,66.8z"/>
</g>
<path class="st2" d="M23.9,50.9c0,0,30-12,63.6-2.4c0.2,1.2,0.5,2.3,0.9,3.5c0.4,1.1,0.8,2.1,1.3,3.1c-1.3,3.6-2.1,6.9-2.6,9.5
	L82,62.5l-8.9,3.9l-8.4-3.9L58,66.5l-7.4-3.9L52,112l-0.3-0.2C22.4,97.8,23.9,50.9,23.9,50.9"/>
<path class="st3" d="M98.5,11.4c0,0,12.2,5.6,20.7,16.6c-17.4,3.6-25.7,16.4-29.5,27.1c-0.5-1-0.9-2.1-1.3-3.1
	C82.6,34.6,98.5,11.4,98.5,11.4 M96.2,64.3c1.9-9.3,8.2-25.8,27.9-28.4c0.7,1.4,1.2,2.9,1.7,4.5c2.7,9,1.8,18.6,0,26.4l-8.4-4.3
	l-8,4.6l-9.3-4.6L96.2,64.3z"/>
<path class="st4" d="M196,222c23.3-4.3,42.2,4.2,42.2,4.2s-9.9,18.3-38.3,29.3c-4.5,1.8-9.3,3.1-14,4.1c2.1-2.8,4-5.9,5.3-9.2
	C195.1,241,196.1,230.8,196,222"/>
<path class="st4" d="M119,264c0,0-29.8,1.2-44.5-17.8c-14.6-19-11.4-45.6-11.4-45.6s16.8,0.5,38.8,17.5c5.6,4.3,9.4,9.4,12,14.5
	c-0.4,2.9-0.6,5.8-0.2,8.7c0.6,5.1,2.8,9.3,5.7,12.8C119.7,260,119,264,119,264"/>
<path class="st5" d="M0.2,141.7c0,0,6.4-8.8,18.7-16.9l0.3,0.4c7.2,9,21.7,6.2,21.7,6.2s0.7-8.1-3.8-15.5c4.5-1.5,9.5-2.8,14.9-3.5
	l1.8,64.8C22.9,170.7,0.2,141.7,0.2,141.7"/>
<path class="st6" d="M27.2,239.7c0,0-5.9-30.5,16.4-50.4c3.4-3.1,6.9-5.4,10.4-7.1l1.5,52.1C39.5,239.7,27.2,239.7,27.2,239.7"/>
<path class="st7" d="M125,259.6c-5.2-4.1-10.3-10.2-11.2-18.3c-1.9-17.1,11.8-34.4,11.8-34.4s13.6,5.4,18.6,24.8
	c0.4,1.7,0.8,3.3,1,4.9c-3.7,1.3-7.4,3.2-10.5,5.8C129.1,246.8,126.4,253.4,125,259.6"/>
<path class="st6" d="M152.2,282.8c0,0-1.8-5.7-2.3-14c2.6-1.5,5.2-3.4,7.7-5.5c14.3-12.5,12.3-29.8,12.3-29.8s-5.1-0.5-11.8,0.2
	c0.7-1.1,1.4-2.1,2.2-3.1c17.2-22.6,33-30.7,33-30.7s7.4,28-2,50.6C181.9,272.9,152.2,282.8,152.2,282.8"/>
<path class="st7" d="M40.9,131.4c0,0,1.2-13.9-9.5-21.9c-10.7-8-17.7-8-17.7-8s-1.6,14.7,5.5,23.7C26.4,134.2,40.9,131.4,40.9,131.4
	"/>
<path class="st5" d="M124.1,276.4c0,0,18.5,0,33.5-13.2c14.3-12.5,12.3-29.8,12.3-29.8s-22-2.1-35.3,8.9
	C121.3,253.2,124.1,276.4,124.1,276.4"/>
<path class="st6" d="M211.4,123.3c26.6,10,46.4,27,46.4,27s-8.8,40-48.8,61.1L211.4,123.3"/>
<polyline class="st8" points="98.6,124 98.6,103.8 115.7,128.5 115.7,99.1 118.8,96 109.2,96 112.3,99.1 112.3,113.3 100.2,96 
	92.1,96 95.2,99.1 95.2,124 92.1,127.1 101.8,127.1 98.6,124 "/>
<polyline class="st8" points="136.5,123.7 136.5,117.3 133,120.9 127,120.9 127,113.4 131.1,113.4 134,116.2 134,107.6 131.1,110.5 
	127,110.5 127,104.4 133.1,104.4 136.5,107.9 136.5,101.5 118.3,101.5 121.3,104.5 121.3,120.8 118.3,123.7 136.5,123.7 "/>
<polyline class="st8" points="150,127 154.4,115.1 158.7,127 162.4,127 169.4,107.9 172.5,104.8 162.7,104.8 165.7,107.7 
	161.7,119.3 157.8,107.7 160.8,104.8 148.8,104.8 151.9,107.9 152.6,110 149.4,119.3 145.6,107.7 148.5,104.8 136.5,104.8 
	139.5,107.9 146.4,127 150,127 "/>
<path class="st9" d="M73.4,132.2h-3.2V121h3.2c2.9,0,5.2,2.6,5.2,5.6C78.6,129.6,76.3,132.2,73.4,132.2 M61,147.1h12.3l-3.2-3.1
	v-8.8h3.2c5.7,0,11.9-2.8,11.9-8.6c0-5.8-6.2-8.6-11.9-8.6H61l3.1,3.1V144L61,147.1z"/>
<path class="st9" d="M110.9,140.6c0,4-0.9,8.8-4.9,8.8c-3.9,0-4.8-4.8-4.8-8.8c0-4,0.9-8.8,4.8-8.8
	C109.9,131.8,110.9,136.6,110.9,140.6 M106,128.9c-6.9,0-11.5,5.7-11.5,11.7c0,6,4.6,11.7,11.5,11.7c6.9,0,11.5-5.7,11.5-11.7
	C117.5,134.5,112.9,128.9,106,128.9z"/>
<path class="st9" d="M203.5,145.1l-3.2-3.2l-4.7-7.5c2-0.7,4.4-2.5,4.4-5.4c0-4.3-5.3-6.1-9.8-6.1h-10.2l3,3v16.3l-3,3h11.7l-3-3
	v-6.8h1.2l5.5,9.8H203.5 M188.9,132.4v-6.7h1.4c2,0,3.5,1.5,3.5,3.2c0,1.8-1.5,3.5-3.5,3.5H188.9z"/>
<polyline class="st8" points="127.7,150.8 124.7,147.8 124.7,135.7 139.1,153.9 139.1,131.6 142,128.6 132.6,128.6 135.5,131.6 
	135.5,140.8 125.8,128.6 118.3,128.6 121.2,131.6 121.2,147.8 118.3,150.8 127.7,150.8 "/>
<polyline class="st8" points="159.4,155.5 159.4,149 155.9,152.6 149.9,152.6 149.9,145.1 154,145.1 156.8,148 156.8,139.4 
	154,142.3 149.9,142.3 149.9,136.2 156,136.2 159.4,139.7 159.4,133.3 141.2,133.3 144.2,136.3 144.2,152.5 141.2,155.5 
	159.4,155.5 "/>
<polyline class="st8" points="179,152.5 179,146 175.4,149.6 169.5,149.6 169.5,142.1 173.6,142.1 176.4,145 176.4,136.4 
	173.6,139.3 169.5,139.3 169.5,133.2 175.5,133.2 179,136.7 179,130.3 160.8,130.3 163.7,133.3 163.7,149.5 160.8,152.5 179,152.5 
	"/>
<polyline class="st8" points="81.8,132.8 84.7,135.8 84.7,152.1 81.8,155 93.5,155 90.5,152.1 90.5,135.8 93.5,132.8 81.8,132.8 "/>
<path class="st9" d="M69.7,173.5c1.9,1.2,3.6,4.4,3.6,8.5c0,5-1.6,8.7-2.6,8.7c-0.8,0-1-2.5-1-7L69.7,173.5 M75.4,171.9l0-1.6h-5.7
	l0-6.8h-3.3l0,6.8h-2.3l0,1.6h2.3l0,11.7c0,7.6,0.8,9.8,3,9.8c2.8,0,5.7-4.8,5.8-11.5c0-4.5-2.4-8.7-4.6-10H75.4z"/>
<path class="st9" d="M84.7,169.8c2.3,0,4.2,3,4.2,6.6c0,3.7-1.9,6.6-4.2,6.6c-2.3,0-4.2-2.9-4.2-6.6
	C80.4,172.8,82.3,169.8,84.7,169.8 M90.5,176.4c0-4.9-3-8.9-6.8-8.9c-3.8,0-6.9,4-6.9,8.9c0,4.9,3.1,8.9,6.9,8.9
	C87.5,185.3,90.5,181.3,90.5,176.4z"/>
<path class="st9" d="M100.5,168.3c2.3,0,4.2,3,4.2,6.6c0,3.7-1.9,6.6-4.2,6.6c-2.3,0-4.2-2.9-4.2-6.6
	C96.2,171.2,98.1,168.3,100.5,168.3 M106.3,174.8c0-4.9-3-8.9-6.8-8.9c-3.8,0-6.9,4-7,8.9c0,4.9,3.1,8.9,6.9,8.9
	C103.3,183.7,106.3,179.7,106.3,174.8z"/>
<path class="st9" d="M118.5,178.1c0,3.7-1.8,6.6-3.4,6.6c-1.9,0-3.4-2.9-3.4-6.6c0-3.6,1.6-6.6,3.4-6.6
	C116.7,171.5,118.5,174.5,118.5,178.1 M125.1,183.6l0-1.4h-0.8l0,1.4c0,0.7-0.6,1.3-1.2,1.3s-1.3-0.6-1.3-1.3l0-20.4h-3.3l0,9.5
	c-0.9-2.1-2.9-3.5-4.5-3.5c-3.3,0-6,4-6,8.8c0,4.9,2.6,8.9,5.9,8.9c1.6,0,3.6-1.3,4.5-3.4c0,2.1,1.7,3.4,3.3,3.4
	C123.6,187,125.2,185.5,125.1,183.6z"/>
<path class="st9" d="M154.4,170.7c2.3,0,4.2,3,4.2,6.6c0,3.7-1.9,6.6-4.2,6.6c-2.3,0-4.2-2.9-4.2-6.6
	C150.2,173.7,152.1,170.7,154.4,170.7 M160.2,177.3c0-4.9-3-8.9-6.8-8.9c-3.8,0-6.9,4-7,8.9c0,4.9,3.1,8.9,6.9,8.9
	C157.3,186.2,160.2,182.2,160.2,177.3z"/>
<path class="st8" d="M166.8,176.6c0-1.3-1.1-2.4-2.4-2.4c-1.3,0-2.3,1.1-2.3,2.4c0,1.3,1.1,2.4,2.3,2.4
	C165.7,178.9,166.7,177.9,166.8,176.6"/>
<path class="st9" d="M176.2,168.7c2.3,0,4.2,3,4.2,6.6c0,3.7-1.9,6.6-4.2,6.6c-2.3,0-4.2-2.9-4.2-6.6
	C172,171.6,173.9,168.7,176.2,168.7 M182.1,175.2c0-4.9-3-8.9-6.8-8.9c-3.8,0-6.9,4-6.9,8.9c0,4.9,3.1,8.9,6.9,8.9
	C179.1,184.1,182,180.1,182.1,175.2z"/>
<path class="st9" d="M196.5,177.2c0,3.7-1.6,6.6-3.4,6.6c-1.7,0-3.4-3-3.4-6.6c0-3.7,1.8-6.6,3.4-6.6
	C195,170.7,196.5,173.6,196.5,177.2 M200.2,177.2c0-4.8-2.6-8.9-5.9-8.9c-1.6,0-3.6,1.4-4.6,3.4c-0.2-1.7-1.6-3-3.3-3
	c-1.8,0-3.3,1.5-3.4,3.3l0,1.4h0.9l0-1.4c0-0.7,0.5-1.3,1.2-1.3c0.6,0,1.3,0.6,1.2,1.3l0,20.1h3.3l0-9.6c0.8,2.1,2.8,3.5,4.6,3.5
	C197.6,186.1,200.2,182.1,200.2,177.2z"/>
<path class="st8" d="M144.4,171.2c0-2.4-2-5.2-5.8-5.2c-4.1,0-7.3,3.9-7.3,8.7c0,4.8,3.2,8.7,7.3,8.7c3,0,4.8-1.8,5.6-4.5l-1.3-0.4
	c-0.6,1.8-1.8,3.1-3.5,3.1c-3,0-4.1-3.3-4.1-6.9c0-3.6,1-6.9,4.1-6.9c1.1,0,2.3,0.7,2.9,1.6c-0.2,0-0.4,0-0.6,0
	c-1.1,0.2-1.9,1.1-1.9,2.2c0,1.3,1,2.2,2.3,2.2C143.3,173.8,144.4,172.9,144.4,171.2"/>
</svg>
