<?xml version="1.0" encoding="utf-8"?>
<!-- Generator: Adobe Illustrator 22.0.1, SVG Export Plug-In . SVG Version: 6.00 Build 0)  -->
<svg version="1.1" id="Layer_1" xmlns="http://www.w3.org/2000/svg" xmlns:xlink="http://www.w3.org/1999/xlink" x="0px" y="0px"
	 viewBox="0 0 49.2 42.4" style="enable-background:new 0 0 49.2 42.4;" xml:space="preserve">
<style type="text/css">
	.st0{fill:#FFFFFF;}
</style>
<g>
	<g>
		<path class="st0" d="M24.1,16.8v-6.4c0-3-1.5-4.8-3.2-5.6c-1.8-0.9-8.2-1.1-10.6-2.1C8.5,1.9,7.1,0.4,6.9,0v0v6.4
			c0,3,1.5,4.4,3.2,5.4c1.5,0.9,8.2,1.1,10.6,2.1C22.6,14.7,23.9,16.4,24.1,16.8L24.1,16.8z"/>
		<path class="st0" d="M24.1,27v-6.4c0-3-1.5-4.8-3.2-5.6c-1.8-0.9-8.2-1.1-10.6-2.1c-1.9-0.8-3.2-2.3-3.4-2.7v0v6.4
			c0,3,1.5,4.4,3.2,5.4c1.5,0.9,8.2,1.1,10.6,2.1C22.6,24.9,23.9,26.6,24.1,27L24.1,27z"/>
		<path class="st0" d="M25.1,16.8v-6.4c0-3,1.5-4.8,3.2-5.6c1.8-0.9,8.2-1.1,10.6-2.1c1.9-0.8,3.2-2.3,3.4-2.7v0v6.4
			c0,3-1.5,4.4-3.2,5.4c-1.5,0.9-8.2,1.1-10.6,2.1C26.6,14.7,25.3,16.4,25.1,16.8L25.1,16.8z"/>
		<path class="st0" d="M25.1,27v-6.4c0-3,1.5-4.8,3.2-5.6c1.8-0.9,8.2-1.1,10.6-2.1c1.9-0.8,3.2-2.3,3.4-2.7v0v6.4
			c0,3-1.5,4.4-3.2,5.4c-1.5,0.9-8.2,1.1-10.6,2.1C26.6,24.9,25.3,26.6,25.1,27L25.1,27z"/>
	</g>
	<g>
		<path class="st0" d="M2.5,29.5c-0.8,0-1.4,0.3-1.9,0.8C0.2,30.8,0,31.4,0,32.1c0,0.8,0.3,1.4,0.8,1.9c0.5,0.4,1.1,0.6,1.8,0.6
			c0.4,0,0.8-0.1,1.2-0.2c0.4-0.1,0.6-0.3,0.6-0.3v-1.4c0-0.2,0.1-0.4,0.2-0.5C4.7,32,4.8,32,5,32v-0.1H3.1V32
			c0.3,0,0.4,0.1,0.5,0.1c0.1,0.1,0.1,0.2,0.1,0.5v1.2c0,0.1,0,0.1-0.1,0.2c0,0-0.2,0.1-0.3,0.1c-0.1,0-0.2,0.1-0.3,0.1
			c-0.1,0-0.2,0-0.3,0c-0.5,0-1-0.2-1.3-0.6c-0.4-0.4-0.5-0.9-0.5-1.6c0-0.8,0.2-1.4,0.5-1.8c0.4-0.4,0.8-0.5,1.2-0.5
			c0.5,0,0.8,0.2,1.1,0.5c0.2,0.2,0.3,0.4,0.5,0.8h0.2l-0.1-1.5H4.2c0,0.1-0.1,0.1-0.1,0.2c0,0-0.1,0.1-0.2,0.1c0,0-0.2,0-0.5-0.1
			C3.1,29.5,2.8,29.5,2.5,29.5"/>
		<path class="st0" d="M13.8,34.4H16v-0.1c-0.3,0-0.5-0.1-0.6-0.1c-0.1-0.1-0.1-0.2-0.1-0.5v-3.3c0-0.3,0-0.4,0.1-0.5
			c0.1-0.1,0.3-0.1,0.6-0.1v-0.1h-2.2v0.1c0.3,0,0.5,0.1,0.6,0.1c0.1,0.1,0.1,0.3,0.1,0.5v3.3c0,0.3,0,0.5-0.1,0.5
			c-0.1,0.1-0.3,0.1-0.6,0.1V34.4z"/>
		<path class="st0" d="M18,34.4h1.7v-0.1c-0.3,0-0.4-0.1-0.5-0.2c-0.1-0.1-0.2-0.4-0.2-0.8v-2.8l3.2,4h0.1v-3.9c0-0.4,0-0.6,0.1-0.7
			c0.1-0.1,0.3-0.2,0.6-0.2v-0.1h-1.7v0.1c0.3,0,0.4,0.1,0.5,0.2c0.1,0.1,0.2,0.4,0.2,0.8v2.4l-2.8-3.5H18v0.1c0.2,0,0.3,0,0.3,0.1
			c0.1,0,0.2,0.1,0.3,0.2l0.1,0.1v3.2c0,0.4,0,0.6-0.1,0.7c-0.1,0.1-0.3,0.2-0.6,0.2V34.4z"/>
		<path class="st0" d="M25.1,34.4h1.7v-0.1c-0.3,0-0.4-0.1-0.5-0.2c-0.1-0.1-0.2-0.4-0.2-0.8v-2.8l3.2,4h0.1v-3.9
			c0-0.4,0-0.6,0.1-0.7c0.1-0.1,0.3-0.2,0.6-0.2v-0.1h-1.7v0.1c0.3,0,0.4,0.1,0.5,0.2c0.1,0.1,0.2,0.4,0.2,0.8v2.4l-2.8-3.5h-1.3
			v0.1c0.2,0,0.3,0,0.3,0.1c0.1,0,0.2,0.1,0.3,0.2l0.1,0.1v3.2c0,0.4,0,0.6-0.1,0.7c-0.1,0.1-0.3,0.2-0.6,0.2V34.4z"/>
		<path class="st0" d="M32.3,34.4h4l0.3-1.2h-0.2c-0.2,0.4-0.4,0.7-0.6,0.8c-0.2,0.1-0.6,0.2-1.1,0.2c-0.5,0-0.7,0-0.8,0
			c-0.1,0-0.1-0.1-0.1-0.3V32h1.1c0.3,0,0.5,0,0.6,0.1c0.1,0.1,0.2,0.3,0.2,0.6h0.2v-1.7h-0.2c-0.1,0.3-0.1,0.5-0.2,0.6
			c-0.1,0.1-0.3,0.1-0.6,0.1h-1.1v-1.6c0-0.1,0-0.2,0-0.2c0,0,0.1-0.1,0.2-0.1h1c0.4,0,0.7,0,0.8,0.1c0.1,0.1,0.2,0.3,0.3,0.6h0.2
			l0-1h-3.9v0.1c0.3,0,0.4,0.1,0.5,0.1c0.1,0.1,0.1,0.2,0.1,0.5v3.3c0,0.3,0,0.4-0.1,0.5c-0.1,0.1-0.3,0.1-0.5,0.1V34.4z"/>
		<path class="st0" d="M38.6,34.4h3.9l0.4-1.3h-0.2c-0.2,0.4-0.4,0.7-0.7,0.8c-0.2,0.1-0.7,0.2-1.3,0.2c-0.2,0-0.3,0-0.3,0
			c-0.1,0-0.1,0-0.2,0c-0.1,0-0.2,0-0.2-0.1c0,0,0-0.1,0-0.2v-3.5c0-0.2,0-0.4,0.1-0.5c0.1-0.1,0.3-0.1,0.5-0.1v-0.1h-2.1v0.1
			c0.3,0,0.4,0.1,0.5,0.1c0.1,0.1,0.1,0.2,0.1,0.5v3.3c0,0.3,0,0.4-0.1,0.5c-0.1,0.1-0.3,0.1-0.5,0.1V34.4z"/>
		<path class="st0" d="M44.9,34.4h3.9l0.4-1.3H49c-0.2,0.4-0.4,0.7-0.7,0.8c-0.2,0.1-0.7,0.2-1.3,0.2c-0.2,0-0.3,0-0.3,0
			c-0.1,0-0.1,0-0.2,0c-0.1,0-0.2,0-0.2-0.1c0,0,0-0.1,0-0.2v-3.5c0-0.2,0-0.4,0.1-0.5c0.1-0.1,0.3-0.1,0.5-0.1v-0.1h-2.1v0.1
			c0.3,0,0.4,0.1,0.5,0.1c0.1,0.1,0.1,0.2,0.1,0.5v3.3c0,0.3,0,0.4-0.1,0.5c-0.1,0.1-0.3,0.1-0.5,0.1V34.4z"/>
		<path class="st0" d="M11.4,34.2c-0.1-0.1-0.2-0.1-0.3-0.2l-1.5-1.9c0.4-0.1,0.7-0.2,1-0.4c0.2-0.2,0.4-0.5,0.4-0.8
			c0-0.5-0.3-0.9-0.8-1.1c-0.3-0.1-0.6-0.2-1.1-0.2H7v0.1c0.3,0,0.4,0.1,0.5,0.2c0.1,0.1,0.1,0.2,0.1,0.5v3.2c0,0.3,0,0.5-0.1,0.6
			c-0.1,0.1-0.2,0.1-0.5,0.2v0.1h2v-0.1c-0.3,0-0.5-0.1-0.5-0.1c-0.1-0.1-0.1-0.2-0.1-0.5v-1.4l0.3,0l1.8,2.3h1.2v-0.1
			C11.6,34.3,11.5,34.3,11.4,34.2z M8.4,31.9v-1.8c0-0.1,0-0.2,0.1-0.2c0,0,0.2,0,0.4,0c0.3,0,0.6,0,0.7,0.1
			c0.3,0.2,0.5,0.4,0.5,0.9c0,0.4-0.2,0.7-0.6,0.9C9.3,31.9,8.9,31.9,8.4,31.9z"/>
	</g>
	<g>
		<path class="st0" d="M5.1,37.3c-0.8,0-1.4,0.3-1.9,0.8c-0.5,0.5-0.7,1.1-0.7,1.8c0,0.7,0.2,1.3,0.6,1.7c0.5,0.5,1.1,0.8,1.9,0.8
			c0.5,0,0.9-0.1,1.3-0.4c0.2-0.2,0.4-0.3,0.6-0.5l-0.1-0.1c-0.2,0.2-0.4,0.4-0.6,0.5c-0.3,0.2-0.7,0.3-1,0.3c-0.5,0-1-0.2-1.3-0.6
			s-0.5-0.9-0.5-1.6c0-0.7,0.2-1.3,0.5-1.7c0.3-0.4,0.7-0.6,1.3-0.6c0.5,0,0.9,0.2,1.2,0.6c0.2,0.2,0.3,0.5,0.4,0.8h0.2l-0.1-1.6
			H6.7c0,0.1-0.1,0.1-0.1,0.2c-0.1,0-0.1,0.1-0.2,0.1c0,0-0.2,0-0.5-0.1C5.6,37.4,5.3,37.3,5.1,37.3"/>
		<path class="st0" d="M16.3,42.3h3.9l0.4-1.3h-0.2c-0.2,0.4-0.4,0.7-0.7,0.8c-0.2,0.1-0.7,0.2-1.3,0.2c-0.2,0-0.3,0-0.3,0
			c-0.1,0-0.1,0-0.2,0c-0.1,0-0.2,0-0.2-0.1c0,0,0-0.1,0-0.2v-3.5c0-0.2,0-0.4,0.1-0.5c0.1-0.1,0.3-0.1,0.5-0.1v-0.1h-2.1v0.1
			c0.3,0,0.4,0.1,0.5,0.1c0.1,0.1,0.1,0.2,0.1,0.5v3.3c0,0.3,0,0.4-0.1,0.5c-0.1,0.1-0.3,0.1-0.5,0.1V42.3z"/>
		<path class="st0" d="M22.6,42.3h3.9l0.4-1.3h-0.2c-0.2,0.4-0.4,0.7-0.7,0.8c-0.2,0.1-0.7,0.2-1.3,0.2c-0.2,0-0.3,0-0.3,0
			c-0.1,0-0.1,0-0.2,0c-0.1,0-0.2,0-0.2-0.1c0,0,0-0.1,0-0.2v-3.5c0-0.2,0-0.4,0.1-0.5c0.1-0.1,0.3-0.1,0.5-0.1v-0.1h-2.1v0.1
			c0.3,0,0.4,0.1,0.5,0.1c0.1,0.1,0.1,0.2,0.1,0.5v3.3c0,0.3,0,0.4-0.1,0.5c-0.1,0.1-0.3,0.1-0.5,0.1V42.3z"/>
		<path class="st0" d="M28.9,42.3h4l0.3-1.2H33c-0.2,0.4-0.4,0.7-0.6,0.8c-0.2,0.1-0.6,0.2-1.1,0.2c-0.5,0-0.7,0-0.8,0
			c-0.1,0-0.1-0.1-0.1-0.3v-1.8h1.1c0.3,0,0.5,0,0.6,0.1c0.1,0.1,0.2,0.3,0.2,0.6h0.2v-1.7h-0.2c-0.1,0.3-0.1,0.5-0.2,0.6
			c-0.1,0.1-0.3,0.1-0.6,0.1h-1.1V38c0-0.1,0-0.2,0-0.2c0,0,0.1-0.1,0.2-0.1h1c0.4,0,0.7,0,0.8,0.1c0.1,0.1,0.2,0.3,0.3,0.6h0.2l0-1
			h-3.9v0.1c0.3,0,0.4,0.1,0.5,0.1c0.1,0.1,0.1,0.2,0.1,0.5v3.3c0,0.3,0,0.4-0.1,0.5c-0.1,0.1-0.3,0.1-0.5,0.1V42.3z"/>
		<path class="st0" d="M37.8,37.3c-0.8,0-1.4,0.3-1.9,0.8c-0.4,0.5-0.6,1.1-0.6,1.8c0,0.8,0.3,1.4,0.8,1.9c0.5,0.4,1.1,0.6,1.8,0.6
			c0.4,0,0.8-0.1,1.2-0.2c0.4-0.1,0.6-0.3,0.6-0.3v-1.4c0-0.2,0.1-0.4,0.1-0.5c0.1,0,0.2-0.1,0.4-0.1v-0.1h-1.9v0.1
			c0.3,0,0.4,0.1,0.5,0.1c0.1,0.1,0.1,0.2,0.1,0.5v1.2c0,0.1,0,0.1-0.1,0.2c0,0-0.2,0.1-0.3,0.1c-0.1,0-0.2,0.1-0.3,0.1
			c-0.1,0-0.2,0-0.3,0c-0.5,0-1-0.2-1.3-0.6c-0.4-0.4-0.5-0.9-0.5-1.6c0-0.8,0.2-1.4,0.5-1.8c0.4-0.4,0.8-0.5,1.2-0.5
			c0.5,0,0.8,0.2,1.1,0.5c0.2,0.2,0.3,0.4,0.5,0.8h0.2l-0.1-1.5h-0.2c0,0.1-0.1,0.1-0.1,0.2c0,0-0.1,0.1-0.2,0.1c0,0-0.2,0-0.5-0.1
			C38.4,37.4,38.1,37.3,37.8,37.3"/>
		<path class="st0" d="M42.3,42.3h4l0.3-1.2h-0.2c-0.2,0.4-0.4,0.7-0.6,0.8c-0.2,0.1-0.6,0.2-1.1,0.2c-0.5,0-0.7,0-0.8,0
			c-0.1,0-0.1-0.1-0.1-0.3v-1.8h1.1c0.3,0,0.5,0,0.6,0.1c0.1,0.1,0.2,0.3,0.2,0.6h0.2v-1.7h-0.2c-0.1,0.3-0.1,0.5-0.2,0.6
			c-0.1,0.1-0.3,0.1-0.6,0.1h-1.1V38c0-0.1,0-0.2,0-0.2c0,0,0.1-0.1,0.2-0.1h1c0.4,0,0.7,0,0.8,0.1c0.1,0.1,0.2,0.3,0.3,0.6h0.2l0-1
			h-3.9v0.1c0.3,0,0.4,0.1,0.5,0.1c0.1,0.1,0.1,0.2,0.1,0.5v3.3c0,0.3,0,0.4-0.1,0.5c-0.1,0.1-0.3,0.1-0.5,0.1V42.3z"/>
		<path class="st0" d="M13.4,38c-0.5-0.4-1-0.7-1.7-0.7c-0.7,0-1.2,0.2-1.7,0.6c-0.5,0.5-0.7,1.1-0.7,1.9c0,0.7,0.2,1.4,0.7,1.8
			c0.5,0.5,1,0.7,1.7,0.7c0.6,0,1.2-0.2,1.6-0.6c0.5-0.5,0.8-1.1,0.8-1.9C14.1,39.1,13.9,38.4,13.4,38z M12.8,41.6
			c-0.3,0.4-0.7,0.5-1.1,0.5c-0.4,0-0.8-0.2-1.1-0.6c-0.3-0.4-0.5-0.9-0.5-1.7c0-0.8,0.2-1.3,0.5-1.7c0.3-0.4,0.7-0.6,1.1-0.6
			c0.4,0,0.8,0.2,1.1,0.5c0.3,0.4,0.5,0.9,0.5,1.7C13.3,40.6,13.1,41.2,12.8,41.6z"/>
	</g>
</g>
</svg>
