<?xml version="1.0" encoding="utf-8"?>
<!-- Generator: Adobe Illustrator 22.0.1, SVG Export Plug-In . SVG Version: 6.00 Build 0)  -->
<svg version="1.1" id="Layer_1" xmlns="http://www.w3.org/2000/svg" xmlns:xlink="http://www.w3.org/1999/xlink" x="0px" y="0px"
	 viewBox="0 0 49.7 45.7" style="enable-background:new 0 0 49.7 45.7;" xml:space="preserve">
<style type="text/css">
	.st0{fill:#FFFFFF;}
</style>
<g>
	<path class="st0" d="M47,33.4c0.1-0.2,0.3-0.4,0.4-0.7c0.3-0.4,0.5-0.7,0.7-1c0.2-0.3,0.4-0.6,0.9-1.1h-1.6l-0.2,0.4h0.3
		c0.2,0,0.2,0,0.3,0.1c0,0.1,0,0.3-0.2,0.6l-1,1.4L45,30.7h0h-1.2h-3.9l-0.1,1.2h0.5l0-0.3c0-0.2,0.1-0.2,0.2-0.3
		c0.3-0.2,0.9-0.2,1.4-0.2v4.4c0,0.2,0,0.3-0.1,0.5c0,0.1-0.1,0.2-0.2,0.3h1.8l0.1-0.4h-0.3c-0.2,0-0.3,0-0.5-0.2
		c-0.1-0.1-0.1-0.2-0.1-0.4v-4.3c0.3,0,1.2,0,1.4,0.2c0.2,0.2,0.6,0.7,0.6,0.7c0.1,0.2,0.3,0.4,0.4,0.6c0.3,0.5,0.6,0.9,0.8,1.4v1.4
		c0,0.2,0,0.4-0.1,0.6c0,0.1-0.1,0.2-0.2,0.3h1.8l0.2-0.4h-0.3c-0.2,0-0.4,0-0.5-0.2c-0.1-0.1-0.1-0.2-0.1-0.4c0,0,0-1.3,0-1.5
		C46.8,33.7,46.9,33.6,47,33.4z"/>
	<path class="st0" d="M35.5,33L35,32.8c-0.6-0.3-1.1-0.5-1-1c0.1-1,2.2-1.1,2,0.1h0.5l0.3-1.1c-0.5-0.1-1-0.2-1.5-0.2
		c-1.2,0-2.3,0.6-2.2,1.5c0.1,0.7,0.6,1,1.3,1.3l0.6,0.3c0.7,0.3,1.2,0.6,1.2,1.1c0,0.6-0.6,1.1-1.4,1.1c-1.1,0-1.5-0.3-1.5-0.3
		c0,0-2.1-2.3-2.1-2.3c0.8-0.2,1.4-0.7,1.4-1.4c0-0.9-1-1.2-1.9-1.2l-2.3,0L28.1,31h0.2c0.2,0,0.3,0,0.3,0.1
		c0.1,0.1,0.2,0.5,0.2,0.9v3.6c0,0.3-0.1,0.5-0.2,0.7h1.7l0.1-0.4h-0.2c-0.3,0-0.4-0.2-0.4-0.5l0-4.3c0.9-0.2,1.9,0.1,1.9,0.9
		c0,0.6-0.6,1.1-1.7,1.1l2.7,3.1c0,0,1.5,0.1,2,0.1c1.3,0,2.4-0.7,2.4-1.8C37,33.8,36.3,33.4,35.5,33z"/>
	<g>
		<path class="st0" d="M17.2,21h-0.5l0-0.2c0-0.3,0-0.5-0.2-0.8c-0.3-0.3-1.3-0.2-1.9-0.3v6.3c0,0.2,0,0.5,0.1,0.6
			c0.2,0.2,0.4,0.3,0.7,0.3h0.2l-0.1,0.4h-2.1c0.1-0.1,0.1-0.2,0.2-0.3c0.1-0.3,0.1-0.5,0.1-0.8l0-6.5c-0.7,0-1.6,0-2,0.3
			c-0.2,0.2-0.3,0.3-0.3,0.5l0,0.3h-0.5l0.2-1.6h6.6L17.2,21z"/>
		<path class="st0" d="M23,27.3h-1.6c0.1-0.3,0.1-0.4,0.1-0.7v-2.4c-0.2,0.2-0.5,0.2-0.8,0.2c-0.3,0-0.6,0-0.8,0c-0.5,0-0.8,0-1.2,0
			v1.9c0,0.3,0.1,0.5,0.5,0.5h0.2l-0.1,0.4h-1.7c0.1-0.2,0.2-0.4,0.2-0.7c0-0.1,0-0.2,0-0.4v-3.4c0-0.2,0-0.5-0.1-0.7
			C17.6,22,17.5,22,17.3,22h-0.2l0.2-0.4h1.5c0,0.1-0.1,0.1-0.1,0.2c0,0.2,0,0.6,0,0.7V24h2.9l0-1.2c0-0.2,0-0.5-0.1-0.7
			C21.3,22,21.2,22,21,22h-0.2l0.2-0.4h1.5c0,0.1-0.1,0.1-0.1,0.2c0,0.2,0,0.6,0,0.7v3.8c0,0.3,0.1,0.5,0.5,0.5h0.2L23,27.3z"/>
		<path class="st0" d="M27.7,27.3l-4,0c0.1-0.1,0.2-0.2,0.2-0.4c0.1-0.2,0-0.4,0-0.7V23c0-0.2,0-0.6-0.1-0.8
			c-0.1-0.2-0.2-0.2-0.4-0.2h-0.2l0.1-0.4c0,0,4,0,4.1,0l-0.2,1.2h-0.5c0-0.3,0-0.5-0.2-0.6S26,22,25.5,22c-0.3,0-0.4,0-0.7,0.1V24
			h2.3c-0.1,0.4-0.4,0.5-0.8,0.5c-0.2,0-0.3,0-0.5,0c-0.4,0-0.6,0-0.9,0v1.7c0,0.2,0.1,0.4,0.1,0.5c0.1,0.1,0.5,0.2,0.9,0.2
			c0.4,0,0.8,0,1.1-0.3c0.2-0.2,0.3-0.3,0.3-0.6h0.6L27.7,27.3z"/>
	</g>
	<path class="st0" d="M7.8,36.3H6l0-0.7c-1.2,0.6-2.4,1.1-3.8,0.7c-1.6-0.5-1.5-2.3-1.5-4c0-1.3,0.3-2.8,0.1-3.3
		c-0.1-0.2-0.3-0.3-0.6-0.3H0l0.1-0.4h2C2,28.5,2,28.6,2,28.7c-0.1,0.5-0.3,2.4-0.3,3.7c0,1.5,0.1,2.8,1.4,3.2
		c1.1,0.3,2.1,0,2.9-0.6v-5.4c0-0.3,0-0.6-0.2-0.8c-0.2-0.2-0.3-0.2-0.6-0.2H5.1l0.1-0.4h2C7.1,28.5,7,28.6,7,28.8
		c-0.1,0.3,0,0.5,0,0.9v5.1c0,0.4,0,0.8,0.3,1c0.2,0.1,0.3,0.2,0.6,0.2H8L7.8,36.3z"/>
	<path class="st0" d="M13.8,31.1c0,0.2-0.1,0.6-0.1,0.8l0,4.4H13c0-0.2-0.1-0.3-0.2-0.5c-0.1-0.2-0.2-0.3-0.3-0.5l-3.1-3.6v3.1
		c0,0.3,0,0.8,0.1,0.8c0.1,0.1,0.3,0.2,0.4,0.2l0.2,0L10,36.3H8.4c0.1-0.1,0.2-0.3,0.3-0.4c0.1-0.3,0.1-0.5,0.1-0.8l0-3.3
		c0-0.2,0-0.5-0.1-0.7c-0.1-0.1-0.2-0.1-0.4-0.1H8.1l0.2-0.4h1.6c0.1,0.3,0.3,0.5,0.5,0.8l2.8,3.3V32c0-0.3,0-0.6-0.1-0.8
		c-0.1-0.1-0.2-0.1-0.4-0.1h-0.2l0.1-0.4H14C13.9,30.8,13.8,31,13.8,31.1z"/>
	<path class="st0" d="M16.8,36.3h-1.8c0.1-0.1,0.1-0.2,0.2-0.3c0.1-0.2,0.1-0.3,0.1-0.5v-3.9c0-0.2,0-0.3-0.1-0.4
		c-0.1-0.1-0.2-0.2-0.3-0.2h-0.2l0.1-0.4h1.6c-0.1,0.1-0.1,0.2-0.2,0.3c-0.1,0.2-0.1,0.4-0.1,0.7v3.7c0,0.2,0,0.3,0.1,0.4
		c0.1,0.1,0.2,0.1,0.4,0.1H17L16.8,36.3z"/>
	<path class="st0" d="M22,32.1c-0.2,0.4-0.4,0.9-0.7,1.5c-0.4,1-0.9,2.1-0.9,2.7h-0.7c-0.1-0.5-0.6-1.8-1-2.9
		c-0.3-0.9-0.9-2-1.1-2.2c-0.1-0.1-0.3-0.3-0.4-0.3H17l0.1-0.4l1.4,0l1.7,4.3l1.3-3.1c0.1-0.2,0.1-0.5,0.1-0.6
		c-0.1-0.1-0.2-0.2-0.3-0.2h-0.2l0.1-0.4h1.7C22.4,31.3,22.2,31.7,22,32.1z"/>
	<path class="st0" d="M27.6,36.3l-4,0c0.1-0.1,0.2-0.2,0.2-0.4c0.1-0.2,0-0.4,0-0.7v-3.2c0-0.2,0-0.6-0.1-0.8
		c-0.1-0.2-0.2-0.2-0.4-0.2h-0.2l0.1-0.4c0,0,4,0,4.1,0l-0.2,1.2h-0.5c0-0.3,0-0.5-0.2-0.6c-0.2-0.2-0.7-0.2-1.2-0.2
		c-0.3,0-0.4,0-0.7,0.1V33H27c-0.1,0.4-0.4,0.5-0.8,0.5c-0.2,0-0.3,0-0.5,0c-0.4,0-0.6,0-0.9,0v1.7c0,0.2,0.1,0.4,0.1,0.5
		c0.1,0.1,0.5,0.2,0.9,0.2c0.4,0,0.8,0,1.1-0.3c0.2-0.2,0.3-0.3,0.3-0.6h0.6L27.6,36.3z"/>
	<path class="st0" d="M39.6,36.3h-1.8c0.1-0.1,0.1-0.2,0.2-0.3c0.1-0.2,0.1-0.3,0.1-0.5v-3.9c0-0.2,0-0.3-0.1-0.4
		c-0.1-0.1-0.2-0.2-0.3-0.2h-0.2l0.1-0.4h1.6c-0.1,0.1-0.1,0.2-0.2,0.3c-0.1,0.2-0.1,0.4-0.1,0.7v3.7c0,0.2,0,0.3,0.1,0.4
		c0.1,0.1,0.2,0.1,0.4,0.1h0.3L39.6,36.3z"/>
	<path class="st0" d="M18.8,42.4c0.3,1.3-0.4,2.6-1.7,2.8c-1.4,0.3-2.5-0.8-2.7-2.1c-0.2-1.3,0.3-2.6,1.7-2.8
		C17.4,40.1,18.6,41.1,18.8,42.4z M19.8,42.4c-0.2-1.6-1.6-2.8-3.6-2.5c-1.9,0.3-3,1.6-2.8,3.3c0.2,1.6,1.5,2.7,3.5,2.5
		C18.9,45.4,20,44,19.8,42.4z"/>
	<path class="st0" d="M24,41.2h-0.5c0-0.3,0-0.5-0.2-0.6c-0.2-0.2-0.6-0.2-1.1-0.2c-0.3,0-0.4,0-0.7,0.1v1.9h2.3
		c0,0.1-0.1,0.4-0.3,0.4c-0.2,0.1-0.6,0.1-1,0.1c-0.4,0-0.6,0-0.9,0v1.8c0,0.2,0.1,0.4,0.1,0.5c0.1,0.1,0.2,0.1,0.4,0.1
		c0.1,0,0.2,0,0.3,0c-0.1,0.2-0.1,0.4-0.1,0.4h-1.8c0.1-0.1,0.2-0.2,0.2-0.4c0.1-0.2,0-0.4,0-0.6v-3.2c0-0.2,0-0.7-0.1-0.8
		c-0.1-0.1-0.2-0.2-0.4-0.2H20l0.2-0.4c0,0,3.8,0,4,0L24,41.2z"/>
	<path class="st0" d="M29.6,45.6h-2.1c0.1-0.1,0.1-0.2,0.2-0.3c0.1-0.3,0.1-0.5,0.1-0.8l0-5.6c0-0.2,0-0.5-0.2-0.6
		c-0.1-0.1-0.3-0.2-0.5-0.2H27l0.1-0.4H29c-0.1,0.1-0.1,0.1-0.2,0.3c-0.1,0.3-0.1,0.7-0.1,1.1v5.4c0,0.2,0,0.5,0.1,0.6
		c0.2,0.2,0.4,0.3,0.7,0.3h0.2L29.6,45.6z"/>
	<path class="st0" d="M35.4,42.4c0.3,1.3-0.4,2.6-1.7,2.8c-1.4,0.3-2.5-0.8-2.7-2.1c-0.2-1.3,0.3-2.6,1.7-2.8
		C34,40.1,35.1,41.1,35.4,42.4z M36.4,42.4c-0.2-1.6-1.6-2.8-3.6-2.5c-1.9,0.3-3,1.6-2.8,3.3c0.2,1.6,1.5,2.7,3.5,2.5
		C35.4,45.4,36.6,44,36.4,42.4z"/>
	<path class="st0" d="M44.1,41.4c-0.2,0.4-0.4,0.9-0.7,1.5c-0.4,1-0.8,2.1-0.8,2.7h-0.7c-0.1-0.5-0.5-1.6-0.9-2.8
		c-0.1-0.2-0.1-0.4-0.2-0.6c-0.1,0.2-0.2,0.4-0.4,0.9c-0.4,1-0.7,1.9-0.8,2.5h-0.8c-0.1-0.5-0.6-1.8-1-2.9c-0.3-0.9-0.9-2-1.1-2.2
		c-0.1-0.1-0.3-0.2-0.4-0.2h-0.2l0.1-0.4h1.4l1.6,4.3c0.3-0.6,1.1-2.6,1.1-2.6c-0.2-0.6-0.4-1-0.5-1.1c-0.1-0.1-0.3-0.2-0.4-0.2
		h-0.2l0.1-0.4h1.5c0.5,1.2,1.1,3.1,1.5,4.2l1.2-3c0.1-0.2,0.2-0.6,0.1-0.7c-0.1-0.1-0.2-0.2-0.4-0.2h-0.2l0.1-0.4H45
		C44.5,40.5,44.3,40.9,44.1,41.4z"/>
	<path class="st0" d="M47.3,43c-0.6,0-1.1,0-1.6,0l0.8-2.1L47.3,43z M49.7,45.2h-0.2c-0.2,0-0.3-0.1-0.4-0.3c-0.2-0.2-0.7-1.3-1-2.2
		c-0.4-1.1-0.9-2.3-1-2.9h-1.3c0.3,0.6-0.2,1.7-0.6,2.7c-0.5,1.2-0.8,1.8-1.6,3h1.8l0.1-0.4h-0.2c-0.2,0-0.3-0.1-0.4-0.2
		c0-0.1,0-0.4,0.1-0.6l0.4-0.9h1.3c0.3,0,0.5-0.1,0.7-0.3l0.9,2.3h1.4L49.7,45.2z"/>
	<g>
		<path class="st0" d="M40.1,3.7c0,0.4,0,1,0.2,1.1c0.5,0.3,1.4,0.6,1.7,0.9c0.1,0.1,0,0.7-0.2,0.6c-1.4-0.3-1.5-0.3-2.5-0.3
			c-0.1,0-0.3-0.4-0.3-0.7c0-0.2,0.2-0.4,0.3-0.7c0.2-0.5,0-2.7,0.1-4.2c0-0.3,0-0.5,0.4-0.5c0.3,0,0.3,0.2,0.3,0.5
			C40,1.5,40.1,2.6,40.1,3.7z"/>
		<path class="st0" d="M45.7,15.3c0.1,0,0.8-0.1,1.2,0c0.1,0,0.2,0.1,0.2,0.1c0.1,0.1,0.1,0.7,0.1,0.8c0,0.3-0.2,0.5-0.2,0.8
			c0,2.4,0.1,5.3,0,5.8c-0.2,0.9-0.2,1-0.5,1c-0.1,0-0.2,0-0.3-0.3c0-0.2-0.1-0.6-0.1-1c0-1,0-3.6,0-4.6c0-0.9-0.3-1-0.3-1
			c-0.1-0.1-0.2-0.1-0.2-0.2c-0.1-0.3,0-1,0.1-1.3C45.6,15.4,45.6,15.3,45.7,15.3z"/>
		<path class="st0" d="M47.5,26.1c-0.8,0-2.1,0-2.3-0.1c-0.2-0.1-0.1-0.3-0.2-0.8c-0.1-3.1,0-6.1,0-9.2c0-0.3-0.1-0.7-0.5-0.7
			c-0.5,0-1.4,0-1.5,0c-0.1,0-0.1,0.1-0.2,0.2c-0.1,0.3-0.2,1-0.2,1.3c0,0.1,0.1,0.2,0.2,0.3c0.5,0.1,0.7,0.4,0.7,1
			c0,2.3,0.1,6.9-0.2,7.6c-0.2,0.4-0.9,0.6-1,0.2c-0.1-0.3-0.1-7.1-0.1-9.9c0-0.5-0.2-0.7-0.7-0.7c-0.7,0-1.3,0-2,0
			c-0.1,0-0.2,0-0.2,0.2c-0.2,0.4-0.2,1.3-0.2,1.4c0,0,0.1,0.1,0.2,0.1c0.9,0.1,1.3,0.5,1.4,1.5c0,1.4,0.2,6.9-0.4,7.4
			c-0.3,0.2-1.2,0.2-1.4,0.1c-0.2-0.1-0.3-0.2-0.3-0.3c-0.2-1.6,0.1-9.7-0.1-10.2c-0.1-0.2-0.1-0.2-0.3-0.2c-0.3-0.1-1.5,0-1.7-0.1
			c0,0-0.1,0-0.2-0.1c0-0.3,0-0.6,0.1-0.8c0.1-0.1,0.2-0.1,0.3-0.1c3.6,0,8.6,0,10.5,0c0.1,0,0.3,0,0.4-0.2c0.1-0.2,0.2-0.8,0.1-0.9
			c0-0.1-0.1-0.1-0.2-0.2c-0.2,0-8,0-11.9-0.1c-0.2,0-0.6,0-0.6-0.2c-0.1-0.2,0-0.6,0.1-0.8c0.4-0.8,0.7-0.6,1-1.7
			c0.1-0.7-0.1-1.2,0.2-1.8c0.4-0.7,0.8-1,1.1-1.5c0.2-0.3-0.2-0.8-0.6-0.7c-0.3,0.1-1.9,1.2-2.8,2.7c-0.7,1.2-0.9,2.4-1.4,3.7
			c-0.1,0.3-0.3,0.4-0.8,0.4c-0.3,0-0.4,1.1-0.2,1.3c0,0,0.1,0.1,0.2,0.1c0.4,0.1,0.6,0.6,0.6,1.2c0,0,0.1,9.2-0.2,10.2
			c-0.2,0.7-0.4,0.6-0.5,0.7c0,0-0.1,0-0.1,0.1c-0.1,0.2-0.2,0.7-0.1,0.9c0,0.1,0.1,0.1,0.2,0.1c6.1,0,13.3,0,15.8,0
			c0.1,0,0.2,0,0.2-0.2c0.1-0.2,0.1-0.6,0.1-0.8C47.8,26.1,47.7,26.1,47.5,26.1z M34,25.8c-0.3,0.3-0.6,0.4-0.6,0.1c0-2.5,0-7.9,0-8
			c0.1-0.3,0.5-0.4,0.7,0C34.4,18.4,34.5,25.3,34,25.8z M36.8,25.8c-0.3,0.3-0.9,0.5-1.1,0.1c-0.2-0.6-0.1-8.4-0.1-8.6
			c0.1-0.3,0.6-0.3,0.8-0.1c0.5,0.3,0.5,0.6,0.6,1.3C37.2,20.6,37.3,25.3,36.8,25.8z"/>
	</g>
</g>
</svg>
