<?xml version="1.0" encoding="utf-8"?>
<!-- Generator: Adobe Illustrator 21.1.0, SVG Export Plug-In . SVG Version: 6.00 Build 0)  -->
<svg version="1.1" id="Layer_1" xmlns="http://www.w3.org/2000/svg" xmlns:xlink="http://www.w3.org/1999/xlink" x="0px" y="0px"
	 viewBox="0 0 114.5 114.5" style="enable-background:new 0 0 114.5 114.5;" xml:space="preserve">
<style type="text/css">
	.st0{fill:#FFFFFF;}
</style>
<path class="st0" d="M57.3,3.5C27.6,3.5,3.5,27.6,3.5,57.3S27.6,111,57.3,111S111,86.9,111,57.3S86.9,3.5,57.3,3.5z M81.2,45
	c0,0.5,0,1.1,0,1.6c0,16.3-12.4,35.1-35.1,35.1c-7,0-13.5-2-18.9-5.5c1,0.1,1.9,0.2,2.9,0.2c5.8,0,11.1-2,15.3-5.3
	c-5.4-0.1-10-3.7-11.5-8.6c0.8,0.1,1.5,0.2,2.3,0.2c1.1,0,2.2-0.2,3.3-0.4c-5.7-1.1-9.9-6.1-9.9-12.1c0-0.1,0-0.1,0-0.2
	c1.7,0.9,3.6,1.5,5.6,1.5c-3.3-2.2-5.5-6-5.5-10.3c0-2.3,0.6-4.4,1.7-6.2c6.1,7.5,15.2,12.4,25.5,12.9c-0.2-0.9-0.3-1.8-0.3-2.8
	c0-6.8,5.5-12.3,12.4-12.3c3.6,0,6.8,1.5,9,3.9c2.8-0.6,5.5-1.6,7.8-3c-0.9,2.9-2.9,5.3-5.4,6.8c2.5-0.3,4.9-1,7.1-1.9
	C85.7,41.1,83.6,43.2,81.2,45z"/>
</svg>
